<?xml version="1.0" encoding="utf-8"?>
<!-- Generator: Adobe Illustrator 18.1.1, SVG Export Plug-In . SVG Version: 6.00 Build 0)  -->
<!DOCTYPE svg PUBLIC "-//W3C//DTD SVG 1.1//EN" "http://www.w3.org/Graphics/SVG/1.1/DTD/svg11.dtd">
<svg version="1.1" id="Layer_1" xmlns="http://www.w3.org/2000/svg" xmlns:xlink="http://www.w3.org/1999/xlink" x="0px" y="0px"
	 width="893.5px" height="167px" viewBox="0 0 893.5 167" enable-background="new 0 0 893.5 167" xml:space="preserve">
<g id="Layer_2">
	<defs>
		<filter id="Adobe_OpacityMaskFilter" filterUnits="userSpaceOnUse" x="397.2" y="4.3" width="100.5" height="102.6">
			<feColorMatrix  type="matrix" values="1 0 0 0 0  0 1 0 0 0  0 0 1 0 0  0 0 0 1 0"/>
		</filter>
	</defs>
	<mask maskUnits="userSpaceOnUse" x="397.2" y="4.3" width="100.5" height="102.6" id="SVGID_2_">
		<g filter="url(#Adobe_OpacityMaskFilter)">
			<g>
				<g>
					<defs>
						<rect id="SVGID_1_" x="390.6" y="-4.8" width="108.5" height="120"/>
					</defs>
					<clipPath id="SVGID_3_">
						<use xlink:href="#SVGID_1_"  overflow="visible"/>
					</clipPath>
					<g>
						<g transform="matrix(1 0 0 1 0 7.629395e-06)" clip-path="url(#SVGID_3_)" enable-background="new    ">
							
								<image overflow="visible" width="544" height="502" xlink:href="12CDC4A41801C678.jpg"  transform="matrix(9.702233e-12 -0.2205 0.2161 9.506479e-12 390.6828 115.2029)">
							</image>
						</g>
					</g>
				</g>
			</g>
		</g>
	</mask>
	<g display="none" mask="url(#SVGID_2_)">
		<g display="inline">
			<g>
				<defs>
					<rect id="SVGID_4_" x="397.2" y="4.3" width="100.5" height="102.6"/>
				</defs>
				<clipPath id="SVGID_5_">
					<use xlink:href="#SVGID_4_"  overflow="visible"/>
				</clipPath>
				
					<rect x="397.2" y="4.3" opacity="0.69" clip-path="url(#SVGID_5_)" fill="#231F20" enable-background="new    " width="100.5" height="102.6"/>
			</g>
		</g>
	</g>
	<path fill="#383B96" d="M489.4,57c0-24.5-19.4-44.3-43.4-44.3S402.5,32.5,402.5,57s19.4,44.3,43.4,44.3S489.4,81.4,489.4,57"/>
	<path fill="#FFFFFF" d="M482.1,57c0-20.4-16.2-36.9-36.2-36.9S409.7,36.6,409.7,57s16.2,36.9,36.2,36.9
		C465.9,93.9,482.1,77.4,482.1,57"/>
	
		<path fill="none" stroke="#F27324" stroke-width="4" stroke-linecap="round" stroke-linejoin="round" stroke-dasharray="0,7.822" d="
		M492.8,53.4C491.1,29.1,471.6,9.8,447.7,9"/>
	
		<path fill="none" stroke="#F27324" stroke-width="4" stroke-linecap="round" stroke-linejoin="round" stroke-dasharray="0,7.822" d="
		M442.4,9.1c-23.8,1.8-42.6,21.6-43.5,46.1"/>
	
		<path fill="none" stroke="#F27324" stroke-width="4" stroke-linecap="round" stroke-linejoin="round" stroke-dasharray="0,7.822" d="
		M399,60.6c1.8,24.3,21.2,43.5,45.1,44.4"/>
	
		<path fill="none" stroke="#F27324" stroke-width="4" stroke-linecap="round" stroke-linejoin="round" stroke-dasharray="0,7.822" d="
		M449.5,104.9c23.8-1.8,42.6-21.6,43.5-46.1"/>
	<g>
		<polygon fill="#3D52A3" points="433.4,35.2 432,45.4 463.5,45.4 471.1,35.2 		"/>
		<polygon fill="#3D52A3" points="450.9,62.7 456,55.8 458.5,52.3 431,52.3 427.8,74.9 435.5,81.3 437,82.6 439.8,62.7 		"/>
	</g>
	<path fill="#F37423" d="M447.8,63.2c0.6,0,1.2,0,1.9,0c0.4,0,0.7,0.1,0.9,0.6c0,0.1,0.1,0.2,0.1,0.2l5.3-7l3.7-4.9
		c-0.2,0-0.5,0-0.7,0.2c-0.5,0.2-0.9,0.2-1.4-0.1c-1.4-0.7-2.9-1.2-4.4-1.4c-1.5-0.2-2.9,0.5-4.2,1c-0.2,0.1-0.5,0.2-0.7,0
		c-0.1-0.1-0.2-0.2-0.4-0.2c-1.5-0.6-2.9-1.1-4.4-0.4c-0.4,0.2-0.8,0.6-1.2,0.8c-0.3,0.2-0.6,0.2-1,0.3c-0.1,0-0.2-0.2-0.2-0.3
		c0.2-1-0.1-1.9-0.4-2.8c-0.3-0.9-0.6-1.7-0.4-2.6c0.1-0.6,0-1.2,0-1.9c0-0.1,0-0.2,0-0.3c0.2-0.8,0.4-1.5,0.6-2.3
		c0.1-0.2,0.2-0.2,0.4-0.2c0.1,0,0.2,0.2,0.3,0.3c0.2,0.8,0.6,1.1,1.5,1.1c0.6,0,1.1-0.2,1.6-0.2c0.7,0,1.2-0.4,1.7-0.9
		c0.2-0.2,0.3-0.3,0.5-0.4c0.6-0.6,0.9-1.3,0.6-2.1c0-0.2-0.1-0.3-0.1-0.4c-0.2-0.8-0.4-1.6-1.1-2.3c-0.2-0.1-0.3-0.2-0.5-0.2
		c-1.5,0.1-3,0.2-4.5,0.3c-1.4,0.2-2.7,0.5-3.2,1.9c-0.2,0.4-0.3,0.7-0.4,1.1c-0.4,1.9-1.4,3.5-2.3,5.1c-0.8,1.5-1.5,2.9-2.2,4.4
		c-0.6,1.6-1,3.4-0.5,5.2c0,0.2,0,0.3,0,0.5c0,0.5-0.1,1.1-0.2,1.5c-0.1,0.4,0.2,0.7,0.5,1.1c1.5,1.2,3,2.3,4.7,3.1
		C441,62.3,444.3,63.4,447.8,63.2z"/>
</g>
<g id="Layer_1_1_">
	<rect x="419.1" y="27.1" display="none" fill="#F2F2F2" stroke="#FF7419" width="71" height="71"/>
	<g display="none">
		<polygon display="inline" fill="#3D52A3" points="438.4,37.1 436.7,49.2 473.6,49.2 482.5,37.1 		"/>
		<polygon display="inline" fill="#3D52A3" points="458.9,69.3 464.8,61.2 467.7,57.2 435.6,57.2 431.8,83.6 440.8,91 442.6,92.5 
			445.9,69.3 		"/>
	</g>
	<path display="none" fill="#F37423" d="M455.2,70c0.7,0,1.5,0,2.2,0c0.5,0,0.9,0.1,1,0.7c0,0.1,0.1,0.2,0.1,0.2l6.1-8.1L469,57
		c-0.3,0-0.6,0-0.9,0.2c-0.6,0.2-1,0.2-1.6-0.1c-1.6-0.8-3.4-1.4-5.2-1.6c-1.8-0.2-3.4,0.5-4.9,1.2c-0.3,0.1-0.5,0.2-0.8,0
		c-0.1-0.1-0.3-0.2-0.4-0.2c-1.7-0.7-3.4-1.2-5.1-0.5c-0.5,0.2-0.9,0.7-1.4,0.9c-0.3,0.2-0.7,0.3-1.1,0.3c-0.1,0-0.3-0.2-0.3-0.3
		c0.2-1.1-0.1-2.2-0.5-3.2c-0.3-1-0.7-1.9-0.5-3c0.1-0.7,0-1.4,0-2.2c0-0.1,0-0.3,0-0.4c0.2-0.9,0.5-1.8,0.8-2.7
		c0.1-0.2,0.3-0.3,0.5-0.3c0.1,0,0.3,0.2,0.4,0.3c0.3,0.9,0.8,1.3,1.8,1.3c0.6,0,1.3-0.2,1.9-0.2c0.9,0,1.4-0.5,2-1
		c0.2-0.2,0.3-0.4,0.5-0.5c0.8-0.7,1-1.5,0.8-2.4c0-0.2-0.1-0.3-0.1-0.5c-0.3-1-0.5-1.9-1.3-2.6c-0.1-0.1-0.4-0.2-0.6-0.2
		c-1.8,0.1-3.5,0.2-5.3,0.3c-1.6,0.1-3.1,0.6-3.8,2.3c-0.2,0.4-0.4,0.8-0.5,1.3c-0.5,2.2-1.6,4-2.6,5.9c-0.9,1.7-1.8,3.4-2.5,5.1
		c-0.8,1.9-1.1,3.9-0.5,6c0,0.2,0,0.4,0,0.5c0,0.6-0.1,1.2-0.2,1.8c-0.1,0.5,0.2,0.9,0.5,1.2c1.7,1.4,3.5,2.7,5.5,3.6
		C447.2,68.8,451,70.1,455.2,70z"/>
	<g opacity="0.33">
		<g>
			<g>
				<g>
					<path fill="#3F30BC" d="M293,112.5c0.2,0,0.1,0-0.3,0h-0.3H293z"/>
					<path fill="#3F30BC" d="M290.2,112.5c-0.5,0-1.1,0-0.7,0.1c0.5,0,0.5,0,1.1-0.1c0.4,0,0.7,0,0.7,0c0.2,0,0.6,0,0.9,0
						C291.6,112.5,290.9,112.5,290.2,112.5C290,112.5,290.2,112.5,290.2,112.5z"/>
					<path fill="#3F30BC" d="M249.6,112.1h0.3C249.8,112.1,249.7,112.1,249.6,112.1z"/>
					<path fill="#3F30BC" d="M224.4,111.8c0.2,0,0.3,0,0.3-0.1C224.5,111.7,224.4,111.7,224.4,111.8z"/>
					<path fill="#3F30BC" d="M220.1,111.3c0.1,0,0.2,0,0.3,0C220.3,111.3,220.2,111.3,220.1,111.3z"/>
					<path fill="#3F30BC" d="M249.6,112.1l-0.7-0.1C248.9,112.1,249.2,112.1,249.6,112.1z"/>
					<path fill="#3F30BC" d="M284.6,112.7c0.1,0,0.3,0,0.4,0H284.6L284.6,112.7z"/>
					<path fill="#3F30BC" d="M260.7,112h0.2c0.1,0,0.1-0.1,0.2-0.1L260.7,112z"/>
					<path fill="#3F30BC" d="M269.2,112.1c-0.2,0-0.3,0.1-0.3,0.2c0.1-0.1,0.3-0.1,0.4-0.1C269.3,112.2,269.3,112.1,269.2,112.1z"/>
					<path fill="#3F30BC" d="M282.7,112.4h0.2C282.9,112.4,282.8,112.4,282.7,112.4z"/>
					<path fill="#3F30BC" d="M254.6,111.9C254.6,111.9,254.5,111.8,254.6,111.9C254.5,111.8,254.5,111.9,254.6,111.9z"/>
					<path fill="#3F30BC" d="M16.4,112.8L16.4,112.8C16.3,112.8,16.3,112.8,16.4,112.8z"/>
					<polygon fill="#3F30BC" points="6.5,112.5 6.6,112.5 6.7,112.5 					"/>
					<path fill="#3F30BC" d="M212.2,110.8C212.3,110.8,212.3,110.8,212.2,110.8C212.5,110.8,212.4,110.8,212.2,110.8z"/>
					<path fill="#3F30BC" d="M140,110.8c0.8,0.4-1.3,0.5-0.1,0.9C139.8,111.5,141,111,140,110.8z"/>
					<path fill="#3F30BC" d="M284.4,112.7h-0.3C284.2,112.7,284.3,112.7,284.4,112.7z"/>
					<path fill="#3F30BC" d="M139.9,111.7L139.9,111.7h0.1C140,111.7,140,111.7,139.9,111.7z"/>
					<path fill="#3F30BC" d="M194.1,110.8c0,0.1,0.1,0.1,0.2,0.2C194.3,111,194.2,110.9,194.1,110.8z"/>
					<path fill="#3F30BC" d="M207.6,111.5l-0.3-0.1C207.4,111.5,207.5,111.5,207.6,111.5z"/>
					<path fill="#3F30BC" d="M187.1,111.4c-0.2,0-0.2-0.1-0.5,0c0,0,0,0,0.1,0C186.8,111.3,186.9,111.3,187.1,111.4z"/>
					<path fill="#3F30BC" d="M179.8,111.3l0.1,0.1c0.1,0,0.2,0,0.2,0L179.8,111.3z"/>
					<path fill="#3F30BC" d="M38.5,113.3c-0.2-0.1-0.3-0.1-0.3-0.2C38.3,113.3,37.3,113.3,38.5,113.3z"/>
					<path fill="#3F30BC" d="M284.6,112.7c0,0-0.1,0-0.2,0C284.5,112.7,284.5,112.7,284.6,112.7L284.6,112.7z"/>
					<path fill="#3F30BC" d="M186.8,114.5l-1.2-0.1C186,114.5,186.4,114.5,186.8,114.5z"/>
					<path fill="#3F30BC" d="M90.9,114h-0.3C90.7,114,90.8,114,90.9,114z"/>
					<path fill="#3F30BC" d="M182.2,114.5c-0.2-0.1-0.4-0.2-0.7-0.3l-0.1,0.1L182.2,114.5z"/>
					<path fill="#3F30BC" d="M38.2,113.1L38.2,113.1L38.2,113.1z"/>
					<path fill="#3F30BC" d="M30.6,113.4c1.1,0,0.5-0.2,0.8-0.3c1.3,0,0.6,0.2,1.1,0.3c0.8,0,1.5-0.2,2.1-0.2c0,0,0.2,0.1,0,0.1
						c0.9-0.2,2.6,0,3.6-0.2c0.1,0,0.1,0,0.1,0.1c-0.2-0.1-0.2-0.3-0.2-0.3c0.5,0,0.9-0.2,1.1,0c-0.3,0-0.3,0.1-0.5,0.1l0.5-0.1
						c0.5,0.2-0.7,0.1-0.7,0.2c1-0.1,2.2-0.3,3-0.2c0.2,0.2-1.8,0.1-0.8,0.3l-1.2-0.1c0.9,0.4-0.7,0,0.1,0.4c1.6,0.1,1.8-0.1,3.3,0
						c0.4-0.1-0.1-0.2,0.2-0.3c2.2-0.2,1.8,0.7,3.4,0.4c0.4-0.2,0.6-0.5,1.8-0.3l-0.4,0.3c1.5,0.1,0.9-0.4,2.5-0.2
						c-0.3,0.1-1.2,0.1-1,0.1c1,0.3,0.7-0.2,1.5-0.2l0.2,0.3c1.6,0,3.4-0.2,5.2-0.3c-0.1,0.1-0.4,0.2,0,0.3c2.3-0.1,4.9,0.1,7,0.3
						l0.8-0.3c0.2,0,0.4,0.1,0.2,0.2c0.9,0.1,0-0.2,0.5-0.3c0.5,0,0.6,0.2,0.3,0.3c1.5-0.2,4.3-0.5,5.9-0.2l-0.3,0.1
						c1.2,0.1,1.4-0.7,2.5-0.3l-0.2,0.1c2.7,0.2,5.7-0.1,7.7,0.4c0.4-0.5,2.7,0.3,2.8-0.5c1.5,0.4,1.1,0.5,3.3,0.8
						c0.6,0,0.9-0.5,1.6-0.5v0.4l1-0.4l0.5,0.5l0.7-0.1c-0.3,0-0.6-0.2-0.5-0.3c1-0.2,2.5,0.3,2.6,0.5l2.5-0.3
						c-0.1,0.2-0.5,0.2-0.8,0.3c1.3-0.4,0.2,0.4,1.4,0.1c-0.2-0.1,0.1-0.2,0.1-0.3c0.6,0.3,2,0.3,3,0.2l-0.2,0.3
						c1.8,0.1,3.9-0.1,5.9-0.1c-0.7-0.1-0.6-0.6,0-0.7l0.2,0.4c0.4-0.3-0.6-0.2,0.2-0.5c0.8,0.1,0.5,0.5,0.1,0.7l0.9-0.1
						c0.1,0.1-0.2,0.2-0.2,0.4c0.4-0.3,1.6,0.5,2.2,0l0.1,0.1c2.1,0,3-0.1,4.7-0.1c0-0.4,0.7-0.3,1.2-0.6c1.2,0.1,2.6,0.5,4.1,0.4
						c1-0.2,0.3-0.3,0.8-0.6c0.1,0.4,1.6,0.3,0.8,0.6c1.8-0.1,2.3-0.1,4.5-0.4c-0.2-0.2-0.5-0.2-0.4-0.3c0.4-0.1,0.9,0.2,0.9,0.3
						h-0.1c2.5-0.6,5.8,1.1,7.8,0.3h-0.1l2.1-0.4c1,0.1-0.6,0.3,0.1,0.5c2.3-0.6,3.6,0.1,5.4-0.3c1.4,1.1,5.1-0.1,7,0.6l-0.1-0.3
						c0.5-0.3,0.6,0.2,1,0.2c-0.1-0.2-0.5-0.2-0.2-0.4c4.2-0.3,8.8,0.4,13.1,0.6c1.6,0.1,0.9-1.4,2.9-0.7l-0.6,0.5
						c3.2-0.6,6.6,0,9.7-0.5c-0.2,0.1-0.2,0.3-0.5,0.3c0.7,0.4,2.5,0,2.5-0.3c0.5,0,0.1,0.3,0.4,0.4c0.7,0.2,1.7-0.5,2-0.1
						c0.1,0.1-0.2,0.1-0.3,0.1c0.4-0.2,2,0,1.6-0.4c1.2,0.2,2.3-0.2,3.2,0c0.6-0.4,2,0.2,2.2-0.4c-0.1,0.6,2.1,0.5,2.8,0.2
						c-0.2,0.2,0.6,0.2,0.4,0.5c0.9,0,1.6-0.1,1.5-0.5c1.6,0.8,3.2-0.6,4,0.3c2.5-0.4,4.9-0.6,7.1-0.7c-0.1,0.6-2.5,0.1-2.4,0.7
						c2.2-0.3,3.4-0.8,5.5-0.7c0.6,0.1-0.3,0.3-0.5,0.4c2.2-0.3,4.2,0,6.1-0.3c0,0.1-0.2,0.1-0.4,0.2c0.4,0,0.9,0.1,0.8-0.2
						l-0.4,0.1c-0.6-0.4,1.5-0.8,1.6-1c-0.6,0.8,1.9,0.2,0.9,1.1c0.2-0.1,0.6-0.2,0.5-0.4c0.4,0,0.5,0.1,0.1,0.3
						c1.4-0.2,0.9-0.4,2.1-0.4c0,0.1-0.3,0.2-0.4,0.3c0.6-0.2,1.2-0.5,2.3-0.4c-0.1,0.1,0.1,0.2-0.3,0.2c1.8-0.1,3-0.6,5-0.4
						c-0.6,0.5,0.7,0.2,0.8,0.6l1-0.1l-0.4-0.2c0.9,0,1.7-0.3,2.5-0.2l-0.7,0.2l1.7-0.1l-1-0.2c0.9-0.2-0.1-0.5,1.1-0.4
						c-0.2,0,0.9,0,1.4,0.3l0,0c0.5-0.1,0.9-0.3,1.6-0.2c0.2,0.1-0.1,0.5,0,0.5c0.4-0.3,2.2-0.1,2.7-0.5c-0.2,0.1-0.2,0.3-0.1,0.3
						l0.4-0.3c0.4,0.1,0.5,0.1,0.4,0.3c1.3,0-0.4-0.5,1.1-0.3c-0.1,0-0.1,0.1-0.3,0.1c1.5,0.1,3-0.2,4.4-0.1
						c0.4,0.4-1.2,0.1-0.8,0.4c2-0.1,4.2-0.5,6.1-0.4h-0.4c0.3-0.5,1.5,0.2,2.4,0c-0.2,0-0.3,0.3-0.3,0.2c1.3,0.1,2.7-0.1,4.8-0.3
						l-0.3,0.1c0.8,0.1,2.1,0,2.9,0.1c0.3-0.1,0.7-0.1,0.4-0.3c2.6,0.6,5-0.3,7.4,0.1c-0.3,0-0.7,0.1-0.4,0.1l2-0.1
						c-0.2-0.2-0.3-0.1-0.7-0.2c0.3-0.1,0.8-0.2,1.3-0.2c-0.9,0.1,0,0.3,0.4,0.3c-0.1,0,0.1-0.1,0-0.1c1,0.3,0.2-0.3,1.6-0.1
						l-0.1,0.1c0.5,0,1-0.1,1.6-0.1c0.2,0.2-0.6,0.1-0.6,0.2c0.8,0,1.6-0.3,2.3-0.2c-0.3,0-0.8,0-1.2,0.1c0.8,0.2,0.9,0.1,1.5,0.2
						h-0.1l1.4,0.1h-0.3c1-0.4,2-0.1,3.4-0.3c-1.3,0.2-0.2,0.1-0.3,0.3c0.3,0,0.9,0.1,0.7,0.1c0.6-0.1,1.1,0.1,2-0.1
						c0,0,0.7,0,0.5,0.1c0.8,0-0.2-0.1-0.1-0.1c1.3-0.1,3,0.1,4.9-0.1c1.6-0.1,1.9-0.2,3.4-0.2c0.5,0-0.4,0.1-0.4,0.1
						c0.8,0,1.4,0,2.2,0c-0.2,0,0,0,0.2,0.1c0.6,0,0.4-0.1,1.2-0.1c-0.1,0-0.3,0.1-0.6,0.1c0.7,0,1.4-0.1,2.2-0.1
						c0.2,0-0.4,0-0.7,0.1c0.8,0,2.2-0.1,2.4-0.1h-0.5c0.3,0,0.2,0-0.1,0c-0.7,0-1,0-1.1,0h0.5c-0.5-0.1-2.1,0-3.2,0l0.4-0.1
						l-1.1,0.1c-0.2,0-0.4-0.1,0.1-0.1c-0.8-0.1-0.7,0-1.3,0c-0.1,0,0,0,0,0h-0.7c0.1,0-0.1-0.1,0.3-0.1c-1.3-0.1-2.2,0.1-2.7,0h0.1
						c-1.9,0-0.2,0.1-1.6,0.2l-0.9-0.3l-0.2,0.1c-0.2,0-0.6,0-0.5-0.1c-0.7,0.1,0.1,0.1-0.3,0.1c-0.9-0.1-2.5,0.1-2.8-0.2
						c-0.3,0.1,0.9,0.1-0.1,0.2c-0.3-0.2-1.1,0-2-0.1c0.3-0.1,1.1-0.1,0.2-0.2c-0.5,0.2-1.6-0.1-2.4,0c0,0.2-1.5,0.1-2.7,0.1
						c0.1-0.1-2.2-0.1-3.4-0.2l0,0c-0.2,0.2-1.4,0.2-2.2,0.2c0-0.1,0.2-0.2,0.6-0.3h-0.8c-0.2,0.1-0.4,0.1-0.9,0.1l0.2-0.2
						c-1,0-2.1,0.2-3.4,0.1c-0.1,0.2,1.1,0.5-0.4,0.7c-0.1-0.1-0.1-0.3,0.3-0.3c-0.1,0-0.4,0.1-0.7,0l0.6-0.2
						c-0.6-0.1-0.3,0.1-0.8,0.1c0-0.2-0.4-0.1-0.3-0.2c0.1,0,0.4,0.1,0.6,0c-0.6,0-1.2-0.1-1.4-0.2c0,0.1,0,0.2-0.4,0.2
						c-1,0-0.4-0.2-1-0.3c-0.3,0.1-0.9,0-0.9,0.2c-0.3,0-0.4-0.1-0.5-0.2c-0.5,0.1-2.5,0-1.9,0.3l0.1-0.1l-0.1-0.1l0,0l0,0
						c-1.8,0-3.7-0.1-5.4,0l0,0c-1,0.1-2.3,0.1-3.1,0.3c-0.3,0-0.7-0.2-0.6-0.3c-0.8,0.1-0.9,0.2-2,0c0.8-0.2-0.3-0.2,0.8-0.1
						c-1-0.1-1.3-0.3-2.4,0c0.4-0.3-0.8-0.3-1.3-0.3l0.7,0.2c-0.6,0-1,0-1.5,0l0.3-0.3c-2.1-0.5-3.8,0.7-5.5-0.1
						c-0.6,0.3,1.2,0.2,0.7,0.5c-1-0.1-2-0.6-2.3-0.6c-1.3-0.2-1.3,0.5-2.7,0.4c0.2,0.1,0.3,0.5-0.7,0.6c-1-0.1-1.2-0.6-0.6-0.7
						c0.2,0,0.3,0,0.3,0.1c0.3,0,0.7-0.1,0.3-0.3l-0.1,0.1c-0.5-0.1-1.8-0.1-1.5-0.4c-0.7,0.1-0.3,0.2,0.2,0.3c-1.3-0.2-2,0-3.3-0.2
						c0.2,0.1,0.4,0.2,0.2,0.2c-1.9-0.2-0.8,0.3-2.1,0.3c-0.7-0.2,0.3-0.5-1-0.3c-0.8-0.2-0.2-0.4,0.1-0.5c-1.2,0.3-2.2-0.2-2.9-0.3
						l0.6-0.1c-0.4,0.1-0.7,0.1-1,0.1l0.4,0.3c-0.4-0.1-0.7-0.1-0.7-0.2c-0.4,0.2,0.3,0.5-0.5,0.8c-0.5-0.2-1.5,0.2-1.6-0.2
						c1.5,0.1-0.2-0.4,1.1-0.5c-0.2,0-0.6,0-0.9,0c-0.1,0,0.1-0.1,0.2-0.1c-1.5-0.4-0.7,0.4-2.2,0.4c0.2-0.2-0.4-0.4-0.6-0.4
						c0.6,0,0.3,0.4-0.3,0.6c-1-0.2-1.1,0.1-1.6,0.1l0.6,0.1c-0.2,0.2-0.7,0.2-1.4,0.3c-0.1-0.2,0.6-0.1,0.4-0.2
						c-0.8,0.4-1.7-0.4-2.7-0.2c-0.5-0.2,0-0.4-0.5-0.6c-1.2,0.3-1.3-0.3-2.5-0.1c0.4,0.3,0.4,0.2-0.5,0.5l2-0.2l-1.3,0.5
						c0.6,0,1.3-0.2,1.7-0.1c-0.6,0.3-0.6,0.2-0.3,0.4c-0.8-0.5-1.7,0.3-2.6-0.1v-0.8c-1.5-0.4-2.6,0.4-4.5,0.2l0.6,0.1
						c-0.3,0.3-1.2,0-1.8,0.2c0.1-0.3-0.3-0.4-0.6-0.5c0,0.2-1.4,0-1.6,0.5l-0.8-0.4c-1.5-0.2-1.7,0.8-3.2,0.7
						c0.4-0.3-0.2-0.5,0.8-0.7c-0.5,0-0.9-0.1-0.9,0.1c-0.3-0.2-1.4,0.4-1.8,0.1c-0.2,0.1-0.3,0.4-0.8,0.4c-0.1-0.1,0-0.1,0-0.1
						c0,0.1-0.9,0.2-0.4,0.5c-1.5-0.9-4.2,0.1-5.5-0.7c-1.1,0.1-2.4,0.2-3.3,0.2c0.1-0.1,0-0.1,0.2-0.1c-1.3-0.3-0.8,0.8-2.4,0.5
						c-0.8-0.5,0.8-0.3,0.3-0.4c-0.2-1-1.8,0.1-2.9-0.4l0.2-0.1c-0.8-0.3-1.9,0.4-3.2,0.3c0,0,0.1-0.1,0-0.1
						c-0.9,0.5-2.5,0.6-3.8,0.8c0.4-0.4,0.6-0.2,0.3-0.6c-0.6,0.1,0.2,0.6-0.9,0.7c-0.4-0.2-1.2-0.4-1.3-0.8h1
						c-0.5-0.5-1.3,0-1.9-0.1l0.1-0.2c-1.6,0.1-1.6,0.7-3.3,0.6l0.2,0.2c-0.9,0.6-0.8-0.3-1.7,0.1l-0.3-0.6
						c-0.6,0.1-2.2,0.6-3.3,0.7c0.6-0.4,1.9-0.7,2.7-0.9c-0.6,0-2.1,0-2.4,0.3c0.2-0.1,0.6-0.2,0.8-0.1c-0.8,0.5-1.7,0.7-3,0.7
						c0.2-1.1-3.2-0.3-4.1-1.2c-2.2,0.4-4.3-0.2-6.8-0.1c0.9,0.9-0.7,0-0.6,0.9c-0.6,0.1-0.8,0-0.9,0l-1.8-0.5
						c-0.4-0.3,0.6-0.2,0.5-0.4c-1.3-0.1-0.5-0.4-1.4-0.6c0.2,0.3-0.4,0.5-1.2,0.3l1,0.4c-1.8,0.5-1.6-0.8-3.4-0.3l0.6-0.3
						c-0.9,0.2-3.4,0-4.3,0.7c-0.2-0.1-0.4-0.3,0-0.4c-2.2-0.1-4.9,0.8-6.7,0.3l0.2-0.2c-0.4,0.1-0.7,0.4-1.2,0.2
						c0-0.1,0.2-0.2,0-0.2c-0.2,0.1-1.1,0.4-1.6,0.3l0.5-0.2c-2.2-0.3-3.3,0.6-5.1,0.8c0-0.6-1.7-0.8-2.5-0.9v-0.1
						c-2.5-0.1-4.3,0.5-6.6,0.8c-1.4-0.7-4.9-0.2-7.2-0.6c0.4,0.1-0.1,0.5-0.5,0.5c-0.5-0.1-1.5,0.4-1.4-0.1H97
						c-0.4-0.5-1.5-0.4-2.4-0.4l-0.1,0.7c-2.3-1-6,0.4-7.3-0.5c-0.6,0.2-1.2,0.2-1.8,0.3v-0.4c-1.5-0.1-2.3-0.1-4.2,0l0.4-0.3
						c-1.1,0-1.3,1-2.3,1l-0.3-0.5c-1.9,0-3.8-0.4-5.6,0.1c0-0.1,0.1-0.2,0.4-0.2c-0.9,0-3.4-0.3-3.1,0.4c0-0.4-1.9,0-2.9,0.2
						L68,111c-0.9,0.4-0.9,0.5-2.1,0.6c-0.3,0-0.2-0.2,0.1-0.2c-0.9-0.1-0.7,0.3-1.9,0.1l0.4-0.2c-1,0-0.9,0.1-1.4,0.3
						c-0.6,0.1-1.8-0.1-2-0.3c-0.1,0.2-0.7,0.4-1.2,0.3c-0.1-0.1,0.1-0.2,0.2-0.2c-1.6-0.2-2.4,0.3-3.5,0.1c0-0.1-0.1-0.1-0.2-0.2
						c1.3,0,2.3,0,2.2,0c0-0.3-1-0.3-0.2-0.6c-0.8,0.2-2.3,0.6-3.3,0.5c0,0-0.1,0-0.1-0.1h0.1c-0.2,0-0.4,0-0.6,0
						c-0.3,0-0.5-0.1-0.8-0.1c-0.1-0.2-1.2-0.1-1.7-0.1c0,0.2-0.6,0.2,0,0.4c-0.1,0,0.1,0,0.4,0c0.1,0,0.2,0,0.2,0l0,0
						c0.3,0,0.8,0,1.3,0c-0.4,0.1-0.8,0.2-1.4,0.1c-0.3,0.2-0.6,0.3-0.7,0.4c-0.7-0.3-2.1-0.5-2.3-0.7c-1.6,0.2-3.7,0.2-4.7,0.6
						c-0.4,0.1-0.5-0.1-0.7-0.2c0.3,0,0.6,0,0.7-0.1c-0.9,0.1-2.7,0.1-2.9,0.4c-1.1-0.1,0.6-0.3-0.9-0.2l0.2-0.1
						c-3.1-0.3-5,0.7-8.3,0.2c0.2,0,0.4,0,0.4,0.1c-3.9-0.1-7.9,0.2-11.8,0c-1.1,0-1.2,0.1-1.9,0.1l-0.2-0.1l-1.1,0.1
						c-1.6,0.1-2.8-0.2-4.8,0h0.3c-0.7,0-2.3,0-2.2,0c-0.1,0-0.2,0-0.5,0l0,0L9.3,112c-1.4,0,0.2-0.1-1.8,0c-0.7,0-1.6,0-1.9,0.1
						c0.3,0,0.7,0,0.8,0H5.7c-0.1,0-0.7,0,1,0h1.2h0.4h-1c0.6,0,0.9,0,1.3,0c0.1,0,0.3,0,0.5,0h1.2c0.1,0-0.5,0,0.3,0.1
						c0.5,0-0.5-0.1,0.4-0.1c0.6,0,0.4,0.1,1.1,0.1c0.1,0,0,0-0.3,0c0.6,0,1.6,0,1.9,0c0.6,0.1,2,0,1.9,0.1c0.2,0,1-0.1,1.6-0.1
						c-1,0.1,2,0.1,1.8,0.2c0.7-0.1,2.6,0,3.9-0.1c-0.1,0-0.2,0-0.3,0c0.7,0,0.9,0.1,1.4,0.1c0.1-0.2,1.2-0.2,1.8-0.3
						c0.9,0.2-0.5,0.2-0.3,0.4c0-0.1,1.6-0.1,1.2-0.2c0.7,0.1,0.6,0.1,0.9,0.2c0.1-0.2,0.6,0,1.2-0.2c1,0.1,0.3,0.2,1.3,0.2
						C31.5,113.3,30.6,113.4,30.6,113.4z M56.4,113.2L56.4,113.2c-0.2,0-0.4,0-0.5,0C56,113.2,56.1,113.2,56.4,113.2z M58.5,113.2
						c-0.3,0-0.6,0-0.9,0c-0.1-0.1,0-0.2,0.2-0.2C57.7,113.1,58.2,113.1,58.5,113.2z M54,111.4c0.3,0,0.5,0,0.5,0.1
						C54.3,111.5,54.1,111.5,54,111.4c-0.1,0.1-0.1,0.1-0.1,0.1S53.9,111.5,54,111.4z"/>
					<path fill="#3F30BC" d="M53.3,111.8L53.3,111.8L53.3,111.8c0.1,0,0.1,0,0.2,0C53.5,111.8,53.4,111.8,53.3,111.8z"/>
					<path fill="#3F30BC" d="M249.9,112.2L249.9,112.2L249.9,112.2L249.9,112.2z"/>
					<polygon fill="#3F30BC" points="88.5,114.1 88.5,114 88.3,114.1 					"/>
					<path fill="#3F30BC" d="M261.8,112.9c0,0,0.1,0,0.2,0C262,112.9,261.9,112.9,261.8,112.9z"/>
					<path fill="#3F30BC" d="M267,112.9h0.7C267.4,112.9,267.2,112.9,267,112.9z"/>
					<path fill="#3F30BC" d="M270.9,112.9C271,112.9,271,112.8,270.9,112.9L270.9,112.9L270.9,112.9z"/>
					<path fill="#3F30BC" d="M207.9,113.9c-0.1,0-0.1,0-0.2,0C207.4,114,207.6,114,207.9,113.9z"/>
					<path fill="#3F30BC" d="M226.7,113c-0.2,0.1-0.4,0.1-0.6,0.2C226.4,113.2,226.6,113.2,226.7,113z"/>
					<path fill="#3F30BC" d="M186.9,114.5L186.9,114.5h-0.1H186.9z"/>
					<path fill="#3F30BC" d="M225.2,113.1c0.3,0.1,0.6,0,0.9,0C225.8,113.1,225.5,113.1,225.2,113.1z"/>
					<path fill="#3F30BC" d="M288.1,112.6h0.2l0,0H288.1z"/>
					<path fill="#3F30BC" d="M288.3,112.6h0.2C288.5,112.6,288.4,112.6,288.3,112.6z"/>
					<path fill="#3F30BC" d="M289,112.6h-0.4C288.7,112.6,288.9,112.6,289,112.6z"/>
					<path fill="#3F30BC" d="M282.9,112.7L282.9,112.7L282.9,112.7z"/>
					<path fill="#3F30BC" d="M281.3,112.7c0.4,0,1,0,1.5,0l0,0C282.6,112.8,281.7,112.7,281.3,112.7z"/>
					<path fill="#3F30BC" d="M274.6,112.3h1.3c-0.2,0-0.5-0.1,0.1-0.1C274.3,112.1,276.4,112.3,274.6,112.3z"/>
					<path fill="#3F30BC" d="M270.5,112.2c0.7,0,0-0.1,0-0.1C270.1,112.1,269.9,112.1,270.5,112.2z"/>
					<path fill="#3F30BC" d="M240.5,111.9l0.1-0.2C240,111.7,240.6,111.7,240.5,111.9z"/>
					<polygon fill="#3F30BC" points="234.8,113.2 235.3,113.4 235.6,113.1 					"/>
					<polygon fill="#3F30BC" points="231.4,111.3 231.7,111.2 230.7,111.3 					"/>
					<path fill="#3F30BC" d="M181.1,111l0.2,0.5C181.6,111.4,181.7,110.9,181.1,111z"/>
					<path fill="#3F30BC" d="M159.4,111.4c-0.2-0.2-0.8-0.4-1.2-0.2C158.6,111.3,159.1,111.5,159.4,111.4z"/>
					<polygon fill="#3F30BC" points="94.2,110.9 94.7,110.7 93.9,110.9 					"/>
				</g>
			</g>
		</g>
	</g>
	<g opacity="0.33">
		<g>
			<g>
				<g>
					<path fill="#3F30BC" d="M606,111.5c-0.2,0-0.1,0,0.3,0h0.3H606z"/>
					<path fill="#3F30BC" d="M608.8,111.5c0.5,0,1.1,0,0.7-0.1c-0.5,0-0.5,0-1.1,0.1c-0.4,0-0.7,0-0.7,0c-0.2,0-0.6,0-0.9,0
						C607.4,111.5,608.1,111.5,608.8,111.5C609,111.5,608.8,111.5,608.8,111.5z"/>
					<path fill="#3F30BC" d="M649.4,111.9h-0.3C649.2,111.9,649.3,111.9,649.4,111.9z"/>
					<path fill="#3F30BC" d="M674.6,112.2c-0.2,0-0.3,0-0.3,0.1C674.5,112.3,674.6,112.3,674.6,112.2z"/>
					<path fill="#3F30BC" d="M678.9,112.7c-0.1,0-0.2,0-0.3,0C678.7,112.7,678.8,112.7,678.9,112.7z"/>
					<path fill="#3F30BC" d="M649.4,111.9l0.7,0.1C650.1,111.9,649.8,111.9,649.4,111.9z"/>
					<path fill="#3F30BC" d="M614.4,111.3c-0.1,0-0.3,0-0.4,0H614.4L614.4,111.3z"/>
					<path fill="#3F30BC" d="M638.3,112h-0.2c-0.1,0-0.1,0.1-0.2,0.1L638.3,112z"/>
					<path fill="#3F30BC" d="M629.8,111.9c0.2,0,0.3-0.1,0.3-0.2c-0.1,0.1-0.3,0.1-0.4,0.1C629.7,111.8,629.7,111.9,629.8,111.9z"/>
					<path fill="#3F30BC" d="M616.3,111.6h-0.2C616.1,111.6,616.2,111.6,616.3,111.6z"/>
					<path fill="#3F30BC" d="M644.4,112.1C644.4,112.1,644.5,112.2,644.4,112.1C644.5,112.2,644.5,112.1,644.4,112.1z"/>
					<path fill="#3F30BC" d="M882.6,111.2L882.6,111.2C882.7,111.2,882.7,111.2,882.6,111.2z"/>
					<polygon fill="#3F30BC" points="892.5,111.5 892.4,111.5 892.3,111.5 					"/>
					<path fill="#3F30BC" d="M686.8,113.2C686.7,113.2,686.7,113.2,686.8,113.2C686.5,113.2,686.6,113.2,686.8,113.2z"/>
					<path fill="#3F30BC" d="M759,113.2c-0.8-0.4,1.3-0.5,0.1-0.9C759.2,112.5,758,113,759,113.2z"/>
					<path fill="#3F30BC" d="M614.6,111.3h0.3C614.8,111.3,614.7,111.3,614.6,111.3z"/>
					<path fill="#3F30BC" d="M759.1,112.3L759.1,112.3L759.1,112.3C759,112.3,759,112.3,759.1,112.3z"/>
					<path fill="#3F30BC" d="M704.9,113.2c0-0.1-0.1-0.1-0.2-0.2C704.7,113,704.8,113.1,704.9,113.2z"/>
					<path fill="#3F30BC" d="M691.4,112.5l0.3,0.1C691.6,112.5,691.5,112.5,691.4,112.5z"/>
					<path fill="#3F30BC" d="M711.9,112.6c0.2,0,0.2,0.1,0.5,0c0,0,0,0-0.1,0C712.2,112.7,712.1,112.7,711.9,112.6z"/>
					<path fill="#3F30BC" d="M719.2,112.7l-0.1-0.1c-0.1,0-0.2,0-0.2,0L719.2,112.7z"/>
					<path fill="#3F30BC" d="M860.5,110.7c0.2,0.1,0.3,0.1,0.3,0.2C860.7,110.7,861.7,110.7,860.5,110.7z"/>
					<path fill="#3F30BC" d="M614.4,111.3c0,0,0.1,0,0.2,0C614.5,111.3,614.5,111.3,614.4,111.3L614.4,111.3z"/>
					<path fill="#3F30BC" d="M712.2,109.5l1.2,0.1C713,109.5,712.6,109.5,712.2,109.5z"/>
					<path fill="#3F30BC" d="M808.1,110h0.3C808.3,110,808.2,110,808.1,110z"/>
					<path fill="#3F30BC" d="M716.8,109.5c0.2,0.1,0.4,0.2,0.7,0.3l0.1-0.1L716.8,109.5z"/>
					<path fill="#3F30BC" d="M860.8,110.9L860.8,110.9L860.8,110.9z"/>
					<path fill="#3F30BC" d="M868.4,110.6c-1.1,0-0.5,0.2-0.8,0.3c-1.3,0-0.6-0.2-1.1-0.3c-0.8,0-1.5,0.2-2.1,0.2c0,0-0.2-0.1,0-0.1
						c-0.9,0.2-2.6,0-3.6,0.2c-0.1,0-0.1,0-0.1-0.1c0.2,0.1,0.2,0.3,0.2,0.3c-0.5,0-0.9,0.2-1.1,0c0.3,0,0.3-0.1,0.5-0.1l-0.5,0.1
						c-0.5-0.2,0.7-0.1,0.7-0.2c-1,0.1-2.2,0.3-3,0.2c-0.2-0.2,1.8-0.1,0.8-0.3l1.2,0.1c-0.9-0.4,0.7,0-0.1-0.4
						c-1.6-0.1-1.8,0.1-3.3,0c-0.4,0.1,0.1,0.2-0.2,0.3c-2.2,0.2-1.8-0.7-3.4-0.4c-0.4,0.2-0.6,0.5-1.8,0.3l0.4-0.3
						c-1.5-0.1-0.9,0.4-2.5,0.2c0.3-0.1,1.2-0.1,1-0.1c-1-0.3-0.7,0.2-1.5,0.2l-0.2-0.3c-1.6,0-3.4,0.2-5.2,0.3
						c0.1-0.1,0.4-0.2,0-0.3c-2.3,0.1-4.9-0.1-7-0.3l-0.8,0.3c-0.2,0-0.4-0.1-0.2-0.2c-0.9-0.1,0,0.2-0.5,0.3
						c-0.5,0-0.6-0.2-0.3-0.3c-1.5,0.2-4.3,0.5-5.9,0.2l0.3-0.1c-1.2-0.1-1.4,0.7-2.5,0.3l0.2-0.1c-2.7-0.2-5.7,0.1-7.7-0.4
						c-0.4,0.5-2.7-0.3-2.8,0.5c-1.5-0.4-1.1-0.5-3.3-0.8c-0.6,0-0.9,0.5-1.6,0.5v-0.4l-1,0.4l-0.5-0.5l-0.7,0.1
						c0.3,0,0.6,0.2,0.5,0.3c-1,0.2-2.5-0.3-2.6-0.5l-2.5,0.3c0.1-0.2,0.5-0.2,0.8-0.3c-1.3,0.4-0.2-0.4-1.4-0.1
						c0.2,0.1-0.1,0.2-0.1,0.3c-0.6-0.3-2-0.3-3-0.2l0.2-0.3c-1.8-0.1-3.9,0.1-5.9,0.1c0.7,0.1,0.6,0.6,0,0.7l-0.2-0.4
						c-0.4,0.3,0.6,0.2-0.2,0.5c-0.8-0.1-0.5-0.5-0.1-0.7l-0.9,0.1c-0.1-0.1,0.2-0.2,0.2-0.4c-0.4,0.3-1.6-0.5-2.2,0l-0.1-0.1
						c-2.1,0-3,0.1-4.7,0.1c0,0.4-0.7,0.3-1.2,0.6c-1.2-0.1-2.6-0.5-4.1-0.4c-1,0.2-0.3,0.3-0.8,0.6c-0.1-0.4-1.6-0.3-0.8-0.6
						c-1.8,0.1-2.3,0.1-4.5,0.4c0.2,0.2,0.5,0.2,0.4,0.3c-0.4,0.1-0.9-0.2-0.9-0.3h0.1c-2.5,0.6-5.8-1.1-7.8-0.3h0.1l-2.1,0.4
						c-1-0.1,0.6-0.3-0.1-0.5c-2.3,0.6-3.6-0.1-5.4,0.3c-1.4-1.1-5.1,0.1-7-0.6l0.1,0.3c-0.5,0.3-0.6-0.2-1-0.2
						c0.1,0.2,0.5,0.2,0.2,0.4c-4.2,0.3-8.8-0.4-13.1-0.6c-1.6-0.1-0.9,1.4-2.9,0.7l0.6-0.5c-3.2,0.6-6.6,0-9.7,0.5
						c0.2-0.1,0.2-0.3,0.5-0.3c-0.7-0.4-2.5,0-2.5,0.3c-0.5,0-0.1-0.3-0.4-0.4c-0.7-0.2-1.7,0.5-2,0.1c-0.1-0.1,0.2-0.1,0.3-0.1
						c-0.4,0.2-2,0-1.6,0.4c-1.2-0.2-2.3,0.2-3.2,0c-0.6,0.4-2-0.2-2.2,0.4c0.1-0.6-2.1-0.5-2.8-0.2c0.2-0.2-0.6-0.2-0.4-0.5
						c-0.9,0-1.6,0.1-1.5,0.5c-1.6-0.8-3.2,0.6-4-0.3c-2.5,0.4-4.9,0.6-7.1,0.7c0.1-0.6,2.5-0.1,2.4-0.7c-2.2,0.3-3.4,0.8-5.5,0.7
						c-0.6-0.1,0.3-0.3,0.5-0.4c-2.2,0.3-4.2,0-6.1,0.3c0-0.1,0.2-0.1,0.4-0.2c-0.4,0-0.9-0.1-0.8,0.2l0.4-0.1
						c0.6,0.4-1.5,0.8-1.6,1c0.6-0.8-1.9-0.2-0.9-1.1c-0.2,0.1-0.6,0.2-0.5,0.4c-0.4,0-0.5-0.1-0.1-0.3c-1.4,0.2-0.9,0.4-2.1,0.4
						c0-0.1,0.3-0.2,0.4-0.3c-0.6,0.2-1.2,0.5-2.3,0.4c0.1-0.1-0.1-0.2,0.3-0.2c-1.8,0.1-3,0.6-5,0.4c0.6-0.5-0.7-0.2-0.8-0.6
						l-1,0.1l0.4,0.2c-0.9,0-1.7,0.3-2.5,0.2l0.7-0.2l-1.7,0.1l1,0.2c-0.9,0.2,0.1,0.5-1.1,0.4c0.2,0-0.9,0-1.4-0.3l0,0
						c-0.5,0.1-0.9,0.3-1.6,0.2c-0.2-0.1,0.1-0.5,0-0.5c-0.4,0.3-2.2,0.1-2.7,0.5c0.2-0.1,0.2-0.3,0.1-0.3l-0.4,0.3
						c-0.4-0.1-0.5-0.1-0.4-0.3c-1.3,0,0.4,0.5-1.1,0.3c0.1,0,0.1-0.1,0.3-0.1c-1.5-0.1-3,0.2-4.4,0.1c-0.4-0.4,1.2-0.1,0.8-0.4
						c-2,0.1-4.2,0.5-6.1,0.4h0.4c-0.3,0.5-1.5-0.2-2.4,0c0.2,0,0.3-0.3,0.3-0.2c-1.3-0.1-2.7,0.1-4.8,0.3l0.3-0.1
						c-0.8-0.1-2.1,0-2.9-0.1c-0.3,0.1-0.7,0.1-0.4,0.3c-2.6-0.6-5,0.3-7.4-0.1c0.3,0,0.7-0.1,0.4-0.1l-2,0.1
						c0.2,0.2,0.3,0.1,0.7,0.2c-0.3,0.1-0.8,0.2-1.3,0.2c0.9-0.1,0-0.3-0.4-0.3c0.1,0-0.1,0.1,0,0.1c-1-0.3-0.2,0.3-1.6,0.1l0.1-0.1
						c-0.5,0-1,0.1-1.6,0.1c-0.2-0.2,0.6-0.1,0.6-0.2c-0.8,0-1.6,0.3-2.3,0.2c0.3,0,0.8,0,1.2-0.1c-0.8-0.2-0.9-0.1-1.5-0.2h0.1
						l-1.4-0.1h0.3c-1,0.4-2,0.1-3.4,0.3c1.3-0.2,0.2-0.1,0.3-0.3c-0.3,0-0.9-0.1-0.7-0.1c-0.6,0.1-1.1-0.1-2,0.1c0,0-0.7,0-0.5-0.1
						c-0.8,0,0.2,0.1,0.1,0.1c-1.3,0.1-3-0.1-4.9,0.1c-1.6,0.1-1.9,0.2-3.4,0.2c-0.5,0,0.4-0.1,0.4-0.1c-0.8,0-1.4,0-2.2,0
						c0.2,0,0,0-0.2-0.1c-0.6,0-0.4,0.1-1.2,0.1c0.1,0,0.3-0.1,0.6-0.1c-0.7,0-1.4,0.1-2.2,0.1c-0.2,0,0.4,0,0.7-0.1
						c-0.8,0-2.2,0.1-2.4,0.1h0.5c-0.3,0-0.2,0,0.1,0c0.7,0,1,0,1.1,0h-0.5c0.5,0.1,2.1,0,3.2,0l-0.4,0.1l1.1-0.1
						c0.2,0,0.4,0.1-0.1,0.1c0.8,0.1,0.7,0,1.3,0c0.1,0,0,0,0,0h0.7c-0.1,0,0.1,0.1-0.3,0.1c1.3,0.1,2.2-0.1,2.7,0h-0.1
						c1.9,0,0.2-0.1,1.6-0.2l0.9,0.3l0.2-0.1c0.2,0,0.6,0,0.5,0.1c0.7-0.1-0.1-0.1,0.3-0.1c0.9,0.1,2.5-0.1,2.8,0.2
						c0.3-0.1-0.9-0.1,0.1-0.2c0.3,0.2,1.1,0,2,0.1c-0.3,0.1-1.1,0.1-0.2,0.2c0.5-0.2,1.6,0.1,2.4,0c0-0.2,1.5-0.1,2.7-0.1
						c-0.1,0.1,2.2,0.1,3.4,0.2l0,0c0.2-0.2,1.4-0.2,2.2-0.2c0,0.1-0.2,0.2-0.6,0.3h0.8c0.2-0.1,0.4-0.1,0.9-0.1l-0.2,0.2
						c1,0,2.1-0.2,3.4-0.1c0.1-0.2-1.1-0.5,0.4-0.7c0.1,0.1,0.1,0.3-0.3,0.3c0.1,0,0.4-0.1,0.7,0l-0.6,0.2c0.6,0.1,0.3-0.1,0.8-0.1
						c0,0.2,0.4,0.1,0.3,0.2c-0.1,0-0.4-0.1-0.6,0c0.6,0,1.2,0.1,1.4,0.2c0-0.1,0-0.2,0.4-0.2c1,0,0.4,0.2,1,0.3
						c0.3-0.1,0.9,0,0.9-0.2c0.3,0,0.4,0.1,0.5,0.2c0.5-0.1,2.5,0,1.9-0.3l-0.1,0.1l0.1,0.1l0,0l0,0c1.8,0,3.7,0.1,5.4,0l0,0
						c1-0.1,2.3-0.1,3.1-0.3c0.3,0,0.7,0.2,0.6,0.3c0.8-0.1,0.9-0.2,2,0c-0.8,0.2,0.3,0.2-0.8,0.1c1,0.1,1.3,0.3,2.4,0
						c-0.4,0.3,0.8,0.3,1.3,0.3l-0.7-0.2c0.6,0,1,0,1.5,0l-0.3,0.3c2.1,0.5,3.8-0.7,5.5,0.1c0.6-0.3-1.2-0.2-0.7-0.5
						c1,0.1,2,0.6,2.3,0.6c1.3,0.2,1.3-0.5,2.7-0.4c-0.2-0.1-0.3-0.5,0.7-0.6c1,0.1,1.2,0.6,0.6,0.7c-0.2,0-0.3,0-0.3-0.1
						c-0.3,0-0.7,0.1-0.3,0.3l0.1-0.1c0.5,0.1,1.8,0.1,1.5,0.4c0.7-0.1,0.3-0.2-0.2-0.3c1.3,0.2,2,0,3.3,0.2
						c-0.2-0.1-0.4-0.2-0.2-0.2c1.9,0.2,0.8-0.3,2.1-0.3c0.7,0.2-0.3,0.5,1,0.3c0.8,0.2,0.2,0.4-0.1,0.5c1.2-0.3,2.2,0.2,2.9,0.3
						l-0.6,0.1c0.4-0.1,0.7-0.1,1-0.1l-0.4-0.3c0.4,0.1,0.7,0.1,0.7,0.2c0.4-0.2-0.3-0.5,0.5-0.8c0.5,0.2,1.5-0.2,1.6,0.2
						c-1.5-0.1,0.2,0.4-1.1,0.5c0.2,0,0.6,0,0.9,0c0.1,0-0.1,0.1-0.2,0.1c1.5,0.4,0.7-0.4,2.2-0.4c-0.2,0.2,0.4,0.4,0.6,0.4
						c-0.6,0-0.3-0.4,0.3-0.6c1,0.2,1.1-0.1,1.6-0.1l-0.6-0.1c0.2-0.2,0.7-0.2,1.4-0.3c0.1,0.2-0.6,0.1-0.4,0.2
						c0.8-0.4,1.7,0.4,2.7,0.2c0.5,0.2,0,0.4,0.5,0.6c1.2-0.3,1.3,0.3,2.5,0.1c-0.4-0.3-0.4-0.2,0.5-0.5l-2,0.2l1.3-0.5
						c-0.6,0-1.3,0.2-1.7,0.1c0.6-0.3,0.6-0.2,0.3-0.4c0.8,0.5,1.7-0.3,2.6,0.1v0.8c1.5,0.4,2.6-0.4,4.5-0.2l-0.6-0.1
						c0.3-0.3,1.2,0,1.8-0.2c-0.1,0.3,0.3,0.4,0.6,0.5c0-0.2,1.4,0,1.6-0.5l0.8,0.4c1.5,0.2,1.7-0.8,3.2-0.7
						c-0.4,0.3,0.2,0.5-0.8,0.7c0.5,0,0.9,0.1,0.9-0.1c0.3,0.2,1.4-0.4,1.8-0.1c0.2-0.1,0.3-0.4,0.8-0.4c0.1,0.1,0,0.1,0,0.1
						c0-0.1,0.9-0.2,0.4-0.5c1.5,0.9,4.2-0.1,5.5,0.7c1.1-0.1,2.4-0.2,3.3-0.2c-0.1,0.1,0,0.1-0.2,0.1c1.3,0.3,0.8-0.8,2.4-0.5
						c0.8,0.5-0.8,0.3-0.3,0.4c0.2,1,1.8-0.1,2.9,0.4l-0.2,0.1c0.8,0.3,1.9-0.4,3.2-0.3c0,0-0.1,0.1,0,0.1c0.9-0.5,2.5-0.6,3.8-0.8
						c-0.4,0.4-0.6,0.2-0.3,0.6c0.6-0.1-0.2-0.6,0.9-0.7c0.4,0.2,1.2,0.4,1.3,0.8h-1c0.5,0.5,1.3,0,1.9,0.1l-0.1,0.2
						c1.6-0.1,1.6-0.7,3.3-0.6l-0.2-0.2c0.9-0.6,0.8,0.3,1.7-0.1l0.3,0.6c0.6-0.1,2.2-0.6,3.3-0.7c-0.6,0.4-1.9,0.7-2.7,0.9
						c0.6,0,2.1,0,2.4-0.3c-0.2,0.1-0.6,0.2-0.8,0.1c0.8-0.5,1.7-0.7,3-0.7c-0.2,1.1,3.2,0.3,4.1,1.2c2.2-0.4,4.3,0.2,6.8,0.1
						c-0.9-0.9,0.7,0,0.6-0.9c0.6-0.1,0.8,0,0.9,0l1.8,0.5c0.4,0.3-0.6,0.2-0.5,0.4c1.3,0.1,0.5,0.4,1.4,0.6
						c-0.2-0.3,0.4-0.5,1.2-0.3l-1-0.4c1.8-0.5,1.6,0.8,3.4,0.3l-0.6,0.3c0.9-0.2,3.4,0,4.3-0.7c0.2,0.1,0.4,0.3,0,0.4
						c2.2,0.1,4.9-0.8,6.7-0.3l-0.2,0.2c0.4-0.1,0.7-0.4,1.2-0.2c0,0.1-0.2,0.2,0,0.2c0.2-0.1,1.1-0.4,1.6-0.3l-0.5,0.2
						c2.2,0.3,3.3-0.6,5.1-0.8c0,0.6,1.7,0.8,2.5,0.9v0.1c2.5,0.1,4.3-0.5,6.6-0.8c1.4,0.7,4.9,0.2,7.2,0.6
						c-0.4-0.1,0.1-0.5,0.5-0.5c0.5,0.1,1.5-0.4,1.4,0.1H802c0.4,0.5,1.5,0.4,2.4,0.4l0.1-0.7c2.3,1,6-0.4,7.3,0.5
						c0.6-0.2,1.2-0.2,1.8-0.3v0.4c1.5,0.1,2.3,0.1,4.2,0l-0.4,0.3c1.1,0,1.3-1,2.3-1l0.3,0.5c1.9,0,3.8,0.4,5.6-0.1
						c0,0.1-0.1,0.2-0.4,0.2c0.9,0,3.4,0.3,3.1-0.4c0,0.4,1.9,0,2.9-0.2L831,113c0.9-0.4,0.9-0.5,2.1-0.6c0.3,0,0.2,0.2-0.1,0.2
						c0.9,0.1,0.7-0.3,1.9-0.1l-0.4,0.2c1,0,0.9-0.1,1.4-0.3c0.6-0.1,1.8,0.1,2,0.3c0.1-0.2,0.7-0.4,1.2-0.3
						c0.1,0.1-0.1,0.2-0.2,0.2c1.6,0.2,2.4-0.3,3.5-0.1c0,0.1,0.1,0.1,0.2,0.2c-1.3,0-2.3,0-2.2,0c0,0.3,1,0.3,0.2,0.6
						c0.8-0.2,2.3-0.6,3.3-0.5c0,0,0.1,0,0.1,0.1h-0.1c0.2,0,0.4,0,0.6,0c0.3,0,0.5,0.1,0.8,0.1c0.1,0.2,1.2,0.1,1.7,0.1
						c0-0.2,0.6-0.2,0-0.4c0.1,0-0.1,0-0.4,0c-0.1,0-0.2,0-0.2,0l0,0c-0.3,0-0.8,0-1.3,0c0.4-0.1,0.8-0.2,1.4-0.1
						c0.3-0.2,0.6-0.3,0.7-0.4c0.7,0.3,2.1,0.5,2.3,0.7c1.6-0.2,3.7-0.2,4.7-0.6c0.4-0.1,0.5,0.1,0.7,0.2c-0.3,0-0.6,0-0.7,0.1
						c0.9-0.1,2.7-0.1,2.9-0.4c1.1,0.1-0.6,0.3,0.9,0.2l-0.2,0.1c3.1,0.3,5-0.7,8.3-0.2c-0.2,0-0.4,0-0.4-0.1
						c3.9,0.1,7.9-0.2,11.8,0c1.1,0,1.2-0.1,1.9-0.1l0.2,0.1l1.1-0.1c1.6-0.1,2.8,0.2,4.8,0h-0.3c0.7,0,2.3,0,2.2,0
						c0.1,0,0.2,0,0.5,0l0,0l1.8-0.1c1.4,0-0.2,0.1,1.8,0c0.7,0,1.6,0,1.9-0.1c-0.3,0-0.7,0-0.8,0h0.7c0.1,0,0.7,0-1,0h-1.2h-0.4h1
						c-0.6,0-0.9,0-1.3,0c-0.1,0-0.3,0-0.5,0h-1.2c-0.1,0,0.5,0-0.3-0.1c-0.5,0,0.5,0.1-0.4,0.1c-0.6,0-0.4-0.1-1.1-0.1
						c-0.1,0,0,0,0.3,0c-0.6,0-1.6,0-1.9,0c-0.6-0.1-2,0-1.9-0.1c-0.2,0-1,0.1-1.6,0.1c1-0.1-2-0.1-1.8-0.2c-0.7,0.1-2.6,0-3.9,0.1
						c0.1,0,0.2,0,0.3,0c-0.7,0-0.9-0.1-1.4-0.1c-0.1,0.2-1.2,0.2-1.8,0.3c-0.9-0.2,0.5-0.2,0.3-0.4c0,0.1-1.6,0.1-1.2,0.2
						c-0.7-0.1-0.6-0.1-0.9-0.2c-0.1,0.2-0.6,0-1.2,0.2c-1-0.1-0.3-0.2-1.3-0.2C867.5,110.7,868.4,110.6,868.4,110.6z M842.6,110.8
						L842.6,110.8c0.2,0,0.4,0,0.5,0C843,110.8,842.9,110.8,842.6,110.8z M840.5,110.8c0.3,0,0.6,0,0.9,0c0.1,0.1,0,0.2-0.2,0.2
						C841.3,110.9,840.8,110.9,840.5,110.8z M845,112.6c-0.3,0-0.5,0-0.5-0.1C844.7,112.5,844.9,112.5,845,112.6
						c0.1-0.1,0.1-0.1,0.1-0.1S845.1,112.5,845,112.6z"/>
					<path fill="#3F30BC" d="M845.7,112.2L845.7,112.2L845.7,112.2c-0.1,0-0.1,0-0.2,0C845.5,112.2,845.6,112.2,845.7,112.2z"/>
					<path fill="#3F30BC" d="M649.1,111.8L649.1,111.8L649.1,111.8L649.1,111.8z"/>
					<polygon fill="#3F30BC" points="810.5,109.9 810.5,110 810.7,109.9 					"/>
					<path fill="#3F30BC" d="M637.2,111.1c0,0-0.1,0-0.2,0C637,111.1,637.1,111.1,637.2,111.1z"/>
					<path fill="#3F30BC" d="M632,111.1h-0.7C631.6,111.1,631.8,111.1,632,111.1z"/>
					<path fill="#3F30BC" d="M628.1,111.1C628,111.1,628,111.2,628.1,111.1L628.1,111.1L628.1,111.1z"/>
					<path fill="#3F30BC" d="M691.1,110.1c0.1,0,0.1,0,0.2,0C691.6,110,691.4,110,691.1,110.1z"/>
					<path fill="#3F30BC" d="M672.3,111c0.2-0.1,0.4-0.1,0.6-0.2C672.6,110.8,672.4,110.8,672.3,111z"/>
					<path fill="#3F30BC" d="M712.1,109.5L712.1,109.5L712.1,109.5L712.1,109.5z"/>
					<path fill="#3F30BC" d="M673.8,110.9c-0.3-0.1-0.6,0-0.9,0C673.2,110.9,673.5,110.9,673.8,110.9z"/>
					<path fill="#3F30BC" d="M610.9,111.4h-0.2l0,0H610.9z"/>
					<path fill="#3F30BC" d="M610.7,111.4h-0.2C610.5,111.4,610.6,111.4,610.7,111.4z"/>
					<path fill="#3F30BC" d="M610,111.4h0.4C610.3,111.4,610.1,111.4,610,111.4z"/>
					<path fill="#3F30BC" d="M616.1,111.3L616.1,111.3L616.1,111.3z"/>
					<path fill="#3F30BC" d="M617.7,111.3c-0.4,0-1,0-1.5,0l0,0C616.4,111.2,617.3,111.3,617.7,111.3z"/>
					<path fill="#3F30BC" d="M624.4,111.7h-1.3c0.2,0,0.5,0.1-0.1,0.1C624.7,111.9,622.6,111.7,624.4,111.7z"/>
					<path fill="#3F30BC" d="M628.5,111.8c-0.7,0,0,0.1,0,0.1C628.9,111.9,629.1,111.9,628.5,111.8z"/>
					<path fill="#3F30BC" d="M658.5,112.1l-0.1,0.2C659,112.3,658.4,112.3,658.5,112.1z"/>
					<polygon fill="#3F30BC" points="664.2,110.8 663.7,110.6 663.4,110.9 					"/>
					<polygon fill="#3F30BC" points="667.6,112.7 667.3,112.8 668.3,112.7 					"/>
					<path fill="#3F30BC" d="M717.9,113l-0.2-0.5C717.4,112.6,717.3,113.1,717.9,113z"/>
					<path fill="#3F30BC" d="M739.6,112.6c0.2,0.2,0.8,0.4,1.2,0.2C740.4,112.7,739.9,112.5,739.6,112.6z"/>
					<polygon fill="#3F30BC" points="804.8,113.1 804.3,113.3 805.1,113.1 					"/>
				</g>
			</g>
		</g>
	</g>
</g>
<g>
	<path fill="#F37423" d="M436.9,160.5v-10.3l-5,10.3H429l-5-10.3v10.3h-2.8v-15.8h3.4l5.9,12.6l5.9-12.6h3.3v15.8H436.9z"/>
	<path fill="#F37423" d="M442.4,160.5v-15.8h15.2v3.1h-12.1v3.5h11.7v2.5h-11.7v3.5h12.1v3.1H442.4z"/>
	<path fill="#F37423" d="M475.9,160.5l-2-3.7h-9.5l-2,3.7h-3.5l8.6-15.8h3.2l8.6,15.8H475.9z M469.2,147.8l-3.6,6.5h7.2L469.2,147.8
		z"/>
	<path fill="#F37423" d="M481.1,160.5v-15.8h3.1v12.7H496v3.1H481.1z"/>
	<path fill="#F37423" d="M500.9,155.4v5.1h-3.1v-15.8h11.8c0.9,0,1.7,0.1,2.3,0.2c0.6,0.2,1.1,0.4,1.5,0.8c0.4,0.4,0.6,0.9,0.8,1.5
		c0.2,0.6,0.2,1.4,0.2,2.3v1.4c0,0.8-0.1,1.5-0.2,2.1c-0.2,0.6-0.4,1-0.8,1.4c-0.4,0.4-0.9,0.6-1.5,0.8c-0.6,0.2-1.4,0.2-2.3,0.2
		H500.9z M511.4,149.5c0-0.6-0.1-1.1-0.4-1.3c-0.3-0.2-0.7-0.4-1.3-0.4h-8.7v4.7h8.7c0.6,0,1.1-0.1,1.3-0.4c0.3-0.3,0.4-0.7,0.4-1.2
		V149.5z"/>
	<path fill="#F37423" d="M530.2,160.5l-5.5-5.2h-5v5.2h-3.1v-15.8h12.9c0.8,0,1.5,0.1,2.1,0.3c0.6,0.2,1,0.5,1.4,0.8
		c0.4,0.4,0.6,0.9,0.8,1.5c0.2,0.6,0.2,1.4,0.2,2.3v1c0,1-0.1,1.8-0.3,2.4c-0.2,0.6-0.5,1.1-0.9,1.4c-0.4,0.4-1,0.6-1.7,0.7
		c-0.7,0.1-1.5,0.2-2.5,0.2l5.8,5.2H530.2z M530.9,150.1c0-0.8-0.1-1.3-0.3-1.7c-0.2-0.4-0.6-0.6-1.3-0.6h-9.7v4.9h9.7
		c0.6,0,0.9-0.1,1.2-0.4c0.2-0.3,0.4-0.8,0.4-1.4V150.1z"/>
	<path fill="#F37423" d="M536.4,160.5v-15.8h15.2v3.1h-12.1v3.5h11.7v2.5h-11.7v3.5h12.1v3.1H536.4z"/>
	<path fill="#F37423" d="M557.1,155.4v5.1H554v-15.8h11.8c0.9,0,1.7,0.1,2.3,0.2c0.6,0.2,1.1,0.4,1.5,0.8c0.4,0.4,0.6,0.9,0.8,1.5
		c0.2,0.6,0.2,1.4,0.2,2.3v1.4c0,0.8-0.1,1.5-0.2,2.1c-0.2,0.6-0.4,1-0.8,1.4c-0.4,0.4-0.9,0.6-1.5,0.8c-0.6,0.2-1.4,0.2-2.3,0.2
		H557.1z M567.5,149.5c0-0.6-0.1-1.1-0.4-1.3c-0.3-0.2-0.7-0.4-1.3-0.4h-8.7v4.7h8.7c0.6,0,1.1-0.1,1.3-0.4c0.3-0.3,0.4-0.7,0.4-1.2
		V149.5z"/>
</g>
<g>
	<path fill="#3D52A3" d="M462,134.3h11.8l-1,7.2h-26.5l21-21.7h8.6L462,134.3z M450,115l1-7.2h26.5l-1,7.2H450z"/>
	<path fill="#3D52A3" d="M500.6,115h-19.2l1-7.2h26.5l-4.8,33.7h-26.5l3.1-21.7h7.2l-2.1,14.4h12L500.6,115z"/>
	<path fill="#3D52A3" d="M519.3,119.8l-3.1,21.7H509l3.1-21.7H519.3z M532,115h-19.3l1-7.2h26.5l-4.8,33.7h-7.2L532,115z"/>
	<path fill="#3D52A3" d="M548.6,134.3h19.3l-1,7.2h-26.5l1-7.2l2.1-14.4H570l-1,7.2h-19.3L548.6,134.3z M544.1,115l1-7.2h26.5
		l-1,7.2H544.1z"/>
</g>
<path fill="#3D52A3" d="M327.6,141.6h-7.2l3.1-21.7h26.6l-1,7.2h-19.3L327.6,141.6z M324.2,115.1l1-7.2h26.5l-1,7.2H324.2z"/>
<path fill="#3D52A3" d="M360,134.3h16.9l-1,7.2h-24.1l4.8-33.7h7.2L360,134.3z"/>
<path fill="#3D52A3" d="M388.9,134.3h19.3l-1,7.2h-26.5l1-7.2l2.1-14.4h26.6l-1,7.2h-19.3L388.9,134.3z M384.4,115.1l1-7.2h26.5
	l-1,7.2H384.4z"/>
<path fill="#3D52A3" d="M426.1,122.5l11.1-14.7h8.6l-15.4,20.5l10,13.3h-9.6l-5.2-6.9l-12.4,16.5h-8.6l16.7-22.2l-6.8-9.1h9.6
	L426.1,122.5z"/>
</svg>
