<?xml version="1.0" encoding="utf-8"?>
<!-- Generator: Adobe Illustrator 18.1.1, SVG Export Plug-In . SVG Version: 6.00 Build 0)  -->
<!DOCTYPE svg PUBLIC "-//W3C//DTD SVG 1.1//EN" "http://www.w3.org/Graphics/SVG/1.1/DTD/svg11.dtd">
<svg version="1.1" xmlns="http://www.w3.org/2000/svg" xmlns:xlink="http://www.w3.org/1999/xlink" x="0px" y="0px" width="924px"
	 height="166px" viewBox="-17 198 924 166" enable-background="new -17 198 924 166" xml:space="preserve">
<g id="Layer_2">
	<defs>
		<filter id="Adobe_OpacityMaskFilter" filterUnits="userSpaceOnUse" x="380.2" y="197" width="124.2" height="126.8">
			<feColorMatrix  type="matrix" values="1 0 0 0 0  0 1 0 0 0  0 0 1 0 0  0 0 0 1 0"/>
		</filter>
	</defs>
	<mask maskUnits="userSpaceOnUse" x="380.2" y="197" width="124.2" height="126.8" id="SVGID_1_">
		<g filter="url(#Adobe_OpacityMaskFilter)">
			<g>
				<defs>
					<rect id="SVGID_2_" x="372.1" y="185.8" width="134.1" height="148.3"/>
				</defs>
				<clipPath id="SVGID_3_">
					<use xlink:href="#SVGID_2_"  overflow="visible"/>
				</clipPath>
				<g clip-path="url(#SVGID_3_)">
					
						<image overflow="visible" width="544" height="502" xlink:href="12CDC4A41801C678.jpg"  transform="matrix(1.199193e-11 -0.2726 0.2671 1.223956e-11 372.1448 334.1253)">
					</image>
				</g>
			</g>
		</g>
	</mask>
	<g display="none" mask="url(#SVGID_1_)">
		<g display="inline">
			<defs>
				<rect id="SVGID_4_" x="380.2" y="197" width="124.2" height="126.8"/>
			</defs>
			<clipPath id="SVGID_5_">
				<use xlink:href="#SVGID_4_"  overflow="visible"/>
			</clipPath>
			<rect x="380.2" y="197" opacity="0.69" clip-path="url(#SVGID_5_)" fill="#231F20" width="124.2" height="126.8"/>
		</g>
	</g>
	<path fill="#383B96" d="M494.1,262.2c0-30.3-24-54.8-53.7-54.8c-29.7,0-53.7,24.5-53.7,54.8s24,54.8,53.7,54.8
		C470.1,317,494.1,292.4,494.1,262.2"/>
	<path fill="#FFFFFF" d="M485.1,262.2c0-25.2-20-45.6-44.7-45.6c-24.7,0-44.7,20.4-44.7,45.6c0,25.2,20,45.6,44.7,45.6
		C465.1,307.8,485.1,287.4,485.1,262.2"/>
	
		<path fill="none" stroke="#F27324" stroke-width="4" stroke-linecap="round" stroke-linejoin="round" stroke-dasharray="0,7.822" d="
		M498.4,257.7c-2.2-30-26.2-53.8-55.8-54.9"/>
	
		<path fill="none" stroke="#F27324" stroke-width="4" stroke-linecap="round" stroke-linejoin="round" stroke-dasharray="0,7.822" d="
		M436.1,203c-29.4,2.2-52.7,26.7-53.8,57"/>
	
		<path fill="none" stroke="#F27324" stroke-width="4" stroke-linecap="round" stroke-linejoin="round" stroke-dasharray="0,7.822" d="
		M382.4,266.6c2.2,30,26.2,53.8,55.8,54.9"/>
	
		<path fill="none" stroke="#F27324" stroke-width="4" stroke-linecap="round" stroke-linejoin="round" stroke-dasharray="0,7.822" d="
		M444.8,321.4c29.4-2.2,52.7-26.7,53.8-57"/>
	<g>
		<polygon fill="#3D52A3" points="425,235.2 423.2,247.9 462.2,247.9 471.6,235.2 		"/>
		<polygon fill="#3D52A3" points="446.6,269.2 452.9,260.7 456,256.4 422,256.4 418,284.3 427.5,292.2 429.4,293.8 432.9,269.2 		
			"/>
	</g>
	<path fill="#F37423" d="M442.8,269.9c0.8,0,1.5,0,2.3,0c0.5,0,0.9,0.1,1.1,0.7c0,0.1,0.1,0.2,0.1,0.2l6.5-8.6l4.6-6.1
		c-0.3,0-0.6,0-0.9,0.2c-0.6,0.3-1.1,0.2-1.7-0.1c-1.7-0.9-3.6-1.5-5.5-1.7c-1.9-0.2-3.6,0.6-5.2,1.2c-0.3,0.1-0.6,0.2-0.9,0
		c-0.1-0.1-0.3-0.2-0.5-0.2c-1.8-0.8-3.6-1.3-5.4-0.5c-0.5,0.2-1,0.7-1.5,1c-0.4,0.2-0.8,0.3-1.2,0.4c-0.1,0-0.3-0.2-0.3-0.4
		c0.2-1.2-0.1-2.3-0.5-3.4c-0.4-1.1-0.7-2.1-0.5-3.2c0.1-0.7,0-1.5,0-2.3c0-0.1,0-0.3,0-0.4c0.3-1,0.5-1.9,0.8-2.9
		c0.1-0.2,0.3-0.3,0.5-0.3c0.1,0,0.3,0.2,0.4,0.4c0.3,1,0.8,1.4,1.9,1.3c0.7,0,1.3-0.2,2-0.2c0.9,0,1.5-0.5,2.1-1.1
		c0.2-0.2,0.4-0.4,0.6-0.5c0.8-0.7,1.1-1.6,0.8-2.6c0-0.2-0.1-0.4-0.1-0.5c-0.3-1-0.5-2-1.3-2.8c-0.2-0.1-0.4-0.3-0.6-0.2
		c-1.9,0.1-3.7,0.2-5.6,0.4c-1.7,0.2-3.3,0.6-4,2.4c-0.2,0.5-0.4,0.9-0.5,1.4c-0.5,2.3-1.7,4.3-2.8,6.3c-1,1.8-1.9,3.6-2.7,5.4
		c-0.8,2-1.2,4.2-0.6,6.4c0,0.2,0,0.4,0,0.6c0,0.6-0.1,1.3-0.2,1.9c-0.1,0.5,0.2,0.9,0.6,1.3c1.8,1.5,3.7,2.8,5.8,3.8
		C434.3,268.7,438.4,270.1,442.8,269.9z"/>
</g>
<g id="Layer_1">
	<rect x="408.1" y="214.1" display="none" fill="#F2F2F2" stroke="#FF7419" width="71" height="71"/>
	<g display="none">
		<polygon display="inline" fill="#3D52A3" points="427.4,224.1 425.7,236.2 462.6,236.2 471.5,224.1 		"/>
		<polygon display="inline" fill="#3D52A3" points="447.9,256.3 453.8,248.2 456.7,244.2 424.6,244.2 420.8,270.6 429.8,278 
			431.6,279.5 434.9,256.3 		"/>
	</g>
	<path display="none" fill="#F37423" d="M444.2,257c0.7,0,1.5,0,2.2,0c0.5,0,0.9,0.1,1,0.7c0,0.1,0.1,0.2,0.1,0.2l6.1-8.1l4.4-5.8
		c-0.3,0-0.6,0-0.9,0.2c-0.6,0.2-1,0.2-1.6-0.1c-1.6-0.8-3.4-1.4-5.2-1.6c-1.8-0.2-3.4,0.5-4.9,1.2c-0.3,0.1-0.5,0.2-0.8,0
		c-0.1-0.1-0.3-0.2-0.4-0.2c-1.7-0.7-3.4-1.2-5.1-0.5c-0.5,0.2-0.9,0.7-1.4,0.9c-0.3,0.2-0.7,0.3-1.1,0.3c-0.1,0-0.3-0.2-0.3-0.3
		c0.2-1.1-0.1-2.2-0.5-3.2c-0.3-1-0.7-1.9-0.5-3c0.1-0.7,0-1.4,0-2.2c0-0.1,0-0.3,0-0.4c0.2-0.9,0.5-1.8,0.8-2.7
		c0.1-0.2,0.3-0.3,0.5-0.3c0.1,0,0.3,0.2,0.4,0.3c0.3,0.9,0.8,1.3,1.8,1.3c0.6,0,1.3-0.2,1.9-0.2c0.9,0,1.4-0.5,2-1
		c0.2-0.2,0.3-0.4,0.5-0.5c0.8-0.7,1-1.5,0.8-2.4c0-0.2-0.1-0.3-0.1-0.5c-0.3-1-0.5-1.9-1.3-2.6c-0.1-0.1-0.4-0.2-0.6-0.2
		c-1.8,0.1-3.5,0.2-5.3,0.3c-1.6,0.1-3.1,0.6-3.8,2.3c-0.2,0.4-0.4,0.8-0.5,1.3c-0.5,2.2-1.6,4-2.6,5.9c-0.9,1.7-1.8,3.4-2.5,5.1
		c-0.8,1.9-1.1,3.9-0.5,6c0,0.2,0,0.4,0,0.5c0,0.6-0.1,1.2-0.2,1.8c-0.1,0.5,0.2,0.9,0.5,1.2c1.7,1.4,3.5,2.7,5.5,3.6
		C436.2,255.8,440,257.1,444.2,257z"/>
	<g>
		<path fill="#F37423" d="M427.9,347.5v-10.3l-5,10.3H420l-5-10.3v10.3h-2.8v-15.8h3.4l5.9,12.6l5.9-12.6h3.3v15.8H427.9z"/>
		<path fill="#F37423" d="M433.4,347.5v-15.8h15.2v3.1h-12.1v3.5h11.7v2.5h-11.7v3.5h12.1v3.1L433.4,347.5L433.4,347.5z"/>
		<path fill="#F37423" d="M466.9,347.5l-2-3.7h-9.5l-2,3.7h-3.5l8.6-15.8h3.2l8.6,15.8H466.9z M460.2,334.8l-3.6,6.5h7.2
			L460.2,334.8z"/>
		<path fill="#F37423" d="M472.1,347.5v-15.8h3.1v12.7H487v3.1H472.1z"/>
		<path fill="#F37423" d="M491.9,342.4v5.1h-3.1v-15.8h11.8c0.9,0,1.7,0.1,2.3,0.2c0.6,0.2,1.1,0.4,1.5,0.8c0.4,0.4,0.6,0.9,0.8,1.5
			c0.2,0.6,0.2,1.4,0.2,2.3v1.4c0,0.8-0.1,1.5-0.2,2.1c-0.2,0.6-0.4,1-0.8,1.4c-0.4,0.4-0.9,0.6-1.5,0.8c-0.6,0.2-1.4,0.2-2.3,0.2
			H491.9z M502.4,336.5c0-0.6-0.1-1.1-0.4-1.3c-0.3-0.2-0.7-0.4-1.3-0.4H492v4.7h8.7c0.6,0,1.1-0.1,1.3-0.4c0.3-0.3,0.4-0.7,0.4-1.2
			V336.5z"/>
		<path fill="#F37423" d="M521.2,347.5l-5.5-5.2h-5v5.2h-3.1v-15.8h12.9c0.8,0,1.5,0.1,2.1,0.3s1,0.5,1.4,0.8
			c0.4,0.4,0.6,0.9,0.8,1.5c0.2,0.6,0.2,1.4,0.2,2.3v1c0,1-0.1,1.8-0.3,2.4c-0.2,0.6-0.5,1.1-0.9,1.4c-0.4,0.4-1,0.6-1.7,0.7
			c-0.7,0.1-1.5,0.2-2.5,0.2l5.8,5.2H521.2L521.2,347.5z M521.9,337.1c0-0.8-0.1-1.3-0.3-1.7c-0.2-0.4-0.6-0.6-1.3-0.6h-9.7v4.9h9.7
			c0.6,0,0.9-0.1,1.2-0.4c0.2-0.3,0.4-0.8,0.4-1.4L521.9,337.1L521.9,337.1z"/>
		<path fill="#F37423" d="M527.4,347.5v-15.8h15.2v3.1h-12.1v3.5h11.7v2.5h-11.7v3.5h12.1v3.1L527.4,347.5L527.4,347.5z"/>
		<path fill="#F37423" d="M548.1,342.4v5.1H545v-15.8h11.8c0.9,0,1.7,0.1,2.3,0.2c0.6,0.2,1.1,0.4,1.5,0.8c0.4,0.4,0.6,0.9,0.8,1.5
			c0.2,0.6,0.2,1.4,0.2,2.3v1.4c0,0.8-0.1,1.5-0.2,2.1c-0.2,0.6-0.4,1-0.8,1.4c-0.4,0.4-0.9,0.6-1.5,0.8c-0.6,0.2-1.4,0.2-2.3,0.2
			H548.1z M558.5,336.5c0-0.6-0.1-1.1-0.4-1.3c-0.3-0.2-0.7-0.4-1.3-0.4h-8.7v4.7h8.7c0.6,0,1.1-0.1,1.3-0.4
			c0.3-0.3,0.4-0.7,0.4-1.2V336.5z"/>
	</g>
	<g>
		
			<image overflow="visible" opacity="0.59" width="138" height="47" xlink:href="12CDC4A41801C67E.png"  transform="matrix(1 0 0 1 431 288)">
		</image>
		<g>
			<g>
				<path fill="#3D52A3" d="M453,321.3h11.8l-1,7.2h-26.5l21-21.7h8.6L453,321.3z M441,302l1-7.2h26.5l-1,7.2H441z"/>
				<path fill="#3D52A3" d="M491.6,302h-19.2l1-7.2h26.5l-4.8,33.7h-26.5l3.1-21.7h7.2l-2.1,14.4h12L491.6,302z"/>
				<path fill="#3D52A3" d="M510.3,306.8l-3.1,21.7H500l3.1-21.7H510.3z M523,302h-19.3l1-7.2h26.5l-4.8,33.7h-7.2L523,302z"/>
				<path fill="#3D52A3" d="M539.6,321.3h19.3l-1,7.2h-26.5l1-7.2l2.1-14.4H561l-1,7.2h-19.3L539.6,321.3z M535.1,302l1-7.2h26.5
					l-1,7.2H535.1z"/>
			</g>
		</g>
	</g>
	<g>
		
			<image overflow="visible" opacity="0.59" width="44" height="47" xlink:href="12CDC4A41801C67A.png"  transform="matrix(1 0 0 1 305 288)">
		</image>
		<g>
			<path fill="#3D52A3" d="M318.6,328.6h-7.2l3.1-21.7h26.6l-1,7.2h-19.3L318.6,328.6z M315.2,302.1l1-7.2h26.5l-1,7.2H315.2z"/>
		</g>
	</g>
	<g>
		
			<image overflow="visible" opacity="0.59" width="38" height="47" xlink:href="12CDC4A41801C675.png"  transform="matrix(1 0 0 1 336 288)">
		</image>
		<g>
			<polygon fill="#3D52A3" points="351,321.3 367.9,321.3 366.9,328.5 342.8,328.5 347.6,294.8 354.8,294.8 			"/>
		</g>
	</g>
	<g>
		
			<image overflow="visible" opacity="0.59" width="44" height="47" xlink:href="12CDC4A41801C676.png"  transform="matrix(1 0 0 1 365 288)">
		</image>
		<g>
			<path fill="#3D52A3" d="M379.9,321.3h19.3l-1,7.2h-26.5l1-7.2l2.1-14.4h26.6l-1,7.2h-19.3L379.9,321.3z M375.4,302.1l1-7.2h26.5
				l-1,7.2H375.4z"/>
		</g>
	</g>
	<g>
		
			<image overflow="visible" opacity="0.59" width="54" height="57" xlink:href="12CDC4A41801C674.png"  transform="matrix(1 0 0 1 389 288)">
		</image>
		<g>
			<polygon fill="#3D52A3" points="417.1,309.5 428.2,294.8 436.8,294.8 421.4,315.3 431.4,328.6 421.8,328.6 416.6,321.7 
				404.2,338.2 395.6,338.2 412.3,316 405.5,306.9 415.1,306.9 			"/>
		</g>
	</g>
	<g opacity="0.33">
		<g>
			<g>
				<g>
					<path fill="#3F30BC" d="M282,299.5c0.2,0,0.1,0-0.3,0h-0.3H282z"/>
					<path fill="#3F30BC" d="M279.2,299.5c-0.5,0-1.1,0-0.7,0.1c0.5,0,0.5,0,1.1-0.1c0.4,0,0.7,0,0.7,0c0.2,0,0.6,0,0.9,0
						C280.6,299.5,279.9,299.5,279.2,299.5C279,299.5,279.2,299.5,279.2,299.5z"/>
					<path fill="#3F30BC" d="M238.6,299.1h0.3C238.8,299.1,238.7,299.1,238.6,299.1z"/>
					<path fill="#3F30BC" d="M213.4,298.8c0.2,0,0.3,0,0.3-0.1C213.5,298.7,213.4,298.7,213.4,298.8z"/>
					<path fill="#3F30BC" d="M209.1,298.3c0.1,0,0.2,0,0.3,0C209.3,298.3,209.2,298.3,209.1,298.3z"/>
					<path fill="#3F30BC" d="M238.6,299.1l-0.7-0.1C237.9,299.1,238.2,299.1,238.6,299.1z"/>
					<path fill="#3F30BC" d="M273.6,299.7c0.1,0,0.3,0,0.4,0H273.6L273.6,299.7z"/>
					<path fill="#3F30BC" d="M249.7,299h0.2c0.1,0,0.1-0.1,0.2-0.1L249.7,299z"/>
					<path fill="#3F30BC" d="M258.2,299.1c-0.2,0-0.3,0.1-0.3,0.2c0.1-0.1,0.3-0.1,0.4-0.1C258.3,299.2,258.3,299.1,258.2,299.1z"/>
					<path fill="#3F30BC" d="M271.7,299.4h0.2C271.9,299.4,271.8,299.4,271.7,299.4z"/>
					<path fill="#3F30BC" d="M243.6,298.9C243.6,298.9,243.5,298.8,243.6,298.9C243.5,298.8,243.5,298.9,243.6,298.9z"/>
					<path fill="#3F30BC" d="M5.4,299.8L5.4,299.8C5.3,299.8,5.3,299.8,5.4,299.8z"/>
					<polygon fill="#3F30BC" points="-4.5,299.5 -4.4,299.5 -4.3,299.5 					"/>
					<path fill="#3F30BC" d="M201.2,297.8C201.3,297.8,201.3,297.8,201.2,297.8C201.5,297.8,201.4,297.8,201.2,297.8z"/>
					<path fill="#3F30BC" d="M129,297.8c0.8,0.4-1.3,0.5-0.1,0.9C128.8,298.5,130,298,129,297.8z"/>
					<path fill="#3F30BC" d="M273.4,299.7h-0.3C273.2,299.7,273.3,299.7,273.4,299.7z"/>
					<path fill="#3F30BC" d="M128.9,298.7L128.9,298.7h0.1C129,298.7,129,298.7,128.9,298.7z"/>
					<path fill="#3F30BC" d="M183.1,297.8c0,0.1,0.1,0.1,0.2,0.2C183.3,298,183.2,297.9,183.1,297.8z"/>
					<path fill="#3F30BC" d="M196.6,298.5l-0.3-0.1C196.4,298.5,196.5,298.5,196.6,298.5z"/>
					<path fill="#3F30BC" d="M176.1,298.4c-0.2,0-0.2-0.1-0.5,0c0,0,0,0,0.1,0C175.8,298.3,175.9,298.3,176.1,298.4z"/>
					<path fill="#3F30BC" d="M168.8,298.3l0.1,0.1c0.1,0,0.2,0,0.2,0L168.8,298.3z"/>
					<path fill="#3F30BC" d="M27.5,300.3c-0.2-0.1-0.3-0.1-0.3-0.2C27.3,300.3,26.3,300.3,27.5,300.3z"/>
					<path fill="#3F30BC" d="M273.6,299.7c0,0-0.1,0-0.2,0C273.5,299.7,273.5,299.7,273.6,299.7L273.6,299.7z"/>
					<path fill="#3F30BC" d="M175.8,301.5l-1.2-0.1C175,301.5,175.4,301.5,175.8,301.5z"/>
					<path fill="#3F30BC" d="M79.9,301h-0.3C79.7,301,79.8,301,79.9,301z"/>
					<path fill="#3F30BC" d="M171.2,301.5c-0.2-0.1-0.4-0.2-0.7-0.3l-0.1,0.1L171.2,301.5z"/>
					<path fill="#3F30BC" d="M27.2,300.1L27.2,300.1L27.2,300.1z"/>
					<path fill="#3F30BC" d="M19.6,300.4c1.1,0,0.5-0.2,0.8-0.3c1.3,0,0.6,0.2,1.1,0.3c0.8,0,1.5-0.2,2.1-0.2c0,0,0.2,0.1,0,0.1
						c0.9-0.2,2.6,0,3.6-0.2c0.1,0,0.1,0,0.1,0.1c-0.2-0.1-0.2-0.3-0.2-0.3c0.5,0,0.9-0.2,1.1,0c-0.3,0-0.3,0.1-0.5,0.1l0.5-0.1
						c0.5,0.2-0.7,0.1-0.7,0.2c1-0.1,2.2-0.3,3-0.2c0.2,0.2-1.8,0.1-0.8,0.3l-1.2-0.1c0.9,0.4-0.7,0,0.1,0.4c1.6,0.1,1.8-0.1,3.3,0
						c0.4-0.1-0.1-0.2,0.2-0.3c2.2-0.2,1.8,0.7,3.4,0.4c0.4-0.2,0.6-0.5,1.8-0.3l-0.4,0.3c1.5,0.1,0.9-0.4,2.5-0.2
						c-0.3,0.1-1.2,0.1-1,0.1c1,0.3,0.7-0.2,1.5-0.2l0.2,0.3c1.6,0,3.4-0.2,5.2-0.3c-0.1,0.1-0.4,0.2,0,0.3c2.3-0.1,4.9,0.1,7,0.3
						l0.8-0.3c0.2,0,0.4,0.1,0.2,0.2c0.9,0.1,0-0.2,0.5-0.3c0.5,0,0.6,0.2,0.3,0.3c1.5-0.2,4.3-0.5,5.9-0.2l-0.3,0.1
						c1.2,0.1,1.4-0.7,2.5-0.3l-0.2,0.1c2.7,0.2,5.7-0.1,7.7,0.4c0.4-0.5,2.7,0.3,2.8-0.5c1.5,0.4,1.1,0.5,3.3,0.8
						c0.6,0,0.9-0.5,1.6-0.5v0.4l1-0.4l0.5,0.5l0.7-0.1c-0.3,0-0.6-0.2-0.5-0.3c1-0.2,2.5,0.3,2.6,0.5l2.5-0.3
						c-0.1,0.2-0.5,0.2-0.8,0.3c1.3-0.4,0.2,0.4,1.4,0.1c-0.2-0.1,0.1-0.2,0.1-0.3c0.6,0.3,2,0.3,3,0.2l-0.2,0.3
						c1.8,0.1,3.9-0.1,5.9-0.1c-0.7-0.1-0.6-0.6,0-0.7l0.2,0.4c0.4-0.3-0.6-0.2,0.2-0.5c0.8,0.1,0.5,0.5,0.1,0.7l0.9-0.1
						c0.1,0.1-0.2,0.2-0.2,0.4c0.4-0.3,1.6,0.5,2.2,0l0.1,0.1c2.1,0,3-0.1,4.7-0.1c0-0.4,0.7-0.3,1.2-0.6c1.2,0.1,2.6,0.5,4.1,0.4
						c1-0.2,0.3-0.3,0.8-0.6c0.1,0.4,1.6,0.3,0.8,0.6c1.8-0.1,2.3-0.1,4.5-0.4c-0.2-0.2-0.5-0.2-0.4-0.3c0.4-0.1,0.9,0.2,0.9,0.3
						h-0.1c2.5-0.6,5.8,1.1,7.8,0.3h-0.1l2.1-0.4c1,0.1-0.6,0.3,0.1,0.5c2.3-0.6,3.6,0.1,5.4-0.3c1.4,1.1,5.1-0.1,7,0.6l-0.1-0.3
						c0.5-0.3,0.6,0.2,1,0.2c-0.1-0.2-0.5-0.2-0.2-0.4c4.2-0.3,8.8,0.4,13.1,0.6c1.6,0.1,0.9-1.4,2.9-0.7l-0.6,0.5
						c3.2-0.6,6.6,0,9.7-0.5c-0.2,0.1-0.2,0.3-0.5,0.3c0.7,0.4,2.5,0,2.5-0.3c0.5,0,0.1,0.3,0.4,0.4c0.7,0.2,1.7-0.5,2-0.1
						c0.1,0.1-0.2,0.1-0.3,0.1c0.4-0.2,2,0,1.6-0.4c1.2,0.2,2.3-0.2,3.2,0c0.6-0.4,2,0.2,2.2-0.4c-0.1,0.6,2.1,0.5,2.8,0.2
						c-0.2,0.2,0.6,0.2,0.4,0.5c0.9,0,1.6-0.1,1.5-0.5c1.6,0.8,3.2-0.6,4,0.3c2.5-0.4,4.9-0.6,7.1-0.7c-0.1,0.6-2.5,0.1-2.4,0.7
						c2.2-0.3,3.4-0.8,5.5-0.7c0.6,0.1-0.3,0.3-0.5,0.4c2.2-0.3,4.2,0,6.1-0.3c0,0.1-0.2,0.1-0.4,0.2c0.4,0,0.9,0.1,0.8-0.2
						l-0.4,0.1c-0.6-0.4,1.5-0.8,1.6-1c-0.6,0.8,1.9,0.2,0.9,1.1c0.2-0.1,0.6-0.2,0.5-0.4c0.4,0,0.5,0.1,0.1,0.3
						c1.4-0.2,0.9-0.4,2.1-0.4c0,0.1-0.3,0.2-0.4,0.3c0.6-0.2,1.2-0.5,2.3-0.4c-0.1,0.1,0.1,0.2-0.3,0.2c1.8-0.1,3-0.6,5-0.4
						c-0.6,0.5,0.7,0.2,0.8,0.6l1-0.1l-0.4-0.2c0.9,0,1.7-0.3,2.5-0.2l-0.7,0.2l1.7-0.1l-1-0.2c0.9-0.2-0.1-0.5,1.1-0.4
						c-0.2,0,0.9,0,1.4,0.3l0,0c0.5-0.1,0.9-0.3,1.6-0.2c0.2,0.1-0.1,0.5,0,0.5c0.4-0.3,2.2-0.1,2.7-0.5c-0.2,0.1-0.2,0.3-0.1,0.3
						l0.4-0.3c0.4,0.1,0.5,0.1,0.4,0.3c1.3,0-0.4-0.5,1.1-0.3c-0.1,0-0.1,0.1-0.3,0.1c1.5,0.1,3-0.2,4.4-0.1
						c0.4,0.4-1.2,0.1-0.8,0.4c2-0.1,4.2-0.5,6.1-0.4h-0.4c0.3-0.5,1.5,0.2,2.4,0c-0.2,0-0.3,0.3-0.3,0.2c1.3,0.1,2.7-0.1,4.8-0.3
						l-0.3,0.1c0.8,0.1,2.1,0,2.9,0.1c0.3-0.1,0.7-0.1,0.4-0.3c2.6,0.6,5-0.3,7.4,0.1c-0.3,0-0.7,0.1-0.4,0.1l2-0.1
						c-0.2-0.2-0.3-0.1-0.7-0.2c0.3-0.1,0.8-0.2,1.3-0.2c-0.9,0.1,0,0.3,0.4,0.3c-0.1,0,0.1-0.1,0-0.1c1,0.3,0.2-0.3,1.6-0.1
						l-0.1,0.1c0.5,0,1-0.1,1.6-0.1c0.2,0.2-0.6,0.1-0.6,0.2c0.8,0,1.6-0.3,2.3-0.2c-0.3,0-0.8,0-1.2,0.1c0.8,0.2,0.9,0.1,1.5,0.2
						h-0.1l1.4,0.1h-0.3c1-0.4,2-0.1,3.4-0.3c-1.3,0.2-0.2,0.1-0.3,0.3c0.3,0,0.9,0.1,0.7,0.1c0.6-0.1,1.1,0.1,2-0.1
						c0,0,0.7,0,0.5,0.1c0.8,0-0.2-0.1-0.1-0.1c1.3-0.1,3,0.1,4.9-0.1c1.6-0.1,1.9-0.2,3.4-0.2c0.5,0-0.4,0.1-0.4,0.1
						c0.8,0,1.4,0,2.2,0c-0.2,0,0,0,0.2,0.1c0.6,0,0.4-0.1,1.2-0.1c-0.1,0-0.3,0.1-0.6,0.1c0.7,0,1.4-0.1,2.2-0.1
						c0.2,0-0.4,0-0.7,0.1c0.8,0,2.2-0.1,2.4-0.1h-0.5c0.3,0,0.2,0-0.1,0c-0.7,0-1,0-1.1,0h0.5c-0.5-0.1-2.1,0-3.2,0l0.4-0.1
						l-1.1,0.1c-0.2,0-0.4-0.1,0.1-0.1c-0.8-0.1-0.7,0-1.3,0c-0.1,0,0,0,0,0h-0.7c0.1,0-0.1-0.1,0.3-0.1c-1.3-0.1-2.2,0.1-2.7,0h0.1
						c-1.9,0-0.2,0.1-1.6,0.2l-0.9-0.3l-0.2,0.1c-0.2,0-0.6,0-0.5-0.1c-0.7,0.1,0.1,0.1-0.3,0.1c-0.9-0.1-2.5,0.1-2.8-0.2
						c-0.3,0.1,0.9,0.1-0.1,0.2c-0.3-0.2-1.1,0-2-0.1c0.3-0.1,1.1-0.1,0.2-0.2c-0.5,0.2-1.6-0.1-2.4,0c0,0.2-1.5,0.1-2.7,0.1
						c0.1-0.1-2.2-0.1-3.4-0.2l0,0c-0.2,0.2-1.4,0.2-2.2,0.2c0-0.1,0.2-0.2,0.6-0.3h-0.8c-0.2,0.1-0.4,0.1-0.9,0.1l0.2-0.2
						c-1,0-2.1,0.2-3.4,0.1c-0.1,0.2,1.1,0.5-0.4,0.7c-0.1-0.1-0.1-0.3,0.3-0.3c-0.1,0-0.4,0.1-0.7,0l0.6-0.2
						c-0.6-0.1-0.3,0.1-0.8,0.1c0-0.2-0.4-0.1-0.3-0.2c0.1,0,0.4,0.1,0.6,0c-0.6,0-1.2-0.1-1.4-0.2c0,0.1,0,0.2-0.4,0.2
						c-1,0-0.4-0.2-1-0.3c-0.3,0.1-0.9,0-0.9,0.2c-0.3,0-0.4-0.1-0.5-0.2c-0.5,0.1-2.5,0-1.9,0.3l0.1-0.1l-0.1-0.1l0,0l0,0
						c-1.8,0-3.7-0.1-5.4,0l0,0c-1,0.1-2.3,0.1-3.1,0.3c-0.3,0-0.7-0.2-0.6-0.3c-0.8,0.1-0.9,0.2-2,0c0.8-0.2-0.3-0.2,0.8-0.1
						c-1-0.1-1.3-0.3-2.4,0c0.4-0.3-0.8-0.3-1.3-0.3l0.7,0.2c-0.6,0-1,0-1.5,0l0.3-0.3c-2.1-0.5-3.8,0.7-5.5-0.1
						c-0.6,0.3,1.2,0.2,0.7,0.5c-1-0.1-2-0.6-2.3-0.6c-1.3-0.2-1.3,0.5-2.7,0.4c0.2,0.1,0.3,0.5-0.7,0.6c-1-0.1-1.2-0.6-0.6-0.7
						c0.2,0,0.3,0,0.3,0.1c0.3,0,0.7-0.1,0.3-0.3l-0.1,0.1c-0.5-0.1-1.8-0.1-1.5-0.4c-0.7,0.1-0.3,0.2,0.2,0.3c-1.3-0.2-2,0-3.3-0.2
						c0.2,0.1,0.4,0.2,0.2,0.2c-1.9-0.2-0.8,0.3-2.1,0.3c-0.7-0.2,0.3-0.5-1-0.3c-0.8-0.2-0.2-0.4,0.1-0.5c-1.2,0.3-2.2-0.2-2.9-0.3
						l0.6-0.1c-0.4,0.1-0.7,0.1-1,0.1l0.4,0.3c-0.4-0.1-0.7-0.1-0.7-0.2c-0.4,0.2,0.3,0.5-0.5,0.8c-0.5-0.2-1.5,0.2-1.6-0.2
						c1.5,0.1-0.2-0.4,1.1-0.5c-0.2,0-0.6,0-0.9,0c-0.1,0,0.1-0.1,0.2-0.1c-1.5-0.4-0.7,0.4-2.2,0.4c0.2-0.2-0.4-0.4-0.6-0.4
						c0.6,0,0.3,0.4-0.3,0.6c-1-0.2-1.1,0.1-1.6,0.1l0.6,0.1c-0.2,0.2-0.7,0.2-1.4,0.3c-0.1-0.2,0.6-0.1,0.4-0.2
						c-0.8,0.4-1.7-0.4-2.7-0.2c-0.5-0.2,0-0.4-0.5-0.6c-1.2,0.3-1.3-0.3-2.5-0.1c0.4,0.3,0.4,0.2-0.5,0.5l2-0.2l-1.3,0.5
						c0.6,0,1.3-0.2,1.7-0.1c-0.6,0.3-0.6,0.2-0.3,0.4c-0.8-0.5-1.7,0.3-2.6-0.1v-0.8c-1.5-0.4-2.6,0.4-4.5,0.2l0.6,0.1
						c-0.3,0.3-1.2,0-1.8,0.2c0.1-0.3-0.3-0.4-0.6-0.5c0,0.2-1.4,0-1.6,0.5l-0.8-0.4c-1.5-0.2-1.7,0.8-3.2,0.7
						c0.4-0.3-0.2-0.5,0.8-0.7c-0.5,0-0.9-0.1-0.9,0.1c-0.3-0.2-1.4,0.4-1.8,0.1c-0.2,0.1-0.3,0.4-0.8,0.4c-0.1-0.1,0-0.1,0-0.1
						c0,0.1-0.9,0.2-0.4,0.5c-1.5-0.9-4.2,0.1-5.5-0.7c-1.1,0.1-2.4,0.2-3.3,0.2c0.1-0.1,0-0.1,0.2-0.1c-1.3-0.3-0.8,0.8-2.4,0.5
						c-0.8-0.5,0.8-0.3,0.3-0.4c-0.2-1-1.8,0.1-2.9-0.4l0.2-0.1c-0.8-0.3-1.9,0.4-3.2,0.3c0,0,0.1-0.1,0-0.1
						c-0.9,0.5-2.5,0.6-3.8,0.8c0.4-0.4,0.6-0.2,0.3-0.6c-0.6,0.1,0.2,0.6-0.9,0.7c-0.4-0.2-1.2-0.4-1.3-0.8h1
						c-0.5-0.5-1.3,0-1.9-0.1l0.1-0.2c-1.6,0.1-1.6,0.7-3.3,0.6l0.2,0.2c-0.9,0.6-0.8-0.3-1.7,0.1l-0.3-0.6
						c-0.6,0.1-2.2,0.6-3.3,0.7c0.6-0.4,1.9-0.7,2.7-0.9c-0.6,0-2.1,0-2.4,0.3c0.2-0.1,0.6-0.2,0.8-0.1c-0.8,0.5-1.7,0.7-3,0.7
						c0.2-1.1-3.2-0.3-4.1-1.2c-2.2,0.4-4.3-0.2-6.8-0.1c0.9,0.9-0.7,0-0.6,0.9c-0.6,0.1-0.8,0-0.9,0l-1.8-0.5
						c-0.4-0.3,0.6-0.2,0.5-0.4c-1.3-0.1-0.5-0.4-1.4-0.6c0.2,0.3-0.4,0.5-1.2,0.3l1,0.4c-1.8,0.5-1.6-0.8-3.4-0.3l0.6-0.3
						c-0.9,0.2-3.4,0-4.3,0.7c-0.2-0.1-0.4-0.3,0-0.4c-2.2-0.1-4.9,0.8-6.7,0.3l0.2-0.2c-0.4,0.1-0.7,0.4-1.2,0.2
						c0-0.1,0.2-0.2,0-0.2c-0.2,0.1-1.1,0.4-1.6,0.3l0.5-0.2c-2.2-0.3-3.3,0.6-5.1,0.8c0-0.6-1.7-0.8-2.5-0.9v-0.1
						c-2.5-0.1-4.3,0.5-6.6,0.8c-1.4-0.7-4.9-0.2-7.2-0.6c0.4,0.1-0.1,0.5-0.5,0.5c-0.5-0.1-1.5,0.4-1.4-0.1H86
						c-0.4-0.5-1.5-0.4-2.4-0.4l-0.1,0.7c-2.3-1-6,0.4-7.3-0.5c-0.6,0.2-1.2,0.2-1.8,0.3v-0.4c-1.5-0.1-2.3-0.1-4.2,0l0.4-0.3
						c-1.1,0-1.3,1-2.3,1l-0.3-0.5c-1.9,0-3.8-0.4-5.6,0.1c0-0.1,0.1-0.2,0.4-0.2c-0.9,0-3.4-0.3-3.1,0.4c0-0.4-1.9,0-2.9,0.2
						L57,298c-0.9,0.4-0.9,0.5-2.1,0.6c-0.3,0-0.2-0.2,0.1-0.2c-0.9-0.1-0.7,0.3-1.9,0.1l0.4-0.2c-1,0-0.9,0.1-1.4,0.3
						c-0.6,0.1-1.8-0.1-2-0.3c-0.1,0.2-0.7,0.4-1.2,0.3c-0.1-0.1,0.1-0.2,0.2-0.2c-1.6-0.2-2.4,0.3-3.5,0.1c0-0.1-0.1-0.1-0.2-0.2
						c1.3,0,2.3,0,2.2,0c0-0.3-1-0.3-0.2-0.6c-0.8,0.2-2.3,0.6-3.3,0.5c0,0-0.1,0-0.1-0.1h0.1c-0.2,0-0.4,0-0.6,0
						c-0.3,0-0.5-0.1-0.8-0.1c-0.1-0.2-1.2-0.1-1.7-0.1c0,0.2-0.6,0.2,0,0.4c-0.1,0,0.1,0,0.4,0c0.1,0,0.2,0,0.2,0l0,0
						c0.3,0,0.8,0,1.3,0c-0.4,0.1-0.8,0.2-1.4,0.1c-0.3,0.2-0.6,0.3-0.7,0.4c-0.7-0.3-2.1-0.5-2.3-0.7c-1.6,0.2-3.7,0.2-4.7,0.6
						c-0.4,0.1-0.5-0.1-0.7-0.2c0.3,0,0.6,0,0.7-0.1c-0.9,0.1-2.7,0.1-2.9,0.4c-1.1-0.1,0.6-0.3-0.9-0.2l0.2-0.1
						c-3.1-0.3-5,0.7-8.3,0.2c0.2,0,0.4,0,0.4,0.1c-3.9-0.1-7.9,0.2-11.8,0c-1.1,0-1.2,0.1-1.9,0.1l-0.2-0.1l-1.1,0.1
						c-1.6,0.1-2.8-0.2-4.8,0h0.3c-0.7,0-2.3,0-2.2,0c-0.1,0-0.2,0-0.5,0l0,0l-1.8,0.1c-1.4,0,0.2-0.1-1.8,0c-0.7,0-1.6,0-1.9,0.1
						c0.3,0,0.7,0,0.8,0h-0.7c-0.1,0-0.7,0,1,0h1.2h0.4h-1c0.6,0,0.9,0,1.3,0c0.1,0,0.3,0,0.5,0h1.2c0.1,0-0.5,0,0.3,0.1
						c0.5,0-0.5-0.1,0.4-0.1c0.6,0,0.4,0.1,1.1,0.1c0.1,0,0,0-0.3,0c0.6,0,1.6,0,1.9,0c0.6,0.1,2,0,1.9,0.1c0.2,0,1-0.1,1.6-0.1
						c-1,0.1,2,0.1,1.8,0.2c0.7-0.1,2.6,0,3.9-0.1c-0.1,0-0.2,0-0.3,0c0.7,0,0.9,0.1,1.4,0.1c0.1-0.2,1.2-0.2,1.8-0.3
						c0.9,0.2-0.5,0.2-0.3,0.4c0-0.1,1.6-0.1,1.2-0.2c0.7,0.1,0.6,0.1,0.9,0.2c0.1-0.2,0.6,0,1.2-0.2c1,0.1,0.3,0.2,1.3,0.2
						C20.5,300.3,19.6,300.4,19.6,300.4z M45.4,300.2L45.4,300.2c-0.2,0-0.4,0-0.5,0C45,300.2,45.1,300.2,45.4,300.2z M47.5,300.2
						c-0.3,0-0.6,0-0.9,0c-0.1-0.1,0-0.2,0.2-0.2C46.7,300.1,47.2,300.1,47.5,300.2z M43,298.4c0.3,0,0.5,0,0.5,0.1
						C43.3,298.5,43.1,298.5,43,298.4c-0.1,0.1-0.1,0.1-0.1,0.1S42.9,298.5,43,298.4z"/>
					<path fill="#3F30BC" d="M42.3,298.8L42.3,298.8C42.3,298.8,42.3,298.8,42.3,298.8c0.1,0,0.1,0,0.2,0
						C42.5,298.8,42.4,298.8,42.3,298.8z"/>
					<path fill="#3F30BC" d="M238.9,299.2L238.9,299.2L238.9,299.2L238.9,299.2z"/>
					<polygon fill="#3F30BC" points="77.5,301.1 77.5,301 77.3,301.1 					"/>
					<path fill="#3F30BC" d="M250.8,299.9c0,0,0.1,0,0.2,0C251,299.9,250.9,299.9,250.8,299.9z"/>
					<path fill="#3F30BC" d="M256,299.9h0.7C256.4,299.9,256.2,299.9,256,299.9z"/>
					<path fill="#3F30BC" d="M259.9,299.9C260,299.9,260,299.8,259.9,299.9L259.9,299.9L259.9,299.9z"/>
					<path fill="#3F30BC" d="M196.9,300.9c-0.1,0-0.1,0-0.2,0C196.4,301,196.6,301,196.9,300.9z"/>
					<path fill="#3F30BC" d="M215.7,300c-0.2,0.1-0.4,0.1-0.6,0.2C215.4,300.2,215.6,300.2,215.7,300z"/>
					<path fill="#3F30BC" d="M175.9,301.5L175.9,301.5h-0.1H175.9z"/>
					<path fill="#3F30BC" d="M214.2,300.1c0.3,0.1,0.6,0,0.9,0C214.8,300.1,214.5,300.1,214.2,300.1z"/>
					<path fill="#3F30BC" d="M277.1,299.6h0.2l0,0H277.1z"/>
					<path fill="#3F30BC" d="M277.3,299.6h0.2C277.5,299.6,277.4,299.6,277.3,299.6z"/>
					<path fill="#3F30BC" d="M278,299.6h-0.4C277.7,299.6,277.9,299.6,278,299.6z"/>
					<path fill="#3F30BC" d="M271.9,299.7L271.9,299.7L271.9,299.7z"/>
					<path fill="#3F30BC" d="M270.3,299.7c0.4,0,1,0,1.5,0l0,0C271.6,299.8,270.7,299.7,270.3,299.7z"/>
					<path fill="#3F30BC" d="M263.6,299.3h1.3c-0.2,0-0.5-0.1,0.1-0.1C263.3,299.1,265.4,299.3,263.6,299.3z"/>
					<path fill="#3F30BC" d="M259.5,299.2c0.7,0,0-0.1,0-0.1C259.1,299.1,258.9,299.1,259.5,299.2z"/>
					<path fill="#3F30BC" d="M229.5,298.9l0.1-0.2C229,298.7,229.6,298.7,229.5,298.9z"/>
					<polygon fill="#3F30BC" points="223.8,300.2 224.3,300.4 224.6,300.1 					"/>
					<polygon fill="#3F30BC" points="220.4,298.3 220.7,298.2 219.7,298.3 					"/>
					<path fill="#3F30BC" d="M170.1,298l0.2,0.5C170.6,298.4,170.7,297.9,170.1,298z"/>
					<path fill="#3F30BC" d="M148.4,298.4c-0.2-0.2-0.8-0.4-1.2-0.2C147.6,298.3,148.1,298.5,148.4,298.4z"/>
					<polygon fill="#3F30BC" points="83.2,297.9 83.7,297.7 82.9,297.9 					"/>
				</g>
			</g>
		</g>
	</g>
	<g opacity="0.33">
		<g>
			<g>
				<g>
					<path fill="#3F30BC" d="M595,298.5c-0.2,0-0.1,0,0.3,0h0.3H595z"/>
					<path fill="#3F30BC" d="M597.8,298.5c0.5,0,1.1,0,0.7-0.1c-0.5,0-0.5,0-1.1,0.1c-0.4,0-0.7,0-0.7,0c-0.2,0-0.6,0-0.9,0
						C596.4,298.5,597.1,298.5,597.8,298.5C598,298.5,597.8,298.5,597.8,298.5z"/>
					<path fill="#3F30BC" d="M638.4,298.9h-0.3C638.2,298.9,638.3,298.9,638.4,298.9z"/>
					<path fill="#3F30BC" d="M663.6,299.2c-0.2,0-0.3,0-0.3,0.1C663.5,299.3,663.6,299.3,663.6,299.2z"/>
					<path fill="#3F30BC" d="M667.9,299.7c-0.1,0-0.2,0-0.3,0C667.7,299.7,667.8,299.7,667.9,299.7z"/>
					<path fill="#3F30BC" d="M638.4,298.9l0.7,0.1C639.1,298.9,638.8,298.9,638.4,298.9z"/>
					<path fill="#3F30BC" d="M603.4,298.3c-0.1,0-0.3,0-0.4,0H603.4L603.4,298.3z"/>
					<path fill="#3F30BC" d="M627.3,299h-0.2c-0.1,0-0.1,0.1-0.2,0.1L627.3,299z"/>
					<path fill="#3F30BC" d="M618.8,298.9c0.2,0,0.3-0.1,0.3-0.2c-0.1,0.1-0.3,0.1-0.4,0.1C618.7,298.8,618.7,298.9,618.8,298.9z"/>
					<path fill="#3F30BC" d="M605.3,298.6h-0.2C605.1,298.6,605.2,298.6,605.3,298.6z"/>
					<path fill="#3F30BC" d="M633.4,299.1C633.4,299.1,633.5,299.2,633.4,299.1C633.5,299.2,633.5,299.1,633.4,299.1z"/>
					<path fill="#3F30BC" d="M871.6,298.2L871.6,298.2C871.7,298.2,871.7,298.2,871.6,298.2z"/>
					<polygon fill="#3F30BC" points="881.5,298.5 881.4,298.5 881.3,298.5 					"/>
					<path fill="#3F30BC" d="M675.8,300.2C675.7,300.2,675.7,300.2,675.8,300.2C675.5,300.2,675.6,300.2,675.8,300.2z"/>
					<path fill="#3F30BC" d="M748,300.2c-0.8-0.4,1.3-0.5,0.1-0.9C748.2,299.5,747,300,748,300.2z"/>
					<path fill="#3F30BC" d="M603.6,298.3h0.3C603.8,298.3,603.7,298.3,603.6,298.3z"/>
					<path fill="#3F30BC" d="M748.1,299.3L748.1,299.3L748.1,299.3C748,299.3,748,299.3,748.1,299.3z"/>
					<path fill="#3F30BC" d="M693.9,300.2c0-0.1-0.1-0.1-0.2-0.2C693.7,300,693.8,300.1,693.9,300.2z"/>
					<path fill="#3F30BC" d="M680.4,299.5l0.3,0.1C680.6,299.5,680.5,299.5,680.4,299.5z"/>
					<path fill="#3F30BC" d="M700.9,299.6c0.2,0,0.2,0.1,0.5,0c0,0,0,0-0.1,0C701.2,299.7,701.1,299.7,700.9,299.6z"/>
					<path fill="#3F30BC" d="M708.2,299.7l-0.1-0.1c-0.1,0-0.2,0-0.2,0L708.2,299.7z"/>
					<path fill="#3F30BC" d="M849.5,297.7c0.2,0.1,0.3,0.1,0.3,0.2C849.7,297.7,850.7,297.7,849.5,297.7z"/>
					<path fill="#3F30BC" d="M603.4,298.3c0,0,0.1,0,0.2,0C603.5,298.3,603.5,298.3,603.4,298.3L603.4,298.3z"/>
					<path fill="#3F30BC" d="M701.2,296.5l1.2,0.1C702,296.5,701.6,296.5,701.2,296.5z"/>
					<path fill="#3F30BC" d="M797.1,297h0.3C797.3,297,797.2,297,797.1,297z"/>
					<path fill="#3F30BC" d="M705.8,296.5c0.2,0.1,0.4,0.2,0.7,0.3l0.1-0.1L705.8,296.5z"/>
					<path fill="#3F30BC" d="M849.8,297.9L849.8,297.9L849.8,297.9z"/>
					<path fill="#3F30BC" d="M857.4,297.6c-1.1,0-0.5,0.2-0.8,0.3c-1.3,0-0.6-0.2-1.1-0.3c-0.8,0-1.5,0.2-2.1,0.2c0,0-0.2-0.1,0-0.1
						c-0.9,0.2-2.6,0-3.6,0.2c-0.1,0-0.1,0-0.1-0.1c0.2,0.1,0.2,0.3,0.2,0.3c-0.5,0-0.9,0.2-1.1,0c0.3,0,0.3-0.1,0.5-0.1l-0.5,0.1
						c-0.5-0.2,0.7-0.1,0.7-0.2c-1,0.1-2.2,0.3-3,0.2c-0.2-0.2,1.8-0.1,0.8-0.3l1.2,0.1c-0.9-0.4,0.7,0-0.1-0.4
						c-1.6-0.1-1.8,0.1-3.3,0c-0.4,0.1,0.1,0.2-0.2,0.3c-2.2,0.2-1.8-0.7-3.4-0.4c-0.4,0.2-0.6,0.5-1.8,0.3l0.4-0.3
						c-1.5-0.1-0.9,0.4-2.5,0.2c0.3-0.1,1.2-0.1,1-0.1c-1-0.3-0.7,0.2-1.5,0.2l-0.2-0.3c-1.6,0-3.4,0.2-5.2,0.3
						c0.1-0.1,0.4-0.2,0-0.3c-2.3,0.1-4.9-0.1-7-0.3l-0.8,0.3c-0.2,0-0.4-0.1-0.2-0.2c-0.9-0.1,0,0.2-0.5,0.3
						c-0.5,0-0.6-0.2-0.3-0.3c-1.5,0.2-4.3,0.5-5.9,0.2l0.3-0.1c-1.2-0.1-1.4,0.7-2.5,0.3l0.2-0.1c-2.7-0.2-5.7,0.1-7.7-0.4
						c-0.4,0.5-2.7-0.3-2.8,0.5c-1.5-0.4-1.1-0.5-3.3-0.8c-0.6,0-0.9,0.5-1.6,0.5v-0.4l-1,0.4l-0.5-0.5l-0.7,0.1
						c0.3,0,0.6,0.2,0.5,0.3c-1,0.2-2.5-0.3-2.6-0.5l-2.5,0.3c0.1-0.2,0.5-0.2,0.8-0.3c-1.3,0.4-0.2-0.4-1.4-0.1
						c0.2,0.1-0.1,0.2-0.1,0.3c-0.6-0.3-2-0.3-3-0.2l0.2-0.3c-1.8-0.1-3.9,0.1-5.9,0.1c0.7,0.1,0.6,0.6,0,0.7l-0.2-0.4
						c-0.4,0.3,0.6,0.2-0.2,0.5c-0.8-0.1-0.5-0.5-0.1-0.7l-0.9,0.1c-0.1-0.1,0.2-0.2,0.2-0.4c-0.4,0.3-1.6-0.5-2.2,0l-0.1-0.1
						c-2.1,0-3,0.1-4.7,0.1c0,0.4-0.7,0.3-1.2,0.6c-1.2-0.1-2.6-0.5-4.1-0.4c-1,0.2-0.3,0.3-0.8,0.6c-0.1-0.4-1.6-0.3-0.8-0.6
						c-1.8,0.1-2.3,0.1-4.5,0.4c0.2,0.2,0.5,0.2,0.4,0.3c-0.4,0.1-0.9-0.2-0.9-0.3h0.1c-2.5,0.6-5.8-1.1-7.8-0.3h0.1l-2.1,0.4
						c-1-0.1,0.6-0.3-0.1-0.5c-2.3,0.6-3.6-0.1-5.4,0.3c-1.4-1.1-5.1,0.1-7-0.6l0.1,0.3c-0.5,0.3-0.6-0.2-1-0.2
						c0.1,0.2,0.5,0.2,0.2,0.4c-4.2,0.3-8.8-0.4-13.1-0.6c-1.6-0.1-0.9,1.4-2.9,0.7l0.6-0.5c-3.2,0.6-6.6,0-9.7,0.5
						c0.2-0.1,0.2-0.3,0.5-0.3c-0.7-0.4-2.5,0-2.5,0.3c-0.5,0-0.1-0.3-0.4-0.4c-0.7-0.2-1.7,0.5-2,0.1c-0.1-0.1,0.2-0.1,0.3-0.1
						c-0.4,0.2-2,0-1.6,0.4c-1.2-0.2-2.3,0.2-3.2,0c-0.6,0.4-2-0.2-2.2,0.4c0.1-0.6-2.1-0.5-2.8-0.2c0.2-0.2-0.6-0.2-0.4-0.5
						c-0.9,0-1.6,0.1-1.5,0.5c-1.6-0.8-3.2,0.6-4-0.3c-2.5,0.4-4.9,0.6-7.1,0.7c0.1-0.6,2.5-0.1,2.4-0.7c-2.2,0.3-3.4,0.8-5.5,0.7
						c-0.6-0.1,0.3-0.3,0.5-0.4c-2.2,0.3-4.2,0-6.1,0.3c0-0.1,0.2-0.1,0.4-0.2c-0.4,0-0.9-0.1-0.8,0.2l0.4-0.1
						c0.6,0.4-1.5,0.8-1.6,1c0.6-0.8-1.9-0.2-0.9-1.1c-0.2,0.1-0.6,0.2-0.5,0.4c-0.4,0-0.5-0.1-0.1-0.3c-1.4,0.2-0.9,0.4-2.1,0.4
						c0-0.1,0.3-0.2,0.4-0.3c-0.6,0.2-1.2,0.5-2.3,0.4c0.1-0.1-0.1-0.2,0.3-0.2c-1.8,0.1-3,0.6-5,0.4c0.6-0.5-0.7-0.2-0.8-0.6
						l-1,0.1l0.4,0.2c-0.9,0-1.7,0.3-2.5,0.2l0.7-0.2l-1.7,0.1l1,0.2c-0.9,0.2,0.1,0.5-1.1,0.4c0.2,0-0.9,0-1.4-0.3l0,0
						c-0.5,0.1-0.9,0.3-1.6,0.2c-0.2-0.1,0.1-0.5,0-0.5c-0.4,0.3-2.2,0.1-2.7,0.5c0.2-0.1,0.2-0.3,0.1-0.3l-0.4,0.3
						c-0.4-0.1-0.5-0.1-0.4-0.3c-1.3,0,0.4,0.5-1.1,0.3c0.1,0,0.1-0.1,0.3-0.1c-1.5-0.1-3,0.2-4.4,0.1c-0.4-0.4,1.2-0.1,0.8-0.4
						c-2,0.1-4.2,0.5-6.1,0.4h0.4c-0.3,0.5-1.5-0.2-2.4,0c0.2,0,0.3-0.3,0.3-0.2c-1.3-0.1-2.7,0.1-4.8,0.3l0.3-0.1
						c-0.8-0.1-2.1,0-2.9-0.1c-0.3,0.1-0.7,0.1-0.4,0.3c-2.6-0.6-5,0.3-7.4-0.1c0.3,0,0.7-0.1,0.4-0.1l-2,0.1
						c0.2,0.2,0.3,0.1,0.7,0.2c-0.3,0.1-0.8,0.2-1.3,0.2c0.9-0.1,0-0.3-0.4-0.3c0.1,0-0.1,0.1,0,0.1c-1-0.3-0.2,0.3-1.6,0.1l0.1-0.1
						c-0.5,0-1,0.1-1.6,0.1c-0.2-0.2,0.6-0.1,0.6-0.2c-0.8,0-1.6,0.3-2.3,0.2c0.3,0,0.8,0,1.2-0.1c-0.8-0.2-0.9-0.1-1.5-0.2h0.1
						l-1.4-0.1h0.3c-1,0.4-2,0.1-3.4,0.3c1.3-0.2,0.2-0.1,0.3-0.3c-0.3,0-0.9-0.1-0.7-0.1c-0.6,0.1-1.1-0.1-2,0.1c0,0-0.7,0-0.5-0.1
						c-0.8,0,0.2,0.1,0.1,0.1c-1.3,0.1-3-0.1-4.9,0.1c-1.6,0.1-1.9,0.2-3.4,0.2c-0.5,0,0.4-0.1,0.4-0.1c-0.8,0-1.4,0-2.2,0
						c0.2,0,0,0-0.2-0.1c-0.6,0-0.4,0.1-1.2,0.1c0.1,0,0.3-0.1,0.6-0.1c-0.7,0-1.4,0.1-2.2,0.1c-0.2,0,0.4,0,0.7-0.1
						c-0.8,0-2.2,0.1-2.4,0.1h0.5c-0.3,0-0.2,0,0.1,0c0.7,0,1,0,1.1,0h-0.5c0.5,0.1,2.1,0,3.2,0l-0.4,0.1l1.1-0.1
						c0.2,0,0.4,0.1-0.1,0.1c0.8,0.1,0.7,0,1.3,0c0.1,0,0,0,0,0h0.7c-0.1,0,0.1,0.1-0.3,0.1c1.3,0.1,2.2-0.1,2.7,0h-0.1
						c1.9,0,0.2-0.1,1.6-0.2l0.9,0.3l0.2-0.1c0.2,0,0.6,0,0.5,0.1c0.7-0.1-0.1-0.1,0.3-0.1c0.9,0.1,2.5-0.1,2.8,0.2
						c0.3-0.1-0.9-0.1,0.1-0.2c0.3,0.2,1.1,0,2,0.1c-0.3,0.1-1.1,0.1-0.2,0.2c0.5-0.2,1.6,0.1,2.4,0c0-0.2,1.5-0.1,2.7-0.1
						c-0.1,0.1,2.2,0.1,3.4,0.2l0,0c0.2-0.2,1.4-0.2,2.2-0.2c0,0.1-0.2,0.2-0.6,0.3h0.8c0.2-0.1,0.4-0.1,0.9-0.1l-0.2,0.2
						c1,0,2.1-0.2,3.4-0.1c0.1-0.2-1.1-0.5,0.4-0.7c0.1,0.1,0.1,0.3-0.3,0.3c0.1,0,0.4-0.1,0.7,0l-0.6,0.2c0.6,0.1,0.3-0.1,0.8-0.1
						c0,0.2,0.4,0.1,0.3,0.2c-0.1,0-0.4-0.1-0.6,0c0.6,0,1.2,0.1,1.4,0.2c0-0.1,0-0.2,0.4-0.2c1,0,0.4,0.2,1,0.3
						c0.3-0.1,0.9,0,0.9-0.2c0.3,0,0.4,0.1,0.5,0.2c0.5-0.1,2.5,0,1.9-0.3l-0.1,0.1l0.1,0.1l0,0l0,0c1.8,0,3.7,0.1,5.4,0l0,0
						c1-0.1,2.3-0.1,3.1-0.3c0.3,0,0.7,0.2,0.6,0.3c0.8-0.1,0.9-0.2,2,0c-0.8,0.2,0.3,0.2-0.8,0.1c1,0.1,1.3,0.3,2.4,0
						c-0.4,0.3,0.8,0.3,1.3,0.3l-0.7-0.2c0.6,0,1,0,1.5,0l-0.3,0.3c2.1,0.5,3.8-0.7,5.5,0.1c0.6-0.3-1.2-0.2-0.7-0.5
						c1,0.1,2,0.6,2.3,0.6c1.3,0.2,1.3-0.5,2.7-0.4c-0.2-0.1-0.3-0.5,0.7-0.6c1,0.1,1.2,0.6,0.6,0.7c-0.2,0-0.3,0-0.3-0.1
						c-0.3,0-0.7,0.1-0.3,0.3l0.1-0.1c0.5,0.1,1.8,0.1,1.5,0.4c0.7-0.1,0.3-0.2-0.2-0.3c1.3,0.2,2,0,3.3,0.2
						c-0.2-0.1-0.4-0.2-0.2-0.2c1.9,0.2,0.8-0.3,2.1-0.3c0.7,0.2-0.3,0.5,1,0.3c0.8,0.2,0.2,0.4-0.1,0.5c1.2-0.3,2.2,0.2,2.9,0.3
						l-0.6,0.1c0.4-0.1,0.7-0.1,1-0.1l-0.4-0.3c0.4,0.1,0.7,0.1,0.7,0.2c0.4-0.2-0.3-0.5,0.5-0.8c0.5,0.2,1.5-0.2,1.6,0.2
						c-1.5-0.1,0.2,0.4-1.1,0.5c0.2,0,0.6,0,0.9,0c0.1,0-0.1,0.1-0.2,0.1c1.5,0.4,0.7-0.4,2.2-0.4c-0.2,0.2,0.4,0.4,0.6,0.4
						c-0.6,0-0.3-0.4,0.3-0.6c1,0.2,1.1-0.1,1.6-0.1l-0.6-0.1c0.2-0.2,0.7-0.2,1.4-0.3c0.1,0.2-0.6,0.1-0.4,0.2
						c0.8-0.4,1.7,0.4,2.7,0.2c0.5,0.2,0,0.4,0.5,0.6c1.2-0.3,1.3,0.3,2.5,0.1c-0.4-0.3-0.4-0.2,0.5-0.5l-2,0.2l1.3-0.5
						c-0.6,0-1.3,0.2-1.7,0.1c0.6-0.3,0.6-0.2,0.3-0.4c0.8,0.5,1.7-0.3,2.6,0.1v0.8c1.5,0.4,2.6-0.4,4.5-0.2l-0.6-0.1
						c0.3-0.3,1.2,0,1.8-0.2c-0.1,0.3,0.3,0.4,0.6,0.5c0-0.2,1.4,0,1.6-0.5l0.8,0.4c1.5,0.2,1.7-0.8,3.2-0.7
						c-0.4,0.3,0.2,0.5-0.8,0.7c0.5,0,0.9,0.1,0.9-0.1c0.3,0.2,1.4-0.4,1.8-0.1c0.2-0.1,0.3-0.4,0.8-0.4c0.1,0.1,0,0.1,0,0.1
						c0-0.1,0.9-0.2,0.4-0.5c1.5,0.9,4.2-0.1,5.5,0.7c1.1-0.1,2.4-0.2,3.3-0.2c-0.1,0.1,0,0.1-0.2,0.1c1.3,0.3,0.8-0.8,2.4-0.5
						c0.8,0.5-0.8,0.3-0.3,0.4c0.2,1,1.8-0.1,2.9,0.4l-0.2,0.1c0.8,0.3,1.9-0.4,3.2-0.3c0,0-0.1,0.1,0,0.1c0.9-0.5,2.5-0.6,3.8-0.8
						c-0.4,0.4-0.6,0.2-0.3,0.6c0.6-0.1-0.2-0.6,0.9-0.7c0.4,0.2,1.2,0.4,1.3,0.8h-1c0.5,0.5,1.3,0,1.9,0.1l-0.1,0.2
						c1.6-0.1,1.6-0.7,3.3-0.6l-0.2-0.2c0.9-0.6,0.8,0.3,1.7-0.1l0.3,0.6c0.6-0.1,2.2-0.6,3.3-0.7c-0.6,0.4-1.9,0.7-2.7,0.9
						c0.6,0,2.1,0,2.4-0.3c-0.2,0.1-0.6,0.2-0.8,0.1c0.8-0.5,1.7-0.7,3-0.7c-0.2,1.1,3.2,0.3,4.1,1.2c2.2-0.4,4.3,0.2,6.8,0.1
						c-0.9-0.9,0.7,0,0.6-0.9c0.6-0.1,0.8,0,0.9,0l1.8,0.5c0.4,0.3-0.6,0.2-0.5,0.4c1.3,0.1,0.5,0.4,1.4,0.6
						c-0.2-0.3,0.4-0.5,1.2-0.3l-1-0.4c1.8-0.5,1.6,0.8,3.4,0.3l-0.6,0.3c0.9-0.2,3.4,0,4.3-0.7c0.2,0.1,0.4,0.3,0,0.4
						c2.2,0.1,4.9-0.8,6.7-0.3l-0.2,0.2c0.4-0.1,0.7-0.4,1.2-0.2c0,0.1-0.2,0.2,0,0.2c0.2-0.1,1.1-0.4,1.6-0.3l-0.5,0.2
						c2.2,0.3,3.3-0.6,5.1-0.8c0,0.6,1.7,0.8,2.5,0.9v0.1c2.5,0.1,4.3-0.5,6.6-0.8c1.4,0.7,4.9,0.2,7.2,0.6
						c-0.4-0.1,0.1-0.5,0.5-0.5c0.5,0.1,1.5-0.4,1.4,0.1H791c0.4,0.5,1.5,0.4,2.4,0.4l0.1-0.7c2.3,1,6-0.4,7.3,0.5
						c0.6-0.2,1.2-0.2,1.8-0.3v0.4c1.5,0.1,2.3,0.1,4.2,0l-0.4,0.3c1.1,0,1.3-1,2.3-1l0.3,0.5c1.9,0,3.8,0.4,5.6-0.1
						c0,0.1-0.1,0.2-0.4,0.2c0.9,0,3.4,0.3,3.1-0.4c0,0.4,1.9,0,2.9-0.2L820,300c0.9-0.4,0.9-0.5,2.1-0.6c0.3,0,0.2,0.2-0.1,0.2
						c0.9,0.1,0.7-0.3,1.9-0.1l-0.4,0.2c1,0,0.9-0.1,1.4-0.3c0.6-0.1,1.8,0.1,2,0.3c0.1-0.2,0.7-0.4,1.2-0.3
						c0.1,0.1-0.1,0.2-0.2,0.2c1.6,0.2,2.4-0.3,3.5-0.1c0,0.1,0.1,0.1,0.2,0.2c-1.3,0-2.3,0-2.2,0c0,0.3,1,0.3,0.2,0.6
						c0.8-0.2,2.3-0.6,3.3-0.5c0,0,0.1,0,0.1,0.1h-0.1c0.2,0,0.4,0,0.6,0c0.3,0,0.5,0.1,0.8,0.1c0.1,0.2,1.2,0.1,1.7,0.1
						c0-0.2,0.6-0.2,0-0.4c0.1,0-0.1,0-0.4,0c-0.1,0-0.2,0-0.2,0l0,0c-0.3,0-0.8,0-1.3,0c0.4-0.1,0.8-0.2,1.4-0.1
						c0.3-0.2,0.6-0.3,0.7-0.4c0.7,0.3,2.1,0.5,2.3,0.7c1.6-0.2,3.7-0.2,4.7-0.6c0.4-0.1,0.5,0.1,0.7,0.2c-0.3,0-0.6,0-0.7,0.1
						c0.9-0.1,2.7-0.1,2.9-0.4c1.1,0.1-0.6,0.3,0.9,0.2l-0.2,0.1c3.1,0.3,5-0.7,8.3-0.2c-0.2,0-0.4,0-0.4-0.1
						c3.9,0.1,7.9-0.2,11.8,0c1.1,0,1.2-0.1,1.9-0.1l0.2,0.1l1.1-0.1c1.6-0.1,2.8,0.2,4.8,0h-0.3c0.7,0,2.3,0,2.2,0
						c0.1,0,0.2,0,0.5,0l0,0l1.8-0.1c1.4,0-0.2,0.1,1.8,0c0.7,0,1.6,0,1.9-0.1c-0.3,0-0.7,0-0.8,0h0.7c0.1,0,0.7,0-1,0h-1.2h-0.4h1
						c-0.6,0-0.9,0-1.3,0c-0.1,0-0.3,0-0.5,0h-1.2c-0.1,0,0.5,0-0.3-0.1c-0.5,0,0.5,0.1-0.4,0.1c-0.6,0-0.4-0.1-1.1-0.1
						c-0.1,0,0,0,0.3,0c-0.6,0-1.6,0-1.9,0c-0.6-0.1-2,0-1.9-0.1c-0.2,0-1,0.1-1.6,0.1c1-0.1-2-0.1-1.8-0.2c-0.7,0.1-2.6,0-3.9,0.1
						c0.1,0,0.2,0,0.3,0c-0.7,0-0.9-0.1-1.4-0.1c-0.1,0.2-1.2,0.2-1.8,0.3c-0.9-0.2,0.5-0.2,0.3-0.4c0,0.1-1.6,0.1-1.2,0.2
						c-0.7-0.1-0.6-0.1-0.9-0.2c-0.1,0.2-0.6,0-1.2,0.2c-1-0.1-0.3-0.2-1.3-0.2C856.5,297.7,857.4,297.6,857.4,297.6z M831.6,297.8
						L831.6,297.8c0.2,0,0.4,0,0.5,0C832,297.8,831.9,297.8,831.6,297.8z M829.5,297.8c0.3,0,0.6,0,0.9,0c0.1,0.1,0,0.2-0.2,0.2
						C830.3,297.9,829.8,297.9,829.5,297.8z M834,299.6c-0.3,0-0.5,0-0.5-0.1C833.7,299.5,833.9,299.5,834,299.6
						c0.1-0.1,0.1-0.1,0.1-0.1S834.1,299.5,834,299.6z"/>
					<path fill="#3F30BC" d="M834.7,299.2L834.7,299.2C834.7,299.2,834.7,299.2,834.7,299.2c-0.1,0-0.1,0-0.2,0
						C834.5,299.2,834.6,299.2,834.7,299.2z"/>
					<path fill="#3F30BC" d="M638.1,298.8L638.1,298.8L638.1,298.8L638.1,298.8z"/>
					<polygon fill="#3F30BC" points="799.5,296.9 799.5,297 799.7,296.9 					"/>
					<path fill="#3F30BC" d="M626.2,298.1c0,0-0.1,0-0.2,0C626,298.1,626.1,298.1,626.2,298.1z"/>
					<path fill="#3F30BC" d="M621,298.1h-0.7C620.6,298.1,620.8,298.1,621,298.1z"/>
					<path fill="#3F30BC" d="M617.1,298.1C617,298.1,617,298.2,617.1,298.1L617.1,298.1L617.1,298.1z"/>
					<path fill="#3F30BC" d="M680.1,297.1c0.1,0,0.1,0,0.2,0C680.6,297,680.4,297,680.1,297.1z"/>
					<path fill="#3F30BC" d="M661.3,298c0.2-0.1,0.4-0.1,0.6-0.2C661.6,297.8,661.4,297.8,661.3,298z"/>
					<path fill="#3F30BC" d="M701.1,296.5L701.1,296.5L701.1,296.5L701.1,296.5z"/>
					<path fill="#3F30BC" d="M662.8,297.9c-0.3-0.1-0.6,0-0.9,0C662.2,297.9,662.5,297.9,662.8,297.9z"/>
					<path fill="#3F30BC" d="M599.9,298.4h-0.2l0,0H599.9z"/>
					<path fill="#3F30BC" d="M599.7,298.4h-0.2C599.5,298.4,599.6,298.4,599.7,298.4z"/>
					<path fill="#3F30BC" d="M599,298.4h0.4C599.3,298.4,599.1,298.4,599,298.4z"/>
					<path fill="#3F30BC" d="M605.1,298.3L605.1,298.3L605.1,298.3z"/>
					<path fill="#3F30BC" d="M606.7,298.3c-0.4,0-1,0-1.5,0l0,0C605.4,298.2,606.3,298.3,606.7,298.3z"/>
					<path fill="#3F30BC" d="M613.4,298.7h-1.3c0.2,0,0.5,0.1-0.1,0.1C613.7,298.9,611.6,298.7,613.4,298.7z"/>
					<path fill="#3F30BC" d="M617.5,298.8c-0.7,0,0,0.1,0,0.1C617.9,298.9,618.1,298.9,617.5,298.8z"/>
					<path fill="#3F30BC" d="M647.5,299.1l-0.1,0.2C648,299.3,647.4,299.3,647.5,299.1z"/>
					<polygon fill="#3F30BC" points="653.2,297.8 652.7,297.6 652.4,297.9 					"/>
					<polygon fill="#3F30BC" points="656.6,299.7 656.3,299.8 657.3,299.7 					"/>
					<path fill="#3F30BC" d="M706.9,300l-0.2-0.5C706.4,299.6,706.3,300.1,706.9,300z"/>
					<path fill="#3F30BC" d="M728.6,299.6c0.2,0.2,0.8,0.4,1.2,0.2C729.4,299.7,728.9,299.5,728.6,299.6z"/>
					<polygon fill="#3F30BC" points="793.8,300.1 793.3,300.3 794.1,300.1 					"/>
				</g>
			</g>
		</g>
	</g>
</g>
</svg>
