<?xml version="1.0" encoding="utf-8"?>
<!-- Generator: Adobe Illustrator 18.1.1, SVG Export Plug-In . SVG Version: 6.00 Build 0)  -->
<!DOCTYPE svg PUBLIC "-//W3C//DTD SVG 1.1//EN" "http://www.w3.org/Graphics/SVG/1.1/DTD/svg11.dtd">
<svg version="1.1" id="Layer_1" xmlns="http://www.w3.org/2000/svg" xmlns:xlink="http://www.w3.org/1999/xlink" x="0px" y="0px"
	 width="884.9px" height="9.7px" viewBox="0 0 884.9 9.7" enable-background="new 0 0 884.9 9.7" xml:space="preserve">
<g opacity="0.43">
	<g>
		<g>
			<g>
				<path fill="#329426" d="M884.7,4.8c0.5,0,0.2,0-1.1,0l-0.9,0L884.7,4.8z"/>
				<path fill="#329426" d="M876.1,4.8c-1.5,0-3.2,0.1-2.3,0.1c1.5-0.1,1.9-0.1,3.5-0.1c1.3,0,2.2,0,2,0c0.5,0,2,0,2.7,0
					C880.3,4.8,878.2,4.8,876.1,4.8C875.5,4.9,876,4.8,876.1,4.8z"/>
				<path fill="#329426" d="M750.6,4l0.8,0.1C751.2,4.1,750.9,4,750.6,4z"/>
				<path fill="#329426" d="M672.9,3.3c0.6,0,0.8-0.1,0.9-0.2C673.2,3.2,672.8,3.3,672.9,3.3z"/>
				<path fill="#329426" d="M659.6,2.4c0.3,0,0.5,0,0.8,0.1C660.1,2.4,659.8,2.4,659.6,2.4z"/>
				<path fill="#329426" d="M750.6,4l-2.1-0.2C748.4,4,749.6,4,750.6,4z"/>
				<path fill="#329426" d="M858.8,5.2c0.4,0,0.8,0,1.1-0.1C859.5,5.1,859.2,5.2,858.8,5.2C858.8,5.2,858.8,5.2,858.8,5.2z"/>
				<path fill="#329426" d="M784.9,3.8l0.6,0c0.2,0,0.4-0.1,0.5-0.2L784.9,3.8z"/>
				<path fill="#329426" d="M811.2,4c-0.6,0-0.8,0.3-1,0.4c0.3-0.1,0.8-0.2,1.3-0.2C811.5,4.1,811.4,4.1,811.2,4z"/>
				<path fill="#329426" d="M852.9,4.7l0.7,0C853.4,4.7,853.1,4.7,852.9,4.7z"/>
				<path fill="#329426" d="M766.1,3.6c0-0.1-0.1-0.1-0.2-0.2C765.8,3.5,765.9,3.5,766.1,3.6z"/>
				<path fill="#329426" d="M30.6,5.5C30.6,5.5,30.6,5.5,30.6,5.5C30.4,5.5,30.4,5.5,30.6,5.5z"/>
				<path fill="#329426" d="M0.1,4.8l0.4,0c0,0,0.1,0,0.1,0L0.1,4.8z"/>
				<path fill="#329426" d="M635.3,1.4c0,0,0.1,0,0.1,0C636.1,1.3,635.7,1.3,635.3,1.4z"/>
				<path fill="#329426" d="M412.4,1.3c2.5,0.7-4.1,1-0.3,1.8C411.7,2.8,415.5,1.8,412.4,1.3z"/>
				<path fill="#329426" d="M858.1,5.2c-0.4,0-0.7,0-1.1,0C857.5,5.2,857.8,5.2,858.1,5.2z"/>
				<path fill="#329426" d="M412.1,3.1L412.1,3.1l0.4,0.1C412.3,3.2,412.2,3.2,412.1,3.1z"/>
				<path fill="#329426" d="M579.4,1.5c0.1,0.1,0.3,0.2,0.6,0.3C579.9,1.8,579.8,1.7,579.4,1.5z"/>
				<path fill="#329426" d="M621.1,2.7l-1-0.1C620.4,2.7,620.8,2.7,621.1,2.7z"/>
				<path fill="#329426" d="M557.7,2.5c-0.6-0.1-0.8-0.2-1.5-0.1c0.1,0,0.1,0.1,0.2,0.1C556.7,2.5,557.1,2.4,557.7,2.5z"/>
				<path fill="#329426" d="M535.2,2.5c0.1,0.1,0.3,0.1,0.4,0.2c0.2,0,0.5,0,0.7,0L535.2,2.5z"/>
				<path fill="#329426" d="M99.1,6.4c-0.5-0.1-0.8-0.2-1-0.4C98.4,6.3,95.1,6.4,99.1,6.4z"/>
				<path fill="#329426" d="M858.7,5.1c-0.1,0-0.3,0-0.7,0.1C858.3,5.2,858.6,5.2,858.7,5.1C858.9,5.1,858.9,5.1,858.7,5.1z"/>
				<path fill="#329426" d="M556.8,8.8l-3.6-0.1C554.2,8.8,555.5,8.8,556.8,8.8z"/>
				<path fill="#329426" d="M260.7,7.8l-0.8,0.1C260.2,7.9,260.5,7.8,260.7,7.8z"/>
				<path fill="#329426" d="M542.6,8.9c-0.6-0.3-1.3-0.4-2-0.6c-0.1,0.1-0.3,0.1-0.4,0.2L542.6,8.9z"/>
				<path fill="#329426" d="M98,6.1C98,6.1,98,6.1,98,6.1C98,6.1,98,6.1,98,6.1z"/>
				<path fill="#329426" d="M74.4,6.5c3.4,0.1,1.6-0.4,2.3-0.6c4.1-0.1,1.9,0.3,3.3,0.6c2.5-0.1,4.5-0.4,6.4-0.4
					c0.1,0.1,0.5,0.1,0.1,0.2c2.7-0.3,8,0.1,11.1-0.4C97.8,6,98,6,98,6.1c-0.5-0.3-0.6-0.5-0.5-0.7c1.5,0,2.8-0.3,3.4,0
					c-0.9,0-1,0.1-1.5,0.2l1.6-0.1c1.4,0.5-2.2,0.2-2.2,0.5c3.1-0.1,6.8-0.5,9.2-0.4c0.5,0.5-5.6,0.1-2.4,0.6L102,6
					c2.8,0.8-2.3-0.1,0.4,0.7c4.9,0.2,5.5-0.2,10.3,0c1.1-0.3-0.4-0.4,0.7-0.7c6.9-0.5,5.4,1.4,10.5,0.7c1.3-0.3,1.8-1,5.4-0.6
					l-1.2,0.6c4.7,0.1,2.7-0.9,7.6-0.4c-0.9,0.3-3.7,0.2-3,0.3c3.2,0.5,2.3-0.3,4.7-0.3l0.5,0.6c5,0,10.6-0.4,16.1-0.5
					c-0.3,0.2-1.3,0.4,0,0.6c7-0.3,15,0.2,21.8,0.7l2.6-0.6c0.6,0,1.1,0.3,0.5,0.4c2.6,0.3,0.1-0.4,1.4-0.6c1.5,0,2,0.4,1,0.5
					c4.7-0.5,13.3-1.1,18.2-0.3l-1,0.2c3.8,0.3,4.3-1.3,7.9-0.7l-0.7,0.1c8.3,0.3,17.5-0.3,23.8,0.8c1.2-1,8.2,0.5,8.7-0.9
					c4.7,0.7,3.4,1,10,1.5c1.8,0.1,2.7-0.9,4.9-1.1l0.1,0.8l3-0.8l1.6,0.9l2.1-0.2c-0.8-0.1-1.7-0.4-1.6-0.6c3.2-0.3,7.9,0.6,7.9,1
					l7.6-0.6c-0.2,0.3-1.4,0.4-2.5,0.6c4.1-0.8,0.7,0.9,4.5,0.1c-0.5-0.2,0.3-0.5,0.4-0.6c1.9,0.5,6.1,0.5,9.2,0.3l-0.6,0.6
					c5.7,0.2,11.9-0.2,18.3-0.2c-2.3-0.3-1.8-1.3,0.1-1.4L304,8c1.2-0.6-1.9-0.3,0.5-1c2.4,0.1,1.6,1,0.2,1.3l2.9-0.3
					c0.2,0.3-0.5,0.4-0.7,0.8c1.2-0.6,5,0.9,6.7,0l0.2,0.3c6.3,0,9.2-0.3,14.4-0.3c0.1-0.8,2.1-0.6,3.7-1.3c3.8,0.3,8,0.9,12.6,0.9
					c3.2-0.4,0.9-0.7,2.4-1.2c0.2,0.7,4.8,0.7,2.4,1.2c5.5-0.1,7-0.1,14-0.7c-0.8-0.3-1.6-0.4-1.2-0.7c1.3-0.1,2.9,0.3,2.7,0.7
					l-0.3,0.1c7.8-1.1,18,2.2,24.2,0.7l-0.3,0.1l6.4-0.8c3,0.1-1.8,0.6,0.4,1c7-1.3,11,0.2,16.7-0.6c4.4,2.3,15.7-0.2,21.7,1.3
					l-0.3-0.5c1.5-0.5,1.9,0.3,3,0.4c-0.2-0.4-1.7-0.5-0.7-0.8c13.1-0.6,27,0.8,40.4,1.2c4.9,0.1,2.8-2.7,9-1.5l-1.8,1
					c9.9-1.2,20.3,0,30-1c-0.6,0.2-0.6,0.5-1.5,0.5c2,0.7,7.6,0,7.6-0.6c1.5,0.1,0.4,0.5,1.3,0.8c2.1,0.4,5.2-0.9,6.3-0.2
					c0.2,0.1-0.6,0.2-1,0.3c1.3-0.3,6.2,0.1,5-0.7c3.6,0.4,7-0.4,9.9,0.1c1.9-0.9,6.2,0.4,6.8-0.8c-0.3,1.3,6.4,1,8.7,0.4
					c-0.8,0.4,2,0.4,1.1,0.9c2.6,0,5-0.3,4.6-0.9c4.8,1.5,9.7-1.3,12.5,0.7c7.8-0.7,15-1.2,22-1.5c-0.3,1.2-7.8,0.2-7.5,1.4
					c6.7-0.5,10.5-1.6,17.1-1.3c1.7,0.2-1,0.5-1.5,0.7c6.7-0.5,12.9,0,18.8-0.6c0,0.1-0.7,0.2-1.3,0.3c1.2,0,2.7,0.2,2.6-0.4
					l-1.1,0.1c-1.9-0.8,4.6-1.6,4.8-2c-2,1.5,5.8,0.4,2.7,2.3c0.8-0.1,1.7-0.4,1.6-0.7c1.1,0.1,1.5,0.3,0.3,0.7
					c4.2-0.3,2.7-0.8,6.5-0.9c0,0.2-0.8,0.3-1.2,0.6c1.9-0.5,3.8-1,7-0.8C645,6.8,645.3,7,644.4,7c5.5-0.1,9.4-1.3,15.4-0.9
					c-1.8,1,2.1,0.3,2.4,1.2l3.2-0.3l-1.3-0.4c2.8,0,5.3-0.6,7.8-0.4l-2.1,0.4l5.3-0.2l-3-0.3c2.9-0.5-0.3-1.1,3.5-0.9
					c-0.8,0.1,2.8,0,4.3,0.5l0,0c1.4-0.3,2.8-0.6,4.9-0.4c0.5,0.3-0.4,0.9-0.1,1.1c1.4-0.7,6.6-0.2,8.4-1c-0.6,0.2-0.6,0.6-0.4,0.7
					l1.2-0.6c1.3,0.2,1.5,0.3,1.3,0.6c4,0.1-1.3-1,3.4-0.6c-0.4,0-0.2,0.1-1,0.2c4.7,0.2,9.1-0.4,13.4-0.1c1.3,0.8-3.8,0.2-2.3,0.8
					c6.2-0.2,12.9-1,19-0.8l-1.1-0.1c0.8-1,4.5,0.5,7.6,0c-0.7,0.1-1,0.6-0.8,0.4c4.1,0.1,8.5-0.3,14.7-0.6l-0.8,0.2
					c2.4,0.2,6.4,0.1,9.1,0.2c0.8-0.2,2.3-0.2,1.4-0.5c4.1,0.6,7.9,0.4,11.7,0.2c3.8-0.2,7.4-0.4,11,0c-0.9,0-2.1,0.2-1.4,0.2
					l6.1-0.2c-0.5-0.3-0.8-0.2-2.1-0.4c0.8-0.2,2.5-0.3,4-0.3c-2.8,0.2,0,0.5,1.2,0.7c-0.2-0.1,0.2-0.2,0.1-0.3
					c3.2,0.5,0.5-0.6,4.9-0.3l-0.2,0.2c1.6-0.1,3.2-0.3,4.9-0.2c0.7,0.3-1.7,0.2-1.9,0.4c2.5,0,4.9-0.6,7.1-0.3
					c-1.1,0.1-2.6,0.1-3.6,0.2c2.4,0.4,2.7,0.3,4.5,0.3l-0.2,0l4.2,0.1l-1.1-0.1c3.1-0.8,6.3-0.2,10.5-0.7c-4.1,0.4-0.7,0.3-1,0.6
					c1.1,0.1,2.7,0.2,2.2,0.2c2-0.2,3.3,0.1,6.1-0.2c0.1,0.1,2.1,0,1.7,0.2c2.6-0.1-0.6-0.1-0.4-0.3c4-0.3,9.3,0.2,15-0.2
					c4.9-0.2,5.8-0.4,10.4-0.5c1.5,0.1-1.3,0.2-1.3,0.2c2.5,0.1,4.4,0,6.7,0c-0.5,0,0,0.1,0.7,0.1c1.9,0,1.3-0.2,3.7-0.1
					c-0.4,0-1,0.1-1.9,0.2c2.2-0.1,4.4-0.1,6.7-0.2c0.6,0-1.4,0.1-2.2,0.1c2.6-0.1,6.7-0.1,7.5-0.2l-1.7,0c0.9,0,0.5,0.1-0.2,0.1
					c-2.2,0.1-3.2,0-3.3,0l1.6,0c-1.7-0.2-6.6,0-9.8,0.1l1.4-0.2l-3.4,0.2c-0.7,0-1.2-0.2,0.4-0.2c-2.4-0.1-2.1,0.1-4.1,0
					c-0.2,0-0.1,0,0.1,0l-2.3,0.1c0.5,0-0.4-0.2,1-0.1c-4.1-0.2-6.7,0.2-8.2,0l0.3,0c-5.7,0.1-0.6,0.2-4.9,0.4L836,4.4l-0.6,0.2
					c-0.6,0-1.8,0-1.5-0.1c-2.2,0.2,0.4,0.1-0.9,0.3c-2.8-0.2-7.9,0.1-8.5-0.3c-1,0.2,2.7,0.2-0.3,0.3c-0.9-0.5-3.5,0.1-6.1-0.2
					c0.8-0.3,3.3-0.1,0.7-0.4c-1.6,0.4-5.1-0.1-7.3-0.1c-0.1,0.4-4.8,0.1-8.5,0.3c0.2-0.1-6.9-0.3-10.4-0.5l0.1-0.1
					c-0.7,0.5-4.2,0.4-6.8,0.5c0.1-0.3,0.6-0.4,2-0.5l-2.4,0c-0.6,0.2-1.3,0.2-2.9,0.3l0.6-0.4c-3.2,0-6.5,0.4-10.6,0.1
					c-0.2,0.4,3.3,1.1-1.1,1.3c-0.2-0.2-0.3-0.6,0.8-0.6c-0.4,0-1.3,0.2-2.1,0.1l1.7-0.3c-1.9-0.2-1,0.3-2.5,0.3
					c0-0.3-1.1-0.2-0.9-0.5c0.4,0,1.3,0.1,1.9,0c-1.7-0.1-3.8-0.3-4.4-0.5c0.1,0.2,0,0.4-1.2,0.4c-3.2,0-1.1-0.4-3-0.6
					c-0.8,0.2-2.8,0-2.9,0.4c-0.9,0-1.1-0.2-1.5-0.4c-1.7,0.2-7.8,0-5.9,0.6l0.4,0.1c-0.1,0-0.2,0.1-0.3,0.1c0,0,0,0,0,0h0
					c-5.5,0-11.3-0.4-16.8-0.2l0-0.2c-3.2,0.2-7.2,0.1-9.5,0.5c-1,0-2.3-0.4-1.8-0.6c-2.5,0.1-2.7,0.3-6.3,0
					c2.5-0.3-0.9-0.3,2.5-0.2c-3.2-0.2-3.9-0.5-7.4,0c1.2-0.5-2.4-0.7-3.9-0.5l2.3,0.4c-1.7,0.1-3.2,0-4.7,0l0.8-0.7
					C700.3,1.8,695,4.1,690,2.6c-1.7,0.5,3.6,0.4,2,1c-3-0.1-6.2-1.2-7.1-1.2c-4.1-0.4-3.9,1.1-8.2,0.8c0.6,0.3,1.1,1-2.2,1.2
					c-3-0.1-3.7-1.2-1.8-1.4c0.7,0,1.1,0.1,1,0.2c1-0.1,2.3-0.2,1.1-0.5l-0.4,0.3c-1.5-0.3-5.7-0.3-4.7-0.7c-2.3,0.2-1,0.4,0.7,0.6
					c-3.9-0.4-6.1,0-10.1-0.3C661,2.6,661.6,3,661,3c-5.9-0.4-2.6,0.5-6.5,0.6c-2.3-0.4,0.8-1-3.2-0.7c-2.4-0.3-0.5-0.8,0.5-1
					c-3.6,0.5-6.8-0.4-8.9-0.5l1.9-0.2c-1.1,0.1-2.1,0.1-3,0.1l1.1,0.6c-1.1-0.1-2.1-0.1-2.1-0.4c-1.2,0.4,0.9,1-1.4,1.5
					c-1.5-0.3-4.6,0.3-5.1-0.5c4.7,0.3-0.5-0.8,3.5-0.9c-0.8,0.1-1.7,0.1-2.8,0c-0.2-0.1,0.2-0.2,0.5-0.2c-4.5-0.7-2.1,0.9-6.8,0.8
					c0.6-0.4-1.1-0.9-1.8-0.8c1.9,0,0.9,0.8-0.8,1.1c-3-0.4-3.3,0.3-4.8,0.2l1.8,0.2c-0.6,0.5-2.1,0.4-4.2,0.5
					c-0.2-0.4,1.9-0.2,1.2-0.4c-2.3,0.8-5.3-0.9-8.5-0.3c-1.5-0.3-0.1-0.9-1.5-1.1c-3.6,0.6-3.9-0.7-7.7-0.2
					c1.1,0.6,1.3,0.5-1.4,1.1l6.3-0.4L603,3c1.9,0,4-0.4,5.1-0.3c-1.9,0.5-1.7,0.4-0.8,0.9c-2.6-1-5.1,0.5-8.1-0.1l0.1-1.6
					c-4.5-0.7-8,0.8-13.8,0.4l1.9,0.3c-0.8,0.6-3.6,0.1-5.5,0.3c0.2-0.5-1-0.7-1.8-1.1c0.1,0.4-4.3-0.1-4.8,1l-2.6-0.7
					c-4.7-0.3-5.4,1.6-9.9,1.4c1.4-0.6-0.7-1,2.3-1.4c-1.5,0-2.9-0.1-2.9,0.3c-0.9-0.4-4.2,0.7-5.6,0.2c-0.6,0.2-0.8,0.8-2.5,0.8
					c-0.2-0.1,0-0.3,0-0.3c0,0.3-2.7,0.4-1.2,1c-4.7-1.8-13,0.1-17.1-1.4c-3.3,0.2-7.3,0.4-10.3,0.4c0.2-0.2,0-0.3,0.6-0.2
					c-4.1-0.5-2.5,1.7-7.3,1c-2.4-0.9,2.5-0.5,1-0.9c-0.7-1.9-5.7,0.3-8.9-0.9l0.8-0.1c-2.4-0.7-5.9,0.7-9.9,0.6c0,0,0.2-0.2,0-0.3
					c-2.7,1-7.8,1.3-11.6,1.6c1.2-0.8,1.7-0.4,1-1.2c-1.7,0.1,0.5,1.2-2.9,1.4c-1.1-0.4-3.6-0.8-3.9-1.6l3.2,0
					c-1.6-1.1-4.2,0-5.9-0.2l0.2-0.5c-4.9,0.1-5,1.3-10.3,1.2l0.5,0.4c-2.9,1.2-2.4-0.7-5.3,0.2l-0.9-1.2c-1.9,0.3-6.7,1.1-10.1,1.4
					c1.9-0.9,5.9-1.3,8.4-1.8c-1.9,0-6.4,0.1-7.4,0.7c0.8-0.1,1.7-0.4,2.5-0.2c-2.3,0.9-5.4,1.4-9.2,1.4c0.7-2.3-9.8-0.6-12.6-2.4
					c-6.7,0.9-13.2-0.4-21-0.2c2.8,1.8-2.3,0.1-1.8,1.9c-1.8,0.1-2.5,0.1-2.7,0l-5.5-1.1c-1.3-0.5,1.7-0.4,1.6-0.8
					c-4-0.1-1.7-0.8-4.3-1.3c0.5,0.7-1.4,0.9-3.6,0.7l3.2,0.8c-5.5,1-4.8-1.5-10.4-0.6l1.8-0.6c-2.9,0.3-10.6,0-13.4,1.5
					c-0.5-0.2-1.2-0.7,0.1-0.8c-6.8-0.2-15.2,1.6-20.6,0.7l0.5-0.4c-1.3,0.1-2.2,0.8-3.8,0.4c0.1-0.2,0.5-0.4-0.1-0.5
					c-0.7,0.2-3.4,0.8-5.1,0.5l1.4-0.5c-6.7-0.5-10.3,1.2-15.9,1.5c0-1.3-5.2-1.6-7.9-1.8l0.1-0.2c-7.8-0.1-13.2,1.1-20.4,1.6
					c-4.5-1.3-15.1-0.5-22.3-1.2c1.1,0.2-0.2,0.9-1.5,1c-1.7-0.2-4.7,0.8-4.4-0.2l0.6,0c-1.3-1.1-4.7-0.7-7.4-0.8l-0.4,1.4
					c-7.1-2-18.5,0.8-22.4-0.9c-1.7,0.3-3.8,0.4-5.5,0.7l0.1-0.7c-4.7-0.1-7.1-0.2-12.9,0l1.2-0.5c-3.3,0-4.2,2-7.2,2.1l-0.9-1
					c-5.8,0-11.6-0.8-17.3,0.2c0.1-0.1,0.3-0.4,1.2-0.5c-2.7,0-10.5-0.5-9.5,0.7c-0.1-0.8-5.9,0-9,0.3l0.5-0.6
					c-2.6,0.8-2.7,1-6.4,1.2c-0.9-0.1-0.8-0.5,0.4-0.3c-2.9-0.3-2.3,0.6-5.8,0.3l1.3-0.4c-3,0-2.7,0.2-4.4,0.6
					c-1.9,0.2-5.6-0.1-6.1-0.6c-0.4,0.3-2,0.7-3.8,0.6c-0.2-0.2,0.4-0.3,0.7-0.4c-5-0.3-7.4,0.7-10.8,0.2c-0.1-0.2-0.3-0.3-0.6-0.3
					c4,0,7.1,0,6.8,0c0-0.5-3.2-0.6-0.7-1.3c-2.6,0.4-7,1.2-10.1,1c-0.2,0-0.3-0.1-0.4-0.2l0.3-0.1c-0.7,0-1.4,0-2,0.1
					c-1-0.1-1.6-0.1-2.6-0.1c-0.4-0.4-3.7-0.2-5.3-0.2c0.1,0.5-2,0.4,0,0.8c-0.3,0,0.3-0.1,1.4-0.1c0.2,0,0.5,0,0.7-0.1
					c0,0-0.1,0-0.1,0c1,0,2.4,0,4-0.1c-1.3,0.3-2.6,0.5-4.3,0.2c-0.8,0.3-1.7,0.7-2.2,0.8c-2.2-0.7-6.4-1-7-1.4
					c-4.9,0.3-11.5,0.3-14.5,1.1c-1.4,0.1-1.6-0.2-2.1-0.4c0.8-0.1,1.7-0.1,2.2-0.2c-2.8,0.2-8.2,0.2-8.9,0.7
					c-3.5-0.2,2-0.5-2.8-0.4l0.6-0.2c-4.7-0.4-8.5,0-12.5,0.3c-4,0.3-8,0.6-13.3,0.1c0.7,0,1.1,0.1,1.2,0.1c-6-0.2-12.1,0-18.2,0.1
					c-6.1,0.1-12.2,0.1-18.1,0c-3.3,0-3.7,0.1-5.7,0.3L43,4.3l-3.5,0.3c-4.9,0.1-8.6-0.3-14.8,0l0.8,0.1c-2.2,0-7.1,0.1-6.7,0
					c-0.2,0-0.7,0.1-1.6,0l-0.1,0l-5.5,0.1c-4.3,0,0.7-0.1-5.6,0C3.7,4.8,1,4.8,0.2,4.8c0.9,0,2.3,0,2.5,0l-2.1,0
					c-0.4,0-2,0,3.2,0.1l3.6,0L8.5,5L5.5,4.9C7.2,5,8.3,5,9.5,5c0.3,0,0.8,0,1.5,0.1l3.6,0c0.4,0.1-1.6,0.1,0.8,0.1
					c1.7,0-1.6-0.1,1.2-0.1c1.7,0.1,1.2,0.1,3.3,0.1c0.3,0-0.1,0.1-1,0.1c1.8,0,4.8,0.1,5.7,0c1.8,0.1,6.1,0.1,5.9,0.3
					c0.6,0,3.2-0.1,4.9-0.1c-3,0.3,6.2,0.1,5.4,0.5c2.3-0.3,8.1,0,12.1-0.1c-0.2,0-0.7,0.1-1,0.1c2.2,0.1,2.9,0.2,4.3,0.3
					c0.3-0.3,3.8-0.4,5.7-0.6c2.8,0.4-1.7,0.4-0.8,0.7C61.1,5.9,66,6,65.1,5.7c2.1,0.3,1.8,0.1,2.9,0.5c0.4-0.5,2-0.1,3.7-0.3
					c3,0.3,0.8,0.5,4.1,0.4C77.4,6.4,74.4,6.5,74.4,6.5z M154.1,6.2C154.1,6.2,154.1,6.2,154.1,6.2c-0.7,0-1.3,0-1.6,0
					C152.8,6.2,153.3,6.2,154.1,6.2z M160.8,6.3c-0.8,0-1.8,0-2.9,0c-0.2-0.2,0-0.4,0.7-0.4C158.2,6,159.8,6.1,160.8,6.3z
					 M146.6,2.6c1.1-0.1,1.4,0,1.6,0.1c-0.5,0-1.1,0-1.9,0.1c0,0-0.1,0-0.1,0.1C146.3,2.8,146.4,2.7,146.6,2.6z"/>
				<path fill="#329426" d="M144.7,3.3c-0.2,0-0.2,0-0.4,0c0.2,0,0.4,0.1,0.6,0.1c0.1-0.1,0.3-0.1,0.4-0.2
					C145.1,3.3,144.9,3.3,144.7,3.3z"/>
				<path fill="#329426" d="M751.6,4.1l-0.1,0c0.1,0,0.2,0,0.3,0.1C751.6,4.1,751.6,4.1,751.6,4.1z"/>
				<polygon fill="#329426" points="253.2,8.1 253.2,7.9 252.6,8 				"/>
				<path fill="#329426" d="M788.4,5.5c0.1,0,0.2,0.1,0.5,0.1C788.9,5.6,788.7,5.6,788.4,5.5z"/>
				<path fill="#329426" d="M804.4,5.5l2.3,0.1C805.6,5.6,804.9,5.5,804.4,5.5z"/>
				<path fill="#329426" d="M816.6,5.6c0.2-0.1,0.2-0.1,0.2-0.1l0,0L816.6,5.6z"/>
				<path fill="#329426" d="M621.9,7.6c-0.2,0-0.3,0-0.5,0C620.3,7.8,621.1,7.7,621.9,7.6z"/>
				<path fill="#329426" d="M679.9,5.8c-0.6,0.1-1.2,0.2-1.9,0.3C679,6.1,679.8,6.1,679.9,5.8z"/>
				<path fill="#329426" d="M557.2,8.8C557.2,8.8,557.2,8.8,557.2,8.8c-0.1,0-0.3,0-0.4,0L557.2,8.8z"/>
				<path fill="#329426" d="M675.3,6.1c1,0.1,1.9,0.1,2.7,0C677.1,6,676.1,6,675.3,6.1z"/>
				<path fill="#329426" d="M869.7,5l0.6,0c0,0,0,0,0.1,0L869.7,5z"/>
				<path fill="#329426" d="M870.3,5l0.7,0C870.7,5,870.4,5,870.3,5z"/>
				<path fill="#329426" d="M872.4,5L871,5C871.5,5,872.1,5,872.4,5z"/>
				<path fill="#329426" d="M853.5,5.2l-0.2,0.1C853.4,5.2,853.5,5.2,853.5,5.2z"/>
				<path fill="#329426" d="M848.5,5.3c1.2,0,2.9,0.1,4.6,0l0.2,0C852.5,5.3,849.7,5.2,848.5,5.3z"/>
				<path fill="#329426" d="M828,4.4l4.1,0.1c-0.7-0.1-1.7-0.2,0.2-0.2C827.1,4,833.4,4.5,828,4.4z"/>
				<path fill="#329426" d="M815.2,4.2c2.2,0,0-0.2,0.1-0.2C813.9,4,813.5,4.1,815.2,4.2z"/>
				<path fill="#329426" d="M722.7,3.6l0.2-0.5C721.2,3.1,722.9,3.3,722.7,3.6z"/>
				<polygon fill="#329426" points="705,6.2 706.7,6.6 707.5,6.1 				"/>
				<polygon fill="#329426" points="694.6,2.4 695.3,2.3 692.5,2.5 				"/>
				<path fill="#329426" d="M539.2,1.8l0.5,0.9C540.9,2.5,541.1,1.5,539.2,1.8z"/>
				<path fill="#329426" d="M472.2,2.6c-0.7-0.5-2.6-0.8-3.8-0.3C469.9,2.4,471.4,2.8,472.2,2.6z"/>
				<polygon fill="#329426" points="271,1.6 272.4,1.3 269.8,1.5 				"/>
			</g>
		</g>
	</g>
</g>
</svg>
