<?xml version="1.0" encoding="utf-8"?>
<!-- Generator: Adobe Illustrator 18.1.1, SVG Export Plug-In . SVG Version: 6.00 Build 0)  -->
<!DOCTYPE svg PUBLIC "-//W3C//DTD SVG 1.1//EN" "http://www.w3.org/Graphics/SVG/1.1/DTD/svg11.dtd">
<svg version="1.1" xmlns="http://www.w3.org/2000/svg" xmlns:xlink="http://www.w3.org/1999/xlink" x="0px" y="0px" width="288.9px"
	 height="46.6px" viewBox="0 0 288.9 46.6" enable-background="new 0 0 288.9 46.6" xml:space="preserve">
<g id="Landing">
	<g id="Layer_8">
	</g>
	<g id="Main">
		<g id="navigation">
			<g id="logo">
			</g>
			<g>
				<path d="M7.3,3.3c0.7,0,1.4,0.1,2,0.2s1.2,0.4,1.6,0.8c0.5,0.3,0.8,0.8,1.1,1.4c0.2,0.6,0.4,1.3,0.4,2.1c0,1-0.2,1.8-0.7,2.5
					c-0.4,0.7-1.1,1.2-2,1.4v0c1,0.1,1.8,0.6,2.4,1.3s0.9,1.7,0.9,2.9c0,0.7-0.1,1.4-0.3,2c-0.2,0.6-0.5,1.2-0.9,1.7
					c-0.4,0.5-1,0.9-1.7,1.1s-1.6,0.4-2.6,0.4H1.2V3.3H7.3z M5.9,10.6c1,0,1.7-0.2,2.2-0.5c0.5-0.4,0.7-1,0.7-1.8S8.5,6.8,8.1,6.4
					C7.7,6.1,7,5.9,6.1,5.9H4.9v4.7H5.9z M6.2,18.5c0.9,0,1.6-0.2,2.1-0.6c0.5-0.4,0.8-1.1,0.8-2.1c0-0.5-0.1-0.9-0.2-1.3
					c-0.1-0.3-0.3-0.6-0.6-0.8c-0.2-0.2-0.5-0.4-0.9-0.4c-0.3-0.1-0.7-0.1-1.1-0.1H4.9v5.4H6.2z"/>
				<path d="M21.8,3.3c1.5,0,2.7,0.4,3.5,1.1c0.8,0.8,1.2,1.9,1.2,3.5c0,1.2-0.2,2.2-0.7,2.9c-0.5,0.8-1.2,1.2-2.2,1.5v0
					c0.9,0.1,1.6,0.4,2,0.9s0.7,1.2,0.8,2.2c0,0.3,0.1,0.7,0.1,1.1s0,0.8,0,1.3c0,0.9,0.1,1.7,0.2,2.2c0.1,0.5,0.3,0.8,0.6,1v0.2
					h-3.9c-0.2-0.2-0.3-0.5-0.4-0.9c-0.1-0.3-0.1-0.7-0.1-1l-0.1-3.4c0-0.7-0.2-1.2-0.5-1.7c-0.3-0.4-0.9-0.6-1.6-0.6h-1.9v7.5h-3.6
					V3.3H21.8z M20.2,11.1c0.9,0,1.5-0.2,2-0.6c0.5-0.4,0.7-1.1,0.7-2.1c0-1.7-0.8-2.5-2.5-2.5h-1.7v5.2H20.2z"/>
				<path d="M39,6.2h-6.4v4.2h6v3h-6v4.8h6.6v3H29V3.3h10V6.2z"/>
				<path d="M49,3.3l4.7,17.8H50l-0.8-3.8h-4.8l-0.8,3.8h-3.8l4.7-17.8H49z M48.5,14.4l-1.7-8h-0.1l-1.7,8H48.5z"/>
				<path d="M58.6,10.4L58.6,10.4l4.6-7.1h3.9l-4.9,7.6l5.4,10.2h-4l-3.7-7.3l-1.3,2v5.3H55V3.3h3.6V10.4z"/>
				<path d="M78.4,3.3v2.9H72v4.2h6v3h-6v7.8h-3.6V3.3H78.4z"/>
				<path d="M86.5,3.3l4.7,17.8h-3.8l-0.8-3.8h-4.8l-0.8,3.8h-3.8l4.7-17.8H86.5z M86.1,14.4l-1.7-8h-0.1l-1.7,8H86.1z"/>
				<path d="M95.4,16.1c0,0.4,0,0.8,0.1,1.1c0.1,0.3,0.2,0.6,0.4,0.9c0.2,0.2,0.4,0.4,0.7,0.5c0.3,0.1,0.7,0.2,1.2,0.2
					c0.6,0,1-0.2,1.5-0.5c0.4-0.4,0.7-0.9,0.7-1.7c0-0.4-0.1-0.7-0.2-1c-0.1-0.3-0.3-0.6-0.5-0.8s-0.6-0.4-1-0.6
					c-0.4-0.2-0.9-0.4-1.5-0.6c-0.8-0.3-1.5-0.6-2.1-0.9s-1.1-0.7-1.5-1.1c-0.4-0.4-0.7-0.9-0.9-1.5c-0.2-0.6-0.3-1.2-0.3-1.9
					c0-1.8,0.5-3.1,1.5-4c1-0.9,2.3-1.3,4.1-1.3c0.8,0,1.5,0.1,2.2,0.3c0.7,0.2,1.3,0.5,1.8,0.8c0.5,0.4,0.9,0.9,1.1,1.5
					c0.3,0.6,0.4,1.3,0.4,2.2v0.5h-3.5c0-0.8-0.1-1.5-0.4-2c-0.3-0.5-0.8-0.7-1.5-0.7c-0.4,0-0.7,0.1-1,0.2
					c-0.3,0.1-0.5,0.3-0.6,0.5c-0.2,0.2-0.3,0.4-0.3,0.7s-0.1,0.5-0.1,0.8c0,0.5,0.1,1,0.4,1.4s0.7,0.7,1.5,1l2.8,1.2
					c0.7,0.3,1.2,0.6,1.7,0.9c0.4,0.3,0.8,0.7,1,1s0.4,0.8,0.5,1.2s0.1,1,0.1,1.5c0,1.9-0.5,3.3-1.6,4.1c-1.1,0.9-2.6,1.3-4.6,1.3
					c-2,0-3.5-0.4-4.4-1.3s-1.3-2.2-1.3-3.8v-0.7h3.6V16.1z"/>
				<path d="M115.9,6.2H112v14.9h-3.6V6.2h-3.9V3.3h11.4V6.2z"/>
			</g>
			<g>
				<path fill="#FF7419" d="M14.8,25.9H6.4v5.5h7.9v3.9H6.4v6.3h8.7v3.9H1.6V22.1h13.2V25.9z"/>
				<path fill="#FF7419" d="M27.8,27.7c-0.1-0.5-0.3-0.9-0.5-1.3c-0.2-0.4-0.5-0.7-0.8-1c-0.3-0.3-0.8-0.4-1.2-0.4
					c-1.1,0-2,0.6-2.5,1.9c-0.5,1.3-0.8,3.4-0.8,6.3c0,1.4,0,2.7,0.1,3.8c0.1,1.1,0.2,2.1,0.5,2.9c0.2,0.8,0.6,1.4,1,1.8
					s1,0.6,1.7,0.6c0.3,0,0.6-0.1,0.9-0.2c0.3-0.2,0.7-0.4,1-0.7c0.3-0.3,0.5-0.7,0.7-1.2c0.2-0.5,0.3-1,0.3-1.7v-2.4h-3.1v-3.5h7.7
					v12.7h-3.5v-2.2h-0.1c-0.6,0.9-1.3,1.6-2.1,2c-0.8,0.4-1.8,0.6-2.9,0.6c-1.5,0-2.6-0.3-3.5-0.8c-0.9-0.5-1.6-1.3-2.1-2.3
					c-0.5-1.1-0.9-2.4-1-3.9c-0.2-1.6-0.3-3.3-0.3-5.4c0-2,0.1-3.7,0.4-5.2s0.7-2.7,1.3-3.7c0.6-1,1.4-1.8,2.4-2.3
					c1-0.5,2.3-0.8,3.8-0.8c2.6,0,4.5,0.6,5.6,1.9c1.1,1.3,1.7,3.1,1.7,5.5H28C28,28.6,27.9,28.2,27.8,27.7z"/>
				<path fill="#FF7419" d="M46.2,27.7c-0.1-0.5-0.3-0.9-0.5-1.3c-0.2-0.4-0.5-0.7-0.8-1c-0.3-0.3-0.8-0.4-1.2-0.4
					c-1.1,0-2,0.6-2.5,1.9c-0.5,1.3-0.8,3.4-0.8,6.3c0,1.4,0,2.7,0.1,3.8c0.1,1.1,0.2,2.1,0.5,2.9c0.2,0.8,0.6,1.4,1,1.8
					s1,0.6,1.7,0.6c0.3,0,0.6-0.1,0.9-0.2c0.3-0.2,0.7-0.4,1-0.7c0.3-0.3,0.5-0.7,0.7-1.2c0.2-0.5,0.3-1,0.3-1.7v-2.4h-3.1v-3.5h7.7
					v12.7h-3.5v-2.2h-0.1c-0.6,0.9-1.3,1.6-2.1,2c-0.8,0.4-1.8,0.6-2.9,0.6c-1.5,0-2.6-0.3-3.5-0.8c-0.9-0.5-1.6-1.3-2.1-2.3
					c-0.5-1.1-0.9-2.4-1-3.9c-0.2-1.6-0.3-3.3-0.3-5.4c0-2,0.1-3.7,0.4-5.2s0.7-2.7,1.3-3.7c0.6-1,1.4-1.8,2.4-2.3
					c1-0.5,2.3-0.8,3.8-0.8c2.6,0,4.5,0.6,5.6,1.9c1.1,1.3,1.7,3.1,1.7,5.5h-4.6C46.3,28.6,46.3,28.2,46.2,27.7z"/>
				<path fill="#FF7419" d="M64.1,22.1l2.6,17.4h0.1l2.8-17.4h4.6l2.8,17.4h0.1l2.6-17.4h4.6l-4.3,23.6h-5.3l-2.6-17.1h-0.1
					l-2.6,17.1h-5.3l-4.3-23.6H64.1z"/>
				<path fill="#FF7419" d="M90.7,22.1v9h5.5v-9h4.8v23.6h-4.8V35.2h-5.5v10.5H86V22.1H90.7z"/>
				<path fill="#FF7419" d="M104.6,22.1h4.8v23.6h-4.8V22.1z"/>
				<path fill="#FF7419" d="M126.7,25.9h-5.1v19.7h-4.8V25.9h-5.1v-3.9h15V25.9z"/>
				<path fill="#FF7419" d="M141.9,25.9h-8.4v5.5h7.9v3.9h-7.9v6.3h8.7v3.9h-13.5V22.1h13.2V25.9z"/>
				<path fill="#FF7419" d="M152.2,28.9c0.2-1.5,0.5-2.8,1.1-3.9s1.4-1.9,2.4-2.5s2.5-0.9,4.3-0.9c1.8,0,3.2,0.3,4.3,0.9
					c1.1,0.6,1.9,1.4,2.4,2.5s0.9,2.4,1.1,3.9c0.2,1.5,0.2,3.2,0.2,4.9c0,1.8-0.1,3.5-0.2,5s-0.5,2.8-1.1,3.9s-1.4,1.9-2.4,2.5
					c-1.1,0.6-2.5,0.9-4.3,0.9c-1.8,0-3.2-0.3-4.3-0.9c-1.1-0.6-1.9-1.4-2.4-2.5s-0.9-2.4-1.1-3.9s-0.2-3.1-0.2-5
					C152,32.1,152.1,30.4,152.2,28.9z M156.9,37.9c0.1,1.1,0.2,2,0.5,2.7c0.2,0.7,0.6,1.2,1,1.5c0.4,0.3,1,0.5,1.7,0.5
					s1.3-0.2,1.7-0.5c0.4-0.3,0.8-0.8,1-1.5c0.2-0.7,0.4-1.6,0.5-2.7c0.1-1.1,0.1-2.5,0.1-4s0-2.9-0.1-4c-0.1-1.1-0.2-2-0.5-2.7
					c-0.2-0.7-0.6-1.2-1-1.5c-0.4-0.3-1-0.5-1.7-0.5s-1.3,0.2-1.7,0.5c-0.4,0.3-0.8,0.8-1,1.5s-0.4,1.6-0.5,2.7
					c-0.1,1.1-0.1,2.4-0.1,4S156.8,36.8,156.9,37.9z"/>
				<path fill="#FF7419" d="M178,22.1l3.4,16.6h0.1l3.4-16.6h7v23.6h-4.4V26.8h-0.1l-4.2,18.8h-3.7l-4.2-18.8h-0.1v18.8h-4.4V22.1
					H178z"/>
				<path fill="#FF7419" d="M208.4,25.9H200v5.5h7.9v3.9H200v6.3h8.7v3.9h-13.5V22.1h13.2V25.9z"/>
				<path fill="#FF7419" d="M211.1,22.1h4.8v19.7h8.4v3.9h-13.2V22.1z"/>
				<path fill="#FF7419" d="M239.6,25.9h-8.4v5.5h7.9v3.9h-7.9v6.3h8.7v3.9h-13.5V22.1h13.2V25.9z"/>
				<path fill="#FF7419" d="M256.1,25.9h-5.1v19.7h-4.8V25.9H241v-3.9h15V25.9z"/>
				<path fill="#FF7419" d="M271.9,25.9h-5.1v19.7H262V25.9h-5.1v-3.9h15V25.9z"/>
				<path fill="#FF7419" d="M287.1,25.9h-8.4v5.5h7.9v3.9h-7.9v6.3h8.7v3.9H274V22.1h13.2V25.9z"/>
			</g>
		</g>
		<g id="icons">
		</g>
		<g id="body">
		</g>
	</g>
	<g id="Layer_7">
	</g>
</g>
<g id="first_landing">
	<g id="Logo">
	</g>
</g>
<g id="Layer_18">
</g>
<g id="about">
	<g id="Nav">
	</g>
	<g id="Layer_15">
	</g>
	<g id="Layer_16">
	</g>
	<g id="Layer_17">
	</g>
</g>
<g id="Breakfast">
	<g id="Layer_20">
	</g>
	<g id="Layer_21">
	</g>
</g>
<g id="Layer_22">
</g>
<g id="Layer_23">
</g>
<g id="Layer_2" display="none">
</g>
<g id="guides_landing" display="none">
</g>
</svg>
