<?xml version="1.0" encoding="utf-8"?>
<!-- Generator: Adobe Illustrator 18.1.1, SVG Export Plug-In . SVG Version: 6.00 Build 0)  -->
<!DOCTYPE svg PUBLIC "-//W3C//DTD SVG 1.1//EN" "http://www.w3.org/Graphics/SVG/1.1/DTD/svg11.dtd">
<svg version="1.1" xmlns="http://www.w3.org/2000/svg" xmlns:xlink="http://www.w3.org/1999/xlink" x="0px" y="0px" width="230.3px"
	 height="80px" viewBox="0 0 230.3 80" enable-background="new 0 0 230.3 80" xml:space="preserve">
<g id="Landing">
	<g id="Layer_8">
	</g>
	<g id="Main">
		<g id="navigation">
			<g id="logo">
			</g>
		</g>
		<g id="icons">
			<g>
				<g>
					<path fill="#FF7419" d="M18,31.8c1.8,0,3.4,0.2,4.9,0.5s2.8,1,3.9,1.8c1.1,0.8,1.9,2,2.5,3.4c0.6,1.4,0.9,3.1,0.9,5.2
						c0,2.3-0.5,4.3-1.6,6s-2.7,2.8-4.9,3.4v0.1c2.4,0.3,4.3,1.3,5.7,3.1c1.4,1.7,2.1,4,2.1,6.9c0,1.7-0.2,3.3-0.7,4.8
						c-0.4,1.5-1.2,2.8-2.2,4c-1.1,1.1-2.4,2.1-4.1,2.7c-1.7,0.7-3.8,1-6.3,1H3.6V31.8H18z M14.7,49.3c2.4,0,4.1-0.4,5.2-1.3
						c1.1-0.9,1.6-2.3,1.6-4.4c0-2-0.5-3.5-1.5-4.3c-1-0.8-2.6-1.3-4.7-1.3h-3.1v11.2H14.7z M15.6,68.2c2.1,0,3.8-0.5,5-1.4
						c1.3-0.9,1.9-2.6,1.9-5.1c0-1.2-0.2-2.3-0.5-3.1c-0.3-0.8-0.8-1.5-1.4-2c-0.6-0.5-1.3-0.8-2.1-1c-0.8-0.2-1.7-0.3-2.6-0.3h-3.7
						v12.9H15.6z"/>
					<path fill="#FF7419" d="M60.9,38.8H45.6v10.1H60V56H45.6v11.5h15.9v7.1H36.9V31.8h23.9V38.8z"/>
					<path fill="#FF7419" d="M86.2,61.1h0.1V31.8h7.9v42.8h-9.8l-10.6-30h-0.1v30h-7.9V31.8h10L86.2,61.1z"/>
					<path fill="#FF7419" d="M124.2,38.8h-15.3v10.1h14.4V56h-14.4v11.5h15.9v7.1h-24.5V31.8h23.9V38.8z"/>
					<path fill="#FF7419" d="M153,31.8v7.1h-15.3v10.1h14.4V56h-14.4v18.6h-8.6V31.8H153z"/>
					<path fill="#FF7419" d="M157.3,31.8h8.6v42.8h-8.6V31.8z"/>
					<path fill="#FF7419" d="M197.4,38.8h-9.4v35.8h-8.6V38.8h-9.4v-7.1h27.4V38.8z"/>
					<path fill="#FF7419" d="M208.1,62.5c0,1,0.1,1.9,0.2,2.7c0.2,0.8,0.5,1.5,0.9,2.1c0.4,0.6,1,1,1.8,1.3c0.7,0.3,1.7,0.5,2.8,0.5
						c1.3,0,2.5-0.4,3.6-1.3c1.1-0.9,1.6-2.2,1.6-4c0-1-0.1-1.8-0.4-2.5c-0.3-0.7-0.7-1.3-1.3-1.9s-1.4-1.1-2.4-1.5
						c-1-0.5-2.2-0.9-3.6-1.4c-1.9-0.6-3.6-1.3-5-2.1c-1.4-0.8-2.6-1.6-3.5-2.7c-0.9-1-1.6-2.2-2.1-3.5c-0.4-1.3-0.7-2.9-0.7-4.7
						c0-4.2,1.2-7.4,3.5-9.5c2.4-2.1,5.6-3.1,9.7-3.1c1.9,0,3.7,0.2,5.3,0.6c1.6,0.4,3,1.1,4.2,2c1.2,0.9,2.1,2.1,2.8,3.6
						c0.7,1.5,1,3.2,1,5.2v1.2h-8.3c0-2-0.4-3.6-1.1-4.7c-0.7-1.1-1.9-1.7-3.6-1.7c-1,0-1.8,0.1-2.4,0.4c-0.6,0.3-1.2,0.7-1.5,1.1
						c-0.4,0.5-0.6,1-0.8,1.6c-0.1,0.6-0.2,1.2-0.2,1.9c0,1.3,0.3,2.4,0.8,3.3c0.6,0.9,1.8,1.7,3.6,2.5l6.7,2.9c1.6,0.7,3,1.5,4,2.2
						c1,0.8,1.9,1.6,2.5,2.5c0.6,0.9,1.1,1.9,1.3,3c0.2,1.1,0.4,2.3,0.4,3.6c0,4.5-1.3,7.8-3.9,9.9c-2.6,2.1-6.3,3.1-11,3.1
						c-4.9,0-8.4-1.1-10.5-3.2c-2.1-2.1-3.2-5.2-3.2-9.1v-1.7h8.6V62.5z"/>
				</g>
			</g>
			<g>
				<path fill="#FF7419" d="M0.3,9.5h3.1V3.9h4.1v5.6h3.7v3.1H7.5v9.9c0,0.4,0,0.8,0.1,1.1c0,0.3,0.1,0.6,0.3,0.8s0.3,0.4,0.6,0.5
					C8.7,25,9,25,9.5,25c0.3,0,0.6,0,0.9,0c0.3,0,0.6-0.1,0.9-0.1v3.2c-0.5,0-0.9,0.1-1.3,0.1c-0.4,0-0.9,0.1-1.3,0.1
					c-1.1,0-2-0.1-2.6-0.3s-1.2-0.5-1.5-0.9c-0.4-0.4-0.6-0.9-0.8-1.5s-0.2-1.3-0.2-2.1v-11H0.3V9.5z"/>
				<path fill="#FF7419" d="M14.1,2.4h4.1v9.5h0.1c0.5-0.8,1.3-1.5,2.2-2.1c1-0.6,2.1-0.8,3.3-0.8c2,0,3.6,0.5,4.8,1.6
					c1.2,1.1,1.8,2.6,1.8,4.8v12.8h-4.1V16.4c0-1.5-0.4-2.5-0.9-3.2c-0.6-0.7-1.5-1-2.7-1c-0.7,0-1.3,0.1-1.9,0.4s-1,0.6-1.4,1
					s-0.7,1-0.9,1.6c-0.2,0.6-0.3,1.2-0.3,1.9v11h-4.1V2.4z"/>
				<path fill="#FF7419" d="M38,19.9c0,0.7,0.1,1.4,0.3,2.1s0.5,1.3,0.9,1.8s0.9,0.9,1.5,1.2c0.6,0.3,1.4,0.4,2.2,0.4
					c1.2,0,2.2-0.3,2.9-0.8c0.7-0.5,1.3-1.3,1.6-2.3h3.9c-0.2,1-0.6,1.9-1.1,2.7c-0.5,0.8-1.2,1.5-1.9,2c-0.7,0.5-1.6,0.9-2.5,1.2
					C45,28.5,44,28.6,43,28.6c-1.5,0-2.8-0.2-3.9-0.7c-1.1-0.5-2.1-1.2-2.9-2c-0.8-0.9-1.4-1.9-1.8-3.1c-0.4-1.2-0.6-2.5-0.6-4
					c0-1.3,0.2-2.6,0.6-3.8c0.4-1.2,1-2.2,1.8-3.1c0.8-0.9,1.7-1.6,2.8-2.1C40.3,9.2,41.5,9,42.9,9c1.5,0,2.8,0.3,3.9,0.9
					s2.1,1.4,2.9,2.4c0.8,1,1.3,2.2,1.7,3.5c0.3,1.3,0.4,2.7,0.3,4H38z M47.6,17.2c0-0.6-0.2-1.3-0.4-1.9c-0.2-0.6-0.5-1.1-0.9-1.6
					c-0.4-0.4-0.9-0.8-1.4-1.1c-0.6-0.3-1.2-0.4-1.9-0.4c-0.7,0-1.4,0.1-2,0.4s-1.1,0.6-1.5,1s-0.8,1-1,1.6
					c-0.3,0.6-0.4,1.2-0.4,1.9H47.6z"/>
			</g>
		</g>
		<g id="body">
		</g>
	</g>
	<g id="Layer_7">
	</g>
</g>
<g id="first_landing">
	<g id="Logo">
	</g>
</g>
<g id="Layer_18">
</g>
<g id="about">
	<g id="Nav">
	</g>
	<g id="Layer_15">
	</g>
	<g id="Layer_16">
	</g>
	<g id="Layer_17">
	</g>
</g>
<g id="Breakfast">
	<g id="Layer_20">
	</g>
	<g id="Layer_21">
	</g>
</g>
<g id="Layer_22">
</g>
<g id="Layer_23">
</g>
<g id="Layer_2" display="none">
</g>
<g id="guides_landing" display="none">
</g>
</svg>
