<?xml version="1.0" encoding="utf-8"?>
<!-- Generator: Adobe Illustrator 18.1.1, SVG Export Plug-In . SVG Version: 6.00 Build 0)  -->
<!DOCTYPE svg PUBLIC "-//W3C//DTD SVG 1.1//EN" "http://www.w3.org/Graphics/SVG/1.1/DTD/svg11.dtd">
<svg version="1.1" xmlns="http://www.w3.org/2000/svg" xmlns:xlink="http://www.w3.org/1999/xlink" x="0px" y="0px" width="126.7px"
	 height="76px" viewBox="0 0 126.7 76" enable-background="new 0 0 126.7 76" xml:space="preserve">
<g id="Landing">
	<g id="Layer_8">
	</g>
	<g id="Main">
		<g id="navigation">
			<g id="logo">
			</g>
		</g>
		<g id="icons">
			<g>
				<path fill="#FF7419" d="M0.3,8.9h3.1V3.3h4.1v5.6h3.7V12H7.5v9.9c0,0.4,0,0.8,0.1,1.1c0,0.3,0.1,0.6,0.3,0.8
					c0.1,0.2,0.3,0.4,0.6,0.5c0.3,0.1,0.6,0.2,1.1,0.2c0.3,0,0.6,0,0.9,0c0.3,0,0.6-0.1,0.9-0.1v3.2c-0.5,0-0.9,0.1-1.3,0.1
					c-0.4,0-0.9,0.1-1.3,0.1c-1.1,0-2-0.1-2.6-0.3c-0.7-0.2-1.2-0.5-1.5-0.9C4,26.1,3.7,25.6,3.6,25c-0.1-0.6-0.2-1.3-0.2-2.1V12
					H0.3V8.9z"/>
				<path fill="#FF7419" d="M14.1,1.8h4.1v9.5h0.1c0.5-0.8,1.3-1.5,2.2-2.1c1-0.6,2.1-0.8,3.3-0.8c2,0,3.6,0.5,4.8,1.6
					c1.2,1.1,1.8,2.6,1.8,4.8v12.8h-4.1V15.8c0-1.5-0.4-2.5-0.9-3.2c-0.6-0.7-1.5-1-2.7-1c-0.7,0-1.3,0.1-1.9,0.4
					c-0.6,0.3-1,0.6-1.4,1c-0.4,0.4-0.7,1-0.9,1.6c-0.2,0.6-0.3,1.2-0.3,1.9v11h-4.1V1.8z"/>
				<path fill="#FF7419" d="M38,19.3c0,0.7,0.1,1.4,0.3,2.1c0.2,0.7,0.5,1.3,0.9,1.8c0.4,0.5,0.9,0.9,1.5,1.2
					c0.6,0.3,1.4,0.5,2.2,0.5c1.2,0,2.2-0.3,2.9-0.8c0.7-0.5,1.3-1.3,1.6-2.3h3.9c-0.2,1-0.6,1.9-1.1,2.7s-1.2,1.5-1.9,2
					c-0.7,0.5-1.6,0.9-2.5,1.2C45,27.9,44,28,43,28c-1.5,0-2.8-0.2-3.9-0.7c-1.1-0.5-2.1-1.2-2.9-2c-0.8-0.9-1.4-1.9-1.8-3.1
					c-0.4-1.2-0.6-2.5-0.6-4c0-1.3,0.2-2.6,0.6-3.8c0.4-1.2,1-2.2,1.8-3.1c0.8-0.9,1.7-1.6,2.8-2.1c1.1-0.5,2.4-0.8,3.7-0.8
					c1.5,0,2.8,0.3,3.9,0.9c1.2,0.6,2.1,1.4,2.9,2.4c0.8,1,1.3,2.2,1.7,3.5c0.3,1.3,0.4,2.7,0.3,4H38z M47.6,16.6
					c0-0.6-0.2-1.3-0.4-1.9s-0.5-1.1-0.9-1.6c-0.4-0.4-0.9-0.8-1.4-1.1c-0.6-0.3-1.2-0.4-1.9-0.4c-0.7,0-1.4,0.1-2,0.4
					c-0.6,0.3-1.1,0.6-1.5,1c-0.4,0.4-0.8,1-1,1.6c-0.3,0.6-0.4,1.2-0.4,1.9H47.6z"/>
			</g>
			<g>
				<g>
					<path fill="#FF7419" d="M18.1,31.2c2.2,0,4,0.4,5.5,1.1c1.5,0.7,2.7,1.7,3.6,2.9c0.9,1.2,1.6,2.6,2,4.1
						c0.4,1.5,0.6,3.1,0.6,4.7c0,2.2-0.3,4.1-1,5.8c-0.7,1.6-1.6,3-2.8,4c-1.2,1-2.6,1.8-4.3,2.3c-1.7,0.5-3.5,0.8-5.6,0.8h-4.6V74
						H3V31.2H18.1z M15.5,50.6c1.7,0,3.1-0.5,4.2-1.6c1.1-1,1.6-2.7,1.6-4.9c0-2.2-0.5-3.8-1.4-4.9c-0.9-1.1-2.5-1.7-4.6-1.7h-3.6
						v13H15.5z"/>
					<path fill="#FF7419" d="M34.1,31.2h8.6V67h15.3V74H34.1V31.2z"/>
					<path fill="#FF7419" d="M80.9,31.2L92.3,74h-9l-2-9.1H69.9l-2,9.1h-9l11.3-42.8H80.9z M79.8,57.9l-4.1-19.3h-0.1l-4.1,19.3
						H79.8z"/>
					<path fill="#FF7419" d="M115.7,60.5h0.1V31.2h7.9V74h-9.8l-10.6-30h-0.1v30h-7.9V31.2h10L115.7,60.5z"/>
				</g>
			</g>
		</g>
		<g id="body">
		</g>
	</g>
	<g id="Layer_7">
	</g>
</g>
<g id="first_landing">
	<g id="Logo">
	</g>
</g>
<g id="Layer_18">
</g>
<g id="about">
	<g id="Nav">
	</g>
	<g id="Layer_15">
	</g>
	<g id="Layer_16">
	</g>
	<g id="Layer_17">
	</g>
</g>
<g id="Breakfast">
	<g id="Layer_20">
	</g>
	<g id="Layer_21">
	</g>
</g>
<g id="Layer_22">
</g>
<g id="Layer_23">
</g>
<g id="Layer_2" display="none">
</g>
<g id="guides_landing" display="none">
</g>
</svg>
