<?xml version="1.0" encoding="utf-8"?>
<!-- Generator: Adobe Illustrator 18.1.1, SVG Export Plug-In . SVG Version: 6.00 Build 0)  -->
<!DOCTYPE svg PUBLIC "-//W3C//DTD SVG 1.1//EN" "http://www.w3.org/Graphics/SVG/1.1/DTD/svg11.dtd">
<svg version="1.1" xmlns="http://www.w3.org/2000/svg" xmlns:xlink="http://www.w3.org/1999/xlink" x="0px" y="0px" width="220.2px"
	 height="45.8px" viewBox="0 0 220.2 45.8" enable-background="new 0 0 220.2 45.8" xml:space="preserve">
<g id="Landing">
	<g id="Layer_8">
	</g>
	<g id="Main">
		<g id="navigation">
			<g id="logo">
			</g>
			<g>
				<g>
					<path d="M7.3,1.7c1.2,0,2.3,0.2,3,0.6c0.8,0.4,1.4,1,1.8,1.8c0.4,0.8,0.7,1.7,0.9,2.7s0.2,2.3,0.2,3.6c0,1.6-0.1,2.9-0.3,4.1
						c-0.2,1.2-0.5,2.1-1,2.9c-0.5,0.8-1.1,1.3-1.9,1.7c-0.8,0.4-1.8,0.5-3,0.5H1.4V1.7H7.3z M6.6,16.9c0.6,0,1.1-0.1,1.5-0.3
						s0.7-0.6,0.9-1.1s0.4-1.2,0.5-2c0.1-0.8,0.1-1.8,0.1-3c0-1,0-1.9-0.1-2.7C9.5,7,9.3,6.4,9.1,5.9C8.9,5.4,8.6,5,8.2,4.7
						c-0.4-0.3-1-0.4-1.6-0.4H5v12.5H6.6z"/>
					<path d="M15.8,1.7h3.6v17.8h-3.6V1.7z"/>
					<path d="M30.5,13.9L30.5,13.9l0-12.2h3.3v17.8h-4.1L25.4,7h-0.1v12.5H22V1.7h4.1L30.5,13.9z"/>
					<path d="M44.9,13.9L44.9,13.9l0-12.2h3.3v17.8h-4.1L39.7,7h-0.1v12.5h-3.3V1.7h4.1L44.9,13.9z"/>
					<path d="M60.7,4.6h-6.4v4.2h6v3h-6v4.8H61v3H50.7V1.7h10V4.6z"/>
					<path d="M69.4,1.7c1.5,0,2.7,0.4,3.5,1.1c0.8,0.8,1.2,1.9,1.2,3.5c0,1.2-0.2,2.2-0.7,2.9c-0.5,0.8-1.2,1.2-2.2,1.5v0
						c0.9,0.1,1.6,0.4,2,0.9s0.7,1.2,0.8,2.2c0,0.3,0.1,0.7,0.1,1.1s0,0.8,0,1.3c0,0.9,0.1,1.7,0.2,2.2c0.1,0.5,0.3,0.8,0.6,1v0.2
						H71c-0.2-0.2-0.3-0.5-0.4-0.9c-0.1-0.3-0.1-0.7-0.1-1l-0.1-3.4c0-0.7-0.2-1.2-0.5-1.7C69.6,12.2,69,12,68.3,12h-1.9v7.5h-3.6
						V1.7H69.4z M67.9,9.5c0.9,0,1.5-0.2,2-0.6c0.5-0.4,0.7-1.1,0.7-2.1c0-1.7-0.8-2.5-2.5-2.5h-1.7v5.2H67.9z"/>
				</g>
			</g>
			<g>
				<path fill="#FF7419" d="M12,27.1c-0.1-0.5-0.3-0.9-0.5-1.3c-0.2-0.4-0.5-0.7-0.8-1c-0.3-0.3-0.8-0.4-1.2-0.4
					c-1.1,0-2,0.6-2.5,1.9c-0.5,1.3-0.8,3.4-0.8,6.3c0,1.4,0,2.7,0.1,3.8c0.1,1.1,0.2,2.1,0.5,2.9c0.2,0.8,0.6,1.4,1,1.8
					s1,0.6,1.7,0.6c0.3,0,0.6-0.1,0.9-0.2c0.3-0.2,0.7-0.4,1-0.7c0.3-0.3,0.5-0.7,0.7-1.2c0.2-0.5,0.3-1,0.3-1.7v-2.4H9.2v-3.5h7.7
					V45h-3.5v-2.2h-0.1c-0.6,0.9-1.3,1.6-2.1,2c-0.8,0.4-1.8,0.6-2.9,0.6c-1.5,0-2.6-0.3-3.5-0.8c-0.9-0.5-1.6-1.3-2.1-2.3
					c-0.5-1.1-0.9-2.4-1-3.9C1.5,36.8,1.4,35,1.4,33c0-2,0.1-3.7,0.4-5.2S2.5,25,3.1,24c0.6-1,1.4-1.8,2.4-2.3
					c1-0.5,2.3-0.8,3.8-0.8c2.6,0,4.5,0.6,5.6,1.9c1.1,1.3,1.7,3.1,1.7,5.5h-4.6C12.1,28,12.1,27.6,12,27.1z"/>
				<path fill="#FF7419" d="M28.8,21.5c2,0,3.5,0.5,4.6,1.5s1.7,2.5,1.7,4.6c0,1.6-0.3,2.9-1,3.9c-0.6,1-1.6,1.6-3,1.9v0.1
					c1.2,0.2,2.1,0.6,2.6,1.2c0.5,0.6,0.9,1.6,1,2.9c0,0.4,0.1,0.9,0.1,1.4c0,0.5,0,1.1,0.1,1.7c0,1.3,0.1,2.2,0.2,2.9
					c0.1,0.7,0.4,1.1,0.9,1.4V45h-5.1c-0.2-0.3-0.4-0.7-0.5-1.1c-0.1-0.4-0.1-0.9-0.1-1.3l-0.1-4.5c0-0.9-0.3-1.7-0.7-2.2
					c-0.4-0.5-1.1-0.8-2.1-0.8h-2.5v10H20V21.5H28.8z M26.7,31.8c1.1,0,2-0.3,2.6-0.8c0.6-0.5,0.9-1.4,0.9-2.7
					c0-2.2-1.1-3.3-3.3-3.3h-2.2v6.8H26.7z"/>
				<path fill="#FF7419" d="M38.1,28.3c0.2-1.5,0.5-2.8,1.1-3.9s1.4-1.9,2.4-2.5s2.5-0.9,4.3-0.9c1.8,0,3.2,0.3,4.3,0.9
					c1.1,0.6,1.9,1.4,2.4,2.5s0.9,2.4,1.1,3.9c0.2,1.5,0.2,3.2,0.2,4.9c0,1.8-0.1,3.5-0.2,5s-0.5,2.8-1.1,3.9s-1.4,1.9-2.4,2.5
					c-1.1,0.6-2.5,0.9-4.3,0.9c-1.8,0-3.2-0.3-4.3-0.9c-1.1-0.6-1.9-1.4-2.4-2.5s-0.9-2.4-1.1-3.9s-0.2-3.1-0.2-5
					C37.9,31.5,37.9,29.8,38.1,28.3z M42.7,37.3c0.1,1.1,0.2,2,0.5,2.7c0.2,0.7,0.6,1.2,1,1.5c0.4,0.3,1,0.5,1.7,0.5
					s1.3-0.2,1.7-0.5c0.4-0.3,0.8-0.8,1-1.5c0.2-0.7,0.4-1.6,0.5-2.7c0.1-1.1,0.1-2.5,0.1-4s0-2.9-0.1-4c-0.1-1.1-0.2-2-0.5-2.7
					c-0.2-0.7-0.6-1.2-1-1.5c-0.4-0.3-1-0.5-1.7-0.5s-1.3,0.2-1.7,0.5c-0.4,0.3-0.8,0.8-1,1.5s-0.4,1.6-0.5,2.7
					c-0.1,1.1-0.1,2.4-0.1,4S42.6,36.2,42.7,37.3z"/>
				<path fill="#FF7419" d="M61.1,37.9c0,0.6,0,1.1,0.1,1.6c0.1,0.5,0.2,0.9,0.4,1.3c0.2,0.4,0.5,0.6,0.9,0.9
					c0.4,0.2,0.8,0.3,1.4,0.3c0.6,0,1-0.1,1.4-0.3c0.4-0.2,0.6-0.5,0.8-0.9c0.2-0.4,0.4-0.8,0.4-1.3c0.1-0.5,0.1-1,0.1-1.6V21.5h4.8
					v16.4c0,1.5-0.2,2.7-0.6,3.7c-0.4,1-1,1.8-1.7,2.3s-1.5,1-2.4,1.2c-0.9,0.2-1.8,0.3-2.8,0.3c-1,0-1.9-0.1-2.8-0.3
					c-0.9-0.2-1.7-0.5-2.4-1.1c-0.7-0.5-1.3-1.3-1.7-2.3c-0.4-1-0.6-2.3-0.6-3.9V21.5h4.8V37.9z"/>
				<path fill="#FF7419" d="M85.7,37.6L85.7,37.6l0.1-16.1h4.4V45h-5.4l-5.8-16.5h-0.1V45h-4.4V21.5h5.5L85.7,37.6z"/>
				<path fill="#FF7419" d="M101.4,21.5c1.6,0,3,0.3,4,0.8c1,0.5,1.8,1.3,2.4,2.3s0.9,2.2,1.1,3.6c0.2,1.4,0.3,3,0.3,4.7
					c0,2.1-0.1,3.9-0.4,5.4c-0.3,1.5-0.7,2.8-1.3,3.8c-0.6,1-1.4,1.7-2.5,2.2c-1,0.5-2.3,0.7-3.9,0.7h-7.5V21.5H101.4z M100.5,41.5
					c0.8,0,1.5-0.1,2-0.4c0.5-0.3,0.9-0.8,1.2-1.4s0.5-1.5,0.6-2.6c0.1-1.1,0.1-2.4,0.1-4c0-1.3,0-2.5-0.1-3.5
					c-0.1-1-0.3-1.9-0.5-2.5c-0.3-0.7-0.7-1.2-1.2-1.5c-0.5-0.3-1.3-0.5-2.2-0.5h-2v16.6H100.5z"/>
				<path fill="#FF7419" d="M132.8,25.4h-5.1V45h-4.8V25.4h-5.1v-3.9h15V25.4z"/>
				<path fill="#FF7419" d="M139.3,37.9c0,0.6,0,1.1,0.1,1.6c0.1,0.5,0.2,0.9,0.4,1.3c0.2,0.4,0.5,0.6,0.9,0.9
					c0.4,0.2,0.8,0.3,1.4,0.3c0.6,0,1-0.1,1.4-0.3c0.4-0.2,0.6-0.5,0.8-0.9c0.2-0.4,0.4-0.8,0.4-1.3c0.1-0.5,0.1-1,0.1-1.6V21.5h4.8
					v16.4c0,1.5-0.2,2.7-0.6,3.7c-0.4,1-1,1.8-1.7,2.3s-1.5,1-2.4,1.2c-0.9,0.2-1.8,0.3-2.8,0.3c-1,0-1.9-0.1-2.8-0.3
					c-0.9-0.2-1.7-0.5-2.4-1.1c-0.7-0.5-1.3-1.3-1.7-2.3c-0.4-1-0.6-2.3-0.6-3.9V21.5h4.8V37.9z"/>
				<path fill="#FF7419" d="M161.4,21.5c2,0,3.5,0.5,4.6,1.5s1.7,2.5,1.7,4.6c0,1.6-0.3,2.9-1,3.9c-0.6,1-1.6,1.6-3,1.9v0.1
					c1.2,0.2,2.1,0.6,2.6,1.2c0.5,0.6,0.9,1.6,1,2.9c0,0.4,0.1,0.9,0.1,1.4c0,0.5,0,1.1,0.1,1.7c0,1.3,0.1,2.2,0.2,2.9
					c0.1,0.7,0.4,1.1,0.9,1.4V45h-5.1c-0.2-0.3-0.4-0.7-0.5-1.1c-0.1-0.4-0.1-0.9-0.1-1.3l-0.1-4.5c0-0.9-0.3-1.7-0.7-2.2
					c-0.4-0.5-1.1-0.8-2.1-0.8h-2.5v10h-4.8V21.5H161.4z M159.4,31.8c1.1,0,2-0.3,2.6-0.8c0.6-0.5,0.9-1.4,0.9-2.7
					c0-2.2-1.1-3.3-3.3-3.3h-2.2v6.8H159.4z"/>
				<path fill="#FF7419" d="M175.7,30.9L175.7,30.9l6.1-9.4h5.1l-6.4,10.1l7.1,13.5h-5.3l-4.9-9.7l-1.7,2.7v7H171V21.5h4.8V30.9z"/>
				<path fill="#FF7419" d="M201.9,25.4h-8.4v5.5h7.9v3.9h-7.9v6.3h8.7V45h-13.5V21.5h13.2V25.4z"/>
				<path fill="#FF7419" d="M211.5,30.6L211.5,30.6l3.4-9.1h5.1l-6.1,14.3V45h-4.8v-9.3L203,21.5h5.3L211.5,30.6z"/>
			</g>
		</g>
		<g id="icons">
		</g>
		<g id="body">
		</g>
	</g>
	<g id="Layer_7">
	</g>
</g>
<g id="first_landing">
	<g id="Logo">
	</g>
</g>
<g id="Layer_18">
</g>
<g id="about">
	<g id="Nav">
	</g>
	<g id="Layer_15">
	</g>
	<g id="Layer_16">
	</g>
	<g id="Layer_17">
	</g>
</g>
<g id="Breakfast">
	<g id="Layer_20">
	</g>
	<g id="Layer_21">
	</g>
</g>
<g id="Layer_22">
</g>
<g id="Layer_23">
</g>
<g id="Layer_2" display="none">
</g>
<g id="guides_landing" display="none">
</g>
</svg>
