<?xml version="1.0" encoding="utf-8"?>
<!-- Generator: Adobe Illustrator 18.1.1, SVG Export Plug-In . SVG Version: 6.00 Build 0)  -->
<!DOCTYPE svg PUBLIC "-//W3C//DTD SVG 1.1//EN" "http://www.w3.org/Graphics/SVG/1.1/DTD/svg11.dtd">
<svg version="1.1" xmlns="http://www.w3.org/2000/svg" xmlns:xlink="http://www.w3.org/1999/xlink" x="0px" y="0px" width="235.2px"
	 height="46.8px" viewBox="0 0 235.2 46.8" enable-background="new 0 0 235.2 46.8" xml:space="preserve">
<g id="Landing">
	<g id="Layer_8">
	</g>
	<g id="Main">
		<g id="navigation">
			<g id="logo">
			</g>
			<g>
				<g>
					<path d="M2.8,2.1h3.6V17h6.4v3h-10V2.1z"/>
					<path d="M17.7,14.5c0,0.5,0,0.9,0.1,1.2c0.1,0.4,0.2,0.7,0.3,1c0.2,0.3,0.4,0.5,0.6,0.7s0.6,0.2,1,0.2c0.4,0,0.8-0.1,1-0.2
						s0.5-0.4,0.6-0.7c0.2-0.3,0.3-0.6,0.3-1c0.1-0.4,0.1-0.8,0.1-1.2V2.1h3.6v12.4c0,1.1-0.2,2.1-0.5,2.8c-0.3,0.7-0.7,1.3-1.3,1.8
						c-0.5,0.4-1.1,0.7-1.8,0.9c-0.7,0.2-1.4,0.2-2.1,0.2c-0.7,0-1.4-0.1-2.1-0.2c-0.7-0.1-1.3-0.4-1.8-0.8c-0.5-0.4-1-1-1.3-1.7
						c-0.3-0.8-0.5-1.7-0.5-2.9V2.1h3.6V14.5z"/>
					<path d="M36.3,14.3L36.3,14.3l0-12.2h3.3v17.8h-4.1L31.1,7.4h-0.1v12.5h-3.3V2.1h4.1L36.3,14.3z"/>
					<path d="M49.3,5.3c-0.3-0.6-0.9-0.9-1.7-0.9c-0.5,0-0.8,0.1-1.1,0.4C46.2,5,46,5.4,45.8,5.9c-0.2,0.5-0.3,1.2-0.3,2.1
						c-0.1,0.9-0.1,1.9-0.1,3.2c0,1.3,0,2.4,0.1,3.3c0.1,0.8,0.2,1.5,0.4,1.9c0.2,0.5,0.4,0.8,0.7,0.9c0.3,0.2,0.6,0.2,1,0.2
						c0.3,0,0.6-0.1,0.9-0.2c0.3-0.1,0.5-0.3,0.7-0.6s0.4-0.8,0.5-1.4c0.1-0.6,0.2-1.4,0.2-2.3h3.6c0,1-0.1,1.9-0.2,2.8
						c-0.1,0.9-0.4,1.6-0.8,2.3c-0.4,0.6-1,1.2-1.7,1.5C50,20,49,20.2,47.8,20.2c-1.4,0-2.4-0.2-3.2-0.7c-0.8-0.4-1.4-1.1-1.8-1.9
						c-0.4-0.8-0.7-1.8-0.8-2.9s-0.2-2.4-0.2-3.8c0-1.4,0.1-2.6,0.2-3.7s0.4-2.1,0.8-2.9c0.4-0.8,1-1.5,1.8-1.9
						c0.8-0.5,1.9-0.7,3.2-0.7c1.3,0,2.3,0.2,3,0.6c0.7,0.4,1.3,0.9,1.7,1.6s0.6,1.3,0.7,2.1c0.1,0.7,0.1,1.4,0.1,2.1h-3.6
						C49.7,6.8,49.6,5.9,49.3,5.3z"/>
					<path d="M59.1,2.1v6.8h4.2V2.1h3.6v17.8h-3.6V12h-4.2v7.9h-3.6V2.1H59.1z"/>
				</g>
			</g>
			<g>
				<path fill="#FF7419" d="M12.5,27.5c-0.1-0.5-0.3-0.9-0.5-1.3c-0.2-0.4-0.5-0.7-0.8-1c-0.3-0.3-0.8-0.4-1.2-0.4
					c-1.1,0-2,0.6-2.5,1.9c-0.5,1.3-0.8,3.4-0.8,6.3c0,1.4,0,2.7,0.1,3.8c0.1,1.1,0.2,2.1,0.5,2.9c0.2,0.8,0.6,1.4,1,1.8
					s1,0.6,1.7,0.6c0.3,0,0.6-0.1,0.9-0.2c0.3-0.2,0.7-0.4,1-0.7c0.3-0.3,0.5-0.7,0.7-1.2c0.2-0.5,0.3-1,0.3-1.7v-2.4H9.7v-3.5h7.7
					v12.7h-3.5v-2.2h-0.1c-0.6,0.9-1.3,1.6-2.1,2c-0.8,0.4-1.8,0.6-2.9,0.6c-1.5,0-2.6-0.3-3.5-0.8c-0.9-0.5-1.6-1.3-2.1-2.3
					c-0.5-1.1-0.9-2.4-1-3.9c-0.2-1.6-0.3-3.3-0.3-5.4c0-2,0.1-3.7,0.4-5.2s0.7-2.7,1.3-3.7c0.6-1,1.4-1.8,2.4-2.3
					c1-0.5,2.3-0.8,3.8-0.8c2.6,0,4.5,0.6,5.6,1.9c1.1,1.3,1.7,3.1,1.7,5.5h-4.6C12.6,28.4,12.6,28,12.5,27.5z"/>
				<path fill="#FF7419" d="M29.3,21.9c2,0,3.5,0.5,4.6,1.5s1.7,2.5,1.7,4.6c0,1.6-0.3,2.9-1,3.9c-0.6,1-1.6,1.6-3,1.9v0.1
					c1.2,0.2,2.1,0.6,2.6,1.2c0.5,0.6,0.9,1.6,1,2.9c0,0.4,0.1,0.9,0.1,1.4c0,0.5,0,1.1,0.1,1.7c0,1.3,0.1,2.2,0.2,2.9
					c0.1,0.7,0.4,1.1,0.9,1.4v0.2h-5.1c-0.2-0.3-0.4-0.7-0.5-1.1c-0.1-0.4-0.1-0.9-0.1-1.3l-0.1-4.5c0-0.9-0.3-1.7-0.7-2.2
					c-0.4-0.5-1.1-0.8-2.1-0.8h-2.5v10h-4.8V21.9H29.3z M27.2,32.2c1.1,0,2-0.3,2.6-0.8c0.6-0.5,0.9-1.4,0.9-2.7
					c0-2.2-1.1-3.3-3.3-3.3h-2.2v6.8H27.2z"/>
				<path fill="#FF7419" d="M39.1,21.9h4.8v23.6h-4.8V21.9z"/>
				<path fill="#FF7419" d="M47.4,21.9h4.8v19.7h8.4v3.9H47.4V21.9z"/>
				<path fill="#FF7419" d="M62.6,21.9h4.8v19.7h8.4v3.9H62.6V21.9z"/>
				<path fill="#FF7419" d="M91.1,25.8h-8.4v5.5h7.9v3.9h-7.9v6.3h8.7v3.9H77.9V21.9h13.2V25.8z"/>
				<path fill="#FF7419" d="M101.8,21.9c1.6,0,3,0.3,4,0.8c1,0.5,1.8,1.3,2.4,2.3s0.9,2.2,1.1,3.6c0.2,1.4,0.3,3,0.3,4.7
					c0,2.1-0.1,3.9-0.4,5.4c-0.3,1.5-0.7,2.8-1.3,3.8c-0.6,1-1.4,1.7-2.5,2.2c-1,0.5-2.3,0.7-3.9,0.7H94V21.9H101.8z M100.9,41.9
					c0.8,0,1.5-0.1,2-0.4c0.5-0.3,0.9-0.8,1.2-1.4s0.5-1.5,0.6-2.6c0.1-1.1,0.1-2.4,0.1-4c0-1.3,0-2.5-0.1-3.5
					c-0.1-1-0.3-1.9-0.5-2.5c-0.3-0.7-0.7-1.2-1.2-1.5c-0.5-0.3-1.3-0.5-2.2-0.5h-2v16.6H100.9z"/>
				<path fill="#FF7419" d="M130.1,26.1c-0.4-0.8-1.1-1.2-2.2-1.2c-0.6,0-1.1,0.2-1.5,0.5c-0.4,0.3-0.7,0.8-0.9,1.6
					c-0.2,0.7-0.4,1.6-0.5,2.8c-0.1,1.2-0.1,2.6-0.1,4.2c0,1.8,0.1,3.2,0.2,4.3c0.1,1.1,0.3,2,0.6,2.6s0.6,1,1,1.2
					c0.4,0.2,0.8,0.3,1.3,0.3c0.4,0,0.8-0.1,1.2-0.2c0.4-0.1,0.7-0.4,0.9-0.9c0.3-0.4,0.5-1,0.6-1.8c0.2-0.8,0.2-1.8,0.2-3.1h4.8
					c0,1.3-0.1,2.5-0.3,3.6c-0.2,1.1-0.6,2.1-1.1,3c-0.5,0.9-1.3,1.5-2.3,2c-1,0.5-2.2,0.7-3.8,0.7c-1.8,0-3.2-0.3-4.3-0.9
					c-1.1-0.6-1.9-1.4-2.4-2.5s-0.9-2.4-1.1-3.9s-0.2-3.1-0.2-5c0-1.8,0.1-3.4,0.2-4.9c0.2-1.5,0.5-2.8,1.1-3.9s1.4-1.9,2.4-2.5
					s2.5-0.9,4.3-0.9c1.7,0,3,0.3,4,0.8c1,0.6,1.7,1.2,2.2,2.1c0.5,0.8,0.8,1.8,0.9,2.7c0.1,1,0.2,1.9,0.2,2.8h-4.8
					C130.7,28.1,130.5,26.9,130.1,26.1z"/>
				<path fill="#FF7419" d="M143.1,21.9v9h5.5v-9h4.8v23.6h-4.8V35h-5.5v10.5h-4.8V21.9H143.1z"/>
				<path fill="#FF7419" d="M157,21.9h4.8v23.6H157V21.9z"/>
				<path fill="#FF7419" d="M174.7,26.1c-0.4-0.8-1.1-1.2-2.2-1.2c-0.6,0-1.1,0.2-1.5,0.5c-0.4,0.3-0.7,0.8-0.9,1.6
					c-0.2,0.7-0.4,1.6-0.5,2.8c-0.1,1.2-0.1,2.6-0.1,4.2c0,1.8,0.1,3.2,0.2,4.3c0.1,1.1,0.3,2,0.6,2.6s0.6,1,1,1.2
					c0.4,0.2,0.8,0.3,1.3,0.3c0.4,0,0.8-0.1,1.2-0.2c0.4-0.1,0.7-0.4,0.9-0.9c0.3-0.4,0.5-1,0.6-1.8c0.2-0.8,0.2-1.8,0.2-3.1h4.8
					c0,1.3-0.1,2.5-0.3,3.6c-0.2,1.1-0.6,2.1-1.1,3c-0.5,0.9-1.3,1.5-2.3,2c-1,0.5-2.2,0.7-3.8,0.7c-1.8,0-3.2-0.3-4.3-0.9
					c-1.1-0.6-1.9-1.4-2.4-2.5s-0.9-2.4-1.1-3.9s-0.2-3.1-0.2-5c0-1.8,0.1-3.4,0.2-4.9c0.2-1.5,0.5-2.8,1.1-3.9s1.4-1.9,2.4-2.5
					s2.5-0.9,4.3-0.9c1.7,0,3,0.3,4,0.8c1,0.6,1.7,1.2,2.2,2.1c0.5,0.8,0.8,1.8,0.9,2.7c0.1,1,0.2,1.9,0.2,2.8h-4.8
					C175.3,28.1,175.1,26.9,174.7,26.1z"/>
				<path fill="#FF7419" d="M187.7,31.3L187.7,31.3l6.1-9.4h5.1L192.5,32l7.1,13.5h-5.3l-4.9-9.7l-1.7,2.7v7H183V21.9h4.8V31.3z"/>
				<path fill="#FF7419" d="M213.8,25.8h-8.4v5.5h7.9v3.9h-7.9v6.3h8.7v3.9h-13.5V21.9h13.2V25.8z"/>
				<path fill="#FF7419" d="M227.8,38L227.8,38l0.1-16.1h4.4v23.6h-5.4L221,28.9h-0.1v16.5h-4.4V21.9h5.5L227.8,38z"/>
			</g>
		</g>
		<g id="icons">
		</g>
		<g id="body">
		</g>
	</g>
	<g id="Layer_7">
	</g>
</g>
<g id="first_landing">
	<g id="Logo">
	</g>
</g>
<g id="Layer_18">
</g>
<g id="about">
	<g id="Nav">
	</g>
	<g id="Layer_15">
	</g>
	<g id="Layer_16">
	</g>
	<g id="Layer_17">
	</g>
</g>
<g id="Breakfast">
	<g id="Layer_20">
	</g>
	<g id="Layer_21">
	</g>
</g>
<g id="Layer_22">
</g>
<g id="Layer_23">
</g>
<g id="Layer_2" display="none">
</g>
<g id="guides_landing" display="none">
</g>
</svg>
