<?xml version="1.0" encoding="utf-8"?>
<!-- Generator: Adobe Illustrator 18.1.1, SVG Export Plug-In . SVG Version: 6.00 Build 0)  -->
<!DOCTYPE svg PUBLIC "-//W3C//DTD SVG 1.1//EN" "http://www.w3.org/Graphics/SVG/1.1/DTD/svg11.dtd">
<svg version="1.1" xmlns="http://www.w3.org/2000/svg" xmlns:xlink="http://www.w3.org/1999/xlink" x="0px" y="0px" width="304.6px"
	 height="117.3px" viewBox="0 0 304.6 117.3" enable-background="new 0 0 304.6 117.3" xml:space="preserve">
<g id="Landing">
	<g id="Layer_8">
	</g>
	<g id="Main">
		<g id="navigation">
			<g id="logo">
			</g>
		</g>
		<g id="icons">
		</g>
		<g id="body">
		</g>
	</g>
	<g id="Layer_7">
	</g>
</g>
<g id="first_landing">
	<g id="Logo">
	</g>
</g>
<g id="Layer_18">
</g>
<g id="about">
	<g id="Nav">
		<g>
			<path fill="#FFFFFF" d="M77,31.6l7.5,37.3h0.1l7.6-37.3h15.8v52.8h-9.8V42.3h-0.1l-9.4,42.2h-8.3l-9.4-42.2H71v42.2h-9.8V31.6H77
				z"/>
			<path fill="#FFFFFF" d="M145.3,40.4h-18.9v12.4h17.8v8.7h-17.8v14.2H146v8.7h-30.3V31.6h29.5V40.4z"/>
			<path fill="#FFFFFF" d="M174.8,31.6l14,52.8h-11.1l-2.4-11.2h-14.1l-2.4,11.2h-11.1l14-52.8H174.8z M173.4,64.6l-5.1-23.8h-0.1
				L163,64.6H173.4z"/>
			<path fill="#FFFFFF" d="M192.5,31.6h10.7v44.1H222v8.7h-29.5V31.6z"/>
			<path fill="#FFFFFF" d="M235.3,69.5c0,1.2,0.1,2.4,0.3,3.4c0.2,1,0.6,1.9,1.1,2.6c0.5,0.7,1.3,1.2,2.2,1.6
				c0.9,0.4,2.1,0.6,3.4,0.6c1.6,0,3.1-0.5,4.4-1.6c1.3-1.1,2-2.7,2-4.9c0-1.2-0.2-2.2-0.5-3.1c-0.3-0.9-0.9-1.6-1.6-2.3
				c-0.7-0.7-1.7-1.3-2.9-1.9c-1.2-0.6-2.7-1.1-4.5-1.7c-2.4-0.8-4.4-1.7-6.1-2.6c-1.7-0.9-3.2-2-4.3-3.3c-1.2-1.3-2-2.7-2.6-4.4
				c-0.5-1.7-0.8-3.6-0.8-5.7c0-5.2,1.5-9.1,4.4-11.7c2.9-2.6,6.9-3.8,12-3.8c2.4,0,4.6,0.3,6.5,0.8c2,0.5,3.7,1.4,5.2,2.5
				c1.5,1.2,2.6,2.6,3.4,4.4c0.8,1.8,1.2,4,1.2,6.5v1.5h-10.2c0-2.5-0.4-4.5-1.3-5.8c-0.9-1.4-2.4-2-4.4-2c-1.2,0-2.2,0.2-3,0.5
				c-0.8,0.3-1.4,0.8-1.9,1.4c-0.5,0.6-0.8,1.2-1,2c-0.2,0.7-0.3,1.5-0.3,2.3c0,1.6,0.3,3,1,4.1c0.7,1.1,2.2,2.1,4.4,3.1l8.2,3.6
				c2,0.9,3.7,1.8,5,2.8c1.3,1,2.3,2,3.1,3.1c0.8,1.1,1.3,2.3,1.6,3.7s0.4,2.8,0.4,4.4c0,5.6-1.6,9.6-4.8,12.2
				c-3.2,2.5-7.7,3.8-13.5,3.8c-6,0-10.3-1.3-12.9-3.9c-2.6-2.6-3.9-6.4-3.9-11.2V68h10.7V69.5z"/>
		</g>
		<g opacity="0.6">
			<g>
				<g>
					<g>
						<path fill="#FF8636" d="M10.9,102.8c-0.2,0-0.1,0,0.3,0l0.3,0L10.9,102.8z"/>
						<path fill="#FF8636" d="M13.7,102.8c0.5,0,1.1,0,0.7-0.1c-0.5,0-0.5,0-1.1,0.1c-0.4,0-0.7,0-0.7,0c-0.2,0-0.6,0-0.9,0
							C12.4,102.8,13.1,102.8,13.7,102.8C13.9,102.8,13.8,102.8,13.7,102.8z"/>
						<path fill="#FF8636" d="M54.4,103.2l-0.3,0C54.2,103.2,54.3,103.2,54.4,103.2z"/>
						<path fill="#FF8636" d="M79.5,103.5c-0.2,0-0.3,0-0.3,0.1C79.4,103.6,79.6,103.6,79.5,103.5z"/>
						<path fill="#FF8636" d="M83.8,104c-0.1,0-0.2,0-0.3,0C83.7,104,83.8,104,83.8,104z"/>
						<path fill="#FF8636" d="M54.4,103.2l0.7,0.1C55.1,103.2,54.7,103.2,54.4,103.2z"/>
						<path fill="#FF8636" d="M19.3,102.6c-0.1,0-0.3,0-0.4,0L19.3,102.6L19.3,102.6z"/>
						<path fill="#FF8636" d="M43.3,103.3l-0.2,0c-0.1,0-0.1,0.1-0.2,0.1L43.3,103.3z"/>
						<path fill="#FF8636" d="M34.8,103.2c0.2,0,0.3-0.1,0.3-0.2c-0.1,0.1-0.3,0.1-0.4,0.1C34.7,103.1,34.7,103.2,34.8,103.2z"/>
						<path fill="#FF8636" d="M21.2,102.9l-0.2,0C21.1,102.9,21.2,102.9,21.2,102.9z"/>
						<path fill="#FF8636" d="M49.4,103.4C49.4,103.5,49.4,103.5,49.4,103.4C49.4,103.5,49.4,103.4,49.4,103.4z"/>
						<path fill="#FF8636" d="M287.6,102.5C287.6,102.5,287.6,102.5,287.6,102.5C287.6,102.5,287.6,102.5,287.6,102.5z"/>
						<polygon fill="#FF8636" points="297.4,102.8 297.3,102.8 297.3,102.8 						"/>
						<path fill="#FF8636" d="M91.7,104.5C91.7,104.5,91.7,104.5,91.7,104.5C91.5,104.6,91.6,104.6,91.7,104.5z"/>
						<path fill="#FF8636" d="M163.9,104.5c-0.8-0.4,1.3-0.5,0.1-0.9C164.1,103.8,162.9,104.3,163.9,104.5z"/>
						<path fill="#FF8636" d="M19.6,102.6l0.3,0C19.7,102.6,19.6,102.6,19.6,102.6z"/>
						<path fill="#FF8636" d="M164,103.6L164,103.6l-0.1,0C163.9,103.6,164,103.6,164,103.6z"/>
						<path fill="#FF8636" d="M109.8,104.5c0-0.1-0.1-0.1-0.2-0.2C109.6,104.3,109.7,104.4,109.8,104.5z"/>
						<path fill="#FF8636" d="M96.3,103.8l0.3,0.1C96.5,103.9,96.4,103.8,96.3,103.8z"/>
						<path fill="#FF8636" d="M116.8,103.9c0.2,0,0.2,0.1,0.5,0c0,0,0,0-0.1,0C117.2,104,117,104,116.8,103.9z"/>
						<path fill="#FF8636" d="M124.1,104c0,0-0.1-0.1-0.1-0.1c-0.1,0-0.2,0-0.2,0L124.1,104z"/>
						<path fill="#FF8636" d="M265.4,102c0.2,0.1,0.3,0.1,0.3,0.2C265.6,102,266.7,102,265.4,102z"/>
						<path fill="#FF8636" d="M19.3,102.7c0,0,0.1,0,0.2,0C19.5,102.6,19.4,102.6,19.3,102.7C19.3,102.6,19.3,102.7,19.3,102.7z"/>
						<path fill="#FF8636" d="M117.1,100.8l1.2,0.1C118,100.8,117.5,100.8,117.1,100.8z"/>
						<path fill="#FF8636" d="M213,101.3l0.3,0C213.2,101.3,213.1,101.3,213,101.3z"/>
						<path fill="#FF8636" d="M121.7,100.8c0.2,0.1,0.4,0.2,0.7,0.3c0,0,0.1-0.1,0.1-0.1L121.7,100.8z"/>
						<path fill="#FF8636" d="M265.7,102.2L265.7,102.2L265.7,102.2z"/>
						<path fill="#FF8636" d="M273.4,102c-1.1,0-0.5,0.2-0.8,0.3c-1.3,0-0.6-0.2-1.1-0.3c-0.8,0-1.5,0.2-2.1,0.2c0,0-0.2-0.1,0-0.1
							c-0.9,0.2-2.6,0-3.6,0.2c-0.1,0-0.1,0-0.1-0.1c0.2,0.1,0.2,0.3,0.2,0.3c-0.5,0-0.9,0.2-1.1,0c0.3,0,0.3-0.1,0.5-0.1l-0.5,0.1
							c-0.5-0.2,0.7-0.1,0.7-0.2c-1,0.1-2.2,0.3-3,0.2c-0.2-0.2,1.8-0.1,0.8-0.3l1.2,0.1c-0.9-0.4,0.7,0-0.1-0.4
							c-1.6-0.1-1.8,0.1-3.3,0c-0.4,0.1,0.1,0.2-0.2,0.3c-2.2,0.2-1.8-0.7-3.4-0.4c-0.4,0.2-0.6,0.5-1.8,0.3l0.4-0.3
							c-1.5-0.1-0.9,0.4-2.5,0.2c0.3-0.1,1.2-0.1,1-0.1c-1-0.3-0.7,0.2-1.5,0.2l-0.2-0.3c-1.6,0-3.4,0.2-5.2,0.3
							c0.1-0.1,0.4-0.2,0-0.3c-2.3,0.1-4.9-0.1-7-0.3l-0.8,0.3c-0.2,0-0.4-0.1-0.2-0.2c-0.9-0.1,0,0.2-0.5,0.3
							c-0.5,0-0.6-0.2-0.3-0.3c-1.5,0.2-4.3,0.5-5.9,0.2l0.3-0.1c-1.2-0.1-1.4,0.7-2.5,0.3l0.2-0.1c-2.7-0.2-5.7,0.1-7.7-0.4
							c-0.4,0.5-2.7-0.3-2.8,0.5c-1.5-0.4-1.1-0.5-3.3-0.8c-0.6,0-0.9,0.5-1.6,0.5l0-0.4l-1,0.4l-0.5-0.5l-0.7,0.1
							c0.3,0,0.6,0.2,0.5,0.3c-1,0.2-2.5-0.3-2.6-0.5l-2.5,0.3c0.1-0.2,0.5-0.2,0.8-0.3c-1.3,0.4-0.2-0.4-1.4-0.1
							c0.2,0.1-0.1,0.2-0.1,0.3c-0.6-0.3-2-0.3-3-0.2l0.2-0.3c-1.8-0.1-3.9,0.1-5.9,0.1c0.7,0.1,0.6,0.6,0,0.7l-0.2-0.4
							c-0.4,0.3,0.6,0.2-0.2,0.5c-0.8-0.1-0.5-0.5-0.1-0.7l-0.9,0.2c-0.1-0.1,0.2-0.2,0.2-0.4c-0.4,0.3-1.6-0.5-2.2,0l-0.1-0.1
							c-2.1,0-3,0.1-4.7,0.1c0,0.4-0.7,0.3-1.2,0.6c-1.2-0.1-2.6-0.5-4.1-0.4c-1,0.2-0.3,0.3-0.8,0.6c-0.1-0.4-1.6-0.3-0.8-0.6
							c-1.8,0.1-2.3,0.1-4.5,0.4c0.2,0.2,0.5,0.2,0.4,0.3c-0.4,0.1-0.9-0.2-0.9-0.3l0.1,0c-2.5,0.6-5.8-1.1-7.8-0.3l0.1,0l-2.1,0.4
							c-1-0.1,0.6-0.3-0.1-0.5c-2.3,0.6-3.6-0.1-5.4,0.3c-1.4-1.1-5.1,0.1-7-0.6l0.1,0.3c-0.5,0.3-0.6-0.2-1-0.2
							c0.1,0.2,0.5,0.2,0.2,0.4c-4.2,0.3-8.8-0.4-13.1-0.6c-1.6-0.1-0.9,1.4-2.9,0.7l0.6-0.5c-3.2,0.6-6.6,0-9.7,0.5
							c0.2-0.1,0.2-0.3,0.5-0.3c-0.7-0.4-2.5,0-2.5,0.3c-0.5,0-0.1-0.3-0.4-0.4c-0.7-0.2-1.7,0.5-2,0.1c-0.1-0.1,0.2-0.1,0.3-0.1
							c-0.4,0.2-2,0-1.6,0.4c-1.2-0.2-2.3,0.2-3.2,0c-0.6,0.4-2-0.2-2.2,0.4c0.1-0.6-2.1-0.5-2.8-0.2c0.2-0.2-0.6-0.2-0.4-0.5
							c-0.9,0-1.6,0.1-1.5,0.5c-1.6-0.8-3.2,0.6-4-0.3c-2.5,0.4-4.9,0.6-7.1,0.7c0.1-0.6,2.5-0.1,2.4-0.7c-2.2,0.3-3.4,0.8-5.5,0.7
							c-0.6-0.1,0.3-0.3,0.5-0.4c-2.2,0.3-4.2,0-6.1,0.3c0-0.1,0.2-0.1,0.4-0.2c-0.4,0-0.9-0.1-0.8,0.2l0.4-0.1
							c0.6,0.4-1.5,0.8-1.6,1c0.6-0.8-1.9-0.2-0.9-1.1c-0.2,0.1-0.6,0.2-0.5,0.3c-0.4,0-0.5-0.1-0.1-0.3c-1.4,0.2-0.9,0.4-2.1,0.4
							c0-0.1,0.3-0.2,0.4-0.3c-0.6,0.2-1.2,0.5-2.3,0.4c0.1-0.1-0.1-0.2,0.3-0.2c-1.8,0.1-3,0.6-5,0.4c0.6-0.5-0.7-0.2-0.8-0.6
							l-1,0.1l0.4,0.2c-0.9,0-1.7,0.3-2.5,0.2l0.7-0.2l-1.7,0.1l1,0.2c-0.9,0.2,0.1,0.5-1.1,0.4c0.2,0-0.9,0-1.4-0.3l0,0
							c-0.5,0.1-0.9,0.3-1.6,0.2c-0.2-0.1,0.1-0.5,0-0.5c-0.4,0.3-2.2,0.1-2.7,0.5c0.2-0.1,0.2-0.3,0.1-0.3l-0.4,0.3
							c-0.4-0.1-0.5-0.1-0.4-0.3c-1.3,0,0.4,0.5-1.1,0.3c0.1,0,0.1-0.1,0.3-0.1c-1.5-0.1-3,0.2-4.4,0.1c-0.4-0.4,1.2-0.1,0.8-0.4
							c-2,0.1-4.2,0.5-6.1,0.4l0.4,0c-0.3,0.5-1.5-0.2-2.4,0c0.2,0,0.3-0.3,0.3-0.2c-1.3-0.1-2.7,0.1-4.8,0.3l0.3-0.1
							c-0.8-0.1-2.1,0-2.9-0.1c-0.3,0.1-0.7,0.1-0.4,0.3c-2.6-0.6-5,0.3-7.4-0.1c0.3,0,0.7-0.1,0.4-0.1l-2,0.1
							c0.2,0.2,0.3,0.1,0.7,0.2c-0.3,0.1-0.8,0.2-1.3,0.2c0.9-0.1,0-0.3-0.4-0.3c0.1,0-0.1,0.1,0,0.1c-1-0.3-0.2,0.3-1.6,0.1
							l0.1-0.1c-0.5,0-1,0.1-1.6,0.1c-0.2-0.2,0.6-0.1,0.6-0.2c-0.8,0-1.6,0.3-2.3,0.2c0.3,0,0.8,0,1.2-0.1
							c-0.8-0.2-0.9-0.1-1.5-0.2l0.1,0l-1.4-0.1l0.3,0c-1,0.4-2,0.1-3.4,0.3c1.3-0.2,0.2-0.1,0.3-0.3c-0.3,0-0.9-0.1-0.7-0.1
							c-0.6,0.1-1.1-0.1-2,0.1c0,0-0.7,0-0.5-0.1c-0.8,0,0.2,0.1,0.1,0.1c-1.3,0.1-3-0.1-4.9,0.1c-1.6,0.1-1.9,0.2-3.4,0.2
							c-0.5,0,0.4-0.1,0.4-0.1c-0.8,0-1.4,0-2.2,0c0.2,0,0,0-0.2-0.1c-0.6,0-0.4,0.1-1.2,0.1c0.1,0,0.3-0.1,0.6-0.1
							c-0.7,0-1.4,0.1-2.2,0.1c-0.2,0,0.4,0,0.7-0.1c-0.8,0-2.2,0.1-2.4,0.1l0.5,0c-0.3,0-0.2,0,0.1,0c0.7,0,1,0,1.1,0l-0.5,0
							c0.5,0.1,2.1,0,3.2,0l-0.4,0.1l1.1-0.1c0.2,0,0.4,0.1-0.1,0.1c0.8,0.1,0.7,0,1.3,0c0.1,0,0,0,0,0l0.7,0
							c-0.1,0,0.1,0.1-0.3,0.1c1.3,0.1,2.2-0.1,2.7,0l-0.1,0c1.9,0,0.2-0.1,1.6-0.2l0.9,0.3l0.2-0.1c0.2,0,0.6,0,0.5,0.1
							c0.7-0.1-0.1-0.1,0.3-0.1c0.9,0.1,2.5-0.1,2.8,0.2c0.3-0.1-0.9-0.1,0.1-0.2c0.3,0.2,1.1,0,2,0.1c-0.3,0.1-1.1,0.1-0.2,0.2
							c0.5-0.2,1.6,0.1,2.4,0c0-0.2,1.5-0.1,2.7-0.1c-0.1,0.1,2.2,0.1,3.4,0.2l0,0c0.2-0.2,1.4-0.2,2.2-0.2c0,0.1-0.2,0.2-0.6,0.3
							l0.8,0c0.2-0.1,0.4-0.1,0.9-0.1l-0.2,0.2c1,0,2.1-0.2,3.4-0.1c0.1-0.2-1.1-0.5,0.4-0.7c0.1,0.1,0.1,0.3-0.3,0.3
							c0.1,0,0.4-0.1,0.7,0l-0.6,0.2c0.6,0.1,0.3-0.1,0.8-0.1c0,0.2,0.4,0.1,0.3,0.2c-0.1,0-0.4-0.1-0.6,0c0.6,0,1.2,0.1,1.4,0.2
							c0-0.1,0-0.2,0.4-0.2c1,0,0.4,0.2,1,0.3c0.3-0.1,0.9,0,0.9-0.2c0.3,0,0.4,0.1,0.5,0.2c0.5-0.1,2.5,0,1.9-0.3l-0.1,0.1
							c0,0,0.1,0.1,0.1,0.1h0h0c1.8-1,3.7,0,5.4-0.1l0,0c1-0.1,2.3-0.1,3.1-0.3c0.3,0,0.7,0.2,0.6,0.3c0.8-0.1,0.9-0.2,2,0
							c-0.8,0.2,0.3,0.1-0.8,0.1c1,0.1,1.3,0.3,2.4,0c-0.4,0.3,0.8,0.3,1.3,0.3l-0.7-0.2c0.6,0,1,0,1.5,0l-0.3,0.3
							c2.1,0.5,3.8-0.7,5.5,0.1c0.6-0.3-1.2-0.2-0.7-0.5c1,0.1,2,0.6,2.3,0.6c1.3,0.2,1.3-0.5,2.7-0.4c-0.2-0.1-0.3-0.5,0.7-0.6
							c1,0.1,1.2,0.6,0.6,0.7c-0.2,0-0.3,0-0.3-0.1c-0.3,0-0.7,0.1-0.3,0.3l0.1-0.1c0.5,0.1,1.8,0.1,1.5,0.4
							c0.7-0.1,0.3-0.2-0.2-0.3c1.3,0.2,2,0,3.3,0.2c-0.2-0.1-0.4-0.2-0.2-0.2c1.9,0.2,0.8-0.3,2.1-0.3c0.7,0.2-0.3,0.5,1,0.3
							c0.8,0.2,0.2,0.4-0.1,0.5c1.2-0.3,2.2,0.2,2.9,0.3l-0.6,0.1c0.4-0.1,0.7-0.1,1-0.1l-0.4-0.3c0.4,0.1,0.7,0.1,0.7,0.2
							c0.4-0.2-0.3-0.5,0.5-0.8c0.5,0.2,1.5-0.2,1.6,0.2c-1.5-0.1,0.2,0.4-1.1,0.5c0.2,0,0.6,0,0.9,0c0.1,0-0.1,0.1-0.2,0.1
							c1.5,0.4,0.7-0.4,2.2-0.4c-0.2,0.2,0.4,0.4,0.6,0.4c-0.6,0-0.3-0.4,0.3-0.6c1,0.2,1.1-0.1,1.6-0.1l-0.6-0.1
							c0.2-0.2,0.7-0.2,1.4-0.3c0.1,0.2-0.6,0.1-0.4,0.2c0.8-0.4,1.7,0.4,2.7,0.2c0.5,0.2,0,0.4,0.5,0.6c1.2-0.3,1.3,0.3,2.5,0.1
							c-0.4-0.3-0.4-0.2,0.5-0.5l-2,0.2l1.3-0.5c-0.6,0-1.3,0.2-1.7,0.1c0.6-0.3,0.6-0.2,0.3-0.4c0.8,0.5,1.7-0.3,2.6,0.1l0,0.8
							c1.5,0.4,2.6-0.4,4.5-0.2l-0.6-0.1c0.3-0.3,1.2,0,1.8-0.2c-0.1,0.3,0.3,0.4,0.6,0.5c0-0.2,1.4,0,1.6-0.5l0.8,0.4
							c1.5,0.2,1.7-0.8,3.2-0.7c-0.4,0.3,0.2,0.5-0.8,0.7c0.5,0,0.9,0.1,0.9-0.1c0.3,0.2,1.4-0.4,1.8-0.1c0.2-0.1,0.3-0.4,0.8-0.4
							c0.1,0.1,0,0.1,0,0.1c0-0.1,0.9-0.2,0.4-0.5c1.5,0.9,4.2-0.1,5.5,0.7c1.1-0.1,2.4-0.2,3.3-0.2c-0.1,0.1,0,0.1-0.2,0.1
							c1.3,0.3,0.8-0.8,2.4-0.5c0.8,0.5-0.8,0.3-0.3,0.4c0.2,1,1.8-0.1,2.9,0.4l-0.2,0.1c0.8,0.3,1.9-0.4,3.2-0.3c0,0-0.1,0.1,0,0.1
							c0.9-0.5,2.5-0.6,3.8-0.8c-0.4,0.4-0.6,0.2-0.3,0.6c0.6-0.1-0.2-0.6,0.9-0.7c0.4,0.2,1.2,0.4,1.3,0.8l-1,0
							c0.5,0.5,1.3,0,1.9,0.1l-0.1,0.2c1.6-0.1,1.6-0.7,3.3-0.6l-0.2-0.2c0.9-0.6,0.8,0.3,1.7-0.1l0.3,0.6c0.6-0.1,2.2-0.6,3.3-0.7
							c-0.6,0.4-1.9,0.7-2.7,0.9c0.6,0,2.1,0,2.4-0.3c-0.2,0.1-0.6,0.2-0.8,0.1c0.8-0.5,1.7-0.7,3-0.7c-0.2,1.1,3.2,0.3,4.1,1.2
							c2.2-0.4,4.3,0.2,6.8,0.1c-0.9-0.9,0.7,0,0.6-0.9c0.6-0.1,0.8,0,0.9,0l1.8,0.5c0.4,0.3-0.6,0.2-0.5,0.4
							c1.3,0.1,0.5,0.4,1.4,0.6c-0.2-0.3,0.4-0.5,1.2-0.3l-1-0.4c1.8-0.5,1.6,0.8,3.4,0.3l-0.6,0.3c0.9-0.2,3.4,0,4.3-0.7
							c0.2,0.1,0.4,0.3,0,0.4c2.2,0.1,4.9-0.8,6.7-0.3l-0.2,0.2c0.4-0.1,0.7-0.4,1.2-0.2c0,0.1-0.2,0.2,0,0.2
							c0.2-0.1,1.1-0.4,1.6-0.3l-0.5,0.2c2.2,0.3,3.3-0.6,5.1-0.8c0,0.6,1.7,0.8,2.5,0.9l0,0.1c2.5,0.1,4.3-0.5,6.6-0.8
							c1.4,0.7,4.9,0.2,7.2,0.6c-0.4-0.1,0.1-0.5,0.5-0.5c0.5,0.1,1.5-0.4,1.4,0.1l-0.2,0c0.4,0.5,1.5,0.4,2.4,0.4l0.1-0.7
							c2.3,1,6-0.4,7.3,0.5c0.6-0.2,1.2-0.2,1.8-0.3l0,0.4c1.5,0.1,2.3,0.1,4.2,0l-0.4,0.3c1.1,0,1.3-1,2.3-1l0.3,0.5
							c1.9,0,3.8,0.4,5.6-0.1c0,0.1-0.1,0.2-0.4,0.2c0.9,0,3.4,0.3,3.1-0.4c0,0.4,1.9,0,2.9-0.2l-0.2,0.3c0.9-0.4,0.9-0.5,2.1-0.6
							c0.3,0,0.2,0.2-0.1,0.2c0.9,0.1,0.7-0.3,1.9-0.1l-0.4,0.2c1,0,0.9-0.1,1.4-0.3c0.6-0.1,1.8,0.1,2,0.3c0.1-0.2,0.7-0.4,1.2-0.3
							c0.1,0.1-0.1,0.2-0.2,0.2c1.6,0.2,2.4-0.3,3.5-0.1c0,0.1,0.1,0.1,0.2,0.2c-1.3,0-2.3,0-2.2,0c0,0.3,1,0.3,0.2,0.6
							c0.8-0.2,2.3-0.6,3.3-0.5c0,0,0.1,0,0.1,0.1l-0.1,0c0.2,0,0.4,0,0.6,0c0.3,0,0.5,0.1,0.8,0.1c0.1,0.2,1.2,0.1,1.7,0.1
							c0-0.2,0.6-0.2,0-0.4c0.1,0-0.1,0-0.4,0c-0.1,0-0.2,0-0.2,0l0,0c-0.3,0-0.8,0-1.3,0c0.4-0.1,0.8-0.2,1.4-0.1
							c0.3-0.2,0.6-0.3,0.7-0.4c0.7,0.3,2.1,0.5,2.3,0.7c1.6-0.2,3.7-0.2,4.7-0.6c0.4-0.1,0.5,0.1,0.7,0.2c-0.3,0-0.6,0-0.7,0.1
							c0.9-0.1,2.7-0.1,2.9-0.4c1.1,0.1-0.6,0.3,0.9,0.2l-0.2,0.1c3.1,0.3,5-0.7,8.3-0.2c-0.2,0-0.4,0-0.4-0.1
							c3.9,0.1,7.9-0.2,11.8,0c1.1,0,1.2-0.1,1.9-0.1l0.2,0.1l1.1-0.1c1.6-0.1,2.8,0.2,4.8,0l-0.3,0c0.7,0,2.3,0,2.2,0
							c0.1,0,0.2,0,0.5,0l0,0l1.8-0.1c1.4,0-0.2,0.1,1.8,0c0.7,0,1.6,0,1.9-0.1c-0.3,0-0.7,0-0.8,0l0.7,0c0.1,0,0.7,0-1,0l-1.2,0
							l-0.4,0l1,0c-0.6,0-0.9,0-1.3,0c-0.1,0-0.3,0-0.5,0l-1.2,0c-0.1,0,0.5,0-0.3-0.1c-0.5,0,0.5,0.1-0.4,0.1
							c-0.6,0-0.4-0.1-1.1-0.1c-0.1,0,0,0,0.3,0c-0.6,0-1.6,0-1.9,0c-0.6-0.1-2,0-1.9-0.1c-0.2,0-1,0.1-1.6,0.1c1-0.1-2-0.1-1.8-0.2
							c-0.7,0.1-2.6,0-3.9,0.1c0.1,0,0.2,0,0.3,0c-0.7,0-0.9-0.1-1.4-0.1c-0.1,0.2-1.2,0.2-1.8,0.3c-0.9-0.2,0.5-0.2,0.3-0.4
							c0,0.1-1.6,0.1-1.2,0.2c-0.7-0.1-0.6-0.1-0.9-0.2c-0.1,0.2-0.6,0-1.2,0.2c-1-0.1-0.3-0.2-1.3-0.2
							C272.4,102,273.4,102,273.4,102z M247.6,102.1L247.6,102.1c0.2,0,0.4,0,0.5,0C248,102.1,247.8,102.1,247.6,102.1z
							 M245.4,102.1c0.3,0,0.6,0,0.9,0c0.1,0.1,0,0.2-0.2,0.2C246.2,102.2,245.7,102.2,245.4,102.1z M250,103.9
							c-0.3,0-0.5,0-0.5-0.1C249.6,103.8,249.8,103.8,250,103.9c0.1-0.1,0.1-0.1,0.1-0.1C250.1,103.8,250,103.9,250,103.9z"/>
						<path fill="#FF8636" d="M250.6,103.6c0,0,0.1,0,0.1,0C250.7,103.5,250.6,103.5,250.6,103.6c-0.1,0-0.1,0-0.2,0
							C250.5,103.6,250.5,103.6,250.6,103.6z"/>
						<path fill="#FF8636" d="M54.1,103.2L54.1,103.2C54.1,103.2,54,103.1,54.1,103.2C54,103.1,54,103.1,54.1,103.2z"/>
						<polygon fill="#FF8636" points="215.5,101.2 215.5,101.3 215.7,101.2 						"/>
						<path fill="#FF8636" d="M42.1,102.4c0,0-0.1,0-0.2,0C42,102.4,42,102.4,42.1,102.4z"/>
						<path fill="#FF8636" d="M37,102.5l-0.7,0C36.5,102.4,36.8,102.4,37,102.5z"/>
						<path fill="#FF8636" d="M33,102.4C32.9,102.5,32.9,102.5,33,102.4L33,102.4L33,102.4z"/>
						<path fill="#FF8636" d="M96.1,101.4c0.1,0,0.1,0,0.2,0C96.6,101.3,96.3,101.3,96.1,101.4z"/>
						<path fill="#FF8636" d="M77.3,102.3c0.2-0.1,0.4-0.1,0.6-0.2C77.6,102.2,77.3,102.1,77.3,102.3z"/>
						<path fill="#FF8636" d="M117,100.8L117,100.8c0,0,0.1,0,0.1,0L117,100.8z"/>
						<path fill="#FF8636" d="M78.8,102.2c-0.3-0.1-0.6,0-0.9,0C78.2,102.2,78.5,102.2,78.8,102.2z"/>
						<path fill="#FF8636" d="M15.8,102.7l-0.2,0c0,0,0,0,0,0L15.8,102.7z"/>
						<path fill="#FF8636" d="M15.6,102.7l-0.2,0C15.5,102.7,15.5,102.7,15.6,102.7z"/>
						<path fill="#FF8636" d="M14.9,102.7l0.4,0C15.2,102.7,15,102.7,14.9,102.7z"/>
						<path fill="#FF8636" d="M21.1,102.6L21.1,102.6C21.1,102.6,21.1,102.6,21.1,102.6z"/>
						<path fill="#FF8636" d="M22.6,102.6c-0.4,0-1,0-1.5,0l0,0C21.4,102.5,22.3,102.6,22.6,102.6z"/>
						<path fill="#FF8636" d="M29.3,103l-1.3,0c0.2,0,0.5,0.1-0.1,0.1C29.6,103.2,27.6,103,29.3,103z"/>
						<path fill="#FF8636" d="M33.5,103.1c-0.7,0,0,0.1,0,0.1C33.9,103.2,34,103.2,33.5,103.1z"/>
						<path fill="#FF8636" d="M63.4,103.4l-0.1,0.2C63.9,103.6,63.3,103.6,63.4,103.4z"/>
						<polygon fill="#FF8636" points="69.1,102.1 68.6,101.9 68.3,102.2 						"/>
						<polygon fill="#FF8636" points="72.5,104 72.3,104.1 73.2,104 						"/>
						<path fill="#FF8636" d="M122.8,104.3l-0.2-0.5C122.3,103.9,122.2,104.5,122.8,104.3z"/>
						<path fill="#FF8636" d="M144.6,103.9c0.2,0.2,0.8,0.4,1.2,0.2C145.3,104,144.8,103.8,144.6,103.9z"/>
						<polygon fill="#FF8636" points="209.7,104.4 209.3,104.6 210.1,104.5 						"/>
					</g>
				</g>
			</g>
		</g>
	</g>
	<g id="Layer_15">
	</g>
	<g id="Layer_16">
	</g>
	<g id="Layer_17">
	</g>
</g>
<g id="Breakfast">
	<g id="Layer_20">
	</g>
	<g id="Layer_21">
	</g>
</g>
<g id="Layer_24">
</g>
<g id="Layer_22">
</g>
<g id="Layer_23">
</g>
<g id="Layer_2" display="none">
</g>
<g id="guides_landing" display="none">
</g>
</svg>
