<?xml version="1.0" encoding="utf-8"?>
<!-- Generator: Adobe Illustrator 18.1.1, SVG Export Plug-In . SVG Version: 6.00 Build 0)  -->
<!DOCTYPE svg PUBLIC "-//W3C//DTD SVG 1.1//EN" "http://www.w3.org/Graphics/SVG/1.1/DTD/svg11.dtd">
<svg version="1.1" xmlns="http://www.w3.org/2000/svg" xmlns:xlink="http://www.w3.org/1999/xlink" x="0px" y="0px" width="837.7px"
	 height="170px" viewBox="0 0 837.7 170" enable-background="new 0 0 837.7 170" xml:space="preserve">
<g id="Landing">
	<g id="Layer_8">
	</g>
	<g id="Main">
		<g id="navigation">
			<g id="logo">
			</g>
		</g>
		<g id="icons">
		</g>
		<g id="body">
		</g>
	</g>
	<g id="Layer_7">
	</g>
</g>
<g id="first_landing">
	<g id="Logo">
	</g>
</g>
<g id="Layer_18">
</g>
<g id="about">
	<g id="Nav">
		<g>
			<path fill="#FFFFFF" d="M31,11.7c2.7,0,5,0.5,6.8,1.4c1.8,0.9,3.3,2.1,4.5,3.6c1.1,1.5,1.9,3.2,2.4,5.1c0.5,1.9,0.7,3.8,0.7,5.8
				c0,2.7-0.4,5.1-1.2,7.1c-0.8,2-1.9,3.7-3.4,5c-1.5,1.3-3.2,2.2-5.3,2.9c-2.1,0.6-4.4,1-6.9,1H23v21.1H12.4V11.7H31z M27.8,35.6
				c2.1,0,3.8-0.6,5.1-1.9c1.3-1.3,2-3.3,2-6c0-2.7-0.6-4.7-1.7-6.1c-1.1-1.4-3-2.1-5.7-2.1H23v16.1H27.8z"/>
			<path fill="#FFFFFF" d="M70.5,11.7c4.4,0,7.9,1.1,10.4,3.4c2.5,2.2,3.7,5.7,3.7,10.2c0,3.6-0.7,6.5-2.1,8.7
				c-1.4,2.2-3.7,3.7-6.7,4.3v0.1c2.7,0.4,4.6,1.3,5.8,2.6c1.2,1.3,2,3.5,2.3,6.4c0.1,1,0.2,2.1,0.2,3.2c0,1.2,0.1,2.5,0.1,3.9
				c0.1,2.8,0.2,5,0.4,6.4c0.3,1.5,0.9,2.5,1.9,3v0.4H75.1c-0.5-0.7-0.9-1.6-1-2.6c-0.1-1-0.2-2-0.3-3l-0.3-10.1
				c-0.1-2.1-0.6-3.7-1.6-4.9c-0.9-1.2-2.5-1.8-4.7-1.8h-5.7v22.3H50.8V11.7H70.5z M65.9,34.8c2.6,0,4.5-0.6,5.9-1.8
				c1.4-1.2,2.1-3.2,2.1-6.1c0-4.9-2.5-7.3-7.4-7.3h-5v15.2H65.9z"/>
			<path fill="#FFFFFF" d="M91.4,27.1c0.4-3.4,1.2-6.3,2.4-8.7c1.3-2.4,3.1-4.3,5.4-5.7c2.4-1.4,5.5-2,9.5-2s7.2,0.7,9.5,2
				c2.4,1.4,4.2,3.2,5.4,5.7c1.3,2.4,2.1,5.3,2.4,8.7c0.4,3.4,0.6,7.1,0.6,11.1c0,4-0.2,7.7-0.6,11.1c-0.4,3.4-1.2,6.2-2.4,8.7
				c-1.3,2.4-3.1,4.3-5.4,5.5s-5.5,1.9-9.5,1.9s-7.2-0.6-9.5-1.9c-2.4-1.3-4.2-3.1-5.4-5.5c-1.3-2.4-2.1-5.3-2.4-8.7
				c-0.4-3.4-0.6-7.1-0.6-11.1C90.8,34.1,91,30.4,91.4,27.1z M101.7,47.2c0.2,2.5,0.5,4.5,1,6.1s1.3,2.7,2.2,3.4
				c1,0.7,2.2,1.1,3.8,1.1c1.6,0,2.8-0.4,3.8-1.1c1-0.7,1.7-1.9,2.2-3.4c0.5-1.6,0.9-3.6,1-6.1s0.3-5.5,0.3-9.1s-0.1-6.6-0.3-9
				c-0.2-2.5-0.5-4.5-1-6.1c-0.5-1.6-1.3-2.7-2.2-3.4c-1-0.7-2.2-1.1-3.8-1.1c-1.6,0-2.8,0.4-3.8,1.1c-1,0.7-1.7,1.9-2.2,3.4
				c-0.5,1.6-0.9,3.6-1,6.1c-0.2,2.5-0.3,5.5-0.3,9S101.6,44.7,101.7,47.2z"/>
			<path fill="#FFFFFF" d="M164,20.4h-11.5v44.1h-10.7V20.4h-11.5v-8.7H164V20.4z"/>
			<path fill="#FFFFFF" d="M198.1,20.4h-18.9v12.4H197v8.7h-17.8v14.2h19.6v8.7h-30.3V11.7h29.5V20.4z"/>
			<path fill="#FFFFFF" d="M204.7,11.7h10.7v52.8h-10.7V11.7z"/>
			<path fill="#FFFFFF" d="M248.4,47.9h0.1V11.7h9.8v52.8h-12.1l-13-37H233v37h-9.8V11.7h12.3L248.4,47.9z"/>
			<path fill="#FFFFFF" d="M275.8,62.6c0,1.8-0.1,3.6-0.4,5.2c-0.3,1.7-0.8,3.1-1.5,4.3c-0.7,1.2-1.7,2.2-3,3
				c-1.3,0.8-2.9,1.2-4.8,1.4v-5.2c1.3-0.2,2.2-0.9,2.9-2.1c0.6-1.1,1-2.4,1-3.8v-1H266V53h9.8V62.6z"/>
			<path fill="#FFFFFF" d="M319.7,21.1c-0.9-1.8-2.6-2.6-5-2.6c-1.3,0-2.4,0.4-3.3,1.1c-0.9,0.7-1.5,1.9-2,3.5
				c-0.5,1.6-0.8,3.7-1,6.3c-0.2,2.6-0.3,5.8-0.3,9.5c0,4,0.1,7.2,0.4,9.7c0.3,2.5,0.7,4.4,1.3,5.7c0.6,1.4,1.3,2.3,2.1,2.7
				s1.9,0.7,3,0.7c0.9,0,1.8-0.2,2.6-0.5c0.8-0.3,1.5-1,2.1-1.9s1.1-2.3,1.4-4.1c0.3-1.8,0.5-4.1,0.5-6.9h10.7
				c0,2.9-0.2,5.6-0.7,8.1s-1.3,4.8-2.5,6.7s-2.9,3.4-5.1,4.5c-2.2,1.1-5,1.6-8.5,1.6c-4,0-7.2-0.6-9.5-1.9
				c-2.4-1.3-4.2-3.1-5.4-5.5c-1.3-2.4-2.1-5.3-2.4-8.7c-0.4-3.4-0.6-7.1-0.6-11.1c0-4,0.2-7.7,0.6-11.1c0.4-3.4,1.2-6.3,2.4-8.7
				c1.3-2.4,3.1-4.3,5.4-5.7c2.4-1.4,5.5-2,9.5-2c3.8,0,6.8,0.6,9,1.8c2.2,1.2,3.8,2.8,4.9,4.7c1.1,1.9,1.8,3.9,2,6.1
				s0.4,4.3,0.4,6.2h-10.7C321.1,25.7,320.6,22.9,319.7,21.1z"/>
			<path fill="#FFFFFF" d="M361.7,11.7l14,52.8h-11.1l-2.4-11.2h-14.1l-2.4,11.2h-11.1l14-52.8H361.7z M360.3,44.6l-5.1-23.8h-0.1
				L350,44.6H360.3z"/>
			<path fill="#FFFFFF" d="M399.1,11.7c4.4,0,7.9,1.1,10.4,3.4c2.5,2.2,3.7,5.7,3.7,10.2c0,3.6-0.7,6.5-2.1,8.7
				c-1.4,2.2-3.7,3.7-6.7,4.3v0.1c2.7,0.4,4.6,1.3,5.8,2.6c1.2,1.3,2,3.5,2.3,6.4c0.1,1,0.2,2.1,0.2,3.2c0,1.2,0.1,2.5,0.1,3.9
				c0.1,2.8,0.2,5,0.4,6.4c0.3,1.5,0.9,2.5,1.9,3v0.4h-11.5c-0.5-0.7-0.9-1.6-1-2.6c-0.1-1-0.2-2-0.3-3l-0.3-10.1
				c-0.1-2.1-0.6-3.7-1.6-4.9c-0.9-1.2-2.5-1.8-4.7-1.8h-5.7v22.3h-10.7V11.7H399.1z M394.5,34.8c2.6,0,4.5-0.6,5.9-1.8
				c1.4-1.2,2.1-3.2,2.1-6.1c0-4.9-2.5-7.3-7.4-7.3h-5v15.2H394.5z"/>
			<path fill="#FFFFFF" d="M438.4,11.7c2.2,0,4.2,0.2,6,0.7c1.8,0.4,3.4,1.2,4.8,2.2s2.4,2.4,3.1,4.1c0.7,1.7,1.1,3.8,1.1,6.4
				c0,2.9-0.7,5.3-2,7.4c-1.3,2-3.3,3.4-6,4.2v0.1c3,0.4,5.3,1.7,7,3.8c1.7,2.1,2.6,5,2.6,8.5c0,2.1-0.3,4-0.8,5.9
				c-0.5,1.9-1.5,3.5-2.8,4.9c-1.3,1.4-3,2.5-5.1,3.4c-2.1,0.8-4.7,1.3-7.8,1.3h-18V11.7H438.4z M434.2,33.4c3,0,5.1-0.5,6.5-1.6
				c1.4-1.1,2-2.8,2-5.4c0-2.5-0.6-4.3-1.9-5.3c-1.2-1-3.2-1.6-5.8-1.6h-3.8v13.8H434.2z M435.4,56.7c2.6,0,4.6-0.6,6.2-1.7
				c1.6-1.1,2.4-3.2,2.4-6.3c0-1.5-0.2-2.8-0.6-3.8c-0.4-1-1-1.8-1.7-2.4c-0.7-0.6-1.6-1-2.6-1.3c-1-0.2-2.1-0.4-3.3-0.4h-4.6v15.9
				H435.4z"/>
			<path fill="#FFFFFF" d="M461.1,27.1c0.4-3.4,1.2-6.3,2.4-8.7c1.3-2.4,3.1-4.3,5.4-5.7c2.4-1.4,5.5-2,9.5-2s7.2,0.7,9.5,2
				c2.4,1.4,4.2,3.2,5.4,5.7c1.3,2.4,2.1,5.3,2.4,8.7c0.4,3.4,0.6,7.1,0.6,11.1c0,4-0.2,7.7-0.6,11.1c-0.4,3.4-1.2,6.2-2.4,8.7
				c-1.3,2.4-3.1,4.3-5.4,5.5s-5.5,1.9-9.5,1.9s-7.2-0.6-9.5-1.9c-2.4-1.3-4.2-3.1-5.4-5.5c-1.3-2.4-2.1-5.3-2.4-8.7
				c-0.4-3.4-0.6-7.1-0.6-11.1C460.6,34.1,460.8,30.4,461.1,27.1z M471.5,47.2c0.2,2.5,0.5,4.5,1,6.1s1.3,2.7,2.2,3.4
				c1,0.7,2.2,1.1,3.8,1.1c1.6,0,2.8-0.4,3.8-1.1c1-0.7,1.7-1.9,2.2-3.4c0.5-1.6,0.9-3.6,1-6.1s0.3-5.5,0.3-9.1s-0.1-6.6-0.3-9
				c-0.2-2.5-0.5-4.5-1-6.1c-0.5-1.6-1.3-2.7-2.2-3.4c-1-0.7-2.2-1.1-3.8-1.1c-1.6,0-2.8,0.4-3.8,1.1c-1,0.7-1.7,1.9-2.2,3.4
				c-0.5,1.6-0.9,3.6-1,6.1c-0.2,2.5-0.3,5.5-0.3,9S471.3,44.7,471.5,47.2z"/>
			<path fill="#FFFFFF" d="M513.5,11.7v20.2h12.4V11.7h10.7v52.8h-10.7V41.1h-12.4v23.5h-10.7V11.7H513.5z"/>
			<path fill="#FFFFFF" d="M559.5,32.1h0.1l7.4-20.4h11.5l-13.7,32v20.8h-10.7V43.7l-13.7-32h12L559.5,32.1z"/>
			<path fill="#FFFFFF" d="M600.4,11.7c3.7,0,6.7,0.6,9,1.8c2.3,1.2,4,2.9,5.3,5.2c1.3,2.2,2.1,4.9,2.6,8.1
				c0.4,3.2,0.7,6.7,0.7,10.6c0,4.6-0.3,8.7-0.9,12.1c-0.6,3.4-1.5,6.3-2.9,8.5c-1.4,2.2-3.2,3.9-5.5,5c-2.3,1.1-5.3,1.6-8.8,1.6
				H583V11.7H600.4z M598.4,56.7c1.9,0,3.4-0.3,4.5-1c1.1-0.6,2-1.7,2.7-3.2c0.7-1.5,1.1-3.4,1.3-5.8c0.2-2.4,0.3-5.4,0.3-9
				c0-3-0.1-5.6-0.3-7.9c-0.2-2.3-0.6-4.2-1.2-5.7c-0.6-1.5-1.5-2.6-2.7-3.4c-1.2-0.8-2.8-1.1-4.8-1.1h-4.5v37.1H598.4z"/>
			<path fill="#FFFFFF" d="M644.6,11.7c4.4,0,7.9,1.1,10.4,3.4c2.5,2.2,3.7,5.7,3.7,10.2c0,3.6-0.7,6.5-2.1,8.7
				c-1.4,2.2-3.7,3.7-6.7,4.3v0.1c2.7,0.4,4.6,1.3,5.8,2.6c1.2,1.3,2,3.5,2.3,6.4c0.1,1,0.2,2.1,0.2,3.2c0,1.2,0.1,2.5,0.1,3.9
				c0.1,2.8,0.2,5,0.4,6.4c0.3,1.5,0.9,2.5,1.9,3v0.4h-11.5c-0.5-0.7-0.9-1.6-1-2.6c-0.1-1-0.2-2-0.3-3l-0.3-10.1
				c-0.1-2.1-0.6-3.7-1.6-4.9c-0.9-1.2-2.5-1.8-4.7-1.8h-5.7v22.3h-10.7V11.7H644.6z M640,34.8c2.6,0,4.5-0.6,5.9-1.8
				c1.4-1.2,2.1-3.2,2.1-6.1c0-4.9-2.5-7.3-7.4-7.3h-5v15.2H640z"/>
			<path fill="#FFFFFF" d="M689.5,11.7l14,52.8h-11.1L690,53.4h-14.1l-2.4,11.2h-11.1l14-52.8H689.5z M688.1,44.6L683,20.9h-0.1
				l-5.1,23.8H688.1z"/>
			<path fill="#FFFFFF" d="M734.1,20.4h-11.5v44.1h-10.7V20.4h-11.5v-8.7h33.7V20.4z"/>
			<path fill="#FFFFFF" d="M768.2,20.4h-18.9v12.4h17.8v8.7h-17.8v14.2h19.6v8.7h-30.3V11.7h29.5V20.4z"/>
			<path fill="#FFFFFF" d="M782.9,49.6c0,1.2,0.1,2.4,0.3,3.4c0.2,1,0.6,1.9,1.1,2.6c0.5,0.7,1.3,1.2,2.2,1.6
				c0.9,0.4,2.1,0.6,3.4,0.6c1.6,0,3.1-0.5,4.4-1.6c1.3-1.1,2-2.7,2-4.9c0-1.2-0.2-2.2-0.5-3.1c-0.3-0.9-0.9-1.6-1.6-2.3
				c-0.7-0.7-1.7-1.3-2.9-1.9c-1.2-0.6-2.7-1.1-4.5-1.7c-2.4-0.8-4.4-1.7-6.1-2.6c-1.7-0.9-3.2-2-4.3-3.3c-1.2-1.3-2-2.7-2.6-4.4
				c-0.5-1.7-0.8-3.6-0.8-5.7c0-5.2,1.5-9.1,4.4-11.7c2.9-2.6,6.9-3.8,12-3.8c2.4,0,4.6,0.3,6.5,0.8c2,0.5,3.7,1.4,5.2,2.5
				c1.5,1.2,2.6,2.6,3.4,4.4c0.8,1.8,1.2,4,1.2,6.5v1.5h-10.2c0-2.5-0.4-4.5-1.3-5.8c-0.9-1.4-2.4-2-4.4-2c-1.2,0-2.2,0.2-3,0.5
				c-0.8,0.3-1.4,0.8-1.9,1.4c-0.5,0.6-0.8,1.2-1,2c-0.2,0.7-0.3,1.5-0.3,2.3c0,1.6,0.3,3,1,4.1c0.7,1.1,2.2,2.1,4.4,3.1l8.2,3.6
				c2,0.9,3.7,1.8,5,2.8c1.3,1,2.3,2,3.1,3.1c0.8,1.1,1.3,2.3,1.6,3.7s0.4,2.8,0.4,4.4c0,5.6-1.6,9.6-4.8,12.2
				c-3.2,2.5-7.7,3.8-13.5,3.8c-6,0-10.3-1.3-12.9-3.9c-2.6-2.6-3.9-6.4-3.9-11.2V48h10.7V49.6z"/>
			<path fill="#FFFFFF" d="M822.7,62.6c0,1.8-0.1,3.6-0.4,5.2c-0.3,1.7-0.8,3.1-1.5,4.3c-0.7,1.2-1.7,2.2-3,3
				c-1.3,0.8-2.9,1.2-4.8,1.4v-5.2c1.3-0.2,2.2-0.9,2.9-2.1c0.6-1.1,1-2.4,1-3.8v-1H813V53h9.8V62.6z"/>
			<path fill="#FFFFFF" d="M334.9,113.2c-0.2-1-0.6-2-1.1-2.8c-0.5-0.9-1.1-1.6-1.9-2.1c-0.8-0.6-1.7-0.9-2.8-0.9
				c-2.6,0-4.4,1.4-5.5,4.3c-1.1,2.9-1.7,7.6-1.7,14.2c0,3.2,0.1,6,0.3,8.6c0.2,2.6,0.6,4.7,1.1,6.5s1.3,3.2,2.2,4.1
				s2.2,1.4,3.7,1.4c0.6,0,1.3-0.2,2.1-0.5c0.8-0.3,1.5-0.9,2.1-1.6c0.7-0.7,1.2-1.6,1.7-2.6c0.4-1.1,0.7-2.3,0.7-3.7v-5.4h-7v-7.8
				H346v28.5h-7.8v-4.9H338c-1.3,2.1-2.8,3.5-4.6,4.4c-1.8,0.9-4,1.3-6.5,1.3c-3.3,0-5.9-0.6-8-1.7c-2-1.1-3.7-2.9-4.8-5.3
				c-1.2-2.4-1.9-5.3-2.3-8.8c-0.4-3.5-0.6-7.5-0.6-12.1c0-4.4,0.3-8.3,0.9-11.7c0.6-3.4,1.5-6.2,2.9-8.4c1.4-2.2,3.2-3.9,5.5-5.1
				c2.3-1.1,5.1-1.7,8.5-1.7c5.8,0,10,1.4,12.6,4.3c2.6,2.9,3.8,7,3.8,12.4h-10.2C335.2,115.2,335.1,114.2,334.9,113.2z"/>
			<path fill="#FFFFFF" d="M372.6,100.5c4.4,0,7.9,1.1,10.4,3.4c2.5,2.2,3.7,5.7,3.7,10.2c0,3.6-0.7,6.5-2.1,8.7
				c-1.4,2.2-3.7,3.7-6.7,4.3v0.1c2.7,0.4,4.6,1.3,5.8,2.6c1.2,1.3,2,3.5,2.3,6.4c0.1,1,0.2,2.1,0.2,3.2c0,1.2,0.1,2.5,0.1,3.9
				c0.1,2.8,0.2,5,0.4,6.4c0.3,1.5,0.9,2.5,1.9,3v0.4h-11.5c-0.5-0.7-0.9-1.6-1-2.6c-0.1-1-0.2-2-0.3-3l-0.3-10.1
				c-0.1-2.1-0.6-3.7-1.6-4.9c-0.9-1.2-2.5-1.8-4.7-1.8h-5.7v22.3h-10.7v-52.8H372.6z M368,123.6c2.6,0,4.5-0.6,5.9-1.8
				c1.4-1.2,2.1-3.2,2.1-6.1c0-4.9-2.5-7.3-7.4-7.3h-5v15.2H368z"/>
			<path fill="#FFFFFF" d="M423.6,109.2h-18.9v12.4h17.8v8.7h-17.8v14.2h19.6v8.7H394v-52.8h29.5V109.2z"/>
			<path fill="#FFFFFF" d="M459.1,109.2h-18.9v12.4H458v8.7h-17.8v14.2h19.6v8.7h-30.3v-52.8h29.5V109.2z"/>
			<path fill="#FFFFFF" d="M490.4,136.7h0.1v-36.2h9.8v52.8h-12.1l-13-37H475v37h-9.8v-52.8h12.3L490.4,136.7z"/>
			<path fill="#FFFFFF" d="M516.3,138.4c0,1.2,0.1,2.4,0.3,3.4c0.2,1,0.6,1.9,1.1,2.6c0.5,0.7,1.3,1.2,2.2,1.6
				c0.9,0.4,2.1,0.6,3.4,0.6c1.6,0,3.1-0.5,4.4-1.6c1.3-1.1,2-2.7,2-4.9c0-1.2-0.2-2.2-0.5-3.1c-0.3-0.9-0.9-1.6-1.6-2.3
				c-0.7-0.7-1.7-1.3-2.9-1.9c-1.2-0.6-2.7-1.1-4.5-1.7c-2.4-0.8-4.4-1.7-6.1-2.6c-1.7-0.9-3.2-2-4.3-3.3c-1.2-1.3-2-2.7-2.6-4.4
				c-0.5-1.7-0.8-3.6-0.8-5.7c0-5.2,1.5-9.1,4.4-11.7c2.9-2.6,6.9-3.8,12-3.8c2.4,0,4.6,0.3,6.5,0.8c2,0.5,3.7,1.4,5.2,2.5
				c1.5,1.2,2.6,2.6,3.4,4.4c0.8,1.8,1.2,4,1.2,6.5v1.5h-10.2c0-2.5-0.4-4.5-1.3-5.8c-0.9-1.4-2.4-2-4.4-2c-1.2,0-2.2,0.2-3,0.5
				c-0.8,0.3-1.4,0.8-1.9,1.4c-0.5,0.6-0.8,1.2-1,2c-0.2,0.7-0.3,1.5-0.3,2.3c0,1.6,0.3,3,1,4.1c0.7,1.1,2.2,2.1,4.4,3.1l8.2,3.6
				c2,0.9,3.7,1.8,5,2.8c1.3,1,2.3,2,3.1,3.1c0.8,1.1,1.3,2.3,1.6,3.7s0.4,2.8,0.4,4.4c0,5.6-1.6,9.6-4.8,12.2
				c-3.2,2.5-7.7,3.8-13.5,3.8c-6,0-10.3-1.3-12.9-3.9c-2.6-2.6-3.9-6.4-3.9-11.2v-2.1h10.7V138.4z"/>
		</g>
		<g opacity="0.6">
			<g>
				<g>
					<g>
						<path fill="#FF8636" d="M164.9,165.4c-0.3,0-0.1,0,0.6,0l0.5,0L164.9,165.4z"/>
						<path fill="#FF8636" d="M169.5,165.4c0.8,0,1.8,0,1.2-0.1c-0.8,0-1,0-1.9,0.1c-0.7,0-1.2,0-1.1,0c-0.3,0-1,0-1.5,0
							C167.3,165.4,168.4,165.4,169.5,165.4C169.8,165.4,169.6,165.4,169.5,165.4z"/>
						<path fill="#FF8636" d="M237.4,165.8l-0.4,0C237.1,165.7,237.2,165.8,237.4,165.8z"/>
						<path fill="#FF8636" d="M279.4,166.1c-0.3,0-0.5,0-0.5,0.1C279.3,166.2,279.5,166.1,279.4,166.1z"/>
						<path fill="#FF8636" d="M286.6,166.6c-0.2,0-0.3,0-0.4,0C286.4,166.6,286.5,166.6,286.6,166.6z"/>
						<path fill="#FF8636" d="M237.4,165.8l1.1,0.1C238.6,165.8,237.9,165.8,237.4,165.8z"/>
						<path fill="#FF8636" d="M178.9,165.2c-0.2,0-0.4,0-0.6,0C178.5,165.2,178.7,165.2,178.9,165.2
							C178.9,165.2,178.9,165.2,178.9,165.2z"/>
						<path fill="#FF8636" d="M218.9,165.9l-0.3,0c-0.1,0-0.2,0.1-0.3,0.1L218.9,165.9z"/>
						<path fill="#FF8636" d="M204.6,165.8c0.3,0,0.4-0.1,0.6-0.2c-0.2,0.1-0.4,0.1-0.7,0.1C204.5,165.7,204.5,165.7,204.6,165.8z"
							/>
						<path fill="#FF8636" d="M182.1,165.4l-0.4,0C181.8,165.4,182,165.4,182.1,165.4z"/>
						<path fill="#FF8636" d="M229,166c0,0,0.1,0.1,0.1,0.1C229.2,166,229.1,166,229,166z"/>
						<path fill="#FF8636" d="M626.9,165C626.8,165,626.9,165.1,626.9,165C626.9,165,627,165,626.9,165z"/>
						<polygon fill="#FF8636" points="643.3,165.4 643.1,165.4 643.1,165.4 						"/>
						<path fill="#FF8636" d="M299.8,167.1C299.7,167.1,299.7,167.1,299.8,167.1C299.3,167.1,299.5,167.1,299.8,167.1z"/>
						<path fill="#FF8636" d="M420.3,167.1c-1.4-0.4,2.2-0.5,0.2-0.9C420.7,166.4,418.6,166.9,420.3,167.1z"/>
						<path fill="#FF8636" d="M179.3,165.2c0.2,0,0.4,0,0.6,0C179.6,165.2,179.4,165.2,179.3,165.2z"/>
						<path fill="#FF8636" d="M420.5,166.2L420.5,166.2l-0.2,0C420.4,166.2,420.4,166.2,420.5,166.2z"/>
						<path fill="#FF8636" d="M330,167c-0.1-0.1-0.2-0.1-0.3-0.2C329.7,166.9,329.8,166.9,330,167z"/>
						<path fill="#FF8636" d="M307.5,166.4l0.6,0.1C307.8,166.4,307.6,166.4,307.5,166.4z"/>
						<path fill="#FF8636" d="M341.7,166.5c0.3,0,0.4,0.1,0.8,0c0,0-0.1,0-0.1,0C342.3,166.5,342.1,166.6,341.7,166.5z"/>
						<path fill="#FF8636" d="M353.9,166.5c-0.1,0-0.1-0.1-0.2-0.1c-0.1,0-0.3,0-0.4,0L353.9,166.5z"/>
						<path fill="#FF8636" d="M589.8,164.6c0.3,0.1,0.4,0.1,0.6,0.2C590.2,164.6,592,164.6,589.8,164.6z"/>
						<path fill="#FF8636" d="M178.9,165.2c0.1,0,0.2,0,0.4,0C179.1,165.2,179,165.2,178.9,165.2
							C178.8,165.2,178.8,165.2,178.9,165.2z"/>
						<path fill="#FF8636" d="M342.2,163.4l1.9,0.1C343.6,163.4,342.9,163.4,342.2,163.4z"/>
						<path fill="#FF8636" d="M502.4,163.9l0.4,0C502.7,163.8,502.5,163.9,502.4,163.9z"/>
						<path fill="#FF8636" d="M349.9,163.3c0.3,0.1,0.7,0.2,1.1,0.3c0.1,0,0.2-0.1,0.2-0.1L349.9,163.3z"/>
						<path fill="#FF8636" d="M590.4,164.7L590.4,164.7L590.4,164.7z"/>
						<path fill="#FF8636" d="M603.1,164.5c-1.8,0-0.9,0.2-1.3,0.3c-2.2,0-1-0.2-1.8-0.3c-1.4,0-2.4,0.2-3.5,0.2
							c-0.1,0-0.3-0.1,0-0.1c-1.5,0.2-4.3,0-6,0.2c-0.1,0-0.2,0-0.2-0.1c0.3,0.1,0.3,0.3,0.3,0.3c-0.8,0-1.5,0.2-1.8,0
							c0.5,0,0.5-0.1,0.8-0.1l-0.9,0.1c-0.8-0.2,1.2-0.1,1.2-0.2c-1.7,0.1-3.7,0.3-5,0.2c-0.3-0.2,3-0.1,1.3-0.3l2,0.1
							c-1.5-0.4,1.2,0-0.2-0.4c-2.6-0.1-2.9,0.1-5.6,0c-0.6,0.1,0.2,0.2-0.4,0.3c-3.7,0.2-2.9-0.7-5.7-0.4c-0.7,0.2-1,0.5-2.9,0.3
							l0.7-0.3c-2.6-0.1-1.5,0.4-4.1,0.2c0.5-0.1,2-0.1,1.6-0.1c-1.7-0.3-1.2,0.2-2.6,0.2l-0.3-0.3c-2.7,0-5.7,0.2-8.7,0.3
							c0.2-0.1,0.7-0.2,0-0.3c-3.8,0.1-8.1-0.1-11.8-0.3l-1.4,0.3c-0.3,0-0.6-0.1-0.3-0.2c-1.4-0.1-0.1,0.2-0.8,0.3
							c-0.8,0-1.1-0.2-0.6-0.3c-2.5,0.2-7.2,0.5-9.8,0.2l0.5-0.1c-2.1-0.1-2.3,0.7-4.2,0.3l0.4-0.1c-4.5-0.2-9.4,0.1-12.9-0.4
							c-0.7,0.5-4.4-0.3-4.7,0.5c-2.6-0.4-1.8-0.5-5.4-0.8c-1,0-1.4,0.5-2.6,0.5l0-0.4l-1.6,0.4l-0.9-0.5l-1.1,0.1
							c0.4,0,0.9,0.2,0.9,0.3c-1.7,0.2-4.3-0.3-4.3-0.5l-4.1,0.3c0.1-0.2,0.8-0.2,1.3-0.3c-2.2,0.4-0.4-0.4-2.4-0.1
							c0.3,0.1-0.1,0.2-0.2,0.3c-1-0.3-3.3-0.3-5-0.2l0.3-0.3c-3.1-0.1-6.5,0.1-9.9,0.1c1.2,0.1,0.9,0.6-0.1,0.7l-0.4-0.4
							c-0.7,0.3,1.1,0.2-0.3,0.5c-1.3-0.1-0.9-0.5-0.1-0.7l-1.6,0.2c-0.1-0.1,0.3-0.2,0.4-0.4c-0.6,0.3-2.7-0.5-3.6,0l-0.1-0.1
							c-3.4,0-5,0.1-7.8,0.1c-0.1,0.4-1.1,0.3-2,0.6c-2.1-0.1-4.3-0.5-6.8-0.4c-1.7,0.2-0.5,0.3-1.3,0.6c-0.1-0.4-2.6-0.3-1.3-0.6
							c-3,0.1-3.8,0.1-7.6,0.4c0.4,0.2,0.9,0.2,0.6,0.3c-0.7,0.1-1.6-0.2-1.5-0.3l0.2,0c-4.2,0.6-9.7-1.1-13.1-0.3l0.2,0l-3.5,0.4
							c-1.6-0.1,1-0.3-0.2-0.5c-3.8,0.6-5.9-0.1-9,0.3c-2.4-1.1-8.5,0.1-11.7-0.6l0.2,0.3c-0.8,0.3-1-0.2-1.6-0.2
							c0.1,0.2,0.9,0.2,0.4,0.4c-7.1,0.3-14.6-0.4-21.9-0.6c-2.7-0.1-1.5,1.4-4.9,0.7l1-0.5c-5.4,0.6-11,0-16.2,0.5
							c0.3-0.1,0.3-0.3,0.8-0.3c-1.1-0.4-4.1,0-4.1,0.3c-0.8,0-0.2-0.3-0.7-0.4c-1.1-0.2-2.8,0.5-3.4,0.1c-0.1-0.1,0.3-0.1,0.5-0.1
							c-0.7,0.2-3.4,0-2.7,0.4c-2-0.2-3.8,0.2-5.3,0c-1,0.4-3.4-0.2-3.7,0.4c0.1-0.6-3.5-0.5-4.7-0.2c0.4-0.2-1.1-0.2-0.6-0.5
							c-1.4,0-2.7,0.1-2.5,0.5c-2.6-0.8-5.3,0.6-6.7-0.3c-4.2,0.4-8.1,0.6-11.9,0.7c0.1-0.6,4.2-0.1,4-0.7c-3.6,0.3-5.7,0.8-9.3,0.7
							c-0.9-0.1,0.5-0.3,0.8-0.4c-3.6,0.3-7,0-10.2,0.3c0-0.1,0.4-0.1,0.7-0.2c-0.6,0-1.5-0.1-1.4,0.2l0.6-0.1c1,0.4-2.5,0.8-2.6,1
							c1.1-0.8-3.2-0.2-1.5-1.1c-0.4,0.1-0.9,0.2-0.8,0.4c-0.6,0-0.8-0.1-0.2-0.3c-2.3,0.2-1.5,0.4-3.5,0.4c0-0.1,0.4-0.2,0.6-0.3
							c-1,0.2-2.1,0.5-3.8,0.4c0.1-0.1-0.1-0.2,0.4-0.2c-3,0.1-5.1,0.6-8.3,0.4c1-0.5-1.1-0.2-1.3-0.6l-1.8,0.1l0.7,0.2
							c-1.5,0-2.9,0.3-4.2,0.2l1.1-0.2l-2.9,0.1l1.6,0.2c-1.6,0.2,0.2,0.5-1.9,0.4c0.4,0-1.5,0-2.3-0.3l0,0
							c-0.8,0.1-1.5,0.3-2.7,0.2c-0.3-0.1,0.2-0.5,0-0.5c-0.7,0.3-3.6,0.1-4.5,0.5c0.3-0.1,0.3-0.3,0.2-0.3l-0.6,0.3
							c-0.7-0.1-0.8-0.1-0.7-0.3c-2.1,0,0.7,0.5-1.9,0.3c0.2,0,0.1-0.1,0.5-0.1c-2.6-0.1-4.9,0.2-7.3,0.1c-0.7-0.4,2-0.1,1.3-0.4
							c-3.4,0.1-7,0.5-10.3,0.4l0.6,0c-0.5,0.5-2.4-0.2-4.1,0c0.4,0,0.5-0.3,0.4-0.2c-2.2-0.1-4.6,0.1-8,0.3l0.4-0.1
							c-1.3-0.1-3.5,0-4.9-0.1c-0.4,0.1-1.2,0.1-0.7,0.3c-4.4-0.6-8.4,0.3-12.3-0.1c0.5,0,1.1-0.1,0.7-0.1l-3.3,0.1
							c0.3,0.2,0.4,0.1,1.1,0.2c-0.4,0.1-1.4,0.2-2.2,0.2c1.5-0.1,0-0.3-0.7-0.3c0.1,0-0.1,0.1-0.1,0.1c-1.7-0.3-0.3,0.3-2.7,0.1
							l0.1-0.1c-0.9,0-1.7,0.1-2.7,0.1c-0.4-0.2,0.9-0.1,1-0.2c-1.3,0-2.7,0.3-3.9,0.2c0.6,0,1.4-0.1,2-0.1
							c-1.3-0.2-1.5-0.1-2.5-0.2l0.1,0l-2.3-0.1l0.6,0c-1.7,0.4-3.4,0.1-5.7,0.3c2.2-0.2,0.4-0.1,0.5-0.3c-0.6,0-1.5-0.1-1.2-0.1
							c-1.1,0.1-1.8-0.1-3.3,0.1c-0.1,0-1.1,0-0.9-0.1c-1.4,0,0.3,0.1,0.2,0.1c-2.1,0.1-5-0.1-8.1,0.1c-2.7,0.1-3.2,0.2-5.6,0.2
							c-0.8,0,0.7-0.1,0.7-0.1c-1.3,0-2.4,0-3.6,0c0.3,0,0,0-0.4-0.1c-1,0-0.7,0.1-2,0.1c0.2,0,0.5-0.1,1-0.1
							c-1.2,0-2.4,0.1-3.6,0.1c-0.3,0,0.7,0,1.2-0.1c-1.4,0-3.6,0.1-4,0.1l0.9,0c-0.5,0-0.3,0,0.1,0c1.2,0,1.7,0,1.8,0l-0.9,0
							c0.9,0.1,3.5,0,5.3,0l-0.7,0.1l1.8-0.1c0.4,0,0.7,0.1-0.2,0.1c1.3,0.1,1.1,0,2.2,0c0.1,0,0.1,0,0,0l1.2,0
							c-0.2,0,0.2,0.1-0.6,0.1c2.2,0.1,3.6-0.1,4.4,0l-0.2,0c3.1,0,0.3-0.1,2.6-0.2l1.6,0.3l0.3-0.1c0.3,0,1,0,0.8,0.1
							c1.2-0.1-0.2-0.1,0.5-0.1c1.5,0.1,4.2-0.1,4.6,0.2c0.6-0.1-1.5-0.1,0.2-0.2c0.5,0.2,1.9,0,3.3,0.1c-0.4,0.1-1.8,0.1-0.4,0.2
							c0.8-0.2,2.7,0.1,3.9,0c0.1-0.2,2.6-0.1,4.6-0.1c-0.1,0.1,3.7,0.1,5.6,0.2l-0.1,0c0.4-0.2,2.3-0.2,3.7-0.2
							c-0.1,0.1-0.3,0.2-1.1,0.3l1.3,0c0.3-0.1,0.7-0.1,1.6-0.1l-0.3,0.2c1.7,0,3.5-0.2,5.7-0.1c0.1-0.2-1.8-0.5,0.6-0.7
							c0.1,0.1,0.2,0.3-0.4,0.3c0.2,0,0.7-0.1,1.1,0l-0.9,0.2c1,0.1,0.5-0.1,1.3-0.1c0,0.2,0.6,0.1,0.5,0.2c-0.2,0-0.7-0.1-1,0
							c0.9,0,2,0.1,2.4,0.2c-0.1-0.1,0-0.2,0.7-0.2c1.7,0,0.6,0.2,1.6,0.3c0.4-0.1,1.5,0,1.6-0.2c0.5,0,0.6,0.1,0.8,0.2
							c0.9-0.1,4.2,0,3.2-0.3l-0.2,0.1c0,0,0.1,0.1,0.1,0.1c0,0,0,0,0,0h0c3-1,6.1,0,9.1-0.1l0,0c1.7-0.1,3.9-0.1,5.1-0.3
							c0.5,0,1.2,0.2,1,0.3c1.3-0.1,1.5-0.2,3.4,0c-1.3,0.2,0.5,0.1-1.4,0.1c1.7,0.1,2.1,0.3,4,0c-0.6,0.3,1.3,0.3,2.1,0.3l-1.2-0.2
							c0.9,0,1.7,0,2.6,0l-0.4,0.3c3.6,0.5,6.4-0.7,9.1,0.1c0.9-0.3-1.9-0.2-1.1-0.5c1.6,0.1,3.3,0.6,3.9,0.6
							c2.2,0.2,2.1-0.5,4.4-0.4c-0.3-0.1-0.6-0.5,1.2-0.6c1.6,0.1,2,0.6,1,0.7c-0.4,0-0.6,0-0.6-0.1c-0.5,0-1.2,0.1-0.6,0.3l0.2-0.1
							c0.8,0.1,3.1,0.1,2.5,0.4c1.2-0.1,0.5-0.2-0.4-0.3c2.1,0.2,3.3,0,5.4,0.2c-0.3-0.1-0.7-0.2-0.3-0.2c3.2,0.2,1.4-0.3,3.5-0.3
							c1.2,0.2-0.4,0.5,1.7,0.3c1.3,0.2,0.3,0.4-0.2,0.5c2-0.3,3.7,0.2,4.8,0.3l-1,0.1c0.6-0.1,1.1-0.1,1.6-0.1l-0.6-0.3
							c0.6,0.1,1.1,0.1,1.1,0.2c0.6-0.2-0.5-0.5,0.8-0.8c0.8,0.2,2.5-0.2,2.8,0.2c-2.6-0.1,0.3,0.4-1.9,0.5c0.4,0,0.9,0,1.5,0
							c0.1,0-0.1,0.1-0.3,0.1c2.4,0.4,1.1-0.4,3.7-0.4c-0.3,0.2,0.6,0.4,1,0.4c-1,0-0.5-0.4,0.4-0.6c1.6,0.2,1.8-0.1,2.6-0.1l-1-0.1
							c0.3-0.2,1.1-0.2,2.3-0.3c0.1,0.2-1,0.1-0.6,0.2c1.3-0.4,2.8,0.4,4.6,0.2c0.8,0.2,0.1,0.4,0.8,0.6c2-0.3,2.1,0.3,4.2,0.1
							c-0.6-0.3-0.7-0.2,0.8-0.5l-3.4,0.2l2.2-0.5c-1,0-2.2,0.2-2.8,0.1c1-0.3,0.9-0.2,0.4-0.4c1.4,0.5,2.8-0.3,4.4,0.1l0,0.8
							c2.4,0.4,4.3-0.4,7.5-0.2l-1-0.1c0.4-0.3,2,0,3-0.2c-0.1,0.3,0.5,0.4,1,0.5c-0.1-0.2,2.3,0,2.6-0.5l1.4,0.4
							c2.6,0.2,2.9-0.8,5.4-0.7c-0.7,0.3,0.4,0.5-1.3,0.7c0.8,0,1.6,0.1,1.6-0.1c0.5,0.2,2.3-0.4,3-0.1c0.3-0.1,0.5-0.4,1.4-0.4
							c0.1,0.1,0,0.1,0,0.1c0-0.1,1.4-0.2,0.6-0.5c2.5,0.9,7.1-0.1,9.3,0.7c1.8-0.1,3.9-0.2,5.6-0.2c-0.1,0.1,0,0.1-0.3,0.1
							c2.2,0.3,1.4-0.8,3.9-0.5c1.3,0.5-1.4,0.3-0.5,0.4c0.4,1,3.1-0.1,4.8,0.4l-0.4,0.1c1.3,0.3,3.2-0.4,5.3-0.3c0,0-0.1,0.1,0,0.1
							c1.5-0.5,4.2-0.6,6.3-0.8c-0.6,0.4-0.9,0.2-0.5,0.6c0.9-0.1-0.3-0.6,1.6-0.7c0.6,0.2,1.9,0.4,2.1,0.8l-1.7,0
							c0.9,0.5,2.3,0,3.2,0.1l-0.1,0.2c2.7-0.1,2.7-0.7,5.6-0.6l-0.3-0.2c1.6-0.6,1.3,0.3,2.9-0.1l0.5,0.6c1-0.1,3.6-0.6,5.5-0.7
							c-1,0.4-3.2,0.7-4.6,0.9c1,0,3.5,0,4-0.3c-0.4,0.1-0.9,0.2-1.3,0.1c1.3-0.5,2.9-0.7,4.9-0.7c-0.4,1.1,5.3,0.3,6.8,1.2
							c3.6-0.4,7.2,0.2,11.4,0.1c-1.5-0.9,1.2,0,1-0.9c1-0.1,1.4,0,1.4,0l3,0.5c0.7,0.3-0.9,0.2-0.8,0.4c2.1,0.1,0.9,0.4,2.3,0.6
							c-0.3-0.3,0.7-0.5,2-0.3l-1.7-0.4c3-0.5,2.6,0.8,5.6,0.3l-1,0.3c1.6-0.2,5.7,0,7.2-0.7c0.3,0.1,0.6,0.3,0,0.4
							c3.7,0.1,8.2-0.8,11.1-0.3l-0.3,0.2c0.7-0.1,1.2-0.4,2.1-0.2c0,0.1-0.3,0.2,0,0.2c0.4-0.1,1.8-0.4,2.8-0.3l-0.8,0.2
							c3.6,0.3,5.5-0.6,8.6-0.8c0,0.6,2.8,0.8,4.3,0.9l0,0.1c4.2,0.1,7.1-0.5,11-0.8c2.4,0.7,8.2,0.2,12.1,0.6
							c-0.6-0.1,0.1-0.5,0.8-0.5c0.9,0.1,2.5-0.4,2.4,0.1l-0.3,0c0.7,0.5,2.6,0.4,4,0.4l0.2-0.7c3.8,1,10-0.4,12.1,0.5
							c0.9-0.2,2.1-0.2,3-0.3l0,0.4c2.6,0.1,3.8,0.1,7,0l-0.6,0.3c1.8,0,2.3-1,3.9-1l0.5,0.5c3.1,0,6.3,0.4,9.3-0.1
							c-0.1,0.1-0.1,0.2-0.6,0.2c1.5,0,5.7,0.3,5.1-0.4c0,0.4,3.2,0,4.9-0.2l-0.3,0.3c1.4-0.4,1.5-0.5,3.4-0.6
							c0.5,0,0.4,0.2-0.2,0.2c1.6,0.1,1.2-0.3,3.1-0.1l-0.7,0.2c1.6,0,1.5-0.1,2.4-0.3c1-0.1,3.1,0.1,3.3,0.3c0.2-0.2,1.1-0.4,2-0.3
							c0.1,0.1-0.2,0.2-0.4,0.2c2.7,0.2,4-0.3,5.9-0.1c0,0.1,0.2,0.1,0.3,0.2c-2.1,0-3.9,0-3.7,0c0,0.3,1.7,0.3,0.4,0.6
							c1.4-0.2,3.8-0.6,5.4-0.5c0.1,0,0.2,0,0.2,0.1l-0.2,0c0.4,0,0.7,0,1.1,0c0.5,0,0.9,0.1,1.4,0.1c0.2,0.2,2,0.1,2.8,0.1
							c-0.1-0.2,1.1-0.2,0-0.4c0.1,0-0.2,0-0.7,0c-0.1,0-0.3,0-0.4,0c0,0,0,0,0.1,0c-0.6,0-1.3,0-2.1,0c0.7-0.1,1.4-0.2,2.3-0.1
							c0.4-0.2,0.9-0.3,1.2-0.4c1.2,0.3,3.5,0.5,3.8,0.7c2.6-0.2,6.2-0.2,7.9-0.6c0.7-0.1,0.9,0.1,1.1,0.2c-0.4,0-0.9,0-1.2,0.1
							c1.5-0.1,4.4-0.1,4.8-0.4c1.9,0.1-1.1,0.3,1.5,0.2l-0.3,0.1c5.1,0.3,8.3-0.7,13.9-0.2c-0.4,0-0.6,0-0.7-0.1
							c6.4,0.1,13.3-0.2,19.6,0c1.8,0,2-0.1,3.1-0.1l0.4,0.1l1.9-0.1c2.7-0.1,4.6,0.2,8,0l-0.4,0c1.2,0,3.9,0,3.6,0
							c0.1,0,0.4,0,0.9,0l0,0l3-0.1c2.3,0-0.4,0.1,3,0c1.2,0,2.6,0,3.1-0.1c-0.5,0-1.2,0-1.3,0l1.1,0c0.2,0,1.1,0-1.7,0l-2,0l-0.6,0
							l1.7,0c-0.9,0-1.5,0-2.2,0c-0.2,0-0.5,0-0.8,0l-1.9,0c-0.2,0,0.9,0-0.4-0.1c-0.9,0,0.9,0.1-0.6,0.1c-0.9,0-0.7-0.1-1.8-0.1
							c-0.2,0,0.1,0,0.5,0c-1,0-2.6,0-3.1,0c-1-0.1-3.3,0-3.2-0.1c-0.3,0-1.7,0.1-2.6,0.1c1.6-0.1-3.4-0.1-2.9-0.2
							c-1.2,0.1-4.4,0-6.6,0.1c0.1,0,0.4,0,0.5,0c-1.2,0-1.6-0.1-2.4-0.1c-0.2,0.2-2,0.2-3.1,0.3c-1.5-0.2,0.9-0.2,0.4-0.4
							c0.1,0.1-2.6,0.1-2.1,0.2c-1.1-0.1-1-0.1-1.6-0.2c-0.2,0.2-1.1,0-2,0.2c-1.6-0.1-0.4-0.2-2.2-0.2
							C601.5,164.6,603.1,164.5,603.1,164.5z M560.1,164.7L560.1,164.7c0.4,0,0.7,0,0.9,0C560.8,164.7,560.5,164.7,560.1,164.7z
							 M556.4,164.7c0.4,0,1,0,1.6,0c0.1,0.1,0,0.2-0.4,0.2C557.8,164.8,557,164.7,556.4,164.7z M564.1,166.5c-0.6,0-0.8,0-0.8-0.1
							c0.3,0,0.6,0,1,0c0,0,0,0,0.1,0C564.3,166.4,564.2,166.4,564.1,166.5z"/>
						<path fill="#FF8636" d="M565.1,166.1c0.1,0,0.1,0,0.2,0c-0.1,0-0.2,0-0.3-0.1c-0.1,0-0.1,0.1-0.2,0.1
							C564.9,166.1,565,166.1,565.1,166.1z"/>
						<path fill="#FF8636" d="M236.9,165.7L236.9,165.7C236.9,165.7,236.8,165.7,236.9,165.7C236.8,165.7,236.8,165.7,236.9,165.7z"
							/>
						<polygon fill="#FF8636" points="506.4,163.7 506.4,163.8 506.8,163.8 						"/>
						<path fill="#FF8636" d="M216.9,165c0,0-0.1,0-0.3,0C216.7,165,216.8,165,216.9,165z"/>
						<path fill="#FF8636" d="M208.3,165l-1.2,0C207.6,165,208,165,208.3,165z"/>
						<path fill="#FF8636" d="M201.7,165c-0.1,0-0.1,0-0.1,0.1c0,0,0,0,0,0L201.7,165z"/>
						<path fill="#FF8636" d="M307,164c0.1,0,0.2,0,0.3,0C307.9,163.9,307.5,163.9,307,164z"/>
						<path fill="#FF8636" d="M275.7,164.9c0.3-0.1,0.7-0.1,1-0.2C276.1,164.7,275.7,164.7,275.7,164.9z"/>
						<path fill="#FF8636" d="M342,163.4C342,163.4,342,163.4,342,163.4c0.1,0,0.1,0,0.2,0L342,163.4z"/>
						<path fill="#FF8636" d="M278.1,164.7c-0.6-0.1-1,0-1.5,0C277.1,164.8,277.7,164.8,278.1,164.7z"/>
						<path fill="#FF8636" d="M173,165.3l-0.3,0c0,0,0,0,0,0L173,165.3z"/>
						<path fill="#FF8636" d="M172.6,165.3l-0.4,0C172.4,165.3,172.6,165.3,172.6,165.3z"/>
						<path fill="#FF8636" d="M171.5,165.3l0.7,0C172,165.3,171.7,165.3,171.5,165.3z"/>
						<path fill="#FF8636" d="M181.8,165.2l0.1,0C181.8,165.2,181.8,165.2,181.8,165.2z"/>
						<path fill="#FF8636" d="M184.4,165.1c-0.6,0-1.6,0-2.5,0l-0.1,0C182.3,165.1,183.8,165.2,184.4,165.1z"/>
						<path fill="#FF8636" d="M195.5,165.6l-2.2,0c0.4,0,0.9,0.1-0.1,0.1C196,165.8,192.6,165.5,195.5,165.6z"/>
						<path fill="#FF8636" d="M202.5,165.7c-1.2,0,0,0.1,0,0.1C203.2,165.8,203.4,165.7,202.5,165.7z"/>
						<path fill="#FF8636" d="M252.5,166l-0.1,0.2C253.3,166.2,252.4,166.1,252.5,166z"/>
						<polygon fill="#FF8636" points="262.1,164.7 261.2,164.5 260.7,164.7 						"/>
						<polygon fill="#FF8636" points="267.7,166.6 267.3,166.6 268.9,166.5 						"/>
						<path fill="#FF8636" d="M351.7,166.9l-0.3-0.5C350.8,166.5,350.7,167,351.7,166.9z"/>
						<path fill="#FF8636" d="M388,166.5c0.4,0.2,1.4,0.4,2,0.2C389.3,166.6,388.4,166.4,388,166.5z"/>
						<polygon fill="#FF8636" points="496.8,167 496.1,167.1 497.5,167 						"/>
					</g>
				</g>
			</g>
		</g>
	</g>
	<g id="Layer_15">
	</g>
	<g id="Layer_16">
	</g>
	<g id="Layer_17">
	</g>
</g>
<g id="Breakfast">
	<g id="Layer_20">
	</g>
	<g id="Layer_21">
	</g>
</g>
<g id="Layer_24">
</g>
<g id="Layer_22">
</g>
<g id="Layer_23">
</g>
<g id="Layer_2" display="none">
</g>
<g id="guides_landing" display="none">
</g>
</svg>
