<?xml version="1.0" encoding="utf-8"?>
<!-- Generator: Adobe Illustrator 18.1.1, SVG Export Plug-In . SVG Version: 6.00 Build 0)  -->
<!DOCTYPE svg PUBLIC "-//W3C//DTD SVG 1.1//EN" "http://www.w3.org/Graphics/SVG/1.1/DTD/svg11.dtd">
<svg version="1.1" xmlns="http://www.w3.org/2000/svg" xmlns:xlink="http://www.w3.org/1999/xlink" x="0px" y="0px" width="262.8px"
	 height="72.7px" viewBox="0 0 262.8 72.7" enable-background="new 0 0 262.8 72.7" xml:space="preserve">
<g id="Landing">
	<g id="Layer_8">
	</g>
	<g id="Main">
		<g id="navigation">
			<g id="logo">
			</g>
		</g>
		<g id="icons">
		</g>
		<g id="body">
		</g>
	</g>
	<g id="Layer_7">
	</g>
</g>
<g id="first_landing">
	<g id="Logo">
	</g>
</g>
<g id="Layer_18">
</g>
<g id="about">
	<g id="Nav">
	</g>
	<g id="Layer_15">
	</g>
	<g id="Layer_16">
		<g>
			<path fill="#FF7419" d="M95.4,9.4h-5.1V29h-4.8V9.4h-5.1V5.5h15V9.4z"/>
			<path fill="#FF7419" d="M97.7,5.5h4.8V29h-4.8V5.5z"/>
			<path fill="#FF7419" d="M114.3,5.5c1.2,0,2.2,0.2,3.1,0.6s1.5,0.9,2,1.6c0.5,0.7,0.9,1.4,1.1,2.3c0.2,0.8,0.3,1.7,0.3,2.6
				c0,1.2-0.2,2.3-0.5,3.2c-0.4,0.9-0.9,1.6-1.5,2.2c-0.6,0.6-1.4,1-2.4,1.3s-1.9,0.4-3.1,0.4h-2.5V29H106V5.5H114.3z M112.8,16.1
				c0.9,0,1.7-0.3,2.3-0.9s0.9-1.5,0.9-2.7c0-1.2-0.3-2.1-0.8-2.7S113.9,9,112.7,9h-2v7.2H112.8z"/>
			<path fill="#FF7419" d="M126.9,22.4c0,0.5,0,1.1,0.1,1.5c0.1,0.5,0.3,0.8,0.5,1.1c0.2,0.3,0.6,0.6,1,0.7s0.9,0.3,1.5,0.3
				c0.7,0,1.4-0.2,2-0.7c0.6-0.5,0.9-1.2,0.9-2.2c0-0.5-0.1-1-0.2-1.4c-0.1-0.4-0.4-0.7-0.7-1c-0.3-0.3-0.8-0.6-1.3-0.8
				s-1.2-0.5-2-0.8c-1.1-0.4-2-0.7-2.7-1.2c-0.8-0.4-1.4-0.9-1.9-1.5c-0.5-0.6-0.9-1.2-1.1-1.9s-0.4-1.6-0.4-2.6
				c0-2.3,0.6-4.1,1.9-5.2s3.1-1.7,5.3-1.7c1.1,0,2,0.1,2.9,0.3c0.9,0.2,1.7,0.6,2.3,1.1c0.6,0.5,1.2,1.2,1.5,2s0.5,1.8,0.5,2.9V12
				h-4.6c0-1.1-0.2-2-0.6-2.6c-0.4-0.6-1.1-0.9-2-0.9c-0.5,0-1,0.1-1.3,0.2c-0.4,0.2-0.6,0.4-0.8,0.6s-0.4,0.5-0.4,0.9
				c-0.1,0.3-0.1,0.7-0.1,1c0,0.7,0.2,1.3,0.5,1.8c0.3,0.5,1,1,2,1.4l3.7,1.6c0.9,0.4,1.6,0.8,2.2,1.2s1,0.9,1.4,1.4
				c0.3,0.5,0.6,1,0.7,1.6s0.2,1.3,0.2,2c0,2.5-0.7,4.3-2.2,5.4c-1.4,1.1-3.4,1.7-6,1.7c-2.7,0-4.6-0.6-5.8-1.7
				c-1.2-1.2-1.7-2.8-1.7-5v-1h4.8V22.4z"/>
			<path fill="#FF7419" d="M160.7,9.4h-5.1V29h-4.8V9.4h-5.1V5.5h15V9.4z"/>
			<path fill="#FF7419" d="M162.5,12.3c0.2-1.5,0.5-2.8,1.1-3.9c0.6-1.1,1.4-1.9,2.4-2.5s2.5-0.9,4.3-0.9s3.2,0.3,4.3,0.9
				c1.1,0.6,1.9,1.4,2.4,2.5c0.6,1.1,0.9,2.4,1.1,3.9c0.2,1.5,0.2,3.2,0.2,4.9c0,1.8-0.1,3.5-0.2,5s-0.5,2.8-1.1,3.9
				c-0.6,1.1-1.4,1.9-2.4,2.5c-1.1,0.6-2.5,0.9-4.3,0.9s-3.2-0.3-4.3-0.9c-1.1-0.6-1.9-1.4-2.4-2.5c-0.6-1.1-0.9-2.4-1.1-3.9
				s-0.2-3.1-0.2-5C162.3,15.5,162.3,13.8,162.5,12.3z M167.1,21.3c0.1,1.1,0.2,2,0.5,2.7c0.2,0.7,0.6,1.2,1,1.5
				c0.4,0.3,1,0.5,1.7,0.5s1.3-0.2,1.7-0.5c0.4-0.3,0.8-0.8,1-1.5c0.2-0.7,0.4-1.6,0.5-2.7s0.1-2.5,0.1-4s0-2.9-0.1-4
				c-0.1-1.1-0.2-2-0.5-2.7c-0.2-0.7-0.6-1.2-1-1.5c-0.4-0.3-1-0.5-1.7-0.5S169,8.7,168.6,9c-0.4,0.3-0.8,0.8-1,1.5
				c-0.2,0.7-0.4,1.6-0.5,2.7c-0.1,1.1-0.1,2.4-0.1,4S167,20.2,167.1,21.3z"/>
		</g>
		<g>
			<path fill="#1AB209" d="M3.2,33.8H18c1.6,0,3,0.2,4.4,0.5c1.4,0.3,2.6,0.8,3.6,1.5s1.8,1.7,2.4,2.8s0.9,2.6,0.9,4.3
				c0,2.4-0.7,4.4-2,6.1c-1.4,1.6-3.2,2.7-5.6,3.1v0.1c1.6,0.2,2.9,0.6,3.9,1.3c1,0.7,1.7,1.5,2.1,2.5c0.5,1,0.8,2,0.9,3.2
				s0.2,2.3,0.2,3.5c0,0.7,0,1.4,0,2c0,0.7,0,1.3,0.1,1.9c0.1,0.6,0.2,1.1,0.3,1.6c0.2,0.5,0.4,0.9,0.6,1.2h-2.4
				c-0.5-0.8-0.7-1.8-0.8-2.9c0-1.1-0.1-2.3-0.1-3.5c0-1.2,0-2.4-0.1-3.6c-0.1-1.2-0.4-2.2-1-3.2c-0.5-0.9-1.4-1.7-2.5-2.2
				c-1.1-0.6-2.8-0.8-4.9-0.8H5.3v16.2H3.2V33.8z M18,51.4c1.3,0,2.5-0.2,3.6-0.5c1.1-0.3,2.1-0.8,2.9-1.5s1.4-1.5,1.9-2.6
				c0.5-1,0.7-2.3,0.7-3.7c0-1.3-0.2-2.5-0.8-3.4c-0.5-0.9-1.2-1.7-2-2.3c-0.8-0.6-1.8-1-2.9-1.3c-1.1-0.3-2.2-0.4-3.5-0.4H5.3v15.6
				H18z"/>
			<path fill="#1AB209" d="M34.6,33.8h24v1.9H36.8V50h20.5v1.9H36.8v15.7h22.1v1.9H34.6V33.8z"/>
			<path fill="#1AB209" d="M62.6,33.8h3.1l14,33.2h0.1l13.8-33.2h3.1v35.7h-2.2v-33h-0.1l-13.6,33h-2.2l-13.8-33h-0.1v33h-2.2V33.8z
				"/>
			<path fill="#1AB209" d="M103.1,33.8h24v1.9h-21.8V50h20.5v1.9h-20.5v15.7h22.1v1.9h-24.2V33.8z"/>
			<path fill="#1AB209" d="M131.1,33.8h3.1l14,33.2h0.1l13.8-33.2h3.1v35.7H163v-33h-0.1l-13.6,33h-2.2l-13.8-33h-0.1v33h-2.2V33.8z
				"/>
			<path fill="#1AB209" d="M171.5,33.8h14.3c2.1,0,3.9,0.3,5.3,0.8c1.4,0.5,2.6,1.2,3.5,2.1c0.9,0.9,1.5,1.9,1.9,3
				c0.4,1.1,0.6,2.2,0.6,3.4c0,1-0.2,1.9-0.5,2.8c-0.3,0.9-0.8,1.6-1.4,2.3c-0.6,0.7-1.4,1.2-2.2,1.7c-0.9,0.4-1.8,0.7-2.8,0.9
				l0.1,0.1c0.2,0,0.8,0.1,1.7,0.3c0.9,0.2,1.8,0.7,2.7,1.3c1,0.7,1.8,1.5,2.6,2.7c0.8,1.1,1.1,2.6,1.1,4.4c0,1.6-0.3,3.1-0.9,4.3
				c-0.6,1.2-1.4,2.3-2.5,3.1c-1.1,0.9-2.4,1.5-3.9,1.9c-1.5,0.4-3.2,0.7-5.1,0.7h-14.3V33.8z M185.8,50c3,0,5.3-0.7,6.8-2
				c1.5-1.3,2.2-3.1,2.2-5.3c0-1.3-0.2-2.4-0.8-3.3c-0.5-0.9-1.2-1.6-2-2.2c-0.8-0.5-1.8-0.9-2.9-1.2c-1.1-0.2-2.2-0.3-3.4-0.3
				h-12.1V50H185.8z M185.8,67.6c3.2,0,5.7-0.7,7.5-2c1.8-1.4,2.7-3.4,2.7-6.1c0-1.5-0.3-2.8-1-3.8c-0.6-1-1.4-1.8-2.4-2.3
				c-1-0.6-2.1-1-3.3-1.2c-1.2-0.2-2.4-0.3-3.6-0.3h-12.1v15.7H185.8z"/>
			<path fill="#1AB209" d="M203,33.8h24v1.9h-21.8V50h20.5v1.9h-20.5v15.7h22.1v1.9H203V33.8z"/>
			<path fill="#1AB209" d="M231,33.8h14.9c1.6,0,3,0.2,4.4,0.5c1.4,0.3,2.6,0.8,3.6,1.5s1.8,1.7,2.4,2.8s0.9,2.6,0.9,4.3
				c0,2.4-0.7,4.4-2,6.1c-1.4,1.6-3.2,2.7-5.6,3.1v0.1c1.6,0.2,2.9,0.6,3.9,1.3c1,0.7,1.7,1.5,2.1,2.5c0.5,1,0.8,2,0.9,3.2
				s0.2,2.3,0.2,3.5c0,0.7,0,1.4,0,2c0,0.7,0,1.3,0.1,1.9c0.1,0.6,0.2,1.1,0.3,1.6c0.2,0.5,0.4,0.9,0.6,1.2h-2.4
				c-0.5-0.8-0.7-1.8-0.8-2.9c0-1.1-0.1-2.3-0.1-3.5c0-1.2,0-2.4-0.1-3.6c-0.1-1.2-0.4-2.2-1-3.2c-0.5-0.9-1.4-1.7-2.5-2.2
				c-1.1-0.6-2.8-0.8-4.9-0.8h-12.7v16.2H231V33.8z M245.9,51.4c1.3,0,2.5-0.2,3.6-0.5c1.1-0.3,2.1-0.8,2.9-1.5s1.4-1.5,1.9-2.6
				c0.5-1,0.7-2.3,0.7-3.7c0-1.3-0.2-2.5-0.8-3.4c-0.5-0.9-1.2-1.7-2-2.3c-0.8-0.6-1.8-1-2.9-1.3c-1.1-0.3-2.2-0.4-3.5-0.4h-12.7
				v15.6H245.9z"/>
		</g>
	</g>
	<g id="Layer_17">
	</g>
</g>
<g id="Breakfast">
	<g id="Layer_20">
	</g>
	<g id="Layer_21">
	</g>
</g>
<g id="Layer_24">
</g>
<g id="Layer_22">
</g>
<g id="Layer_23">
</g>
<g id="Layer_2" display="none">
</g>
<g id="guides_landing" display="none">
</g>
</svg>
