<?xml version="1.0" encoding="utf-8"?>
<!-- Generator: Adobe Illustrator 18.1.1, SVG Export Plug-In . SVG Version: 6.00 Build 0)  -->
<!DOCTYPE svg PUBLIC "-//W3C//DTD SVG 1.1//EN" "http://www.w3.org/Graphics/SVG/1.1/DTD/svg11.dtd">
<svg version="1.1" xmlns="http://www.w3.org/2000/svg" xmlns:xlink="http://www.w3.org/1999/xlink" x="0px" y="0px" width="493px"
	 height="170px" viewBox="0 0 493 170" enable-background="new 0 0 493 170" xml:space="preserve">
<g id="Landing">
	<g id="Layer_8">
	</g>
	<g id="Main">
		<g id="navigation">
			<g id="logo">
			</g>
		</g>
		<g id="icons">
		</g>
		<g id="body">
		</g>
	</g>
	<g id="Layer_7">
	</g>
</g>
<g id="first_landing">
	<g id="Logo">
	</g>
</g>
<g id="Layer_18">
</g>
<g id="about">
	<g id="Nav">
		<text transform="matrix(1 0 0 1 11.4331 64.5433)"><tspan x="0" y="0" fill="#FFFFFF" font-family="'HelveticaNeue-CondensedBold'" font-size="74">PROTEIN CARBS </tspan><tspan x="128.1" y="88.8" fill="#FFFFFF" font-family="'HelveticaNeue-CondensedBold'" font-size="74">GREENS</tspan></text>
		<g opacity="0.6">
			<g>
				<g>
					<g>
						<path fill="#FF8636" d="M5.2,165.4c-0.3,0-0.1,0,0.6,0l0.5,0L5.2,165.4z"/>
						<path fill="#FF8636" d="M9.9,165.4c0.8,0,1.8,0,1.2-0.1c-0.8,0-1,0-1.9,0.1c-0.7,0-1.2,0-1.1,0c-0.3,0-1,0-1.5,0
							C7.6,165.4,8.7,165.4,9.9,165.4C10.2,165.4,9.9,165.4,9.9,165.4z"/>
						<path fill="#FF8636" d="M77.7,165.8l-0.4,0C77.4,165.7,77.6,165.8,77.7,165.8z"/>
						<path fill="#FF8636" d="M119.8,166.1c-0.3,0-0.5,0-0.5,0.1C119.6,166.2,119.8,166.1,119.8,166.1z"/>
						<path fill="#FF8636" d="M126.9,166.6c-0.2,0-0.3,0-0.4,0C126.7,166.6,126.8,166.6,126.9,166.6z"/>
						<path fill="#FF8636" d="M77.7,165.8l1.1,0.1C78.9,165.8,78.3,165.8,77.7,165.8z"/>
						<path fill="#FF8636" d="M19.2,165.2c-0.2,0-0.4,0-0.6,0C18.8,165.2,19,165.2,19.2,165.2C19.2,165.2,19.2,165.2,19.2,165.2z"/>
						<path fill="#FF8636" d="M59.2,165.9l-0.3,0c-0.1,0-0.2,0.1-0.3,0.1L59.2,165.9z"/>
						<path fill="#FF8636" d="M45,165.8c0.3,0,0.4-0.1,0.6-0.2c-0.2,0.1-0.4,0.1-0.7,0.1C44.8,165.7,44.9,165.7,45,165.8z"/>
						<path fill="#FF8636" d="M22.4,165.4l-0.4,0C22.1,165.4,22.3,165.4,22.4,165.4z"/>
						<path fill="#FF8636" d="M69.4,166c0,0,0.1,0.1,0.1,0.1C69.5,166,69.5,166,69.4,166z"/>
						<path fill="#FF8636" d="M467.2,165C467.2,165,467.2,165.1,467.2,165C467.3,165,467.3,165,467.2,165z"/>
						<polygon fill="#FF8636" points="483.7,165.4 483.4,165.4 483.4,165.4 						"/>
						<path fill="#FF8636" d="M140.1,167.1C140.1,167.1,140,167.1,140.1,167.1C139.7,167.1,139.9,167.1,140.1,167.1z"/>
						<path fill="#FF8636" d="M260.7,167.1c-1.4-0.4,2.2-0.5,0.2-0.9C261,166.4,259,166.9,260.7,167.1z"/>
						<path fill="#FF8636" d="M19.6,165.2c0.2,0,0.4,0,0.6,0C19.9,165.2,19.7,165.2,19.6,165.2z"/>
						<path fill="#FF8636" d="M260.8,166.2L260.8,166.2l-0.2,0C260.7,166.2,260.8,166.2,260.8,166.2z"/>
						<path fill="#FF8636" d="M170.3,167c-0.1-0.1-0.2-0.1-0.3-0.2C170.1,166.9,170.1,166.9,170.3,167z"/>
						<path fill="#FF8636" d="M147.8,166.4l0.6,0.1C148.1,166.4,148,166.4,147.8,166.4z"/>
						<path fill="#FF8636" d="M182.1,166.5c0.3,0,0.4,0.1,0.8,0c0,0-0.1,0-0.1,0C182.6,166.5,182.4,166.6,182.1,166.5z"/>
						<path fill="#FF8636" d="M194.2,166.5c-0.1,0-0.1-0.1-0.2-0.1c-0.1,0-0.3,0-0.4,0L194.2,166.5z"/>
						<path fill="#FF8636" d="M430.2,164.6c0.3,0.1,0.4,0.1,0.6,0.2C430.5,164.6,432.3,164.6,430.2,164.6z"/>
						<path fill="#FF8636" d="M19.2,165.2c0.1,0,0.2,0,0.4,0C19.5,165.2,19.3,165.2,19.2,165.2C19.2,165.2,19.1,165.2,19.2,165.2z"
							/>
						<path fill="#FF8636" d="M182.6,163.4l1.9,0.1C183.9,163.4,183.2,163.4,182.6,163.4z"/>
						<path fill="#FF8636" d="M342.7,163.9l0.4,0C343,163.8,342.8,163.9,342.7,163.9z"/>
						<path fill="#FF8636" d="M190.2,163.3c0.3,0.1,0.7,0.2,1.1,0.3c0.1,0,0.2-0.1,0.2-0.1L190.2,163.3z"/>
						<path fill="#FF8636" d="M430.7,164.7L430.7,164.7L430.7,164.7z"/>
						<path fill="#FF8636" d="M443.5,164.5c-1.8,0-0.9,0.2-1.3,0.3c-2.2,0-1-0.2-1.8-0.3c-1.4,0-2.4,0.2-3.5,0.2
							c-0.1,0-0.3-0.1,0-0.1c-1.5,0.2-4.3,0-6,0.2c-0.1,0-0.2,0-0.2-0.1c0.3,0.1,0.3,0.3,0.3,0.3c-0.8,0-1.5,0.2-1.8,0
							c0.5,0,0.5-0.1,0.8-0.1l-0.9,0.1c-0.8-0.2,1.2-0.1,1.2-0.2c-1.7,0.1-3.7,0.3-5,0.2c-0.3-0.2,3-0.1,1.3-0.3l2,0.1
							c-1.5-0.4,1.2,0-0.2-0.4c-2.6-0.1-2.9,0.1-5.6,0c-0.6,0.1,0.2,0.2-0.4,0.3c-3.7,0.2-2.9-0.7-5.7-0.4c-0.7,0.2-1,0.5-2.9,0.3
							l0.7-0.3c-2.6-0.1-1.5,0.4-4.1,0.2c0.5-0.1,2-0.1,1.6-0.1c-1.7-0.3-1.2,0.2-2.6,0.2l-0.3-0.3c-2.7,0-5.7,0.2-8.7,0.3
							c0.2-0.1,0.7-0.2,0-0.3c-3.8,0.1-8.1-0.1-11.8-0.3l-1.4,0.3c-0.3,0-0.6-0.1-0.3-0.2c-1.4-0.1-0.1,0.2-0.8,0.3
							c-0.8,0-1.1-0.2-0.6-0.3c-2.5,0.2-7.2,0.5-9.8,0.2l0.5-0.1c-2.1-0.1-2.3,0.7-4.2,0.3l0.4-0.1c-4.5-0.2-9.4,0.1-12.9-0.4
							c-0.7,0.5-4.4-0.3-4.7,0.5c-2.6-0.4-1.8-0.5-5.4-0.8c-1,0-1.4,0.5-2.6,0.5l0-0.4l-1.6,0.4l-0.9-0.5l-1.1,0.1
							c0.4,0,0.9,0.2,0.9,0.3c-1.7,0.2-4.3-0.3-4.3-0.5l-4.1,0.3c0.1-0.2,0.8-0.2,1.3-0.3c-2.2,0.4-0.4-0.4-2.4-0.1
							c0.3,0.1-0.1,0.2-0.2,0.3c-1-0.3-3.3-0.3-5-0.2l0.3-0.3c-3.1-0.1-6.5,0.1-9.9,0.1c1.2,0.1,0.9,0.6-0.1,0.7l-0.4-0.4
							c-0.7,0.3,1.1,0.2-0.3,0.5c-1.3-0.1-0.9-0.5-0.1-0.7l-1.6,0.2c-0.1-0.1,0.3-0.2,0.4-0.4c-0.6,0.3-2.7-0.5-3.6,0l-0.1-0.1
							c-3.4,0-5,0.1-7.8,0.1c-0.1,0.4-1.1,0.3-2,0.6c-2.1-0.1-4.3-0.5-6.8-0.4c-1.7,0.2-0.5,0.3-1.3,0.6c-0.1-0.4-2.6-0.3-1.3-0.6
							c-3,0.1-3.8,0.1-7.6,0.4c0.4,0.2,0.9,0.2,0.6,0.3c-0.7,0.1-1.6-0.2-1.5-0.3l0.2,0c-4.2,0.6-9.7-1.1-13.1-0.3l0.2,0l-3.5,0.4
							c-1.6-0.1,1-0.3-0.2-0.5c-3.8,0.6-5.9-0.1-9,0.3c-2.4-1.1-8.5,0.1-11.7-0.6l0.2,0.3c-0.8,0.3-1-0.2-1.6-0.2
							c0.1,0.2,0.9,0.2,0.4,0.4c-7.1,0.3-14.6-0.4-21.9-0.6c-2.7-0.1-1.5,1.4-4.9,0.7l1-0.5c-5.4,0.6-11,0-16.2,0.5
							c0.3-0.1,0.3-0.3,0.8-0.3c-1.1-0.4-4.1,0-4.1,0.3c-0.8,0-0.2-0.3-0.7-0.4c-1.1-0.2-2.8,0.5-3.4,0.1c-0.1-0.1,0.3-0.1,0.5-0.1
							c-0.7,0.2-3.4,0-2.7,0.4c-2-0.2-3.8,0.2-5.3,0c-1,0.4-3.4-0.2-3.7,0.4c0.1-0.6-3.5-0.5-4.7-0.2c0.4-0.2-1.1-0.2-0.6-0.5
							c-1.4,0-2.7,0.1-2.5,0.5c-2.6-0.8-5.3,0.6-6.7-0.3c-4.2,0.4-8.1,0.6-11.9,0.7c0.1-0.6,4.2-0.1,4-0.7c-3.6,0.3-5.7,0.8-9.3,0.7
							c-0.9-0.1,0.5-0.3,0.8-0.4c-3.6,0.3-7,0-10.2,0.3c0-0.1,0.4-0.1,0.7-0.2c-0.6,0-1.5-0.1-1.4,0.2l0.6-0.1c1,0.4-2.5,0.8-2.6,1
							c1.1-0.8-3.2-0.2-1.5-1.1c-0.4,0.1-0.9,0.2-0.8,0.4c-0.6,0-0.8-0.1-0.2-0.3c-2.3,0.2-1.5,0.4-3.5,0.4c0-0.1,0.4-0.2,0.6-0.3
							c-1,0.2-2.1,0.5-3.8,0.4c0.1-0.1-0.1-0.2,0.4-0.2c-3,0.1-5.1,0.6-8.3,0.4c1-0.5-1.1-0.2-1.3-0.6l-1.8,0.1l0.7,0.2
							c-1.5,0-2.9,0.3-4.2,0.2l1.1-0.2l-2.9,0.1l1.6,0.2c-1.6,0.2,0.2,0.5-1.9,0.4c0.4,0-1.5,0-2.3-0.3l0,0
							c-0.8,0.1-1.5,0.3-2.7,0.2c-0.3-0.1,0.2-0.5,0-0.5c-0.7,0.3-3.6,0.1-4.5,0.5c0.3-0.1,0.3-0.3,0.2-0.3l-0.6,0.3
							c-0.7-0.1-0.8-0.1-0.7-0.3c-2.1,0,0.7,0.5-1.9,0.3c0.2,0,0.1-0.1,0.5-0.1c-2.6-0.1-4.9,0.2-7.3,0.1c-0.7-0.4,2-0.1,1.3-0.4
							c-3.4,0.1-7,0.5-10.3,0.4l0.6,0c-0.5,0.5-2.4-0.2-4.1,0c0.4,0,0.5-0.3,0.4-0.2c-2.2-0.1-4.6,0.1-8,0.3l0.4-0.1
							c-1.3-0.1-3.5,0-4.9-0.1c-0.4,0.1-1.2,0.1-0.7,0.3c-4.4-0.6-8.4,0.3-12.3-0.1c0.5,0,1.1-0.1,0.7-0.1L59,165
							c0.3,0.2,0.4,0.1,1.1,0.2c-0.4,0.1-1.4,0.2-2.2,0.2c1.5-0.1,0-0.3-0.7-0.3c0.1,0-0.1,0.1-0.1,0.1c-1.7-0.3-0.3,0.3-2.7,0.1
							l0.1-0.1c-0.9,0-1.7,0.1-2.7,0.1c-0.4-0.2,0.9-0.1,1-0.2c-1.3,0-2.7,0.3-3.9,0.2c0.6,0,1.4-0.1,2-0.1
							c-1.3-0.2-1.5-0.1-2.5-0.2l0.1,0l-2.3-0.1l0.6,0c-1.7,0.4-3.4,0.1-5.7,0.3c2.2-0.2,0.4-0.1,0.5-0.3c-0.6,0-1.5-0.1-1.2-0.1
							c-1.1,0.1-1.8-0.1-3.3,0.1c-0.1,0-1.1,0-0.9-0.1c-1.4,0,0.3,0.1,0.2,0.1c-2.1,0.1-5-0.1-8.1,0.1c-2.7,0.1-3.2,0.2-5.6,0.2
							c-0.8,0,0.7-0.1,0.7-0.1c-1.3,0-2.4,0-3.6,0c0.3,0,0,0-0.4-0.1c-1,0-0.7,0.1-2,0.1c0.2,0,0.5-0.1,1-0.1
							c-1.2,0-2.4,0.1-3.6,0.1c-0.3,0,0.7,0,1.2-0.1c-1.4,0-3.6,0.1-4,0.1l0.9,0c-0.5,0-0.3,0,0.1,0c1.2,0,1.7,0,1.8,0l-0.9,0
							c0.9,0.1,3.5,0,5.3,0l-0.7,0.1l1.8-0.1c0.4,0,0.7,0.1-0.2,0.1c1.3,0.1,1.1,0,2.2,0c0.1,0,0.1,0,0,0l1.2,0
							c-0.2,0,0.2,0.1-0.6,0.1c2.2,0.1,3.6-0.1,4.4,0l-0.2,0c3.1,0,0.3-0.1,2.6-0.2l1.6,0.3l0.3-0.1c0.3,0,1,0,0.8,0.1
							c1.2-0.1-0.2-0.1,0.5-0.1c1.5,0.1,4.2-0.1,4.6,0.2c0.6-0.1-1.5-0.1,0.2-0.2c0.5,0.2,1.9,0,3.3,0.1c-0.4,0.1-1.8,0.1-0.4,0.2
							c0.8-0.2,2.7,0.1,3.9,0c0.1-0.2,2.6-0.1,4.6-0.1c-0.1,0.1,3.7,0.1,5.6,0.2l-0.1,0c0.4-0.2,2.3-0.2,3.7-0.2
							c-0.1,0.1-0.3,0.2-1.1,0.3l1.3,0c0.3-0.1,0.7-0.1,1.6-0.1l-0.3,0.2c1.7,0,3.5-0.2,5.7-0.1c0.1-0.2-1.8-0.5,0.6-0.7
							c0.1,0.1,0.2,0.3-0.4,0.3c0.2,0,0.7-0.1,1.1,0l-0.9,0.2c1,0.1,0.5-0.1,1.3-0.1c0,0.2,0.6,0.1,0.5,0.2c-0.2,0-0.7-0.1-1,0
							c0.9,0,2,0.1,2.4,0.2c-0.1-0.1,0-0.2,0.7-0.2c1.7,0,0.6,0.2,1.6,0.3c0.4-0.1,1.5,0,1.6-0.2c0.5,0,0.6,0.1,0.8,0.2
							c0.9-0.1,4.2,0,3.2-0.3l-0.2,0.1c0,0,0.1,0.1,0.1,0.1c0,0,0,0,0,0h0c3-1,6.1,0,9.1-0.1l0,0c1.7-0.1,3.9-0.1,5.1-0.3
							c0.5,0,1.2,0.2,1,0.3c1.3-0.1,1.5-0.2,3.4,0c-1.3,0.2,0.5,0.1-1.4,0.1c1.7,0.1,2.1,0.3,4,0c-0.6,0.3,1.3,0.3,2.1,0.3l-1.2-0.2
							c0.9,0,1.7,0,2.6,0l-0.4,0.3c3.6,0.5,6.4-0.7,9.1,0.1c0.9-0.3-1.9-0.2-1.1-0.5c1.6,0.1,3.3,0.6,3.9,0.6
							c2.2,0.2,2.1-0.5,4.4-0.4c-0.3-0.1-0.6-0.5,1.2-0.6c1.6,0.1,2,0.6,1,0.7c-0.4,0-0.6,0-0.6-0.1c-0.5,0-1.2,0.1-0.6,0.3l0.2-0.1
							c0.8,0.1,3.1,0.1,2.5,0.4c1.2-0.1,0.5-0.2-0.4-0.3c2.1,0.2,3.3,0,5.4,0.2c-0.3-0.1-0.7-0.2-0.3-0.2c3.2,0.2,1.4-0.3,3.5-0.3
							c1.2,0.2-0.4,0.5,1.7,0.3c1.3,0.2,0.3,0.4-0.2,0.5c2-0.3,3.7,0.2,4.8,0.3l-1,0.1c0.6-0.1,1.1-0.1,1.6-0.1l-0.6-0.3
							c0.6,0.1,1.1,0.1,1.1,0.2c0.6-0.2-0.5-0.5,0.8-0.8c0.8,0.2,2.5-0.2,2.8,0.2c-2.6-0.1,0.3,0.4-1.9,0.5c0.4,0,0.9,0,1.5,0
							c0.1,0-0.1,0.1-0.3,0.1c2.4,0.4,1.1-0.4,3.7-0.4c-0.3,0.2,0.6,0.4,1,0.4c-1,0-0.5-0.4,0.4-0.6c1.6,0.2,1.8-0.1,2.6-0.1l-1-0.1
							c0.3-0.2,1.1-0.2,2.3-0.3c0.1,0.2-1,0.1-0.6,0.2c1.3-0.4,2.8,0.4,4.6,0.2c0.8,0.2,0.1,0.4,0.8,0.6c2-0.3,2.1,0.3,4.2,0.1
							c-0.6-0.3-0.7-0.2,0.8-0.5l-3.4,0.2l2.2-0.5c-1,0-2.2,0.2-2.8,0.1c1-0.3,0.9-0.2,0.4-0.4c1.4,0.5,2.8-0.3,4.4,0.1l0,0.8
							c2.4,0.4,4.3-0.4,7.5-0.2l-1-0.1c0.4-0.3,2,0,3-0.2c-0.1,0.3,0.5,0.4,1,0.5c-0.1-0.2,2.3,0,2.6-0.5l1.4,0.4
							c2.6,0.2,2.9-0.8,5.4-0.7c-0.7,0.3,0.4,0.5-1.3,0.7c0.8,0,1.6,0.1,1.6-0.1c0.5,0.2,2.3-0.4,3-0.1c0.3-0.1,0.5-0.4,1.4-0.4
							c0.1,0.1,0,0.1,0,0.1c0-0.1,1.4-0.2,0.6-0.5c2.5,0.9,7.1-0.1,9.3,0.7c1.8-0.1,3.9-0.2,5.6-0.2c-0.1,0.1,0,0.1-0.3,0.1
							c2.2,0.3,1.4-0.8,3.9-0.5c1.3,0.5-1.4,0.3-0.5,0.4c0.4,1,3.1-0.1,4.8,0.4l-0.4,0.1c1.3,0.3,3.2-0.4,5.3-0.3c0,0-0.1,0.1,0,0.1
							c1.5-0.5,4.2-0.6,6.3-0.8c-0.6,0.4-0.9,0.2-0.5,0.6c0.9-0.1-0.3-0.6,1.6-0.7c0.6,0.2,1.9,0.4,2.1,0.8l-1.7,0
							c0.9,0.5,2.3,0,3.2,0.1l-0.1,0.2c2.7-0.1,2.7-0.7,5.6-0.6l-0.3-0.2c1.6-0.6,1.3,0.3,2.9-0.1l0.5,0.6c1-0.1,3.6-0.6,5.5-0.7
							c-1,0.4-3.2,0.7-4.6,0.9c1,0,3.5,0,4-0.3c-0.4,0.1-0.9,0.2-1.3,0.1c1.3-0.5,2.9-0.7,4.9-0.7c-0.4,1.1,5.3,0.3,6.8,1.2
							c3.6-0.4,7.2,0.2,11.4,0.1c-1.5-0.9,1.2,0,1-0.9c1-0.1,1.4,0,1.4,0l3,0.5c0.7,0.3-0.9,0.2-0.8,0.4c2.1,0.1,0.9,0.4,2.3,0.6
							c-0.3-0.3,0.7-0.5,2-0.3l-1.7-0.4c3-0.5,2.6,0.8,5.6,0.3l-1,0.3c1.6-0.2,5.7,0,7.2-0.7c0.3,0.1,0.6,0.3,0,0.4
							c3.7,0.1,8.2-0.8,11.1-0.3l-0.3,0.2c0.7-0.1,1.2-0.4,2.1-0.2c0,0.1-0.3,0.2,0,0.2c0.4-0.1,1.8-0.4,2.8-0.3l-0.8,0.2
							c3.6,0.3,5.5-0.6,8.6-0.8c0,0.6,2.8,0.8,4.3,0.9l0,0.1c4.2,0.1,7.1-0.5,11-0.8c2.4,0.7,8.2,0.2,12.1,0.6
							c-0.6-0.1,0.1-0.5,0.8-0.5c0.9,0.1,2.5-0.4,2.4,0.1l-0.3,0c0.7,0.5,2.6,0.4,4,0.4l0.2-0.7c3.8,1,10-0.4,12.1,0.5
							c0.9-0.2,2.1-0.2,3-0.3l0,0.4c2.6,0.1,3.8,0.1,7,0l-0.6,0.3c1.8,0,2.3-1,3.9-1l0.5,0.5c3.1,0,6.3,0.4,9.3-0.1
							c-0.1,0.1-0.1,0.2-0.6,0.2c1.5,0,5.7,0.3,5.1-0.4c0,0.4,3.2,0,4.9-0.2l-0.3,0.3c1.4-0.4,1.5-0.5,3.4-0.6
							c0.5,0,0.4,0.2-0.2,0.2c1.6,0.1,1.2-0.3,3.1-0.1l-0.7,0.2c1.6,0,1.5-0.1,2.4-0.3c1-0.1,3.1,0.1,3.3,0.3c0.2-0.2,1.1-0.4,2-0.3
							c0.1,0.1-0.2,0.2-0.4,0.2c2.7,0.2,4-0.3,5.9-0.1c0,0.1,0.2,0.1,0.3,0.2c-2.1,0-3.9,0-3.7,0c0,0.3,1.7,0.3,0.4,0.6
							c1.4-0.2,3.8-0.6,5.4-0.5c0.1,0,0.2,0,0.2,0.1l-0.2,0c0.4,0,0.7,0,1.1,0c0.5,0,0.9,0.1,1.4,0.1c0.2,0.2,2,0.1,2.8,0.1
							c-0.1-0.2,1.1-0.2,0-0.4c0.1,0-0.2,0-0.7,0c-0.1,0-0.3,0-0.4,0c0,0,0,0,0.1,0c-0.6,0-1.3,0-2.1,0c0.7-0.1,1.4-0.2,2.3-0.1
							c0.4-0.2,0.9-0.3,1.2-0.4c1.2,0.3,3.5,0.5,3.8,0.7c2.6-0.2,6.2-0.2,7.9-0.6c0.7-0.1,0.9,0.1,1.1,0.2c-0.4,0-0.9,0-1.2,0.1
							c1.5-0.1,4.4-0.1,4.8-0.4c1.9,0.1-1.1,0.3,1.5,0.2l-0.3,0.1c5.1,0.3,8.3-0.7,13.9-0.2c-0.4,0-0.6,0-0.7-0.1
							c6.4,0.1,13.3-0.2,19.6,0c1.8,0,2-0.1,3.1-0.1l0.4,0.1l1.9-0.1c2.7-0.1,4.6,0.2,8,0l-0.4,0c1.2,0,3.9,0,3.6,0
							c0.1,0,0.4,0,0.9,0l0,0l3-0.1c2.3,0-0.4,0.1,3,0c1.2,0,2.6,0,3.1-0.1c-0.5,0-1.2,0-1.3,0l1.1,0c0.2,0,1.1,0-1.7,0l-2,0l-0.6,0
							l1.7,0c-0.9,0-1.5,0-2.2,0c-0.2,0-0.5,0-0.8,0l-1.9,0c-0.2,0,0.9,0-0.4-0.1c-0.9,0,0.9,0.1-0.6,0.1c-0.9,0-0.7-0.1-1.8-0.1
							c-0.2,0,0.1,0,0.5,0c-1,0-2.6,0-3.1,0c-1-0.1-3.3,0-3.2-0.1c-0.3,0-1.7,0.1-2.6,0.1c1.6-0.1-3.4-0.1-2.9-0.2
							c-1.2,0.1-4.4,0-6.6,0.1c0.1,0,0.4,0,0.5,0c-1.2,0-1.6-0.1-2.4-0.1c-0.2,0.2-2,0.2-3.1,0.3c-1.5-0.2,0.9-0.2,0.4-0.4
							c0.1,0.1-2.6,0.1-2.1,0.2c-1.1-0.1-1-0.1-1.6-0.2c-0.2,0.2-1.1,0-2,0.2c-1.6-0.1-0.4-0.2-2.2-0.2
							C441.9,164.6,443.5,164.5,443.5,164.5z M400.4,164.7L400.4,164.7c0.4,0,0.7,0,0.9,0C401.1,164.7,400.8,164.7,400.4,164.7z
							 M396.8,164.7c0.4,0,1,0,1.6,0c0.1,0.1,0,0.2-0.4,0.2C398.2,164.8,397.3,164.7,396.8,164.7z M404.4,166.5
							c-0.6,0-0.8,0-0.8-0.1c0.3,0,0.6,0,1,0c0,0,0,0,0.1,0C404.6,166.4,404.5,166.4,404.4,166.5z"/>
						<path fill="#FF8636" d="M405.5,166.1c0.1,0,0.1,0,0.2,0c-0.1,0-0.2,0-0.3-0.1c-0.1,0-0.1,0.1-0.2,0.1
							C405.3,166.1,405.4,166.1,405.5,166.1z"/>
						<path fill="#FF8636" d="M77.2,165.7L77.2,165.7C77.2,165.7,77.2,165.7,77.2,165.7C77.2,165.7,77.2,165.7,77.2,165.7z"/>
						<polygon fill="#FF8636" points="346.8,163.7 346.8,163.8 347.1,163.8 						"/>
						<path fill="#FF8636" d="M57.3,165c0,0-0.1,0-0.3,0C57,165,57.1,165,57.3,165z"/>
						<path fill="#FF8636" d="M48.7,165l-1.2,0C48,165,48.3,165,48.7,165z"/>
						<path fill="#FF8636" d="M42,165c-0.1,0-0.1,0-0.1,0.1c0,0,0,0,0,0L42,165z"/>
						<path fill="#FF8636" d="M147.3,164c0.1,0,0.2,0,0.3,0C148.2,163.9,147.8,163.9,147.3,164z"/>
						<path fill="#FF8636" d="M116,164.9c0.3-0.1,0.7-0.1,1-0.2C116.5,164.7,116,164.7,116,164.9z"/>
						<path fill="#FF8636" d="M182.3,163.4C182.3,163.4,182.3,163.4,182.3,163.4c0.1,0,0.1,0,0.2,0L182.3,163.4z"/>
						<path fill="#FF8636" d="M118.5,164.7c-0.6-0.1-1,0-1.5,0C117.5,164.8,118,164.8,118.5,164.7z"/>
						<path fill="#FF8636" d="M13.3,165.3l-0.3,0c0,0,0,0,0,0L13.3,165.3z"/>
						<path fill="#FF8636" d="M13,165.3l-0.4,0C12.8,165.3,12.9,165.3,13,165.3z"/>
						<path fill="#FF8636" d="M11.9,165.3l0.7,0C12.4,165.3,12,165.3,11.9,165.3z"/>
						<path fill="#FF8636" d="M22.1,165.2l0.1,0C22.1,165.2,22.1,165.2,22.1,165.2z"/>
						<path fill="#FF8636" d="M24.8,165.1c-0.6,0-1.6,0-2.5,0l-0.1,0C22.6,165.1,24.2,165.2,24.8,165.1z"/>
						<path fill="#FF8636" d="M35.9,165.6l-2.2,0c0.4,0,0.9,0.1-0.1,0.1C36.3,165.8,33,165.5,35.9,165.6z"/>
						<path fill="#FF8636" d="M42.8,165.7c-1.2,0,0,0.1,0,0.1C43.5,165.8,43.7,165.7,42.8,165.7z"/>
						<path fill="#FF8636" d="M92.8,166l-0.1,0.2C93.6,166.2,92.7,166.1,92.8,166z"/>
						<polygon fill="#FF8636" points="102.4,164.7 101.5,164.5 101.1,164.7 						"/>
						<polygon fill="#FF8636" points="108,166.6 107.6,166.6 109.2,166.5 						"/>
						<path fill="#FF8636" d="M192.1,166.9l-0.3-0.5C191.2,166.5,191,167,192.1,166.9z"/>
						<path fill="#FF8636" d="M228.4,166.5c0.4,0.2,1.4,0.4,2,0.2C229.6,166.6,228.8,166.4,228.4,166.5z"/>
						<polygon fill="#FF8636" points="337.1,167 336.4,167.1 337.8,167 						"/>
					</g>
				</g>
			</g>
		</g>
	</g>
	<g id="Layer_15">
	</g>
	<g id="Layer_16">
	</g>
	<g id="Layer_17">
	</g>
</g>
<g id="Breakfast">
	<g id="Layer_20">
	</g>
	<g id="Layer_21">
	</g>
</g>
<g id="Layer_24">
</g>
<g id="Layer_22">
</g>
<g id="Layer_23">
</g>
<g id="Layer_2" display="none">
</g>
<g id="guides_landing" display="none">
</g>
</svg>
