<?xml version="1.0" encoding="utf-8"?>
<!-- Generator: Adobe Illustrator 18.1.1, SVG Export Plug-In . SVG Version: 6.00 Build 0)  -->
<!DOCTYPE svg PUBLIC "-//W3C//DTD SVG 1.1//EN" "http://www.w3.org/Graphics/SVG/1.1/DTD/svg11.dtd">
<svg version="1.1" xmlns="http://www.w3.org/2000/svg" xmlns:xlink="http://www.w3.org/1999/xlink" x="0px" y="0px" width="285.5px"
	 height="90px" viewBox="0 0 285.5 90" enable-background="new 0 0 285.5 90" xml:space="preserve">
<g id="Landing">
	<g id="Layer_8">
	</g>
	<g id="Main">
		<g id="navigation">
			<g id="logo">
			</g>
		</g>
		<g id="icons">
		</g>
		<g id="body">
		</g>
	</g>
	<g id="Layer_7">
	</g>
</g>
<g id="first_landing">
	<g id="Logo">
	</g>
</g>
<g id="Layer_18">
</g>
<g id="about">
	<g id="Nav">
		<g>
			<path fill="#FFFFFF" d="M32.9,22.8c-0.9-1.8-2.6-2.6-5-2.6c-1.3,0-2.4,0.4-3.3,1.1c-0.9,0.7-1.5,1.9-2,3.5
				c-0.5,1.6-0.8,3.7-1,6.3c-0.2,2.6-0.3,5.8-0.3,9.5c0,4,0.1,7.2,0.4,9.7c0.3,2.5,0.7,4.4,1.3,5.7c0.6,1.4,1.3,2.3,2.1,2.7
				s1.9,0.7,3,0.7c0.9,0,1.8-0.2,2.6-0.5c0.8-0.3,1.5-1,2.1-1.9s1.1-2.3,1.4-4.1c0.3-1.8,0.5-4.1,0.5-6.9h10.7
				c0,2.9-0.2,5.6-0.7,8.1s-1.3,4.8-2.5,6.7s-2.9,3.4-5.1,4.5c-2.2,1.1-5,1.6-8.5,1.6c-4,0-7.2-0.6-9.5-1.9
				c-2.4-1.3-4.2-3.1-5.4-5.5c-1.3-2.4-2.1-5.3-2.4-8.7c-0.4-3.4-0.6-7.1-0.6-11.1c0-4,0.2-7.7,0.6-11.1c0.4-3.4,1.2-6.3,2.4-8.7
				c1.3-2.4,3.1-4.3,5.4-5.7c2.4-1.4,5.5-2,9.5-2c3.8,0,6.8,0.6,9,1.8c2.2,1.2,3.8,2.8,4.9,4.7c1.1,1.9,1.8,3.9,2,6.1
				s0.4,4.3,0.4,6.2H34.3C34.3,27.4,33.8,24.6,32.9,22.8z"/>
			<path fill="#FFFFFF" d="M50.9,28.7c0.4-3.4,1.2-6.3,2.4-8.7c1.3-2.4,3.1-4.3,5.4-5.7c2.4-1.4,5.5-2,9.5-2s7.2,0.7,9.5,2
				c2.4,1.4,4.2,3.2,5.4,5.7c1.3,2.4,2.1,5.3,2.4,8.7c0.4,3.4,0.6,7.1,0.6,11.1c0,4-0.2,7.7-0.6,11.1c-0.4,3.4-1.2,6.2-2.4,8.7
				c-1.3,2.4-3.1,4.3-5.4,5.5S72.3,67,68.3,67s-7.2-0.6-9.5-1.9c-2.4-1.3-4.2-3.1-5.4-5.5c-1.3-2.4-2.1-5.3-2.4-8.7
				c-0.4-3.4-0.6-7.1-0.6-11.1C50.3,35.8,50.5,32.1,50.9,28.7z M61.2,48.8c0.2,2.5,0.5,4.5,1,6.1s1.3,2.7,2.2,3.4
				c1,0.7,2.2,1.1,3.8,1.1c1.6,0,2.8-0.4,3.8-1.1c1-0.7,1.7-1.9,2.2-3.4c0.5-1.6,0.9-3.6,1-6.1s0.3-5.5,0.3-9.1s-0.1-6.6-0.3-9
				c-0.2-2.5-0.5-4.5-1-6.1c-0.5-1.6-1.3-2.7-2.2-3.4c-1-0.7-2.2-1.1-3.8-1.1c-1.6,0-2.8,0.4-3.8,1.1c-1,0.7-1.7,1.9-2.2,3.4
				c-0.5,1.6-0.9,3.6-1,6.1c-0.2,2.5-0.3,5.5-0.3,9S61.1,46.4,61.2,48.8z"/>
			<path fill="#FFFFFF" d="M117.7,49.6h0.1V13.4h9.8v52.8h-12.1l-13-37h-0.1v37h-9.8V13.4h12.3L117.7,49.6z"/>
			<path fill="#FFFFFF" d="M166,22.1h-11.5v44.1h-10.7V22.1h-11.5v-8.7H166V22.1z"/>
			<path fill="#FFFFFF" d="M190,13.4l14,52.8h-11.1L190.4,55h-14.1l-2.4,11.2h-11.1l14-52.8H190z M188.6,46.3l-5.1-23.8h-0.1
				l-5.1,23.8H188.6z"/>
			<path fill="#FFFFFF" d="M228.9,22.8c-0.9-1.8-2.6-2.6-5-2.6c-1.3,0-2.4,0.4-3.3,1.1c-0.9,0.7-1.5,1.9-2,3.5
				c-0.5,1.6-0.8,3.7-1,6.3c-0.2,2.6-0.3,5.8-0.3,9.5c0,4,0.1,7.2,0.4,9.7c0.3,2.5,0.7,4.4,1.3,5.7c0.6,1.4,1.3,2.3,2.1,2.7
				s1.9,0.7,3,0.7c0.9,0,1.8-0.2,2.6-0.5c0.8-0.3,1.5-1,2.1-1.9s1.1-2.3,1.4-4.1c0.3-1.8,0.5-4.1,0.5-6.9h10.7
				c0,2.9-0.2,5.6-0.7,8.1s-1.3,4.8-2.5,6.7s-2.9,3.4-5.1,4.5c-2.2,1.1-5,1.6-8.5,1.6c-4,0-7.2-0.6-9.5-1.9
				c-2.4-1.3-4.2-3.1-5.4-5.5c-1.3-2.4-2.1-5.3-2.4-8.7c-0.4-3.4-0.6-7.1-0.6-11.1c0-4,0.2-7.7,0.6-11.1c0.4-3.4,1.2-6.3,2.4-8.7
				c1.3-2.4,3.1-4.3,5.4-5.7c2.4-1.4,5.5-2,9.5-2c3.8,0,6.8,0.6,9,1.8c2.2,1.2,3.8,2.8,4.9,4.7c1.1,1.9,1.8,3.9,2,6.1
				s0.4,4.3,0.4,6.2h-10.7C230.2,27.4,229.8,24.6,228.9,22.8z"/>
			<path fill="#FFFFFF" d="M278.3,22.1h-11.5v44.1h-10.7V22.1h-11.5v-8.7h33.7V22.1z"/>
		</g>
		<g opacity="0.6">
			<g>
				<g>
					<g>
						<path fill="#FF8636" d="M38.4,81.9l-0.3,0C38.2,81.9,38.3,81.9,38.4,81.9z"/>
						<path fill="#FF8636" d="M63.6,82.3c-0.2,0-0.3,0-0.3,0.1C63.5,82.3,63.6,82.3,63.6,82.3z"/>
						<path fill="#FF8636" d="M67.9,82.7c-0.1,0-0.2,0-0.3,0C67.7,82.7,67.8,82.8,67.9,82.7z"/>
						<path fill="#FF8636" d="M38.4,81.9l0.7,0.1C39.1,81.9,38.8,81.9,38.4,81.9z"/>
						<path fill="#FF8636" d="M3.4,81.3c-0.1,0-0.3,0-0.4,0L3.4,81.3L3.4,81.3z"/>
						<path fill="#FF8636" d="M27.3,82l-0.2,0c-0.1,0-0.1,0.1-0.2,0.1L27.3,82z"/>
						<path fill="#FF8636" d="M18.8,81.9c0.2,0,0.3-0.1,0.3-0.2c-0.1,0.1-0.3,0.1-0.4,0.1C18.7,81.9,18.7,81.9,18.8,81.9z"/>
						<path fill="#FF8636" d="M5.3,81.6l-0.2,0C5.1,81.6,5.2,81.6,5.3,81.6z"/>
						<path fill="#FF8636" d="M33.4,82.1C33.4,82.2,33.5,82.2,33.4,82.1C33.5,82.2,33.5,82.2,33.4,82.1z"/>
						<path fill="#FF8636" d="M271.6,81.2C271.6,81.2,271.6,81.2,271.6,81.2C271.7,81.2,271.7,81.2,271.6,81.2z"/>
						<polygon fill="#FF8636" points="281.5,81.5 281.4,81.5 281.3,81.5 						"/>
						<path fill="#FF8636" d="M75.8,83.3C75.7,83.3,75.7,83.3,75.8,83.3C75.5,83.3,75.6,83.3,75.8,83.3z"/>
						<path fill="#FF8636" d="M148,83.3c-0.8-0.4,1.3-0.5,0.1-0.9C148.2,82.5,147,83,148,83.3z"/>
						<path fill="#FF8636" d="M3.6,81.4l0.3,0C3.8,81.3,3.7,81.3,3.6,81.4z"/>
						<path fill="#FF8636" d="M148.1,82.4L148.1,82.4l-0.1,0C148,82.3,148,82.4,148.1,82.4z"/>
						<path fill="#FF8636" d="M93.9,83.2c0-0.1-0.1-0.1-0.2-0.2C93.7,83.1,93.8,83.1,93.9,83.2z"/>
						<path fill="#FF8636" d="M80.4,82.6l0.3,0.1C80.6,82.6,80.5,82.6,80.4,82.6z"/>
						<path fill="#FF8636" d="M100.9,82.7c0.2,0,0.2,0.1,0.5,0c0,0,0,0-0.1,0C101.2,82.7,101.1,82.7,100.9,82.7z"/>
						<path fill="#FF8636" d="M108.2,82.7c0,0-0.1-0.1-0.1-0.1c-0.1,0-0.2,0-0.2,0L108.2,82.7z"/>
						<path fill="#FF8636" d="M249.5,80.7c0.2,0.1,0.3,0.1,0.3,0.2C249.7,80.8,250.7,80.7,249.5,80.7z"/>
						<path fill="#FF8636" d="M3.4,81.4c0,0,0.1,0,0.2,0C3.5,81.4,3.5,81.4,3.4,81.4C3.4,81.4,3.4,81.4,3.4,81.4z"/>
						<path fill="#FF8636" d="M101.2,79.5l1.2,0.1C102,79.5,101.6,79.5,101.2,79.5z"/>
						<path fill="#FF8636" d="M197.1,80.1l0.3,0C197.3,80,197.2,80,197.1,80.1z"/>
						<path fill="#FF8636" d="M105.8,79.5c0.2,0.1,0.4,0.2,0.7,0.3c0,0,0.1-0.1,0.1-0.1L105.8,79.5z"/>
						<path fill="#FF8636" d="M249.8,80.9L249.8,80.9L249.8,80.9z"/>
						<path fill="#FF8636" d="M257.4,80.7c-1.1,0-0.5,0.2-0.8,0.3c-1.3,0-0.6-0.2-1.1-0.3c-0.8,0-1.5,0.2-2.1,0.2c0,0-0.2-0.1,0-0.1
							c-0.9,0.2-2.6,0-3.6,0.2c-0.1,0-0.1,0-0.1-0.1c0.2,0.1,0.2,0.3,0.2,0.3c-0.5,0-0.9,0.2-1.1,0c0.3,0,0.3-0.1,0.5-0.1l-0.5,0.1
							c-0.5-0.2,0.7-0.1,0.7-0.2c-1,0.1-2.2,0.3-3,0.2c-0.2-0.2,1.8-0.1,0.8-0.3l1.2,0.1c-0.9-0.4,0.7,0-0.1-0.4
							c-1.6-0.1-1.8,0.1-3.3,0c-0.4,0.1,0.1,0.2-0.2,0.3c-2.2,0.2-1.8-0.7-3.4-0.4c-0.4,0.2-0.6,0.5-1.8,0.3l0.4-0.3
							c-1.5-0.1-0.9,0.4-2.5,0.2c0.3-0.1,1.2-0.1,1-0.1c-1-0.3-0.7,0.2-1.5,0.2l-0.2-0.3c-1.6,0-3.4,0.2-5.2,0.3
							c0.1-0.1,0.4-0.2,0-0.3c-2.3,0.1-4.9-0.1-7-0.3l-0.8,0.3c-0.2,0-0.4-0.1-0.2-0.2c-0.9-0.1,0,0.2-0.5,0.3
							c-0.5,0-0.6-0.2-0.3-0.3c-1.5,0.2-4.3,0.5-5.9,0.2l0.3-0.1c-1.2-0.1-1.4,0.7-2.5,0.3l0.2-0.1c-2.7-0.2-5.7,0.1-7.7-0.4
							c-0.4,0.5-2.7-0.3-2.8,0.5c-1.5-0.4-1.1-0.5-3.3-0.8c-0.6,0-0.9,0.5-1.6,0.5l0-0.4l-1,0.4l-0.5-0.5l-0.7,0.1
							c0.3,0,0.6,0.2,0.5,0.3c-1,0.2-2.5-0.3-2.6-0.5l-2.5,0.3c0.1-0.2,0.5-0.2,0.8-0.3c-1.3,0.4-0.2-0.4-1.4-0.1
							c0.2,0.1-0.1,0.2-0.1,0.3c-0.6-0.3-2-0.3-3-0.2l0.2-0.3c-1.8-0.1-3.9,0.1-5.9,0.1c0.7,0.1,0.6,0.6,0,0.7l-0.2-0.4
							c-0.4,0.3,0.6,0.2-0.2,0.5c-0.8-0.1-0.5-0.5-0.1-0.7l-0.9,0.1c-0.1-0.1,0.2-0.2,0.2-0.4c-0.4,0.3-1.6-0.5-2.2,0l-0.1-0.1
							c-2.1,0-3,0.1-4.7,0.1c0,0.4-0.7,0.3-1.2,0.6c-1.2-0.1-2.6-0.5-4.1-0.4c-1,0.2-0.3,0.3-0.8,0.6c-0.1-0.4-1.6-0.3-0.8-0.6
							c-1.8,0.1-2.3,0.1-4.5,0.4c0.2,0.2,0.5,0.2,0.4,0.3c-0.4,0.1-0.9-0.2-0.9-0.3l0.1,0c-2.5,0.6-5.8-1.1-7.8-0.3l0.1,0l-2.1,0.4
							c-1-0.1,0.6-0.3-0.1-0.5c-2.3,0.6-3.6-0.1-5.4,0.3c-1.4-1.1-5.1,0.1-7-0.6l0.1,0.3c-0.5,0.3-0.6-0.2-1-0.2
							c0.1,0.2,0.5,0.2,0.2,0.4c-4.2,0.3-8.8-0.4-13.1-0.6c-1.6-0.1-0.9,1.4-2.9,0.7l0.6-0.5c-3.2,0.6-6.6,0-9.7,0.5
							c0.2-0.1,0.2-0.3,0.5-0.3c-0.7-0.4-2.5,0-2.5,0.3c-0.5,0-0.1-0.3-0.4-0.4c-0.7-0.2-1.7,0.5-2,0.1c-0.1-0.1,0.2-0.1,0.3-0.1
							c-0.4,0.2-2,0-1.6,0.4c-1.2-0.2-2.3,0.2-3.2,0c-0.6,0.4-2-0.2-2.2,0.4c0.1-0.6-2.1-0.5-2.8-0.2c0.2-0.2-0.6-0.2-0.4-0.5
							c-0.9,0-1.6,0.1-1.5,0.5c-1.6-0.8-3.2,0.6-4-0.3c-2.5,0.4-4.9,0.6-7.1,0.7c0.1-0.6,2.5-0.1,2.4-0.7c-2.2,0.3-3.4,0.8-5.5,0.7
							c-0.6-0.1,0.3-0.3,0.5-0.4c-2.2,0.3-4.2,0-6.1,0.3c0-0.1,0.2-0.1,0.4-0.2c-0.4,0-0.9-0.1-0.8,0.2l0.4-0.1
							c0.6,0.4-1.5,0.8-1.6,1c0.6-0.8-1.9-0.2-0.9-1.1c-0.2,0.1-0.6,0.2-0.5,0.4c-0.4,0-0.5-0.1-0.1-0.3c-1.4,0.2-0.9,0.4-2.1,0.4
							c0-0.1,0.3-0.2,0.4-0.3c-0.6,0.2-1.2,0.5-2.3,0.4c0.1-0.1-0.1-0.2,0.3-0.2c-1.8,0.1-3,0.6-5,0.4c0.6-0.5-0.7-0.2-0.8-0.6
							L66,80.4l0.4,0.2c-0.9,0-1.7,0.3-2.5,0.2l0.7-0.2l-1.7,0.1l1,0.2c-0.9,0.2,0.1,0.5-1.1,0.4c0.2,0-0.9,0-1.4-0.3l0,0
							c-0.5,0.1-0.9,0.3-1.6,0.2c-0.2-0.1,0.1-0.5,0-0.5c-0.4,0.3-2.2,0.1-2.7,0.5c0.2-0.1,0.2-0.3,0.1-0.3l-0.4,0.3
							c-0.4-0.1-0.5-0.1-0.4-0.3c-1.3,0,0.4,0.5-1.1,0.3c0.1,0,0.1-0.1,0.3-0.1c-1.5-0.1-3,0.2-4.4,0.1c-0.4-0.4,1.2-0.1,0.8-0.4
							c-2,0.1-4.2,0.5-6.1,0.4l0.4,0c-0.3,0.5-1.5-0.2-2.4,0c0.2,0,0.3-0.3,0.3-0.2c-1.3-0.1-2.7,0.1-4.8,0.3l0.3-0.1
							c-0.8-0.1-2.1,0-2.9-0.1c-0.3,0.1-0.7,0.1-0.4,0.3c-2.6-0.6-5,0.3-7.4-0.1c0.3,0,0.7-0.1,0.4-0.1l-2,0.1
							c0.2,0.2,0.3,0.1,0.7,0.2c-0.3,0.1-0.8,0.2-1.3,0.2c0.9-0.1,0-0.3-0.4-0.3c0.1,0-0.1,0.1,0,0.1c-1-0.3-0.2,0.3-1.6,0.1
							l0.1-0.1c-0.5,0-1,0.1-1.6,0.1c-0.2-0.2,0.6-0.1,0.6-0.2c-0.8,0-1.6,0.3-2.3,0.2c0.3,0,0.8,0,1.2-0.1
							c-0.8-0.2-0.9-0.1-1.5-0.2l0.1,0l-1.4-0.1l0.3,0c-1,0.4-2,0.1-3.4,0.3c1.3-0.2,0.2-0.1,0.3-0.3c-0.3,0-0.9-0.1-0.7-0.1
							c-0.6,0.1-1.1-0.1-2,0.1c0,0-0.7,0-0.5-0.1c-0.8,0,0.2,0.1,0.1,0.1c-1.3,0.1-3-0.1-4.9,0.1c-1.6,0.1-1.9,0.2-3.4,0.2
							c-0.5,0,0.4-0.1,0.4-0.1c-0.8,0-1.4,0-2.2,0c0.2,0,0,0-0.2-0.1c-0.6,0-0.4,0.1-1.2,0.1c0.1,0,0.3-0.1,0.6-0.1
							c-0.7,0-1.4,0.1-2.2,0.1c-0.2,0,0.4,0,0.7-0.1c-0.8,0-2.2,0.1-2.4,0.1l0.5,0c-0.3,0-0.2,0,0.1,0c0.7,0,1,0,1.1,0l-0.5,0
							c0.5,0.1,2.1,0,3.2,0L3,81.5l1.1-0.1c0.2,0,0.4,0.1-0.1,0.1c0.8,0.1,0.7,0,1.3,0c0.1,0,0,0,0,0l0.7,0c-0.1,0,0.1,0.1-0.3,0.1
							c1.3,0.1,2.2-0.1,2.7,0l-0.1,0c1.9,0,0.2-0.1,1.6-0.2l0.9,0.3l0.2-0.1c0.2,0,0.6,0,0.5,0.1c0.7-0.1-0.1-0.1,0.3-0.1
							c0.9,0.1,2.5-0.1,2.8,0.2c0.3-0.1-0.9-0.1,0.1-0.2c0.3,0.2,1.1,0,2,0.1c-0.3,0.1-1.1,0.1-0.2,0.2c0.5-0.2,1.6,0.1,2.4,0
							c0-0.2,1.5-0.1,2.7-0.1c-0.1,0.1,2.2,0.1,3.4,0.2l0,0c0.2-0.2,1.4-0.2,2.2-0.2c0,0.1-0.2,0.2-0.6,0.3l0.8,0
							c0.2-0.1,0.4-0.1,0.9-0.1l-0.2,0.2c1,0,2.1-0.2,3.4-0.1c0.1-0.2-1.1-0.5,0.4-0.7c0.1,0.1,0.1,0.3-0.3,0.3c0.1,0,0.4-0.1,0.7,0
							l-0.6,0.2c0.6,0.1,0.3-0.1,0.8-0.1c0,0.2,0.4,0.1,0.3,0.2c-0.1,0-0.4-0.1-0.6,0c0.6,0,1.2,0.1,1.4,0.2c0-0.1,0-0.2,0.4-0.2
							c1,0,0.4,0.2,1,0.3c0.3-0.1,0.9,0,0.9-0.2c0.3,0,0.4,0.1,0.5,0.2c0.5-0.1,2.5,0,1.9-0.3L38,81.9c0,0,0.1,0.1,0.1,0.1h0h0
							c1.8,0,3.7,0.1,5.4,0l0,0.1c1-0.1,2.3-0.1,3.1-0.3c0.3,0,0.7,0.2,0.6,0.3c0.8-0.1,0.9-0.2,2,0c-0.8,0.2,0.3,0.2-0.8,0.1
							c1,0.1,1.3,0.3,2.4,0c-0.4,0.3,0.8,0.3,1.3,0.3l-0.7-0.2c0.6,0,1,0,1.5,0l-0.3,0.3c2.1,0.5,3.8-0.7,5.5,0.1
							c0.6-0.2-1.2-0.2-0.7-0.5c1,0.1,2,0.6,2.3,0.6c1.3,0.2,1.3-0.5,2.7-0.4c-0.2-0.1-0.3-0.5,0.7-0.6c1,0.1,1.2,0.6,0.6,0.7
							c-0.2,0-0.3,0-0.3-0.1c-0.3,0-0.7,0.1-0.3,0.3l0.1-0.1c0.5,0.1,1.8,0.1,1.5,0.4c0.7-0.1,0.3-0.2-0.2-0.3c1.3,0.2,2,0,3.3,0.2
							c-0.2-0.1-0.4-0.2-0.2-0.2c1.9,0.2,0.8-0.3,2.1-0.3c0.7,0.2-0.3,0.5,1,0.3c0.8,0.2,0.2,0.4-0.1,0.5c1.2-0.3,2.2,0.2,2.9,0.3
							l-0.6,0.1c0.4-0.1,0.7-0.1,1-0.1L73.3,83c0.4,0.1,0.7,0.1,0.7,0.2c0.4-0.2-0.3-0.5,0.5-0.8c0.5,0.2,1.5-0.2,1.6,0.2
							c-1.5-0.1,0.2,0.4-1.1,0.5c0.2,0,0.6,0,0.9,0c0.1,0-0.1,0.1-0.2,0.1c1.5,0.4,0.7-0.4,2.2-0.4c-0.2,0.2,0.4,0.4,0.6,0.4
							c-0.6,0-0.3-0.4,0.3-0.6c1,0.2,1.1-0.1,1.6-0.1l-0.6-0.1c0.2-0.2,0.7-0.2,1.4-0.3c0.1,0.2-0.6,0.1-0.4,0.2
							c0.8-0.4,1.7,0.4,2.7,0.2c0.5,0.2,0,0.4,0.5,0.6c1.2-0.3,1.3,0.3,2.5,0.1c-0.4-0.3-0.4-0.2,0.5-0.5l-2,0.2l1.3-0.5
							c-0.6,0-1.3,0.2-1.7,0.1c0.6-0.3,0.6-0.2,0.3-0.4c0.8,0.5,1.7-0.3,2.6,0.1l0,0.8c1.5,0.4,2.6-0.4,4.5-0.2l-0.6-0.1
							c0.3-0.3,1.2,0,1.8-0.2c-0.1,0.3,0.3,0.4,0.6,0.5c0-0.2,1.4,0,1.6-0.5l0.8,0.4c1.5,0.2,1.7-0.8,3.2-0.7
							c-0.4,0.3,0.2,0.5-0.8,0.7c0.5,0,0.9,0.1,0.9-0.1c0.3,0.2,1.4-0.4,1.8-0.1c0.2-0.1,0.3-0.4,0.8-0.4c0.1,0.1,0,0.1,0,0.1
							c0-0.1,0.9-0.2,0.4-0.5c1.5,0.9,4.2-0.1,5.5,0.7c1.1-0.1,2.4-0.2,3.3-0.2c-0.1,0.1,0,0.1-0.2,0.1c1.3,0.3,0.8-0.8,2.4-0.5
							c0.8,0.5-0.8,0.3-0.3,0.4c0.2,1,1.8-0.1,2.9,0.4l-0.2,0.1c0.8,0.3,1.9-0.4,3.2-0.3c0,0-0.1,0.1,0,0.1c0.9-0.5,2.5-0.6,3.8-0.8
							c-0.4,0.4-0.6,0.2-0.3,0.6c0.6-0.1-0.2-0.6,0.9-0.7c0.4,0.2,1.2,0.4,1.3,0.8l-1,0c0.5,0.5,1.3,0,1.9,0.1l-0.1,0.2
							c1.6-0.1,1.6-0.7,3.3-0.6l-0.2-0.2c0.9-0.6,0.8,0.3,1.7-0.1l0.3,0.6c0.6-0.1,2.2-0.6,3.3-0.7c-0.6,0.4-1.9,0.7-2.7,0.9
							c0.6,0,2.1,0,2.4-0.3c-0.2,0.1-0.6,0.2-0.8,0.1c0.8-0.5,1.7-0.7,3-0.7c-0.2,1.1,3.2,0.3,4.1,1.2c2.2-0.4,4.3,0.2,6.8,0.1
							c-0.9-0.9,0.7,0,0.6-0.9c0.6-0.1,0.8,0,0.9,0l1.8,0.5c0.4,0.3-0.6,0.2-0.5,0.4c1.3,0.1,0.5,0.4,1.4,0.6
							c-0.2-0.3,0.4-0.5,1.2-0.3l-1-0.4c1.8-0.5,1.6,0.8,3.4,0.3l-0.6,0.3c0.9-0.2,3.4,0,4.3-0.7c0.2,0.1,0.4,0.3,0,0.4
							c2.2,0.1,4.9-0.8,6.7-0.3l-0.2,0.2c0.4-0.1,0.7-0.4,1.2-0.2c0,0.1-0.2,0.2,0,0.2c0.2-0.1,1.1-0.4,1.6-0.3l-0.5,0.2
							c2.2,0.3,3.3-0.6,5.1-0.8c0,0.6,1.7,0.8,2.5,0.9l0,0.1c2.5,0.1,4.3-0.5,6.6-0.8c1.4,0.7,4.9,0.2,7.2,0.6
							c-0.4-0.1,0.1-0.5,0.5-0.5c0.5,0.1,1.5-0.4,1.4,0.1l-0.2,0c0.4,0.5,1.5,0.4,2.4,0.4l0.1-0.7c2.3,1,6-0.4,7.3,0.5
							c0.6-0.2,1.2-0.2,1.8-0.3l0,0.4c1.5,0.1,2.3,0.1,4.2,0l-0.4,0.3c1.1,0,1.3-1,2.3-1l0.3,0.5c1.9,0,3.8,0.4,5.6-0.1
							c0,0.1-0.1,0.2-0.4,0.2c0.9,0,3.4,0.3,3.1-0.4c0,0.4,1.9,0,2.9-0.2l-0.2,0.3c0.9-0.4,0.9-0.5,2.1-0.6c0.3,0,0.2,0.2-0.1,0.2
							c0.9,0.1,0.7-0.3,1.9-0.1l-0.4,0.2c1,0,0.9-0.1,1.4-0.3c0.6-0.1,1.8,0.1,2,0.3c0.1-0.2,0.7-0.4,1.2-0.3
							c0.1,0.1-0.1,0.2-0.2,0.2c1.6,0.2,2.4-0.3,3.5-0.1c0,0.1,0.1,0.1,0.2,0.2c-1.3,0-2.3,0-2.2,0c0,0.3,1,0.3,0.2,0.6
							c0.8-0.2,2.3-0.6,3.3-0.5c0,0,0.1,0,0.1,0.1l-0.1,0c0.2,0,0.4,0,0.6,0c0.3,0,0.5,0.1,0.8,0.1c0.1,0.2,1.2,0.1,1.7,0.1
							c0-0.2,0.6-0.2,0-0.4c0.1,0-0.1,0-0.4,0c-0.1,0-0.2,0-0.2,0l0,0c-0.3,0-0.8,0-1.3,0c0.4-0.1,0.8-0.2,1.4-0.1
							c0.3-0.2,0.6-0.3,0.7-0.4c0.7,0.3,2.1,0.5,2.3,0.7c1.6-0.2,3.7-0.2,4.7-0.6c0.4-0.1,0.5,0.1,0.7,0.2c-0.3,0-0.6,0-0.7,0.1
							c0.9-0.1,2.7-0.1,2.9-0.4c1.1,0.1-0.6,0.3,0.9,0.2l-0.2,0.1c3.1,0.3,5-0.7,8.3-0.2c-0.2,0-0.4,0-0.4-0.1
							c3.9,0.1,7.9-0.2,11.8,0c1.1,0,1.2-0.1,1.9-0.1l0.2,0.1l1.1-0.1c1.6-0.1,2.8,0.2,4.8,0l-0.3,0c0.7,0,2.3,0,2.2,0
							c0.1,0,0.2,0,0.5,0l0,0l1.8-0.1c1.4,0-0.2,0.1,1.8,0c0.7,0,1.6,0,1.9-0.1c-0.3,0-0.7,0-0.8,0l0.7,0c0.1,0,0.7,0-1,0l-1.2,0
							l-0.4,0l1,0c-0.6,0-0.9,0-1.3,0c-0.1,0-0.3,0-0.5,0l-1.2,0c-0.1,0,0.5,0-0.3-0.1c-0.5,0,0.5,0.1-0.4,0.1
							c-0.6,0-0.4-0.1-1.1-0.1c-0.1,0,0,0,0.3,0c-0.6,0-1.6,0-1.9,0c-0.6-0.1-2,0-1.9-0.1c-0.2,0-1,0.1-1.6,0.1c1-0.1-2-0.1-1.8-0.2
							c-0.7,0.1-2.6,0-3.9,0.1c0.1,0,0.2,0,0.3,0c-0.7,0-0.9-0.1-1.4-0.1c-0.1,0.2-1.2,0.2-1.8,0.3c-0.9-0.2,0.5-0.2,0.3-0.4
							c0,0.1-1.6,0.1-1.2,0.2c-0.7-0.1-0.6-0.1-0.9-0.2c-0.1,0.2-0.6,0-1.2,0.2c-1-0.1-0.3-0.2-1.3-0.2
							C256.5,80.7,257.4,80.7,257.4,80.7z M231.6,80.8L231.6,80.8c0.2,0,0.4,0,0.5,0C232,80.8,231.9,80.8,231.6,80.8z M229.5,80.8
							c0.3,0,0.6,0,0.9,0c0.1,0.1,0,0.2-0.2,0.2C230.3,81,229.8,80.9,229.5,80.8z M234,82.6c-0.3,0-0.5,0-0.5-0.1
							C233.7,82.5,233.9,82.5,234,82.6c0.1-0.1,0.1-0.1,0.1-0.1C234.1,82.5,234.1,82.6,234,82.6z"/>
						<path fill="#FF8636" d="M234.7,82.3c0,0,0.1,0,0.1,0C234.7,82.2,234.7,82.2,234.7,82.3c-0.1,0-0.1,0-0.2,0
							C234.5,82.3,234.6,82.3,234.7,82.3z"/>
						<path fill="#FF8636" d="M38.1,81.9L38.1,81.9C38.1,81.9,38.1,81.9,38.1,81.9C38.1,81.9,38.1,81.9,38.1,81.9z"/>
						<polygon fill="#FF8636" points="199.5,79.9 199.5,80 199.7,79.9 						"/>
						<path fill="#FF8636" d="M26.2,81.2c0,0-0.1,0-0.2,0C26,81.1,26.1,81.1,26.2,81.2z"/>
						<path fill="#FF8636" d="M21,81.2l-0.7,0C20.6,81.2,20.8,81.2,21,81.2z"/>
						<path fill="#FF8636" d="M17.1,81.2C17,81.2,17,81.2,17.1,81.2L17.1,81.2L17.1,81.2z"/>
						<path fill="#FF8636" d="M80.1,80.1c0.1,0,0.1,0,0.2,0C80.6,80,80.4,80.1,80.1,80.1z"/>
						<path fill="#FF8636" d="M61.3,81.1c0.2-0.1,0.4-0.1,0.6-0.2C61.6,80.9,61.4,80.9,61.3,81.1z"/>
						<path fill="#FF8636" d="M101.1,79.5L101.1,79.5c0,0,0.1,0,0.1,0L101.1,79.5z"/>
						<path fill="#FF8636" d="M62.8,80.9c-0.3-0.1-0.6,0-0.9,0C62.2,80.9,62.5,80.9,62.8,80.9z"/>
						<path fill="#FF8636" d="M5.1,81.3L5.1,81.3C5.1,81.3,5.1,81.3,5.1,81.3z"/>
						<path fill="#FF8636" d="M6.7,81.3c-0.4,0-1,0-1.5,0l0,0C5.4,81.3,6.3,81.4,6.7,81.3z"/>
						<path fill="#FF8636" d="M13.4,81.7l-1.3,0c0.2,0,0.5,0.1-0.1,0.1C13.7,82,11.6,81.7,13.4,81.7z"/>
						<path fill="#FF8636" d="M17.5,81.9c-0.7,0,0,0.1,0,0.1C17.9,81.9,18.1,81.9,17.5,81.9z"/>
						<path fill="#FF8636" d="M47.5,82.2l-0.1,0.2C48,82.4,47.4,82.3,47.5,82.2z"/>
						<polygon fill="#FF8636" points="53.2,80.8 52.7,80.7 52.4,80.9 						"/>
						<polygon fill="#FF8636" points="56.6,82.8 56.3,82.8 57.3,82.7 						"/>
						<path fill="#FF8636" d="M106.9,83l-0.2-0.5C106.4,82.7,106.3,83.2,106.9,83z"/>
						<path fill="#FF8636" d="M128.6,82.6c0.2,0.2,0.8,0.4,1.2,0.2C129.4,82.7,128.9,82.6,128.6,82.6z"/>
						<polygon fill="#FF8636" points="193.8,83.2 193.3,83.3 194.1,83.2 						"/>
					</g>
				</g>
			</g>
		</g>
	</g>
	<g id="Layer_15">
	</g>
	<g id="Layer_16">
	</g>
	<g id="Layer_17">
	</g>
</g>
<g id="Breakfast">
	<g id="Layer_20">
	</g>
	<g id="Layer_21">
	</g>
</g>
<g id="Layer_22">
</g>
<g id="Layer_23">
</g>
<g id="Layer_2" display="none">
</g>
<g id="guides_landing" display="none">
</g>
</svg>
