<?xml version="1.0" encoding="utf-8"?>
<!-- Generator: Adobe Illustrator 18.1.1, SVG Export Plug-In . SVG Version: 6.00 Build 0)  -->
<!DOCTYPE svg PUBLIC "-//W3C//DTD SVG 1.1//EN" "http://www.w3.org/Graphics/SVG/1.1/DTD/svg11.dtd">
<svg version="1.1" xmlns="http://www.w3.org/2000/svg" xmlns:xlink="http://www.w3.org/1999/xlink" x="0px" y="0px" width="301.5px"
	 height="81px" viewBox="0 0 301.5 81" enable-background="new 0 0 301.5 81" xml:space="preserve">
<g id="Landing">
	<g id="Layer_8">
	</g>
	<g id="Main">
		<g id="navigation">
			<g id="logo">
			</g>
		</g>
		<g id="icons">
		</g>
		<g id="body">
		</g>
	</g>
	<g id="Layer_7">
	</g>
</g>
<g id="first_landing">
	<g id="Logo">
	</g>
</g>
<g id="Layer_18">
</g>
<g id="about">
	<g id="Nav">
		<g>
			<path fill="#FFFFFF" d="M52.5,5.7c2.7,0,5,0.5,6.8,1.4c1.8,0.9,3.3,2.1,4.5,3.6c1.1,1.5,1.9,3.2,2.4,5.1c0.5,1.9,0.7,3.8,0.7,5.8
				c0,2.7-0.4,5.1-1.2,7.1c-0.8,2-1.9,3.7-3.4,5c-1.5,1.3-3.2,2.2-5.3,2.9c-2.1,0.6-4.4,1-6.9,1h-5.7v21.1H33.9V5.7H52.5z
				 M49.3,29.6c2.1,0,3.8-0.6,5.1-1.9c1.3-1.3,2-3.3,2-6c0-2.7-0.6-4.7-1.7-6.1c-1.1-1.4-3-2.1-5.7-2.1h-4.4v16.1H49.3z"/>
			<path fill="#FFFFFF" d="M92,5.7c4.4,0,7.9,1.1,10.4,3.4c2.5,2.2,3.7,5.7,3.7,10.2c0,3.6-0.7,6.5-2.1,8.7
				c-1.4,2.2-3.7,3.7-6.7,4.3v0.1c2.7,0.4,4.6,1.3,5.8,2.6c1.2,1.3,2,3.5,2.3,6.4c0.1,1,0.2,2.1,0.2,3.2c0,1.2,0.1,2.5,0.1,3.9
				c0.1,2.8,0.2,5,0.4,6.4c0.3,1.5,0.9,2.5,1.9,3v0.4H96.6c-0.5-0.7-0.9-1.6-1-2.6c-0.1-1-0.2-2-0.3-3l-0.3-10.1
				c-0.1-2.1-0.6-3.7-1.6-4.9c-0.9-1.2-2.5-1.8-4.7-1.8h-5.7v22.3H72.3V5.7H92z M87.4,28.7c2.6,0,4.5-0.6,5.9-1.8
				c1.4-1.2,2.1-3.2,2.1-6.1c0-4.9-2.5-7.3-7.4-7.3h-5v15.2H87.4z"/>
			<path fill="#FFFFFF" d="M113.9,5.7h10.7v52.8h-10.7V5.7z"/>
			<path fill="#FFFFFF" d="M153.7,15.1c-0.9-1.8-2.6-2.6-5-2.6c-1.3,0-2.4,0.4-3.3,1.1c-0.9,0.7-1.5,1.9-2,3.5
				c-0.5,1.6-0.8,3.7-1,6.3c-0.2,2.6-0.3,5.8-0.3,9.5c0,4,0.1,7.2,0.4,9.7c0.3,2.5,0.7,4.4,1.3,5.7c0.6,1.4,1.3,2.3,2.1,2.7
				s1.9,0.7,3,0.7c0.9,0,1.8-0.2,2.6-0.5c0.8-0.3,1.5-1,2.1-1.9s1.1-2.3,1.4-4.1c0.3-1.8,0.5-4.1,0.5-6.9h10.7
				c0,2.9-0.2,5.6-0.7,8.1s-1.3,4.8-2.5,6.7s-2.9,3.4-5.1,4.5c-2.2,1.1-5,1.6-8.5,1.6c-4,0-7.2-0.6-9.5-1.9
				c-2.4-1.3-4.2-3.1-5.4-5.5c-1.3-2.4-2.1-5.3-2.4-8.7c-0.4-3.4-0.6-7.1-0.6-11.1c0-4,0.2-7.7,0.6-11.1c0.4-3.4,1.2-6.3,2.4-8.7
				c1.3-2.4,3.1-4.3,5.4-5.7c2.4-1.4,5.5-2,9.5-2c3.8,0,6.8,0.6,9,1.8c2.2,1.2,3.8,2.8,4.9,4.7c1.1,1.9,1.8,3.9,2,6.1
				s0.4,4.3,0.4,6.2h-10.7C155.1,19.6,154.6,16.8,153.7,15.1z"/>
			<path fill="#FFFFFF" d="M172.8,5.7h10.7v52.8h-10.7V5.7z"/>
			<path fill="#FFFFFF" d="M216.5,41.8h0.1V5.7h9.8v52.8h-12.1l-13-37h-0.1v37h-9.8V5.7h12.3L216.5,41.8z"/>
			<path fill="#FFFFFF" d="M256.9,18.3c-0.2-1-0.6-2-1.1-2.8c-0.5-0.9-1.1-1.6-1.9-2.1c-0.8-0.6-1.7-0.9-2.8-0.9
				c-2.6,0-4.4,1.4-5.5,4.3c-1.1,2.9-1.7,7.6-1.7,14.2c0,3.2,0.1,6,0.3,8.6c0.2,2.6,0.6,4.7,1.1,6.5s1.3,3.2,2.2,4.1
				s2.2,1.4,3.7,1.4c0.6,0,1.3-0.2,2.1-0.5c0.8-0.3,1.5-0.9,2.1-1.6c0.7-0.7,1.2-1.6,1.7-2.6c0.4-1.1,0.7-2.3,0.7-3.7v-5.4h-7V30
				h17.2v28.5h-7.8v-4.9h-0.1c-1.3,2.1-2.8,3.5-4.6,4.4c-1.8,0.9-4,1.3-6.5,1.3c-3.3,0-5.9-0.6-8-1.7c-2-1.1-3.7-2.9-4.8-5.3
				c-1.2-2.4-1.9-5.3-2.3-8.8c-0.4-3.5-0.6-7.5-0.6-12.1c0-4.4,0.3-8.3,0.9-11.7c0.6-3.4,1.5-6.2,2.9-8.4c1.4-2.2,3.2-3.9,5.5-5.1
				c2.3-1.1,5.1-1.7,8.5-1.7c5.8,0,10,1.4,12.6,4.3c2.6,2.9,3.8,7,3.8,12.4h-10.2C257.3,20.4,257.2,19.3,256.9,18.3z"/>
		</g>
		<g opacity="0.6">
			<g>
				<g>
					<g>
						<path fill="#FF8636" d="M7.5,76.8c-0.2,0-0.1,0,0.3,0l0.3,0L7.5,76.8z"/>
						<path fill="#FF8636" d="M10.3,76.8c0.5,0,1.1,0,0.7-0.1c-0.5,0-0.5,0-1.1,0.1c-0.4,0-0.7,0-0.7,0c-0.2,0-0.6,0-0.9,0
							C8.9,76.8,9.6,76.8,10.3,76.8C10.5,76.8,10.3,76.8,10.3,76.8z"/>
						<path fill="#FF8636" d="M50.9,77.2l-0.3,0C50.7,77.2,50.8,77.2,50.9,77.2z"/>
						<path fill="#FF8636" d="M76.1,77.6c-0.2,0-0.3,0-0.3,0.1C76,77.6,76.1,77.6,76.1,77.6z"/>
						<path fill="#FF8636" d="M80.4,78c-0.1,0-0.2,0-0.3,0C80.2,78,80.3,78.1,80.4,78z"/>
						<path fill="#FF8636" d="M50.9,77.2l0.7,0.1C51.6,77.2,51.2,77.2,50.9,77.2z"/>
						<path fill="#FF8636" d="M15.9,76.6c-0.1,0-0.3,0-0.4,0L15.9,76.6L15.9,76.6z"/>
						<path fill="#FF8636" d="M39.8,77.3l-0.2,0c-0.1,0-0.1,0.1-0.2,0.1L39.8,77.3z"/>
						<path fill="#FF8636" d="M31.3,77.2c0.2,0,0.3-0.1,0.3-0.2c-0.1,0.1-0.3,0.1-0.4,0.1C31.2,77.2,31.2,77.2,31.3,77.2z"/>
						<path fill="#FF8636" d="M17.8,76.9l-0.2,0C17.6,76.9,17.7,76.9,17.8,76.9z"/>
						<path fill="#FF8636" d="M45.9,77.4C45.9,77.5,45.9,77.5,45.9,77.4C46,77.5,45.9,77.5,45.9,77.4z"/>
						<path fill="#FF8636" d="M284.1,76.5C284.1,76.5,284.1,76.5,284.1,76.5C284.1,76.5,284.2,76.5,284.1,76.5z"/>
						<polygon fill="#FF8636" points="294,76.8 293.8,76.8 293.8,76.8 						"/>
						<path fill="#FF8636" d="M88.2,78.5C88.2,78.5,88.2,78.5,88.2,78.5C88,78.6,88.1,78.6,88.2,78.5z"/>
						<path fill="#FF8636" d="M160.4,78.6c-0.8-0.4,1.3-0.5,0.1-0.9C160.7,77.8,159.4,78.3,160.4,78.6z"/>
						<path fill="#FF8636" d="M16.1,76.6l0.3,0C16.3,76.6,16.2,76.6,16.1,76.6z"/>
						<path fill="#FF8636" d="M160.5,77.7L160.5,77.7l-0.1,0C160.5,77.6,160.5,77.6,160.5,77.7z"/>
						<path fill="#FF8636" d="M106.4,78.5c0-0.1-0.1-0.1-0.2-0.2C106.2,78.3,106.2,78.4,106.4,78.5z"/>
						<path fill="#FF8636" d="M92.9,77.9l0.3,0.1C93.1,77.9,92.9,77.9,92.9,77.9z"/>
						<path fill="#FF8636" d="M113.4,78c0.2,0,0.2,0.1,0.5,0c0,0,0,0-0.1,0C113.7,78,113.6,78,113.4,78z"/>
						<path fill="#FF8636" d="M120.7,78c0,0-0.1-0.1-0.1-0.1c-0.1,0-0.2,0-0.2,0L120.7,78z"/>
						<path fill="#FF8636" d="M261.9,76c0.2,0.1,0.3,0.1,0.3,0.2C262.1,76.1,263.2,76,261.9,76z"/>
						<path fill="#FF8636" d="M15.9,76.7c0,0,0.1,0,0.2,0C16,76.6,15.9,76.6,15.9,76.7C15.8,76.7,15.8,76.7,15.9,76.7z"/>
						<path fill="#FF8636" d="M113.7,74.8l1.2,0.1C114.5,74.8,114.1,74.8,113.7,74.8z"/>
						<path fill="#FF8636" d="M209.6,75.4l0.3,0C209.7,75.3,209.6,75.3,209.6,75.4z"/>
						<path fill="#FF8636" d="M118.3,74.8c0.2,0.1,0.4,0.2,0.7,0.3c0,0,0.1-0.1,0.1-0.1L118.3,74.8z"/>
						<path fill="#FF8636" d="M262.3,76.2L262.3,76.2L262.3,76.2z"/>
						<path fill="#FF8636" d="M269.9,76c-1.1,0-0.5,0.2-0.8,0.3c-1.3,0-0.6-0.2-1.1-0.3c-0.8,0-1.5,0.2-2.1,0.2c0,0-0.2-0.1,0-0.1
							c-0.9,0.2-2.6,0-3.6,0.2c-0.1,0-0.1,0-0.1-0.1c0.2,0.1,0.2,0.3,0.2,0.3c-0.5,0-0.9,0.2-1.1,0c0.3,0,0.3-0.1,0.5-0.1l-0.5,0.1
							c-0.5-0.2,0.7-0.1,0.7-0.2c-1,0.1-2.2,0.3-3,0.2c-0.2-0.2,1.8-0.1,0.8-0.3l1.2,0.1c-0.9-0.4,0.7,0-0.1-0.4
							c-1.6-0.1-1.8,0.1-3.3,0c-0.4,0.1,0.1,0.2-0.2,0.3c-2.2,0.2-1.8-0.7-3.4-0.4c-0.4,0.2-0.6,0.5-1.8,0.3l0.4-0.3
							c-1.5-0.1-0.9,0.4-2.5,0.2c0.3-0.1,1.2-0.1,1-0.1c-1-0.3-0.7,0.2-1.5,0.2l-0.2-0.3c-1.6,0-3.4,0.2-5.2,0.3
							c0.1-0.1,0.4-0.2,0-0.3c-2.3,0.1-4.9-0.1-7-0.3l-0.8,0.3c-0.2,0-0.4-0.1-0.2-0.2c-0.9-0.1,0,0.2-0.5,0.3
							c-0.5,0-0.6-0.2-0.3-0.3c-1.5,0.2-4.3,0.5-5.9,0.2l0.3-0.1c-1.2-0.1-1.4,0.7-2.5,0.3l0.2-0.1c-2.7-0.2-5.7,0.1-7.7-0.4
							c-0.4,0.5-2.7-0.3-2.8,0.5c-1.5-0.4-1.1-0.5-3.3-0.8c-0.6,0-0.9,0.5-1.6,0.5l0-0.4l-1,0.4l-0.5-0.5l-0.7,0.1
							c0.3,0,0.6,0.2,0.5,0.3c-1,0.2-2.5-0.3-2.6-0.5l-2.5,0.3c0.1-0.2,0.5-0.2,0.8-0.3c-1.3,0.4-0.2-0.4-1.4-0.1
							c0.2,0.1-0.1,0.2-0.1,0.3c-0.6-0.3-2-0.3-3-0.2l0.2-0.3c-1.8-0.1-3.9,0.1-5.9,0.1c0.7,0.1,0.6,0.6,0,0.7l-0.2-0.4
							c-0.4,0.3,0.6,0.2-0.2,0.5c-0.8-0.1-0.5-0.5-0.1-0.7l-0.9,0.2c-0.1-0.1,0.2-0.2,0.2-0.4c-0.4,0.3-1.6-0.5-2.2,0l-0.1-0.1
							c-2.1,0-3,0.1-4.7,0.1c0,0.4-0.7,0.3-1.2,0.6c-1.2-0.1-2.6-0.5-4.1-0.4c-1,0.2-0.3,0.3-0.8,0.6c-0.1-0.4-1.6-0.3-0.8-0.6
							c-1.8,0.1-2.3,0.1-4.5,0.4c0.2,0.2,0.5,0.2,0.4,0.3c-0.4,0.1-0.9-0.2-0.9-0.3l0.1,0c-2.5,0.6-5.8-1.1-7.8-0.3l0.1,0l-2.1,0.4
							c-1-0.1,0.6-0.3-0.1-0.5c-2.3,0.6-3.6-0.1-5.4,0.3c-1.4-1.1-5.1,0.1-7-0.6l0.1,0.3c-0.5,0.3-0.6-0.2-1-0.2
							c0.1,0.2,0.5,0.2,0.2,0.4c-4.2,0.3-8.8-0.4-13.1-0.6c-1.6-0.1-0.9,1.4-2.9,0.7l0.6-0.5c-3.2,0.6-6.6,0-9.7,0.5
							c0.2-0.1,0.2-0.3,0.5-0.3c-0.7-0.4-2.5,0-2.5,0.3c-0.5,0-0.1-0.3-0.4-0.4c-0.7-0.2-1.7,0.5-2,0.1c-0.1-0.1,0.2-0.1,0.3-0.1
							c-0.4,0.2-2,0-1.6,0.4c-1.2-0.2-2.3,0.2-3.2,0c-0.6,0.4-2-0.2-2.2,0.4c0.1-0.6-2.1-0.5-2.8-0.2c0.2-0.2-0.6-0.2-0.4-0.5
							c-0.9,0-1.6,0.1-1.5,0.5c-1.6-0.8-3.2,0.6-4-0.3c-2.5,0.4-4.9,0.6-7.1,0.7c0.1-0.6,2.5-0.1,2.4-0.7c-2.2,0.3-3.4,0.8-5.5,0.7
							c-0.6-0.1,0.3-0.3,0.5-0.4c-2.2,0.3-4.2,0-6.1,0.3c0-0.1,0.2-0.1,0.4-0.2c-0.4,0-0.9-0.1-0.8,0.2l0.4-0.1
							c0.6,0.4-1.5,0.8-1.6,1c0.6-0.8-1.9-0.2-0.9-1.1c-0.2,0.1-0.6,0.2-0.5,0.3c-0.4,0-0.5-0.1-0.1-0.3c-1.4,0.2-0.9,0.4-2.1,0.4
							c0-0.1,0.3-0.2,0.4-0.3c-0.6,0.2-1.2,0.5-2.3,0.4c0.1-0.1-0.1-0.2,0.3-0.2c-1.8,0.1-3,0.6-5,0.4c0.6-0.5-0.7-0.2-0.8-0.6
							l-1,0.1l0.4,0.2c-0.9,0-1.7,0.3-2.5,0.2l0.7-0.2L75.4,76l1,0.2c-0.9,0.2,0.1,0.5-1.1,0.4c0.2,0-0.9,0-1.4-0.3l0,0
							c-0.5,0.1-0.9,0.3-1.6,0.2c-0.2-0.1,0.1-0.5,0-0.5c-0.4,0.3-2.2,0.1-2.7,0.5c0.2-0.1,0.2-0.3,0.1-0.3l-0.4,0.3
							c-0.4-0.1-0.5-0.1-0.4-0.3c-1.3,0,0.4,0.5-1.1,0.3c0.1,0,0.1-0.1,0.3-0.1c-1.5-0.1-3,0.2-4.4,0.1c-0.4-0.4,1.2-0.1,0.8-0.4
							c-2,0.1-4.2,0.5-6.1,0.4l0.4,0c-0.3,0.5-1.5-0.2-2.4,0c0.2,0,0.3-0.3,0.3-0.2c-1.3-0.1-2.7,0.1-4.8,0.3l0.3-0.1
							c-0.8-0.1-2.1,0-2.9-0.1c-0.3,0.1-0.7,0.1-0.4,0.3c-2.6-0.6-5,0.3-7.4-0.1c0.3,0,0.7-0.1,0.4-0.1l-2,0.1
							c0.2,0.2,0.3,0.1,0.7,0.2c-0.3,0.1-0.8,0.2-1.3,0.2c0.9-0.1,0-0.3-0.4-0.3c0.1,0-0.1,0.1,0,0.1c-1-0.3-0.2,0.3-1.6,0.1
							l0.1-0.1c-0.5,0-1,0.1-1.6,0.1c-0.2-0.2,0.6-0.1,0.6-0.2c-0.8,0-1.6,0.3-2.3,0.2c0.3,0,0.8,0,1.2-0.1
							c-0.8-0.2-0.9-0.1-1.5-0.2l0.1,0l-1.4-0.1l0.3,0c-1,0.4-2,0.1-3.4,0.3c1.3-0.2,0.2-0.1,0.3-0.3c-0.3,0-0.9-0.1-0.7-0.1
							c-0.6,0.1-1.1-0.1-2,0.1c0,0-0.7,0-0.5-0.1c-0.8,0,0.2,0.1,0.1,0.1c-1.3,0.1-3-0.1-4.9,0.1c-1.6,0.1-1.9,0.2-3.4,0.2
							c-0.5,0,0.4-0.1,0.4-0.1c-0.8,0-1.4,0-2.2,0c0.2,0,0,0-0.2-0.1c-0.6,0-0.4,0.1-1.2,0.1c0.1,0,0.3-0.1,0.6-0.1
							c-0.7,0-1.4,0.1-2.2,0.1c-0.2,0,0.4,0,0.7-0.1c-0.8,0-2.2,0.1-2.4,0.1l0.5,0c-0.3,0-0.2,0,0.1,0c0.7,0,1,0,1.1,0l-0.5,0
							c0.5,0.1,2.1,0,3.2,0l-0.4,0.1l1.1-0.1c0.2,0,0.4,0.1-0.1,0.1c0.8,0.1,0.7,0,1.3,0c0.1,0,0,0,0,0l0.7,0
							c-0.1,0,0.1,0.1-0.3,0.1c1.3,0.1,2.2-0.1,2.7,0l-0.1,0c1.9,0,0.2-0.1,1.6-0.2l0.9,0.3l0.2-0.1c0.2,0,0.6,0,0.5,0.1
							c0.7-0.1-0.1-0.1,0.3-0.1c0.9,0.1,2.5-0.1,2.8,0.2c0.3-0.1-0.9-0.1,0.1-0.2c0.3,0.2,1.1,0,2,0.1c-0.3,0.1-1.1,0.1-0.2,0.2
							c0.5-0.2,1.6,0.1,2.4,0c0-0.2,1.5-0.1,2.7-0.1c-0.1,0.1,2.2,0.1,3.4,0.2l0,0c0.2-0.2,1.4-0.2,2.2-0.2c0,0.1-0.2,0.2-0.6,0.3
							l0.8,0c0.2-0.1,0.4-0.1,0.9-0.1l-0.2,0.2c1,0,2.1-0.2,3.4-0.1c0.1-0.2-1.1-0.5,0.4-0.7c0.1,0.1,0.1,0.3-0.3,0.3
							c0.1,0,0.4-0.1,0.7,0L44,77.1c0.6,0.1,0.3-0.1,0.8-0.1c0,0.2,0.4,0.1,0.3,0.2c-0.1,0-0.4-0.1-0.6,0c0.6,0,1.2,0.1,1.4,0.2
							c0-0.1,0-0.2,0.4-0.2c1,0,0.4,0.2,1,0.3c0.3-0.1,0.9,0,0.9-0.2c0.3,0,0.4,0.1,0.5,0.2c0.5-0.1,2.5,0,1.9-0.3l-0.1,0.1
							c0,0,0.1,0.1,0.1,0.1h0h0c1.8-1,3.7,0,5.4-0.1l0,0c1-0.1,2.3-0.1,3.1-0.3c0.3,0,0.7,0.2,0.6,0.3c0.8-0.1,0.9-0.2,2,0
							c-0.8,0.2,0.3,0.1-0.8,0.1c1,0.1,1.3,0.3,2.4,0c-0.4,0.3,0.8,0.3,1.3,0.3l-0.7-0.2c0.6,0,1,0,1.5,0l-0.3,0.3
							c2.1,0.5,3.8-0.7,5.5,0.1c0.6-0.3-1.2-0.2-0.7-0.5c1,0.1,2,0.6,2.3,0.6c1.3,0.2,1.3-0.5,2.7-0.4c-0.2-0.1-0.3-0.5,0.7-0.6
							c1,0.1,1.2,0.6,0.6,0.7c-0.2,0-0.3,0-0.3-0.1c-0.3,0-0.7,0.1-0.3,0.3l0.1-0.1c0.5,0.1,1.8,0.1,1.5,0.4
							c0.7-0.1,0.3-0.2-0.2-0.3c1.3,0.2,2,0,3.3,0.2c-0.2-0.1-0.4-0.2-0.2-0.2c1.9,0.2,0.8-0.3,2.1-0.3c0.7,0.2-0.3,0.5,1,0.3
							c0.8,0.2,0.2,0.4-0.1,0.5c1.2-0.3,2.2,0.2,2.9,0.3l-0.6,0.1c0.4-0.1,0.7-0.1,1-0.1l-0.4-0.3c0.4,0.1,0.7,0.1,0.7,0.2
							c0.4-0.2-0.3-0.5,0.5-0.8c0.5,0.2,1.5-0.2,1.6,0.2c-1.5-0.1,0.2,0.4-1.1,0.5c0.2,0,0.6,0,0.9,0c0.1,0-0.1,0.1-0.2,0.1
							c1.5,0.4,0.7-0.4,2.2-0.4c-0.2,0.2,0.4,0.4,0.6,0.4c-0.6,0-0.3-0.4,0.3-0.6c1,0.2,1.1-0.1,1.6-0.1l-0.6-0.1
							c0.2-0.2,0.7-0.2,1.4-0.3c0.1,0.2-0.6,0.1-0.4,0.2c0.8-0.4,1.7,0.4,2.7,0.2c0.5,0.2,0,0.4,0.5,0.6c1.2-0.3,1.3,0.3,2.5,0.1
							c-0.4-0.3-0.4-0.2,0.5-0.5l-2,0.2l1.3-0.5c-0.6,0-1.3,0.2-1.7,0.1c0.6-0.3,0.6-0.2,0.3-0.4c0.8,0.5,1.7-0.3,2.6,0.1l0,0.8
							c1.5,0.4,2.6-0.4,4.5-0.2l-0.6-0.1c0.3-0.3,1.2,0,1.8-0.2c-0.1,0.3,0.3,0.4,0.6,0.5c0-0.2,1.4,0,1.6-0.5l0.8,0.4
							c1.5,0.2,1.7-0.8,3.2-0.7c-0.4,0.3,0.2,0.5-0.8,0.7c0.5,0,0.9,0.1,0.9-0.1c0.3,0.2,1.4-0.4,1.8-0.1c0.2-0.1,0.3-0.4,0.8-0.4
							c0.1,0.1,0,0.1,0,0.1c0-0.1,0.9-0.2,0.4-0.5c1.5,0.9,4.2-0.1,5.5,0.7c1.1-0.1,2.4-0.2,3.3-0.2c-0.1,0.1,0,0.1-0.2,0.1
							c1.3,0.3,0.8-0.8,2.4-0.5c0.8,0.5-0.8,0.3-0.3,0.4c0.2,1,1.8-0.1,2.9,0.4l-0.2,0.1c0.8,0.3,1.9-0.4,3.2-0.3c0,0-0.1,0.1,0,0.1
							c0.9-0.5,2.5-0.6,3.8-0.8c-0.4,0.4-0.6,0.2-0.3,0.6c0.6-0.1-0.2-0.6,0.9-0.7c0.4,0.2,1.2,0.4,1.3,0.8l-1,0
							c0.5,0.5,1.3,0,1.9,0.1l-0.1,0.2c1.6-0.1,1.6-0.7,3.3-0.6l-0.2-0.2c0.9-0.6,0.8,0.3,1.7-0.1l0.3,0.6c0.6-0.1,2.2-0.6,3.3-0.7
							c-0.6,0.4-1.9,0.7-2.7,0.9c0.6,0,2.1,0,2.4-0.3c-0.2,0.1-0.6,0.2-0.8,0.1c0.8-0.5,1.7-0.7,3-0.7c-0.2,1.1,3.2,0.3,4.1,1.2
							c2.2-0.4,4.3,0.2,6.8,0.1c-0.9-0.9,0.7,0,0.6-0.9c0.6-0.1,0.8,0,0.9,0l1.8,0.5c0.4,0.3-0.6,0.2-0.5,0.4
							c1.3,0.1,0.5,0.4,1.4,0.6c-0.2-0.3,0.4-0.5,1.2-0.3l-1-0.4c1.8-0.5,1.6,0.8,3.4,0.3l-0.6,0.3c0.9-0.2,3.4,0,4.3-0.7
							c0.2,0.1,0.4,0.3,0,0.4c2.2,0.1,4.9-0.8,6.7-0.3l-0.2,0.2c0.4-0.1,0.7-0.4,1.2-0.2c0,0.1-0.2,0.2,0,0.2
							c0.2-0.1,1.1-0.4,1.6-0.3l-0.5,0.2c2.2,0.3,3.3-0.6,5.1-0.8c0,0.6,1.7,0.8,2.5,0.9l0,0.1c2.5,0.1,4.3-0.5,6.6-0.8
							c1.4,0.7,4.9,0.2,7.2,0.6c-0.4-0.1,0.1-0.5,0.5-0.5c0.5,0.1,1.5-0.4,1.4,0.1l-0.2,0c0.4,0.5,1.5,0.4,2.4,0.4l0.1-0.7
							c2.3,1,6-0.4,7.3,0.5c0.6-0.2,1.2-0.2,1.8-0.3l0,0.4c1.5,0.1,2.3,0.1,4.2,0l-0.4,0.3c1.1,0,1.3-1,2.3-1l0.3,0.5
							c1.9,0,3.8,0.4,5.6-0.1c0,0.1-0.1,0.2-0.4,0.2c0.9,0,3.4,0.3,3.1-0.4c0,0.4,1.9,0,2.9-0.2l-0.2,0.3c0.9-0.4,0.9-0.5,2.1-0.6
							c0.3,0,0.2,0.2-0.1,0.2c0.9,0.1,0.7-0.3,1.9-0.1l-0.4,0.2c1,0,0.9-0.1,1.4-0.3c0.6-0.1,1.8,0.1,2,0.3c0.1-0.2,0.7-0.4,1.2-0.3
							c0.1,0.1-0.1,0.2-0.2,0.2c1.6,0.2,2.4-0.3,3.5-0.1c0,0.1,0.1,0.1,0.2,0.2c-1.3,0-2.3,0-2.2,0c0,0.3,1,0.3,0.2,0.6
							c0.8-0.2,2.3-0.6,3.3-0.5c0,0,0.1,0,0.1,0.1l-0.1,0c0.2,0,0.4,0,0.6,0c0.3,0,0.5,0.1,0.8,0.1c0.1,0.2,1.2,0.1,1.7,0.1
							c0-0.2,0.6-0.2,0-0.4c0.1,0-0.1,0-0.4,0c-0.1,0-0.2,0-0.2,0l0,0c-0.3,0-0.8,0-1.3,0c0.4-0.1,0.8-0.2,1.4-0.1
							c0.3-0.2,0.6-0.3,0.7-0.4c0.7,0.3,2.1,0.5,2.3,0.7c1.6-0.2,3.7-0.2,4.7-0.6c0.4-0.1,0.5,0.1,0.7,0.2c-0.3,0-0.6,0-0.7,0.1
							c0.9-0.1,2.7-0.1,2.9-0.4c1.1,0.1-0.6,0.3,0.9,0.2l-0.2,0.1c3.1,0.3,5-0.7,8.3-0.2c-0.2,0-0.4,0-0.4-0.1
							c3.9,0.1,7.9-0.2,11.8,0c1.1,0,1.2-0.1,1.9-0.1l0.2,0.1l1.1-0.1c1.6-0.1,2.8,0.2,4.8,0l-0.3,0c0.7,0,2.3,0,2.2,0
							c0.1,0,0.2,0,0.5,0l0,0l1.8-0.1c1.4,0-0.2,0.1,1.8,0c0.7,0,1.6,0,1.9-0.1c-0.3,0-0.7,0-0.8,0l0.7,0c0.1,0,0.7,0-1,0l-1.2,0
							l-0.4,0l1,0c-0.6,0-0.9,0-1.3,0c-0.1,0-0.3,0-0.5,0l-1.2,0c-0.1,0,0.5,0-0.3-0.1c-0.5,0,0.5,0.1-0.4,0.1
							c-0.6,0-0.4-0.1-1.1-0.1c-0.1,0,0,0,0.3,0c-0.6,0-1.6,0-1.9,0c-0.6-0.1-2,0-1.9-0.1c-0.2,0-1,0.1-1.6,0.1c1-0.1-2-0.1-1.8-0.2
							c-0.7,0.1-2.6,0-3.9,0.1c0.1,0,0.2,0,0.3,0c-0.7,0-0.9-0.1-1.4-0.1c-0.1,0.2-1.2,0.2-1.8,0.3c-0.9-0.2,0.5-0.2,0.3-0.4
							c0,0.1-1.6,0.1-1.2,0.2c-0.7-0.1-0.6-0.1-0.9-0.2c-0.1,0.2-0.6,0-1.2,0.2c-1-0.1-0.3-0.2-1.3-0.2C268.9,76,269.9,76,269.9,76z
							 M244.1,76.1L244.1,76.1c0.2,0,0.4,0,0.5,0C244.5,76.1,244.4,76.1,244.1,76.1z M241.9,76.1c0.3,0,0.6,0,0.9,0
							c0.1,0.1,0,0.2-0.2,0.2C242.8,76.2,242.3,76.2,241.9,76.1z M246.5,77.9c-0.3,0-0.5,0-0.5-0.1
							C246.2,77.8,246.4,77.8,246.5,77.9c0.1-0.1,0.1-0.1,0.1-0.1C246.6,77.8,246.6,77.9,246.5,77.9z"/>
						<path fill="#FF8636" d="M247.1,77.6c0,0,0.1,0,0.1,0C247.2,77.5,247.1,77.5,247.1,77.6c-0.1,0-0.1,0-0.2,0
							C247,77.6,247.1,77.6,247.1,77.6z"/>
						<path fill="#FF8636" d="M50.6,77.2L50.6,77.2C50.6,77.2,50.6,77.2,50.6,77.2C50.6,77.2,50.6,77.2,50.6,77.2z"/>
						<polygon fill="#FF8636" points="212,75.2 212,75.3 212.2,75.2 						"/>
						<path fill="#FF8636" d="M38.6,76.5c0,0-0.1,0-0.2,0C38.5,76.4,38.6,76.4,38.6,76.5z"/>
						<path fill="#FF8636" d="M33.5,76.5l-0.7,0C33.1,76.5,33.3,76.5,33.5,76.5z"/>
						<path fill="#FF8636" d="M29.5,76.4C29.5,76.5,29.5,76.5,29.5,76.4L29.5,76.4L29.5,76.4z"/>
						<path fill="#FF8636" d="M92.6,75.4c0.1,0,0.1,0,0.2,0C93.1,75.3,92.8,75.4,92.6,75.4z"/>
						<path fill="#FF8636" d="M73.8,76.3c0.2-0.1,0.4-0.1,0.6-0.2C74.1,76.2,73.8,76.2,73.8,76.3z"/>
						<path fill="#FF8636" d="M113.5,74.8L113.5,74.8c0,0,0.1,0,0.1,0L113.5,74.8z"/>
						<path fill="#FF8636" d="M75.3,76.2c-0.3-0.1-0.6,0-0.9,0C74.7,76.2,75,76.2,75.3,76.2z"/>
						<path fill="#FF8636" d="M12.3,76.7l-0.2,0c0,0,0,0,0,0L12.3,76.7z"/>
						<path fill="#FF8636" d="M12.1,76.7l-0.2,0C12,76.7,12.1,76.7,12.1,76.7z"/>
						<path fill="#FF8636" d="M11.5,76.7l0.4,0C11.8,76.7,11.6,76.7,11.5,76.7z"/>
						<path fill="#FF8636" d="M17.6,76.6L17.6,76.6C17.6,76.6,17.6,76.6,17.6,76.6z"/>
						<path fill="#FF8636" d="M19.2,76.6c-0.4,0-1,0-1.5,0l0,0C17.9,76.6,18.8,76.6,19.2,76.6z"/>
						<path fill="#FF8636" d="M25.8,77l-1.3,0c0.2,0,0.5,0.1-0.1,0.1C26.1,77.2,24.1,77,25.8,77z"/>
						<path fill="#FF8636" d="M30,77.1c-0.7,0,0,0.1,0,0.1C30.4,77.2,30.5,77.2,30,77.1z"/>
						<path fill="#FF8636" d="M59.9,77.4l-0.1,0.2C60.4,77.7,59.9,77.6,59.9,77.4z"/>
						<polygon fill="#FF8636" points="65.7,76.1 65.1,76 64.9,76.2 						"/>
						<polygon fill="#FF8636" points="69.1,78.1 68.8,78.1 69.7,78 						"/>
						<path fill="#FF8636" d="M119.4,78.3l-0.2-0.5C118.8,78,118.7,78.5,119.4,78.3z"/>
						<path fill="#FF8636" d="M141.1,77.9c0.2,0.2,0.8,0.4,1.2,0.2C141.8,78,141.3,77.9,141.1,77.9z"/>
						<polygon fill="#FF8636" points="206.2,78.4 205.8,78.6 206.6,78.5 						"/>
					</g>
				</g>
			</g>
		</g>
	</g>
	<g id="Layer_15">
	</g>
	<g id="Layer_16">
	</g>
	<g id="Layer_17">
	</g>
</g>
<g id="Breakfast">
	<g id="Layer_20">
	</g>
	<g id="Layer_21">
	</g>
</g>
<g id="Layer_24">
</g>
<g id="Layer_22">
</g>
<g id="Layer_23">
</g>
<g id="Layer_2" display="none">
</g>
<g id="guides_landing" display="none">
</g>
</svg>
