<?xml version="1.0" encoding="utf-8"?>
<!-- Generator: Adobe Illustrator 18.1.1, SVG Export Plug-In . SVG Version: 6.00 Build 0)  -->
<!DOCTYPE svg PUBLIC "-//W3C//DTD SVG 1.1//EN" "http://www.w3.org/Graphics/SVG/1.1/DTD/svg11.dtd">
<svg version="1.1" xmlns="http://www.w3.org/2000/svg" xmlns:xlink="http://www.w3.org/1999/xlink" x="0px" y="0px" width="286.7px"
	 height="76.7px" viewBox="0 0 286.7 76.7" enable-background="new 0 0 286.7 76.7" xml:space="preserve">
<g id="Landing">
	<g id="Layer_8">
	</g>
	<g id="Main">
		<g id="navigation">
			<g id="logo">
			</g>
		</g>
		<g id="icons">
		</g>
		<g id="body">
		</g>
	</g>
	<g id="Layer_7">
	</g>
</g>
<g id="first_landing">
	<g id="Logo">
	</g>
</g>
<g id="Layer_18">
</g>
<g id="about">
	<g id="Nav">
		<g>
			<path fill="#FFFFFF" d="M22.7,2.9c2.2,0,4.2,0.2,6,0.7c1.8,0.4,3.4,1.2,4.8,2.2s2.4,2.4,3.1,4.1c0.7,1.7,1.1,3.8,1.1,6.4
				c0,2.9-0.7,5.3-2,7.4c-1.3,2-3.3,3.4-6,4.2V28c3,0.4,5.3,1.7,7,3.8c1.7,2.1,2.6,5,2.6,8.5c0,2.1-0.3,4-0.8,5.9
				c-0.5,1.9-1.5,3.5-2.8,4.9c-1.3,1.4-3,2.5-5.1,3.4c-2.1,0.8-4.7,1.3-7.8,1.3h-18V2.9H22.7z M18.5,24.6c3,0,5.1-0.5,6.5-1.6
				c1.4-1.1,2-2.8,2-5.4c0-2.5-0.6-4.3-1.9-5.3c-1.2-1-3.2-1.6-5.8-1.6h-3.8v13.8H18.5z M19.7,47.9c2.6,0,4.6-0.6,6.2-1.7
				c1.6-1.1,2.4-3.2,2.4-6.3c0-1.5-0.2-2.8-0.6-3.8c-0.4-1-1-1.8-1.7-2.4c-0.7-0.6-1.6-1-2.6-1.3c-1-0.2-2.1-0.4-3.3-0.4h-4.6v15.9
				H19.7z"/>
			<path fill="#FFFFFF" d="M75.5,11.6H56.7V24h17.8v8.7H56.7V47h19.6v8.7H46V2.9h29.5V11.6z"/>
			<path fill="#FFFFFF" d="M106.8,39.1h0.1V2.9h9.8v52.8h-12.1l-13-37h-0.1v37h-9.8V2.9h12.3L106.8,39.1z"/>
			<path fill="#FFFFFF" d="M153.6,11.6h-18.9V24h17.8v8.7h-17.8V47h19.6v8.7h-30.3V2.9h29.5V11.6z"/>
			<path fill="#FFFFFF" d="M189.2,2.9v8.7h-18.9V24h17.8v8.7h-17.8v22.9h-10.7V2.9H189.2z"/>
			<path fill="#FFFFFF" d="M194.4,2.9h10.7v52.8h-10.7V2.9z"/>
			<path fill="#FFFFFF" d="M243.9,11.6h-11.5v44.1h-10.7V11.6h-11.5V2.9h33.7V11.6z"/>
			<path fill="#FFFFFF" d="M257.1,40.8c0,1.2,0.1,2.4,0.3,3.4c0.2,1,0.6,1.9,1.1,2.6c0.5,0.7,1.3,1.2,2.2,1.6
				c0.9,0.4,2.1,0.6,3.4,0.6c1.6,0,3.1-0.5,4.4-1.6c1.3-1.1,2-2.7,2-4.9c0-1.2-0.2-2.2-0.5-3.1c-0.3-0.9-0.9-1.6-1.6-2.3
				c-0.7-0.7-1.7-1.3-2.9-1.9c-1.2-0.6-2.7-1.1-4.5-1.7c-2.4-0.8-4.4-1.7-6.1-2.6c-1.7-0.9-3.2-2-4.3-3.3c-1.2-1.3-2-2.7-2.6-4.4
				c-0.5-1.7-0.8-3.6-0.8-5.7c0-5.2,1.5-9.1,4.4-11.7c2.9-2.6,6.9-3.8,12-3.8c2.4,0,4.6,0.3,6.5,0.8c2,0.5,3.7,1.4,5.2,2.5
				c1.5,1.2,2.6,2.6,3.4,4.4c0.8,1.8,1.2,4,1.2,6.5v1.5h-10.2c0-2.5-0.4-4.5-1.3-5.8c-0.9-1.4-2.4-2-4.4-2c-1.2,0-2.2,0.2-3,0.5
				c-0.8,0.3-1.4,0.8-1.9,1.4c-0.5,0.6-0.8,1.2-1,2c-0.2,0.7-0.3,1.5-0.3,2.3c0,1.6,0.3,3,1,4.1c0.7,1.1,2.2,2.1,4.4,3.1l8.2,3.6
				c2,0.9,3.7,1.8,5,2.8c1.3,1,2.3,2,3.1,3.1c0.8,1.1,1.3,2.3,1.6,3.7s0.4,2.8,0.4,4.4c0,5.6-1.6,9.6-4.8,12.2
				c-3.2,2.5-7.7,3.8-13.5,3.8c-6,0-10.3-1.3-12.9-3.9c-2.6-2.6-3.9-6.4-3.9-11.2v-2.1h10.7V40.8z"/>
		</g>
		<g opacity="0.6">
			<g>
				<g>
					<g>
						<path fill="#FF8636" d="M1,74C1.4,74,2,74,1.7,74c-0.5,0-0.5,0-1.1,0.1c-0.4,0-0.7,0-0.7,0c-0.2,0-0.6,0-0.9,0
							C-0.4,74,0.3,74,1,74C1.1,74,1,74,1,74z"/>
						<path fill="#FF8636" d="M41.6,74.4l-0.3,0C41.4,74.4,41.5,74.4,41.6,74.4z"/>
						<path fill="#FF8636" d="M66.8,74.8c-0.2,0-0.3,0-0.3,0.1C66.6,74.8,66.8,74.8,66.8,74.8z"/>
						<path fill="#FF8636" d="M71.1,75.2c-0.1,0-0.2,0-0.3,0C70.9,75.2,71,75.3,71.1,75.2z"/>
						<path fill="#FF8636" d="M41.6,74.4l0.7,0.1C42.3,74.4,41.9,74.5,41.6,74.4z"/>
						<path fill="#FF8636" d="M6.6,73.9c-0.1,0-0.3,0-0.4,0L6.6,73.9L6.6,73.9z"/>
						<path fill="#FF8636" d="M30.5,74.5l-0.2,0c-0.1,0-0.1,0.1-0.2,0.1L30.5,74.5z"/>
						<path fill="#FF8636" d="M22,74.5c0.2,0,0.3-0.1,0.3-0.2c-0.1,0.1-0.3,0.1-0.4,0.1C21.9,74.4,21.9,74.4,22,74.5z"/>
						<path fill="#FF8636" d="M8.5,74.1l-0.2,0C8.3,74.1,8.4,74.1,8.5,74.1z"/>
						<path fill="#FF8636" d="M36.6,74.7C36.6,74.7,36.6,74.7,36.6,74.7C36.7,74.7,36.6,74.7,36.6,74.7z"/>
						<path fill="#FF8636" d="M274.8,73.7C274.8,73.7,274.8,73.7,274.8,73.7C274.8,73.7,274.8,73.7,274.8,73.7z"/>
						<polygon fill="#FF8636" points="284.7,74 284.5,74 284.5,74 						"/>
						<path fill="#FF8636" d="M78.9,75.8C78.9,75.8,78.9,75.8,78.9,75.8C78.7,75.8,78.8,75.8,78.9,75.8z"/>
						<path fill="#FF8636" d="M151.1,75.8c-0.8-0.4,1.3-0.5,0.1-0.9C151.3,75,150.1,75.5,151.1,75.8z"/>
						<path fill="#FF8636" d="M6.8,73.9l0.3,0C7,73.9,6.9,73.9,6.8,73.9z"/>
						<path fill="#FF8636" d="M151.2,74.9L151.2,74.9l-0.1,0C151.2,74.8,151.2,74.9,151.2,74.9z"/>
						<path fill="#FF8636" d="M97,75.7c0-0.1-0.1-0.1-0.2-0.2C96.9,75.6,96.9,75.6,97,75.7z"/>
						<path fill="#FF8636" d="M83.5,75.1l0.3,0.1C83.7,75.1,83.6,75.1,83.5,75.1z"/>
						<path fill="#FF8636" d="M104.1,75.2c0.2,0,0.2,0.1,0.5,0c0,0,0,0-0.1,0C104.4,75.2,104.3,75.2,104.1,75.2z"/>
						<path fill="#FF8636" d="M111.3,75.2c0,0-0.1-0.1-0.1-0.1c-0.1,0-0.2,0-0.2,0L111.3,75.2z"/>
						<path fill="#FF8636" d="M252.6,73.2c0.2,0.1,0.3,0.1,0.3,0.2C252.8,73.3,253.9,73.3,252.6,73.2z"/>
						<path fill="#FF8636" d="M6.6,73.9c0,0,0.1,0,0.2,0C6.7,73.9,6.6,73.9,6.6,73.9C6.5,73.9,6.5,73.9,6.6,73.9z"/>
						<path fill="#FF8636" d="M104.3,72l1.2,0.1C105.2,72,104.8,72,104.3,72z"/>
						<path fill="#FF8636" d="M200.3,72.6l0.3,0C200.4,72.5,200.3,72.5,200.3,72.6z"/>
						<path fill="#FF8636" d="M108.9,72c0.2,0.1,0.4,0.2,0.7,0.3c0,0,0.1-0.1,0.1-0.1L108.9,72z"/>
						<path fill="#FF8636" d="M252.9,73.4L252.9,73.4L252.9,73.4z"/>
						<path fill="#FF8636" d="M260.6,73.2c-1.1,0-0.5,0.2-0.8,0.3c-1.3,0-0.6-0.2-1.1-0.3c-0.8,0-1.5,0.2-2.1,0.2c0,0-0.2-0.1,0-0.1
							c-0.9,0.2-2.6,0-3.6,0.2c-0.1,0-0.1,0-0.1-0.1c0.2,0.1,0.2,0.3,0.2,0.3c-0.5,0-0.9,0.2-1.1,0c0.3,0,0.3-0.1,0.5-0.1l-0.5,0.1
							c-0.5-0.2,0.7-0.1,0.7-0.2c-1,0.1-2.2,0.3-3,0.2c-0.2-0.2,1.8-0.1,0.8-0.3l1.2,0.1c-0.9-0.4,0.7,0-0.1-0.4
							c-1.6-0.1-1.8,0.1-3.3,0c-0.4,0.1,0.1,0.2-0.2,0.3c-2.2,0.2-1.8-0.7-3.4-0.4c-0.4,0.2-0.6,0.5-1.8,0.3l0.4-0.3
							c-1.5-0.1-0.9,0.4-2.5,0.2c0.3-0.1,1.2-0.1,1-0.1c-1-0.3-0.7,0.2-1.5,0.2L240,73c-1.6,0-3.4,0.2-5.2,0.3
							c0.1-0.1,0.4-0.2,0-0.3c-2.3,0.1-4.9-0.1-7-0.3l-0.8,0.3c-0.2,0-0.4-0.1-0.2-0.2c-0.9-0.1,0,0.2-0.5,0.3
							c-0.5,0-0.6-0.2-0.3-0.3c-1.5,0.2-4.3,0.5-5.9,0.2l0.3-0.1c-1.2-0.1-1.4,0.7-2.5,0.3l0.2-0.1c-2.7-0.2-5.7,0.1-7.7-0.4
							c-0.4,0.5-2.7-0.3-2.8,0.5c-1.5-0.4-1.1-0.5-3.3-0.8c-0.6,0-0.9,0.5-1.6,0.5l0-0.4l-1,0.4l-0.5-0.5l-0.7,0.1
							c0.3,0,0.6,0.2,0.5,0.3c-1,0.2-2.5-0.3-2.6-0.5l-2.5,0.3c0.1-0.2,0.5-0.2,0.8-0.3c-1.3,0.4-0.2-0.4-1.4-0.1
							c0.2,0.1-0.1,0.2-0.1,0.3c-0.6-0.3-2-0.3-3-0.2l0.2-0.3c-1.8-0.1-3.9,0.1-5.9,0.1c0.7,0.1,0.6,0.6,0,0.7l-0.2-0.4
							c-0.4,0.3,0.6,0.2-0.2,0.5c-0.8-0.1-0.5-0.5-0.1-0.7l-0.9,0.1c-0.1-0.1,0.2-0.2,0.2-0.4c-0.4,0.3-1.6-0.5-2.2,0l-0.1-0.1
							c-2.1,0-3,0.1-4.7,0.1c0,0.4-0.7,0.3-1.2,0.6c-1.2-0.1-2.6-0.5-4.1-0.4c-1,0.2-0.3,0.3-0.8,0.6c-0.1-0.4-1.6-0.3-0.8-0.6
							c-1.8,0.1-2.3,0.1-4.5,0.4c0.2,0.2,0.5,0.2,0.4,0.3c-0.4,0.1-0.9-0.2-0.9-0.3l0.1,0c-2.5,0.6-5.8-1.1-7.8-0.3l0.1,0l-2.1,0.4
							c-1-0.1,0.6-0.3-0.1-0.5c-2.3,0.6-3.6-0.1-5.4,0.3c-1.4-1.1-5.1,0.1-7-0.6l0.1,0.3c-0.5,0.3-0.6-0.2-1-0.2
							c0.1,0.2,0.5,0.2,0.2,0.4c-4.2,0.3-8.8-0.4-13.1-0.6c-1.6-0.1-0.9,1.4-2.9,0.7l0.6-0.5c-3.2,0.6-6.6,0-9.7,0.5
							c0.2-0.1,0.2-0.3,0.5-0.3c-0.7-0.4-2.5,0-2.5,0.3c-0.5,0-0.1-0.3-0.4-0.4c-0.7-0.2-1.7,0.5-2,0.1c-0.1-0.1,0.2-0.1,0.3-0.1
							c-0.4,0.2-2,0-1.6,0.4c-1.2-0.2-2.3,0.2-3.2,0c-0.6,0.4-2-0.2-2.2,0.4c0.1-0.6-2.1-0.5-2.8-0.2c0.2-0.2-0.6-0.2-0.4-0.5
							c-0.9,0-1.6,0.1-1.5,0.5c-1.6-0.8-3.2,0.6-4-0.3c-2.5,0.4-4.9,0.6-7.1,0.7c0.1-0.6,2.5-0.1,2.4-0.7c-2.2,0.3-3.4,0.8-5.5,0.7
							c-0.6-0.1,0.3-0.3,0.5-0.4c-2.2,0.3-4.2,0-6.1,0.3c0-0.1,0.2-0.1,0.4-0.2c-0.4,0-0.9-0.1-0.8,0.2l0.4-0.1
							c0.6,0.4-1.5,0.8-1.6,1c0.6-0.8-1.9-0.2-0.9-1.1c-0.2,0.1-0.6,0.2-0.5,0.4c-0.4,0-0.5-0.1-0.1-0.3c-1.4,0.2-0.9,0.4-2.1,0.4
							c0-0.1,0.3-0.2,0.4-0.3c-0.6,0.2-1.2,0.5-2.3,0.4c0.1-0.1-0.1-0.2,0.3-0.2c-1.8,0.1-3,0.6-5,0.4c0.6-0.5-0.7-0.2-0.8-0.6
							l-1.1,0.1l0.4,0.2c-0.9,0-1.7,0.3-2.5,0.2l0.7-0.2L66,73.2l1,0.2c-0.9,0.2,0.1,0.5-1.1,0.4c0.2,0-0.9,0-1.4-0.3l0,0
							c-0.5,0.1-0.9,0.3-1.6,0.2c-0.2-0.1,0.1-0.5,0-0.5c-0.4,0.3-2.2,0.1-2.7,0.5c0.2-0.1,0.2-0.3,0.1-0.3L60,73.6
							c-0.4-0.1-0.5-0.1-0.4-0.3c-1.3,0,0.4,0.5-1.1,0.3c0.1,0,0.1-0.1,0.3-0.1c-1.5-0.1-3,0.2-4.4,0.1c-0.4-0.4,1.2-0.1,0.8-0.4
							c-2,0.1-4.2,0.5-6.1,0.4l0.4,0c-0.3,0.5-1.5-0.2-2.4,0c0.2,0,0.3-0.3,0.3-0.2c-1.3-0.1-2.7,0.1-4.8,0.3l0.3-0.1
							c-0.8-0.1-2.1,0-2.9-0.1c-0.3,0.1-0.7,0.1-0.4,0.3c-2.6-0.6-5,0.3-7.4-0.1c0.3,0,0.7-0.1,0.4-0.1l-2,0.1
							c0.2,0.2,0.3,0.1,0.7,0.2c-0.3,0.1-0.8,0.2-1.3,0.2c0.9-0.1,0-0.3-0.4-0.3c0.1,0-0.1,0.1,0,0.1c-1-0.3-0.2,0.3-1.6,0.1
							l0.1-0.1c-0.5,0-1,0.1-1.6,0.1c-0.2-0.2,0.6-0.1,0.6-0.2c-0.8,0-1.6,0.3-2.3,0.2c0.3,0,0.8,0,1.2-0.1
							c-0.8-0.2-0.9-0.1-1.5-0.2l0.1,0l-1.4-0.1l0.3,0c-1,0.4-2,0.1-3.4,0.3c1.3-0.2,0.2-0.1,0.3-0.3c-0.3,0-0.9-0.1-0.7-0.1
							c-0.6,0.1-1.1-0.1-2,0.1c0,0-0.7,0-0.5-0.1c-0.8,0,0.2,0.1,0.1,0.1c-1.3,0.1-3-0.1-4.9,0.1c-1.6,0.1-1.9,0.2-3.4,0.2
							C8.3,74,9.2,74,9.2,74c-0.8,0-1.4,0-2.2,0c0.2,0,0,0-0.2-0.1c-0.6,0-0.4,0.1-1.2,0.1c0.1,0,0.3-0.1,0.6-0.1
							c-0.7,0-1.4,0.1-2.2,0.1c-0.2,0,0.4,0,0.7-0.1c-0.8,0-2.2,0.1-2.4,0.1l0.5,0c-0.3,0-0.2,0,0.1,0c0.7,0,1,0,1.1,0l-0.5,0
							c0.5,0.1,2.1,0,3.2,0l-0.4,0.1L7.3,74c0.2,0,0.4,0.1-0.1,0.1c0.8,0.1,0.7,0,1.3,0c0.1,0,0,0,0,0l0.7,0c-0.1,0,0.1,0.1-0.3,0.1
							c1.3,0.1,2.2-0.1,2.7,0l-0.1,0c1.9,0,0.2-0.1,1.6-0.2l0.9,0.3l0.2-0.1c0.2,0,0.6,0,0.5,0.1c0.7-0.1-0.1-0.1,0.3-0.1
							c0.9,0.1,2.5-0.1,2.8,0.2c0.3-0.1-0.9-0.1,0.1-0.2c0.3,0.2,1.1,0,2,0.1c-0.3,0.1-1.1,0.1-0.2,0.2c0.5-0.2,1.6,0.1,2.4,0
							c0-0.2,1.5-0.1,2.7-0.1c-0.1,0.1,2.2,0.1,3.4,0.2l0,0c0.2-0.2,1.4-0.2,2.2-0.2c0,0.1-0.2,0.2-0.6,0.3l0.8,0
							c0.2-0.1,0.4-0.1,0.9-0.1L31,74.6c1,0,2.1-0.2,3.4-0.1c0.1-0.2-1.1-0.5,0.4-0.7c0.1,0.1,0.1,0.3-0.3,0.3c0.1,0,0.4-0.1,0.7,0
							l-0.6,0.2c0.6,0.1,0.3-0.1,0.8-0.1c0,0.2,0.4,0.1,0.3,0.2c-0.1,0-0.4-0.1-0.6,0c0.6,0,1.2,0.1,1.4,0.2c0-0.1,0-0.2,0.4-0.2
							c1,0,0.4,0.2,1,0.3c0.3-0.1,0.9,0,0.9-0.2c0.3,0,0.4,0.1,0.5,0.2c0.5-0.1,2.5,0,1.9-0.3l-0.1,0.1c0,0,0.1,0.1,0.1,0.1h0h0
							c1.8-1,3.7,0,5.4-0.1l0,0c1-0.1,2.3-0.1,3.1-0.3c0.3,0,0.7,0.2,0.6,0.3c0.8-0.1,0.9-0.2,2,0c-0.8,0.2,0.3,0.1-0.8,0.1
							c1,0.1,1.3,0.3,2.4,0c-0.4,0.3,0.8,0.3,1.3,0.3l-0.7-0.2c0.6,0,1,0,1.5,0l-0.3,0.3c2.1,0.5,3.8-0.7,5.5,0.1
							c0.6-0.2-1.2-0.2-0.7-0.5c1,0.1,2,0.6,2.3,0.6c1.3,0.2,1.3-0.5,2.7-0.4c-0.2-0.1-0.3-0.5,0.7-0.6c1,0.1,1.2,0.6,0.6,0.7
							c-0.2,0-0.3,0-0.3-0.1c-0.3,0-0.7,0.1-0.3,0.3l0.1-0.1c0.5,0.1,1.8,0.1,1.5,0.4c0.7-0.1,0.3-0.2-0.2-0.3c1.3,0.2,2,0,3.3,0.2
							c-0.2-0.1-0.4-0.2-0.2-0.2c1.9,0.2,0.8-0.3,2.1-0.3c0.7,0.2-0.3,0.5,1,0.3c0.8,0.2,0.2,0.4-0.1,0.5c1.2-0.3,2.2,0.2,2.9,0.3
							l-0.6,0.1c0.4-0.1,0.7-0.1,1-0.1l-0.4-0.3c0.4,0.1,0.7,0.1,0.7,0.2c0.4-0.2-0.3-0.5,0.5-0.8c0.5,0.2,1.5-0.2,1.6,0.2
							c-1.5-0.1,0.2,0.4-1.1,0.5c0.2,0,0.6,0,0.9,0c0.1,0-0.1,0.1-0.2,0.1c1.5,0.4,0.7-0.4,2.2-0.4c-0.2,0.2,0.4,0.4,0.6,0.4
							c-0.6,0-0.3-0.4,0.3-0.6c1,0.2,1.1-0.1,1.6-0.1L83,75c0.2-0.2,0.7-0.2,1.4-0.3c0.1,0.2-0.6,0.1-0.4,0.2
							c0.8-0.4,1.7,0.4,2.7,0.2c0.5,0.2,0,0.4,0.5,0.6c1.2-0.3,1.3,0.3,2.5,0.1c-0.4-0.3-0.4-0.2,0.5-0.5l-2,0.2l1.3-0.5
							c-0.6,0-1.3,0.2-1.7,0.1c0.6-0.3,0.6-0.2,0.3-0.4c0.8,0.5,1.7-0.3,2.6,0.1l0,0.8c1.5,0.4,2.6-0.4,4.5-0.2l-0.6-0.1
							c0.3-0.3,1.2,0,1.8-0.2c-0.1,0.3,0.3,0.4,0.6,0.5c0-0.2,1.4,0,1.6-0.5l0.8,0.4c1.5,0.2,1.7-0.8,3.2-0.7
							c-0.4,0.3,0.2,0.5-0.8,0.7c0.5,0,0.9,0.1,0.9-0.1c0.3,0.2,1.4-0.4,1.8-0.1c0.2-0.1,0.3-0.4,0.8-0.4c0.1,0.1,0,0.1,0,0.1
							c0-0.1,0.9-0.2,0.4-0.5c1.5,0.9,4.2-0.1,5.5,0.7c1.1-0.1,2.4-0.2,3.3-0.2c-0.1,0.1,0,0.1-0.2,0.1c1.3,0.3,0.8-0.8,2.4-0.5
							c0.8,0.5-0.8,0.3-0.3,0.4c0.2,1,1.8-0.1,2.9,0.4l-0.2,0.1c0.8,0.3,1.9-0.4,3.2-0.3c0,0-0.1,0.1,0,0.1c0.9-0.5,2.5-0.6,3.8-0.8
							c-0.4,0.4-0.6,0.2-0.3,0.6c0.6-0.1-0.2-0.6,0.9-0.7c0.4,0.2,1.2,0.4,1.3,0.8l-1,0c0.5,0.5,1.3,0,1.9,0.1l-0.1,0.2
							c1.6-0.1,1.6-0.7,3.3-0.6l-0.2-0.2c0.9-0.6,0.8,0.3,1.7-0.1l0.3,0.6c0.6-0.1,2.2-0.6,3.3-0.7c-0.6,0.4-1.9,0.7-2.7,0.9
							c0.6,0,2.1,0,2.4-0.3c-0.2,0.1-0.6,0.2-0.8,0.1c0.8-0.5,1.7-0.7,3-0.7c-0.2,1.1,3.2,0.3,4.1,1.2c2.2-0.4,4.3,0.2,6.8,0.1
							c-0.9-0.9,0.7,0,0.6-0.9c0.6-0.1,0.8,0,0.9,0l1.8,0.5c0.4,0.3-0.6,0.2-0.5,0.4c1.3,0.1,0.5,0.4,1.4,0.6
							c-0.2-0.3,0.4-0.5,1.2-0.3l-1-0.4c1.8-0.5,1.6,0.8,3.4,0.3l-0.6,0.3c0.9-0.2,3.4,0,4.3-0.7c0.2,0.1,0.4,0.4,0,0.4
							c2.2,0.1,4.9-0.8,6.7-0.3l-0.2,0.2c0.4-0.1,0.7-0.4,1.2-0.2c0,0.1-0.2,0.2,0,0.2c0.2-0.1,1.1-0.4,1.6-0.3l-0.5,0.2
							c2.2,0.3,3.3-0.6,5.1-0.8c0,0.6,1.7,0.8,2.5,0.9l0,0.1c2.5,0.1,4.3-0.5,6.6-0.8c1.4,0.7,4.9,0.2,7.2,0.6
							c-0.4-0.1,0.1-0.5,0.5-0.5c0.5,0.1,1.5-0.4,1.4,0.1l-0.2,0c0.4,0.5,1.5,0.4,2.4,0.4l0.1-0.7c2.3,1,6-0.4,7.3,0.5
							c0.6-0.2,1.2-0.2,1.8-0.3l0,0.4c1.5,0.1,2.3,0.1,4.2,0l-0.4,0.3c1.1,0,1.3-1,2.3-1l0.3,0.5c1.9,0,3.8,0.4,5.6-0.1
							c0,0.1-0.1,0.2-0.4,0.2c0.9,0,3.4,0.3,3.1-0.4c0,0.4,1.9,0,2.9-0.2l-0.2,0.3c0.9-0.4,0.9-0.5,2.1-0.6c0.3,0,0.2,0.2-0.1,0.2
							c0.9,0.1,0.7-0.3,1.9-0.1l-0.4,0.2c1,0,0.9-0.1,1.4-0.3c0.6-0.1,1.8,0.1,2,0.3c0.1-0.2,0.7-0.4,1.2-0.3
							c0.1,0.1-0.1,0.2-0.2,0.2c1.6,0.2,2.4-0.3,3.5-0.1c0,0.1,0.1,0.1,0.2,0.2c-1.3,0-2.3,0-2.2,0c0,0.3,1,0.3,0.2,0.6
							c0.8-0.2,2.3-0.6,3.3-0.5c0,0,0.1,0,0.1,0.1l-0.1,0c0.2,0,0.4,0,0.6,0c0.3,0,0.5,0.1,0.8,0.1c0.1,0.2,1.2,0.1,1.7,0.1
							c0-0.2,0.6-0.2,0-0.4c0.1,0-0.1,0-0.4,0c-0.1,0-0.2,0-0.2,0l0,0c-0.3,0-0.8,0-1.3,0c0.4-0.1,0.8-0.2,1.4-0.1
							c0.3-0.2,0.6-0.3,0.7-0.4c0.7,0.3,2.1,0.5,2.3,0.7c1.6-0.2,3.7-0.2,4.7-0.6c0.4-0.1,0.5,0.1,0.7,0.2c-0.3,0-0.6,0-0.7,0.1
							c0.9-0.1,2.7-0.1,2.9-0.4c1.1,0.1-0.6,0.3,0.9,0.2l-0.2,0.1c3.1,0.3,5-0.7,8.3-0.2c-0.2,0-0.4,0-0.4-0.1
							c3.9,0.1,7.9-0.2,11.8,0c1.1,0,1.2-0.1,1.9-0.1l0.2,0.1l1.1-0.1c1.6-0.1,2.8,0.2,4.8,0l-0.3,0c0.7,0,2.3,0,2.2,0
							c0.1,0,0.2,0,0.5,0l0,0l1.8-0.1c1.4,0-0.2,0.1,1.8,0c0.7,0,1.6,0,1.9-0.1c-0.3,0-0.7,0-0.8,0l0.7,0c0.1,0,0.7,0-1,0l-1.2,0
							l-0.4,0l1,0c-0.6,0-0.9,0-1.3,0c-0.1,0-0.3,0-0.5,0l-1.2,0c-0.1,0,0.5,0-0.3-0.1c-0.5,0,0.5,0.1-0.4,0.1
							c-0.6,0-0.4-0.1-1.1-0.1c-0.1,0,0,0,0.3,0c-0.6,0-1.6,0-1.9,0c-0.6-0.1-2,0-1.9-0.1c-0.2,0-1,0.1-1.6,0.1c1-0.1-2-0.1-1.8-0.2
							c-0.7,0.1-2.6,0-3.9,0.1c0.1,0,0.2,0,0.3,0c-0.7,0-0.9-0.1-1.4-0.1c-0.1,0.2-1.2,0.2-1.8,0.3c-0.9-0.2,0.5-0.2,0.3-0.4
							c0,0.1-1.6,0.1-1.2,0.2c-0.7-0.1-0.6-0.1-0.9-0.2c-0.1,0.2-0.6,0-1.2,0.2c-1-0.1-0.3-0.2-1.3-0.2
							C259.6,73.2,260.6,73.2,260.6,73.2z M234.8,73.3L234.8,73.3c0.2,0,0.4,0,0.5,0C235.2,73.3,235,73.3,234.8,73.3z M232.6,73.3
							c0.3,0,0.6,0,0.9,0c0.1,0.1,0,0.2-0.2,0.2C233.4,73.5,232.9,73.4,232.6,73.3z M237.2,75.1c-0.3,0-0.5,0-0.5-0.1
							C236.9,75.1,237,75,237.2,75.1c0.1-0.1,0.1-0.1,0.1-0.1C237.3,75,237.3,75.1,237.2,75.1z"/>
						<path fill="#FF8636" d="M237.8,74.8c0,0,0.1,0,0.1,0C237.9,74.7,237.8,74.7,237.8,74.8c-0.1,0-0.1,0-0.2,0
							C237.7,74.8,237.8,74.8,237.8,74.8z"/>
						<path fill="#FF8636" d="M41.3,74.4L41.3,74.4C41.3,74.4,41.2,74.4,41.3,74.4C41.3,74.4,41.3,74.4,41.3,74.4z"/>
						<polygon fill="#FF8636" points="202.7,72.4 202.7,72.5 202.9,72.4 						"/>
						<path fill="#FF8636" d="M29.3,73.7c0,0-0.1,0-0.2,0C29.2,73.6,29.2,73.7,29.3,73.7z"/>
						<path fill="#FF8636" d="M24.2,73.7l-0.7,0C23.8,73.7,24,73.7,24.2,73.7z"/>
						<path fill="#FF8636" d="M20.2,73.7C20.2,73.7,20.1,73.7,20.2,73.7L20.2,73.7L20.2,73.7z"/>
						<path fill="#FF8636" d="M83.3,72.6c0.1,0,0.1,0,0.2,0C83.8,72.5,83.5,72.6,83.3,72.6z"/>
						<path fill="#FF8636" d="M64.5,73.6c0.2-0.1,0.4-0.1,0.6-0.2C64.8,73.4,64.5,73.4,64.5,73.6z"/>
						<path fill="#FF8636" d="M104.2,72L104.2,72c0,0,0.1,0,0.1,0L104.2,72z"/>
						<path fill="#FF8636" d="M66,73.4c-0.3-0.1-0.6,0-0.9,0C65.4,73.4,65.7,73.5,66,73.4z"/>
						<path fill="#FF8636" d="M3,73.9l-0.2,0c0,0,0,0,0,0L3,73.9z"/>
						<path fill="#FF8636" d="M2.8,73.9l-0.2,0C2.7,73.9,2.8,73.9,2.8,73.9z"/>
						<path fill="#FF8636" d="M2.1,74l0.4,0C2.4,73.9,2.2,73.9,2.1,74z"/>
						<path fill="#FF8636" d="M8.3,73.8L8.3,73.8C8.3,73.8,8.3,73.8,8.3,73.8z"/>
						<path fill="#FF8636" d="M9.9,73.8c-0.4,0-1,0-1.5,0l0,0C8.6,73.8,9.5,73.9,9.9,73.8z"/>
						<path fill="#FF8636" d="M16.5,74.2l-1.3,0c0.2,0,0.5,0.1-0.1,0.1C16.8,74.5,14.8,74.2,16.5,74.2z"/>
						<path fill="#FF8636" d="M20.7,74.4c-0.7,0,0,0.1,0,0.1C21.1,74.4,21.2,74.4,20.7,74.4z"/>
						<path fill="#FF8636" d="M50.6,74.7l-0.1,0.2C51.1,74.9,50.6,74.8,50.6,74.7z"/>
						<polygon fill="#FF8636" points="56.4,73.3 55.8,73.2 55.6,73.4 						"/>
						<polygon fill="#FF8636" points="59.7,75.3 59.5,75.3 60.4,75.2 						"/>
						<path fill="#FF8636" d="M110,75.6l-0.2-0.5C109.5,75.2,109.4,75.7,110,75.6z"/>
						<path fill="#FF8636" d="M131.8,75.1c0.2,0.2,0.8,0.4,1.2,0.2C132.5,75.3,132,75.1,131.8,75.1z"/>
						<polygon fill="#FF8636" points="196.9,75.7 196.5,75.8 197.3,75.7 						"/>
					</g>
				</g>
			</g>
		</g>
	</g>
	<g id="Layer_15">
	</g>
	<g id="Layer_16">
	</g>
	<g id="Layer_17">
	</g>
</g>
<g id="Breakfast">
	<g id="Layer_20">
	</g>
	<g id="Layer_21">
	</g>
</g>
<g id="Layer_22">
</g>
<g id="Layer_23">
</g>
<g id="Layer_2" display="none">
</g>
<g id="guides_landing" display="none">
</g>
</svg>
