<?xml version="1.0" encoding="utf-8"?>
<!-- Generator: Adobe Illustrator 18.1.1, SVG Export Plug-In . SVG Version: 6.00 Build 0)  -->
<!DOCTYPE svg PUBLIC "-//W3C//DTD SVG 1.1//EN" "http://www.w3.org/Graphics/SVG/1.1/DTD/svg11.dtd">
<svg version="1.1" xmlns="http://www.w3.org/2000/svg" xmlns:xlink="http://www.w3.org/1999/xlink" x="0px" y="0px" width="789.9px"
	 height="79.5px" viewBox="0 0 789.9 79.5" enable-background="new 0 0 789.9 79.5" xml:space="preserve">
<g id="Landing">
	<g id="Layer_8">
	</g>
	<g id="Main">
		<g id="navigation">
			<g id="logo">
			</g>
		</g>
		<g id="icons">
		</g>
		<g id="body">
		</g>
	</g>
	<g id="Layer_7">
	</g>
</g>
<g id="first_landing">
	<g id="Logo">
	</g>
</g>
<g id="Layer_18">
</g>
<g id="about">
	<g id="Nav">
	</g>
	<g id="Layer_15">
	</g>
	<g id="Layer_16">
		<g>
			<path fill="#FF7419" d="M16,11.3h-5.1V31H6.1V11.3H1V7.4h15V11.3z"/>
			<path fill="#FF7419" d="M22.8,7.4v9h5.5v-9h4.8V31h-4.8V20.5h-5.5V31h-4.8V7.4H22.8z"/>
			<path fill="#FF7419" d="M49.6,11.3h-8.4v5.5h7.9v3.9h-7.9v6.3h8.7V31H36.4V7.4h13.2V11.3z"/>
			<path fill="#FF7419" d="M67.4,7.4l3.4,16.6h0.1l3.4-16.6h7V31h-4.4V12.2h-0.1L72.6,31h-3.7l-4.2-18.8h-0.1V31h-4.4V7.4H67.4z"/>
			<path fill="#FF7419" d="M97.8,11.3h-8.4v5.5h7.9v3.9h-7.9v6.3h8.7V31H84.6V7.4h13.2V11.3z"/>
			<path fill="#FF7419" d="M111,7.4l6.2,23.6h-4.9l-1.1-5h-6.3l-1.1,5h-5l6.2-23.6H111z M110.4,22.1l-2.3-10.6H108l-2.3,10.6H110.4z
				"/>
			<path fill="#FF7419" d="M118.9,7.4h4.8v19.7h8.4V31h-13.2V7.4z"/>
			<path fill="#FF7419" d="M150.4,7.4c1.2,0,2.2,0.2,3.1,0.6s1.5,0.9,2,1.6c0.5,0.7,0.9,1.4,1.1,2.3c0.2,0.8,0.3,1.7,0.3,2.6
				c0,1.2-0.2,2.3-0.5,3.2c-0.4,0.9-0.9,1.6-1.5,2.2c-0.6,0.6-1.4,1-2.4,1.3s-1.9,0.4-3.1,0.4h-2.5V31h-4.8V7.4H150.4z M148.9,18.1
				c0.9,0,1.7-0.3,2.3-0.9s0.9-1.5,0.9-2.7c0-1.2-0.3-2.1-0.8-2.7s-1.4-0.9-2.5-0.9h-2v7.2H148.9z"/>
			<path fill="#FF7419" d="M159.2,7.4h4.8v19.7h8.4V31h-13.2V7.4z"/>
			<path fill="#FF7419" d="M184.9,7.4l6.2,23.6h-4.9l-1.1-5h-6.3l-1.1,5h-5l6.2-23.6H184.9z M184.3,22.1L182,11.5H182l-2.3,10.6
				H184.3z"/>
			<path fill="#FF7419" d="M204,23.6L204,23.6l0.1-16.1h4.4V31h-5.4l-5.8-16.5h-0.1V31h-4.4V7.4h5.5L204,23.6z"/>
		</g>
		<g>
			<path fill="#1AB209" d="M14.3,35.8h2.4l14.1,35.7h-2.3L24,60H6.9L2.3,71.5H0L14.3,35.8z M23.3,58.1l-7.7-20.2h-0.1l-8,20.2H23.3z
				"/>
			<path fill="#1AB209" d="M43.8,35.8h2.2l9.3,33.4h0.1l9.5-33.4h2.8l9.6,33.4h0.1l9.2-33.4h2.3L78.6,71.5h-2.5l-9.8-33.8h-0.1
				l-9.6,33.8h-2.5L43.8,35.8z"/>
			<path fill="#1AB209" d="M91.7,35.8h24v1.9H93.9V52h20.5v1.9H93.9v15.7H116v1.9H91.7V35.8z"/>
			<path fill="#1AB209" d="M119.7,35.8h24v1.9h-21.8V52h20.5v1.9h-20.5v15.7H144v1.9h-24.2V35.8z"/>
			<path fill="#1AB209" d="M147.7,35.8h2.2v20.5l22.5-20.5h2.9l-16.3,14.9l17.3,20.8h-2.8l-16.2-19.3l-7.4,6.8v12.6h-2.2V35.8z"/>
			<path fill="#1AB209" d="M178.4,35.8h2.2v33.8h20.2v1.9h-22.4V35.8z"/>
			<path fill="#1AB209" d="M222.5,35.8h2.5l-14.3,20.8v15h-2.2v-15l-14.2-20.8h2.5l12.9,18.9L222.5,35.8z"/>
			<path fill="#1AB209" d="M241,35.8h15.2c1,0,2.1,0.1,3.3,0.4s2.4,0.7,3.4,1.4s1.9,1.7,2.6,3c0.7,1.3,1,3,1,5.2
				c0,3.1-1,5.5-2.9,7.2s-4.7,2.5-8.3,2.5h-12.2v15.9H241V35.8z M243.2,53.7h12.6c1.6,0,3-0.2,4.1-0.7c1.1-0.5,2-1.1,2.7-1.9
				c0.7-0.8,1.1-1.6,1.4-2.5c0.3-0.9,0.5-1.9,0.5-2.8c0-0.7-0.1-1.5-0.3-2.4c-0.2-0.9-0.6-1.8-1.2-2.7c-0.6-0.8-1.4-1.6-2.5-2.1
				c-1.1-0.6-2.5-0.9-4.3-0.9h-12.9V53.7z"/>
			<path fill="#1AB209" d="M270.5,35.8h2.2v33.8H293v1.9h-22.4V35.8z"/>
			<path fill="#1AB209" d="M306.1,35.8h2.4l14.1,35.7h-2.3L315.8,60h-17.1l-4.5,11.5h-2.3L306.1,35.8z M315.1,58.1l-7.7-20.2h-0.1
				l-8,20.2H315.1z"/>
			<path fill="#1AB209" d="M325.2,35.8h2.8l22.5,32.8h0.1V35.8h2.2v35.7h-2.6l-22.7-33h-0.1v33h-2.2V35.8z"/>
			<path fill="#1AB209" d="M369.1,37.7v-1.9h27.4v1.9h-12.6v33.8h-2.2V37.7H369.1z"/>
			<path fill="#1AB209" d="M429.2,53.6c0,2.6-0.4,5-1.2,7.3c-0.8,2.3-1.9,4.3-3.3,6c-1.5,1.7-3.2,3-5.3,4c-2.1,1-4.5,1.4-7.2,1.4
				s-5.1-0.5-7.2-1.4c-2.1-1-3.9-2.3-5.3-4c-1.5-1.7-2.6-3.7-3.3-6c-0.8-2.3-1.2-4.7-1.2-7.3c0-2.6,0.4-5,1.2-7.3
				c0.8-2.3,1.9-4.3,3.3-6c1.4-1.7,3.2-3,5.3-4c2.1-1,4.5-1.5,7.2-1.5s5,0.5,7.2,1.5c2.1,1,3.9,2.3,5.3,4c1.4,1.7,2.6,3.7,3.3,6
				S429.2,51,429.2,53.6z M397.4,53.6c0,2.3,0.3,4.5,1,6.5c0.7,2,1.6,3.8,2.9,5.3c1.3,1.5,2.8,2.7,4.6,3.6c1.8,0.9,3.9,1.4,6.2,1.4
				s4.4-0.5,6.2-1.4c1.8-0.9,3.4-2.1,4.6-3.6c1.3-1.5,2.2-3.3,2.9-5.3s1-4.2,1-6.5c0-2.3-0.3-4.5-1-6.5s-1.6-3.8-2.9-5.3
				c-1.3-1.5-2.8-2.7-4.6-3.6c-1.8-0.9-3.9-1.4-6.2-1.4s-4.4,0.5-6.2,1.4c-1.8,0.9-3.4,2.1-4.6,3.6c-1.3,1.5-2.2,3.3-2.9,5.3
				C397.8,49.2,397.4,51.3,397.4,53.6z"/>
			<path fill="#1AB209" d="M447.8,35.8h2.2V52h22.8V35.8h2.2v35.7h-2.2V53.9H450v17.6h-2.2V35.8z"/>
			<path fill="#1AB209" d="M481.3,35.8h24v1.9h-21.8V52H504v1.9h-20.5v15.7h22.1v1.9h-24.2V35.8z"/>
			<path fill="#1AB209" d="M519.9,35.8h2.4l14.1,35.7H534L529.5,60h-17.1l-4.5,11.5h-2.3L519.9,35.8z M528.8,58.1l-7.7-20.2h-0.1
				l-8,20.2H528.8z"/>
			<path fill="#1AB209" d="M538.9,35.8h2.2v33.8h20.2v1.9h-22.4V35.8z"/>
			<path fill="#1AB209" d="M554.7,37.7v-1.9H582v1.9h-12.6v33.8h-2.2V37.7H554.7z"/>
			<path fill="#1AB209" d="M584.5,35.8h2.2V52h22.8V35.8h2.2v35.7h-2.2V53.9h-22.8v17.6h-2.2V35.8z"/>
			<path fill="#1AB209" d="M618,35.8h2.2v35.7H618V35.8z"/>
			<path fill="#1AB209" d="M626.5,35.8h24v1.9h-21.8V52h20.5v1.9h-20.5v15.7h22.1v1.9h-24.2V35.8z"/>
			<path fill="#1AB209" d="M654.5,35.8h14.9c1.6,0,3,0.2,4.4,0.5c1.4,0.3,2.6,0.8,3.6,1.5s1.8,1.7,2.4,2.8s0.9,2.6,0.9,4.3
				c0,2.4-0.7,4.4-2,6.1c-1.4,1.6-3.2,2.7-5.6,3.1v0.1c1.6,0.2,2.9,0.6,3.9,1.3c1,0.7,1.7,1.5,2.1,2.5c0.5,1,0.8,2,0.9,3.2
				s0.2,2.3,0.2,3.5c0,0.7,0,1.4,0,2c0,0.7,0,1.3,0.1,1.9c0.1,0.6,0.2,1.1,0.3,1.6c0.2,0.5,0.4,0.9,0.6,1.2h-2.4
				c-0.5-0.8-0.7-1.8-0.8-2.9c0-1.1-0.1-2.3-0.1-3.5c0-1.2,0-2.4-0.1-3.6c-0.1-1.2-0.4-2.2-1-3.2c-0.5-0.9-1.4-1.7-2.5-2.2
				c-1.1-0.6-2.8-0.8-4.9-0.8h-12.7v16.2h-2.2V35.8z M669.4,53.3c1.3,0,2.5-0.2,3.6-0.5c1.1-0.3,2.1-0.8,2.9-1.5s1.4-1.5,1.9-2.6
				c0.5-1,0.7-2.3,0.7-3.7c0-1.3-0.2-2.5-0.8-3.4c-0.5-0.9-1.2-1.7-2-2.3c-0.8-0.6-1.8-1-2.9-1.3c-1.1-0.3-2.2-0.4-3.5-0.4h-12.7
				v15.6H669.4z"/>
			<path fill="#1AB209" d="M699.9,35.8h2.2v33.8h20.2v1.9h-22.4V35.8z"/>
			<path fill="#1AB209" d="M724.9,35.8h2.2v35.7h-2.2V35.8z"/>
			<path fill="#1AB209" d="M733.4,35.8h22.4v1.9h-20.2V52h18.2v1.9h-18.2v17.6h-2.2V35.8z"/>
			<path fill="#1AB209" d="M759.1,35.8h24v1.9h-21.8V52h20.5v1.9h-20.5v15.7h22.1v1.9h-24.2V35.8z"/>
		</g>
	</g>
	<g id="Layer_17">
	</g>
</g>
<g id="Breakfast">
	<g id="Layer_20">
	</g>
	<g id="Layer_21">
	</g>
</g>
<g id="Layer_22">
</g>
<g id="Layer_23">
</g>
<g id="Layer_2" display="none">
</g>
<g id="guides_landing" display="none">
</g>
</svg>
