<?xml version="1.0" encoding="utf-8"?>
<!-- Generator: Adobe Illustrator 18.1.1, SVG Export Plug-In . SVG Version: 6.00 Build 0)  -->
<!DOCTYPE svg PUBLIC "-//W3C//DTD SVG 1.1//EN" "http://www.w3.org/Graphics/SVG/1.1/DTD/svg11.dtd">
<svg version="1.1" xmlns="http://www.w3.org/2000/svg" xmlns:xlink="http://www.w3.org/1999/xlink" x="0px" y="0px" width="294.7px"
	 height="81.4px" viewBox="0 0 294.7 81.4" enable-background="new 0 0 294.7 81.4" xml:space="preserve">
<g id="Landing">
	<g id="Layer_8">
	</g>
	<g id="Main">
		<g id="navigation">
			<g id="logo">
			</g>
		</g>
		<g id="icons">
		</g>
		<g id="body">
		</g>
	</g>
	<g id="Layer_7">
	</g>
</g>
<g id="first_landing">
	<g id="Logo">
	</g>
</g>
<g id="Layer_18">
</g>
<g id="about">
	<g id="Nav">
		<g>
			<path fill="#FFFFFF" d="M38.7,18.9H27.2V63H16.5V18.9H5v-8.7h33.7V18.9z"/>
			<path fill="#FFFFFF" d="M54,10.2v20.2h12.4V10.2h10.7V63H66.4V39.6H54V63H43.3V10.2H54z"/>
			<path fill="#FFFFFF" d="M114,18.9H95.1v12.4h17.8v8.7H95.1v14.2h19.6V63H84.5V10.2H114V18.9z"/>
			<path fill="#FFFFFF" d="M156.5,10.2c2.7,0,5,0.5,6.8,1.4c1.8,0.9,3.3,2.1,4.5,3.6c1.1,1.5,1.9,3.2,2.4,5.1
				c0.5,1.9,0.7,3.8,0.7,5.8c0,2.7-0.4,5.1-1.2,7.1c-0.8,2-1.9,3.7-3.4,5c-1.5,1.3-3.2,2.2-5.3,2.9c-2.1,0.6-4.4,1-6.9,1h-5.7V63
				h-10.7V10.2H156.5z M153.2,34.1c2.1,0,3.8-0.6,5.1-1.9c1.3-1.3,2-3.3,2-6c0-2.7-0.6-4.7-1.7-6.1c-1.1-1.4-3-2.1-5.7-2.1h-4.4
				v16.1H153.2z"/>
			<path fill="#FFFFFF" d="M176.2,10.2h10.7v44.1h18.9V63h-29.5V10.2z"/>
			<path fill="#FFFFFF" d="M234,10.2l14,52.8h-11.1l-2.4-11.2h-14.1L217.9,63h-11.1l14-52.8H234z M232.5,43.1l-5.1-23.8h-0.1
				l-5.1,23.8H232.5z"/>
			<path fill="#FFFFFF" d="M276.8,46.4h0.1V10.2h9.8V63h-12.1l-13-37h-0.1v37h-9.8V10.2h12.3L276.8,46.4z"/>
		</g>
		<g opacity="0.6">
			<g>
				<g>
					<g>
						<path fill="#FF8636" d="M4,74.4c-0.2,0-0.1,0,0.3,0l0.3,0L4,74.4z"/>
						<path fill="#FF8636" d="M6.8,74.4c0.5,0,1.1,0,0.7-0.1c-0.5,0-0.5,0-1.1,0.1c-0.4,0-0.7,0-0.7,0c-0.2,0-0.6,0-0.9,0
							C5.4,74.4,6.1,74.4,6.8,74.4C7,74.4,6.8,74.4,6.8,74.4z"/>
						<path fill="#FF8636" d="M47.4,74.8l-0.3,0C47.2,74.7,47.3,74.8,47.4,74.8z"/>
						<path fill="#FF8636" d="M72.6,75.1c-0.2,0-0.3,0-0.3,0.1C72.5,75.2,72.7,75.1,72.6,75.1z"/>
						<path fill="#FF8636" d="M76.9,75.6c-0.1,0-0.2,0-0.3,0C76.8,75.6,76.9,75.6,76.9,75.6z"/>
						<path fill="#FF8636" d="M47.4,74.8l0.7,0.1C48.2,74.8,47.8,74.8,47.4,74.8z"/>
						<path fill="#FF8636" d="M12.4,74.2c-0.1,0-0.3,0-0.4,0L12.4,74.2L12.4,74.2z"/>
						<path fill="#FF8636" d="M36.3,74.9l-0.2,0c-0.1,0-0.1,0.1-0.2,0.1L36.3,74.9z"/>
						<path fill="#FF8636" d="M27.8,74.8c0.2,0,0.3-0.1,0.3-0.2c-0.1,0.1-0.3,0.1-0.4,0.1C27.7,74.7,27.8,74.7,27.8,74.8z"/>
						<path fill="#FF8636" d="M14.3,74.4l-0.2,0C14.1,74.4,14.2,74.4,14.3,74.4z"/>
						<path fill="#FF8636" d="M42.4,75C42.5,75,42.5,75,42.4,75C42.5,75,42.5,75,42.4,75z"/>
						<path fill="#FF8636" d="M280.6,74C280.6,74,280.6,74.1,280.6,74C280.7,74.1,280.7,74,280.6,74z"/>
						<polygon fill="#FF8636" points="290.5,74.4 290.4,74.4 290.3,74.4 						"/>
						<path fill="#FF8636" d="M84.8,76.1C84.8,76.1,84.8,76.1,84.8,76.1C84.5,76.1,84.7,76.1,84.8,76.1z"/>
						<path fill="#FF8636" d="M157,76.1c-0.8-0.4,1.3-0.5,0.1-0.9C157.2,75.4,156,75.9,157,76.1z"/>
						<path fill="#FF8636" d="M12.6,74.2l0.3,0C12.8,74.2,12.7,74.2,12.6,74.2z"/>
						<path fill="#FF8636" d="M157.1,75.2L157.1,75.2l-0.1,0C157,75.2,157,75.2,157.1,75.2z"/>
						<path fill="#FF8636" d="M102.9,76c0-0.1-0.1-0.1-0.2-0.2C102.7,75.9,102.8,75.9,102.9,76z"/>
						<path fill="#FF8636" d="M89.4,75.4l0.3,0.1C89.6,75.4,89.5,75.4,89.4,75.4z"/>
						<path fill="#FF8636" d="M109.9,75.5c0.2,0,0.2,0.1,0.5,0c0,0,0,0-0.1,0C110.2,75.5,110.1,75.6,109.9,75.5z"/>
						<path fill="#FF8636" d="M117.2,75.5c0,0-0.1-0.1-0.1-0.1c-0.1,0-0.2,0-0.2,0L117.2,75.5z"/>
						<path fill="#FF8636" d="M258.5,73.6c0.2,0.1,0.3,0.1,0.3,0.2C258.7,73.6,259.8,73.6,258.5,73.6z"/>
						<path fill="#FF8636" d="M12.4,74.2c0,0,0.1,0,0.2,0C12.6,74.2,12.5,74.2,12.4,74.2C12.4,74.2,12.4,74.2,12.4,74.2z"/>
						<path fill="#FF8636" d="M110.2,72.4l1.2,0.1C111,72.4,110.6,72.4,110.2,72.4z"/>
						<path fill="#FF8636" d="M206.1,72.9l0.3,0C206.3,72.8,206.2,72.9,206.1,72.9z"/>
						<path fill="#FF8636" d="M114.8,72.3c0.2,0.1,0.4,0.2,0.7,0.3c0,0,0.1-0.1,0.1-0.1L114.8,72.3z"/>
						<path fill="#FF8636" d="M258.8,73.7L258.8,73.7L258.8,73.7z"/>
						<path fill="#FF8636" d="M266.4,73.5c-1.1,0-0.5,0.2-0.8,0.3c-1.3,0-0.6-0.2-1.1-0.3c-0.8,0-1.5,0.2-2.1,0.2c0,0-0.2-0.1,0-0.1
							c-0.9,0.2-2.6,0-3.6,0.2c-0.1,0-0.1,0-0.1-0.1c0.2,0.1,0.2,0.3,0.2,0.3c-0.5,0-0.9,0.2-1.1,0c0.3,0,0.3-0.1,0.5-0.1l-0.5,0.1
							c-0.5-0.2,0.7-0.1,0.7-0.2c-1,0.1-2.2,0.3-3,0.2c-0.2-0.2,1.8-0.1,0.8-0.3l1.2,0.1c-0.9-0.4,0.7,0-0.1-0.4
							c-1.6-0.1-1.8,0.1-3.3,0c-0.4,0.1,0.1,0.2-0.2,0.3c-2.2,0.2-1.8-0.7-3.4-0.4c-0.4,0.2-0.6,0.5-1.8,0.3l0.4-0.3
							c-1.5-0.1-0.9,0.4-2.5,0.2c0.3-0.1,1.2-0.1,1-0.1c-1-0.3-0.7,0.2-1.5,0.2l-0.2-0.3c-1.6,0-3.4,0.2-5.2,0.3
							c0.1-0.1,0.4-0.2,0-0.3c-2.3,0.1-4.9-0.1-7-0.3l-0.8,0.3c-0.2,0-0.4-0.1-0.2-0.2c-0.9-0.1,0,0.2-0.5,0.3
							c-0.5,0-0.6-0.2-0.3-0.3c-1.5,0.2-4.3,0.5-5.9,0.2l0.3-0.1c-1.2-0.1-1.4,0.7-2.5,0.3l0.2-0.1c-2.7-0.2-5.7,0.1-7.7-0.4
							c-0.4,0.5-2.7-0.3-2.8,0.5c-1.5-0.4-1.1-0.5-3.3-0.8c-0.6,0-0.9,0.5-1.6,0.5l0-0.4l-1,0.4l-0.5-0.5l-0.7,0.1
							c0.3,0,0.6,0.2,0.5,0.3c-1,0.2-2.5-0.3-2.6-0.5l-2.5,0.3c0.1-0.2,0.5-0.2,0.8-0.3c-1.3,0.4-0.2-0.4-1.4-0.1
							c0.2,0.1-0.1,0.2-0.1,0.3c-0.6-0.3-2-0.3-3-0.2l0.2-0.3c-1.8-0.1-3.9,0.1-5.9,0.1c0.7,0.1,0.6,0.6,0,0.7l-0.2-0.4
							c-0.4,0.3,0.6,0.2-0.2,0.5c-0.8-0.1-0.5-0.5-0.1-0.7l-0.9,0.1c-0.1-0.1,0.2-0.2,0.2-0.4c-0.4,0.3-1.6-0.5-2.2,0l-0.1-0.1
							c-2.1,0-3,0.1-4.7,0.1c0,0.4-0.7,0.3-1.2,0.6c-1.2-0.1-2.6-0.5-4.1-0.4c-1,0.2-0.3,0.3-0.8,0.6c-0.1-0.4-1.6-0.3-0.8-0.6
							c-1.8,0.1-2.3,0.1-4.5,0.4c0.2,0.2,0.5,0.2,0.4,0.3c-0.4,0.1-0.9-0.2-0.9-0.3l0.1,0c-2.5,0.6-5.8-1.1-7.8-0.3l0.1,0l-2.1,0.4
							c-1-0.1,0.6-0.3-0.1-0.5c-2.3,0.6-3.6-0.1-5.4,0.3c-1.4-1.1-5.1,0.1-7-0.6l0.1,0.3c-0.5,0.3-0.6-0.2-1-0.2
							c0.1,0.2,0.5,0.2,0.2,0.4c-4.2,0.3-8.8-0.4-13.1-0.6c-1.6-0.1-0.9,1.4-2.9,0.7l0.6-0.5c-3.2,0.6-6.6,0-9.7,0.5
							c0.2-0.1,0.2-0.3,0.5-0.3c-0.7-0.4-2.5,0-2.5,0.3c-0.5,0-0.1-0.3-0.4-0.4c-0.7-0.2-1.7,0.5-2,0.1c-0.1-0.1,0.2-0.1,0.3-0.1
							c-0.4,0.2-2,0-1.6,0.4c-1.2-0.2-2.3,0.2-3.2,0c-0.6,0.4-2-0.2-2.2,0.4c0.1-0.6-2.1-0.5-2.8-0.2c0.2-0.2-0.6-0.2-0.4-0.5
							c-0.9,0-1.6,0.1-1.5,0.5c-1.6-0.8-3.2,0.6-4-0.3c-2.5,0.4-4.9,0.6-7.1,0.7c0.1-0.6,2.5-0.1,2.4-0.7c-2.2,0.3-3.4,0.8-5.5,0.7
							c-0.6-0.1,0.3-0.3,0.5-0.4c-2.2,0.3-4.2,0-6.1,0.3c0-0.1,0.2-0.1,0.4-0.2c-0.4,0-0.9-0.1-0.8,0.2l0.4-0.1
							c0.6,0.4-1.5,0.8-1.6,1c0.6-0.8-1.9-0.2-0.9-1.1c-0.2,0.1-0.6,0.2-0.5,0.4c-0.4,0-0.5-0.1-0.1-0.3c-1.4,0.2-0.9,0.4-2.1,0.4
							c0-0.1,0.3-0.2,0.4-0.3c-0.6,0.2-1.2,0.5-2.3,0.4c0.1-0.1-0.1-0.2,0.3-0.2c-1.8,0.1-3,0.6-5,0.4c0.6-0.5-0.7-0.2-0.8-0.6
							l-1,0.1l0.4,0.2c-0.9,0-1.7,0.3-2.5,0.2l0.7-0.2l-1.7,0.1l1,0.2c-0.9,0.2,0.1,0.5-1.1,0.4c0.2,0-0.9,0-1.4-0.3l0,0
							c-0.5,0.1-0.9,0.3-1.6,0.2c-0.2-0.1,0.1-0.5,0-0.5c-0.4,0.3-2.2,0.1-2.7,0.5c0.2-0.1,0.2-0.3,0.1-0.3l-0.4,0.3
							c-0.4-0.1-0.5-0.1-0.4-0.3c-1.3,0,0.4,0.5-1.1,0.3c0.1,0,0.1-0.1,0.3-0.1c-1.5-0.1-3,0.2-4.4,0.1c-0.4-0.4,1.2-0.1,0.8-0.4
							c-2,0.1-4.2,0.5-6.1,0.4l0.4,0c-0.3,0.5-1.5-0.2-2.4,0c0.2,0,0.3-0.3,0.3-0.2c-1.3-0.1-2.7,0.1-4.8,0.3l0.3-0.1
							c-0.8-0.1-2.1,0-2.9-0.1c-0.3,0.1-0.7,0.1-0.4,0.3c-2.6-0.6-5,0.3-7.4-0.1c0.3,0,0.7-0.1,0.4-0.1l-2,0.1
							c0.2,0.2,0.3,0.1,0.7,0.2c-0.3,0.1-0.8,0.2-1.3,0.2c0.9-0.1,0-0.3-0.4-0.3c0.1,0-0.1,0.1,0,0.1c-1-0.3-0.2,0.3-1.6,0.1
							l0.1-0.1c-0.5,0-1,0.1-1.6,0.1c-0.2-0.2,0.6-0.1,0.6-0.2c-0.8,0-1.6,0.3-2.3,0.2c0.3,0,0.8,0,1.2-0.1C30.7,74,30.6,74,30,74
							l0.1,0L28.7,74l0.3,0c-1,0.4-2,0.1-3.4,0.3c1.3-0.2,0.2-0.1,0.3-0.3c-0.3,0-0.9-0.1-0.7-0.1c-0.6,0.1-1.1-0.1-2,0.1
							c0,0-0.7,0-0.5-0.1c-0.8,0,0.2,0.1,0.1,0.1c-1.3,0.1-3-0.1-4.9,0.1c-1.6,0.1-1.9,0.2-3.4,0.2c-0.5,0,0.4-0.1,0.4-0.1
							c-0.8,0-1.4,0-2.2,0c0.2,0,0,0-0.2-0.1c-0.6,0-0.4,0.1-1.2,0.1c0.1,0,0.3-0.1,0.6-0.1c-0.7,0-1.4,0.1-2.2,0.1
							c-0.2,0,0.4,0,0.7-0.1c-0.8,0-2.2,0.1-2.4,0.1l0.5,0c-0.3,0-0.2,0,0.1,0c0.7,0,1,0,1.1,0l-0.5,0c0.5,0.1,2.1,0,3.2,0l-0.4,0.1
							l1.1-0.1c0.2,0,0.4,0.1-0.1,0.1c0.8,0.1,0.7,0,1.3,0c0.1,0,0,0,0,0l0.7,0c-0.1,0,0.1,0.1-0.3,0.1c1.3,0.1,2.2-0.1,2.7,0
							l-0.1,0c1.9,0,0.2-0.1,1.6-0.2l0.9,0.3l0.2-0.1c0.2,0,0.6,0,0.5,0.1c0.7-0.1-0.1-0.1,0.3-0.1c0.9,0.1,2.5-0.1,2.8,0.2
							c0.3-0.1-0.9-0.1,0.1-0.2c0.3,0.2,1.1,0,2,0.1c-0.3,0.1-1.1,0.1-0.2,0.2c0.5-0.2,1.6,0.1,2.4,0c0-0.2,1.5-0.1,2.7-0.1
							c-0.1,0.1,2.2,0.1,3.4,0.2l0,0c0.2-0.2,1.4-0.2,2.2-0.2c0,0.1-0.2,0.2-0.6,0.3l0.8,0c0.2-0.1,0.4-0.1,0.9-0.1l-0.2,0.2
							c1,0,2.1-0.2,3.4-0.1c0.1-0.2-1.1-0.5,0.4-0.7c0.1,0.1,0.1,0.3-0.3,0.3c0.1,0,0.4-0.1,0.7,0l-0.6,0.2c0.6,0.1,0.3-0.1,0.8-0.1
							c0,0.2,0.4,0.1,0.3,0.2c-0.1,0-0.4-0.1-0.6,0c0.6,0,1.2,0.1,1.4,0.2c0-0.1,0-0.2,0.4-0.2c1,0,0.4,0.2,1,0.3
							c0.3-0.1,0.9,0,0.9-0.2c0.3,0,0.4,0.1,0.5,0.2c0.5-0.1,2.5,0,1.9-0.3L47,74.9c0,0,0.1,0.1,0.1,0.1h0h0c1.8-1,3.7,0,5.4-0.1
							l0,0c1-0.1,2.3-0.1,3.1-0.3c0.3,0,0.7,0.2,0.6,0.3c0.8-0.1,0.9-0.2,2,0c-0.8,0.2,0.3,0.1-0.8,0.1c1,0.1,1.3,0.3,2.4,0
							c-0.4,0.3,0.8,0.3,1.3,0.3l-0.7-0.2c0.6,0,1,0,1.5,0l-0.3,0.3c2.1,0.5,3.8-0.7,5.5,0.1c0.6-0.2-1.2-0.2-0.7-0.5
							c1,0.1,2,0.6,2.3,0.6c1.3,0.2,1.3-0.5,2.7-0.4c-0.2-0.1-0.3-0.5,0.7-0.6c1,0.1,1.2,0.6,0.6,0.7c-0.2,0-0.3,0-0.3-0.1
							c-0.3,0-0.7,0.1-0.3,0.3l0.1-0.1c0.5,0.1,1.8,0.1,1.5,0.4c0.7-0.1,0.3-0.2-0.2-0.3c1.3,0.2,2,0,3.3,0.2
							c-0.2-0.1-0.4-0.2-0.2-0.2c1.9,0.2,0.8-0.3,2.1-0.3c0.7,0.2-0.3,0.5,1,0.3c0.8,0.2,0.2,0.4-0.1,0.5c1.2-0.3,2.2,0.2,2.9,0.3
							l-0.6,0.1c0.4-0.1,0.7-0.1,1-0.1l-0.4-0.3c0.4,0.1,0.7,0.1,0.7,0.2c0.4-0.2-0.3-0.5,0.5-0.8c0.5,0.2,1.5-0.2,1.6,0.2
							c-1.5-0.1,0.2,0.4-1.1,0.5c0.2,0,0.6,0,0.9,0c0.1,0-0.1,0.1-0.2,0.1c1.5,0.4,0.7-0.4,2.2-0.4c-0.2,0.2,0.4,0.4,0.6,0.4
							c-0.6,0-0.3-0.4,0.3-0.6c1,0.2,1.1-0.1,1.6-0.1l-0.6-0.1c0.2-0.2,0.7-0.2,1.4-0.3c0.1,0.2-0.6,0.1-0.4,0.2
							c0.8-0.4,1.7,0.4,2.7,0.2c0.5,0.2,0,0.4,0.5,0.6c1.2-0.3,1.3,0.3,2.5,0.1c-0.4-0.3-0.4-0.2,0.5-0.5l-2,0.2l1.3-0.5
							c-0.6,0-1.3,0.2-1.7,0.1c0.6-0.3,0.6-0.2,0.3-0.4c0.8,0.5,1.7-0.3,2.6,0.1l0,0.8c1.5,0.4,2.6-0.4,4.5-0.2l-0.6-0.1
							c0.3-0.3,1.2,0,1.8-0.2c-0.1,0.3,0.3,0.4,0.6,0.5c0-0.2,1.4,0,1.6-0.5l0.8,0.4c1.5,0.2,1.7-0.8,3.2-0.7
							c-0.4,0.3,0.2,0.5-0.8,0.7c0.5,0,0.9,0.1,0.9-0.1c0.3,0.2,1.4-0.4,1.8-0.1c0.2-0.1,0.3-0.4,0.8-0.4c0.1,0.1,0,0.1,0,0.1
							c0-0.1,0.9-0.2,0.4-0.5c1.5,0.9,4.2-0.1,5.5,0.7c1.1-0.1,2.4-0.2,3.3-0.2c-0.1,0.1,0,0.1-0.2,0.1c1.3,0.3,0.8-0.8,2.4-0.5
							c0.8,0.5-0.8,0.3-0.3,0.4c0.2,1,1.8-0.1,2.9,0.4l-0.2,0.1c0.8,0.3,1.9-0.4,3.2-0.3c0,0-0.1,0.1,0,0.1c0.9-0.5,2.5-0.6,3.8-0.8
							c-0.4,0.4-0.6,0.2-0.3,0.6c0.6-0.1-0.2-0.6,0.9-0.7c0.4,0.2,1.2,0.4,1.3,0.8l-1,0c0.5,0.5,1.3,0,1.9,0.1l-0.1,0.2
							c1.6-0.1,1.6-0.7,3.3-0.6l-0.2-0.2c0.9-0.6,0.8,0.3,1.7-0.1l0.3,0.6c0.6-0.1,2.2-0.6,3.3-0.7c-0.6,0.4-1.9,0.7-2.7,0.9
							c0.6,0,2.1,0,2.4-0.3c-0.2,0.1-0.6,0.2-0.8,0.1c0.8-0.5,1.7-0.7,3-0.7c-0.2,1.1,3.2,0.3,4.1,1.2c2.2-0.4,4.3,0.2,6.8,0.1
							c-0.9-0.9,0.7,0,0.6-0.9c0.6-0.1,0.8,0,0.9,0l1.8,0.5c0.4,0.3-0.6,0.2-0.5,0.4c1.3,0.1,0.5,0.4,1.4,0.6
							c-0.2-0.3,0.4-0.5,1.2-0.3l-1-0.4c1.8-0.5,1.6,0.8,3.4,0.3l-0.6,0.3c0.9-0.2,3.4,0,4.3-0.7c0.2,0.1,0.4,0.4,0,0.4
							c2.2,0.1,4.9-0.8,6.7-0.3l-0.2,0.2c0.4-0.1,0.7-0.4,1.2-0.2c0,0.1-0.2,0.2,0,0.2c0.2-0.1,1.1-0.4,1.6-0.3l-0.5,0.2
							c2.2,0.3,3.3-0.6,5.1-0.8c0,0.6,1.7,0.8,2.5,0.9l0,0.1c2.5,0.1,4.3-0.5,6.6-0.8c1.4,0.7,4.9,0.2,7.2,0.6
							c-0.4-0.1,0.1-0.5,0.5-0.5c0.5,0.1,1.5-0.4,1.4,0.1l-0.2,0c0.4,0.5,1.5,0.4,2.4,0.4l0.1-0.7c2.3,1,6-0.4,7.3,0.5
							c0.6-0.2,1.2-0.2,1.8-0.3l0,0.4c1.5,0.1,2.3,0.1,4.2,0l-0.4,0.3c1.1,0,1.3-1,2.3-1l0.3,0.5c1.9,0,3.8,0.4,5.6-0.1
							c0,0.1-0.1,0.2-0.4,0.2c0.9,0,3.4,0.3,3.1-0.4c0,0.4,1.9,0,2.9-0.2l-0.2,0.3c0.9-0.4,0.9-0.5,2.1-0.6c0.3,0,0.2,0.2-0.1,0.2
							c0.9,0.1,0.7-0.3,1.9-0.1l-0.4,0.2c1,0,0.9-0.1,1.4-0.3c0.6-0.1,1.8,0.1,2,0.3c0.1-0.2,0.7-0.4,1.2-0.3
							c0.1,0.1-0.1,0.2-0.2,0.2c1.6,0.2,2.4-0.3,3.5-0.1c0,0.1,0.1,0.1,0.2,0.2c-1.3,0-2.3,0-2.2,0c0,0.3,1,0.3,0.2,0.6
							c0.8-0.2,2.3-0.6,3.3-0.5c0,0,0.1,0,0.1,0.1l-0.1,0c0.2,0,0.4,0,0.6,0c0.3,0,0.5,0.1,0.8,0.1c0.1,0.2,1.2,0.1,1.7,0.1
							c0-0.2,0.6-0.2,0-0.4c0.1,0-0.1,0-0.4,0c-0.1,0-0.2,0-0.2,0l0,0c-0.3,0-0.8,0-1.3,0c0.4-0.1,0.8-0.2,1.4-0.1
							c0.3-0.2,0.6-0.3,0.7-0.4c0.7,0.3,2.1,0.5,2.3,0.7c1.6-0.2,3.7-0.2,4.7-0.6c0.4-0.1,0.5,0.1,0.7,0.2c-0.3,0-0.6,0-0.7,0.1
							c0.9-0.1,2.7-0.1,2.9-0.4c1.1,0.1-0.6,0.3,0.9,0.2l-0.2,0.1c3.1,0.3,5-0.7,8.3-0.2c-0.2,0-0.4,0-0.4-0.1
							c3.9,0.1,7.9-0.2,11.8,0c1.1,0,1.2-0.1,1.9-0.1l0.2,0.1l1.1-0.1c1.6-0.1,2.8,0.2,4.8,0l-0.3,0c0.7,0,2.3,0,2.2,0
							c0.1,0,0.2,0,0.5,0l0,0l1.8-0.1c1.4,0-0.2,0.1,1.8,0c0.7,0,1.6,0,1.9-0.1c-0.3,0-0.7,0-0.8,0l0.7,0c0.1,0,0.7,0-1,0l-1.2,0
							l-0.4,0l1,0c-0.6,0-0.9,0-1.3,0c-0.1,0-0.3,0-0.5,0l-1.2,0c-0.1,0,0.5,0-0.3-0.1c-0.5,0,0.5,0.1-0.4,0.1
							c-0.6,0-0.4-0.1-1.1-0.1c-0.1,0,0,0,0.3,0c-0.6,0-1.6,0-1.9,0c-0.6-0.1-2,0-1.9-0.1c-0.2,0-1,0.1-1.6,0.1c1-0.1-2-0.1-1.8-0.2
							c-0.7,0.1-2.6,0-3.9,0.1c0.1,0,0.2,0,0.3,0c-0.7,0-0.9-0.1-1.4-0.1c-0.1,0.2-1.2,0.2-1.8,0.3c-0.9-0.2,0.5-0.2,0.3-0.4
							c0,0.1-1.6,0.1-1.2,0.2c-0.7-0.1-0.6-0.1-0.9-0.2c-0.1,0.2-0.6,0-1.2,0.2c-1-0.1-0.3-0.2-1.3-0.2
							C265.5,73.6,266.4,73.5,266.4,73.5z M240.6,73.7L240.6,73.7c0.2,0,0.4,0,0.5,0C241.1,73.7,240.9,73.7,240.6,73.7z M238.5,73.7
							c0.3,0,0.6,0,0.9,0c0.1,0.1,0,0.2-0.2,0.2C239.3,73.8,238.8,73.7,238.5,73.7z M243.1,75.5c-0.3,0-0.5,0-0.5-0.1
							C242.7,75.4,242.9,75.4,243.1,75.5c0.1-0.1,0.1-0.1,0.1-0.1C243.2,75.4,243.1,75.4,243.1,75.5z"/>
						<path fill="#FF8636" d="M243.7,75.1c0,0,0.1,0,0.1,0C243.7,75.1,243.7,75.1,243.7,75.1c-0.1,0-0.1,0-0.2,0
							C243.6,75.1,243.6,75.1,243.7,75.1z"/>
						<path fill="#FF8636" d="M47.1,74.7L47.1,74.7C47.1,74.7,47.1,74.7,47.1,74.7C47.1,74.7,47.1,74.7,47.1,74.7z"/>
						<polygon fill="#FF8636" points="208.5,72.7 208.5,72.8 208.7,72.8 						"/>
						<path fill="#FF8636" d="M35.2,74c0,0-0.1,0-0.2,0C35,74,35.1,74,35.2,74z"/>
						<path fill="#FF8636" d="M30,74l-0.7,0C29.6,74,29.8,74,30,74z"/>
						<path fill="#FF8636" d="M26.1,74C26,74,26,74,26.1,74L26.1,74L26.1,74z"/>
						<path fill="#FF8636" d="M89.1,73c0.1,0,0.1,0,0.2,0C89.6,72.9,89.4,72.9,89.1,73z"/>
						<path fill="#FF8636" d="M70.4,73.9c0.2-0.1,0.4-0.1,0.6-0.2C70.6,73.7,70.4,73.7,70.4,73.9z"/>
						<path fill="#FF8636" d="M110.1,72.4L110.1,72.4c0,0,0.1,0,0.1,0L110.1,72.4z"/>
						<path fill="#FF8636" d="M71.8,73.7c-0.3-0.1-0.6,0-0.9,0C71.2,73.8,71.6,73.8,71.8,73.7z"/>
						<path fill="#FF8636" d="M8.9,74.3l-0.2,0c0,0,0,0,0,0L8.9,74.3z"/>
						<path fill="#FF8636" d="M8.7,74.3l-0.2,0C8.5,74.3,8.6,74.3,8.7,74.3z"/>
						<path fill="#FF8636" d="M8,74.3l0.4,0C8.3,74.3,8.1,74.3,8,74.3z"/>
						<path fill="#FF8636" d="M14.1,74.2L14.1,74.2C14.2,74.2,14.1,74.2,14.1,74.2z"/>
						<path fill="#FF8636" d="M15.7,74.1c-0.4,0-1,0-1.5,0l0,0C14.4,74.1,15.4,74.2,15.7,74.1z"/>
						<path fill="#FF8636" d="M22.4,74.6l-1.3,0c0.2,0,0.5,0.1-0.1,0.1C22.7,74.8,20.6,74.5,22.4,74.6z"/>
						<path fill="#FF8636" d="M26.5,74.7c-0.7,0,0,0.1,0,0.1C27,74.8,27.1,74.8,26.5,74.7z"/>
						<path fill="#FF8636" d="M56.5,75l-0.1,0.2C57,75.2,56.4,75.1,56.5,75z"/>
						<polygon fill="#FF8636" points="62.2,73.7 61.7,73.5 61.4,73.7 						"/>
						<polygon fill="#FF8636" points="65.6,75.6 65.4,75.6 66.3,75.5 						"/>
						<path fill="#FF8636" d="M115.9,75.9l-0.2-0.5C115.4,75.5,115.3,76,115.9,75.9z"/>
						<path fill="#FF8636" d="M137.6,75.5c0.2,0.2,0.8,0.4,1.2,0.2C138.4,75.6,137.9,75.4,137.6,75.5z"/>
						<polygon fill="#FF8636" points="202.8,76 202.3,76.1 203.2,76 						"/>
					</g>
				</g>
			</g>
		</g>
	</g>
	<g id="Layer_15">
	</g>
	<g id="Layer_16">
	</g>
	<g id="Layer_17">
	</g>
</g>
<g id="Breakfast">
	<g id="Layer_20">
	</g>
	<g id="Layer_21">
	</g>
</g>
<g id="Layer_22">
</g>
<g id="Layer_23">
</g>
<g id="Layer_2" display="none">
</g>
<g id="guides_landing" display="none">
</g>
</svg>
