<?xml version="1.0" encoding="utf-8"?>
<!-- Generator: Adobe Illustrator 18.1.1, SVG Export Plug-In . SVG Version: 6.00 Build 0)  -->
<!DOCTYPE svg PUBLIC "-//W3C//DTD SVG 1.1//EN" "http://www.w3.org/Graphics/SVG/1.1/DTD/svg11.dtd">
<svg version="1.1" xmlns="http://www.w3.org/2000/svg" xmlns:xlink="http://www.w3.org/1999/xlink" x="0px" y="0px" width="196.9px"
	 height="75.4px" viewBox="0 0 196.9 75.4" enable-background="new 0 0 196.9 75.4" xml:space="preserve">
<g id="Landing">
	<g id="Layer_8">
	</g>
	<g id="Main">
		<g id="navigation">
			<g id="logo">
			</g>
		</g>
		<g id="icons">
			<g>
				<path fill="#F2F2F2" d="M2,8.9h3.1V3.3h4.1v5.6h3.7v3.1H9.2v9.9c0,0.4,0,0.8,0.1,1.1s0.1,0.6,0.3,0.8c0.1,0.2,0.3,0.4,0.6,0.5
					c0.3,0.1,0.6,0.2,1.1,0.2c0.3,0,0.6,0,0.9,0c0.3,0,0.6-0.1,0.9-0.1v3.2c-0.5,0-0.9,0.1-1.3,0.1c-0.4,0-0.9,0.1-1.3,0.1
					c-1.1,0-2-0.1-2.6-0.3c-0.7-0.2-1.2-0.5-1.5-0.9C5.7,26,5.5,25.6,5.4,25c-0.1-0.6-0.2-1.3-0.2-2.1v-11H2V8.9z"/>
				<path fill="#F2F2F2" d="M15.9,1.8H20v9.5h0.1c0.5-0.8,1.3-1.5,2.2-2.1c1-0.6,2.1-0.8,3.3-0.8c2,0,3.6,0.5,4.8,1.6
					c1.2,1.1,1.8,2.6,1.8,4.8v12.8h-4.1V15.8c0-1.5-0.4-2.5-0.9-3.2c-0.6-0.7-1.5-1-2.7-1c-0.7,0-1.3,0.1-1.9,0.4
					c-0.6,0.3-1,0.6-1.4,1s-0.7,1-0.9,1.6c-0.2,0.6-0.3,1.2-0.3,1.9v11h-4.1V1.8z"/>
				<path fill="#F2F2F2" d="M39.8,19.2c0,0.7,0.1,1.4,0.3,2.1c0.2,0.7,0.5,1.3,0.9,1.8c0.4,0.5,0.9,0.9,1.5,1.2
					c0.6,0.3,1.4,0.5,2.2,0.5c1.2,0,2.2-0.3,2.9-0.8c0.7-0.5,1.3-1.3,1.6-2.3h3.9c-0.2,1-0.6,1.9-1.1,2.7s-1.2,1.5-1.9,2
					c-0.7,0.5-1.6,0.9-2.5,1.2c-0.9,0.3-1.9,0.4-2.9,0.4c-1.5,0-2.8-0.2-3.9-0.7c-1.1-0.5-2.1-1.2-2.9-2c-0.8-0.9-1.4-1.9-1.8-3.1
					s-0.6-2.5-0.6-4c0-1.3,0.2-2.6,0.6-3.8c0.4-1.2,1-2.2,1.8-3.1c0.8-0.9,1.7-1.6,2.8-2.1c1.1-0.5,2.4-0.8,3.7-0.8
					c1.5,0,2.8,0.3,3.9,0.9c1.2,0.6,2.1,1.4,2.9,2.4c0.8,1,1.3,2.2,1.7,3.5c0.3,1.3,0.4,2.7,0.3,4H39.8z M49.3,16.5
					c0-0.6-0.2-1.3-0.4-1.9c-0.2-0.6-0.5-1.1-0.9-1.6s-0.9-0.8-1.4-1.1c-0.6-0.3-1.2-0.4-1.9-0.4c-0.7,0-1.4,0.1-2,0.4
					c-0.6,0.3-1.1,0.6-1.5,1c-0.4,0.4-0.8,1-1,1.6c-0.3,0.6-0.4,1.2-0.4,1.9H49.3z"/>
			</g>
			<g>
				<path fill="#F2F2F2" d="M19.9,31.1c2.2,0,4,0.4,5.5,1.1c1.5,0.7,2.7,1.7,3.6,2.9c0.9,1.2,1.6,2.6,2,4.1c0.4,1.5,0.6,3.1,0.6,4.7
					c0,2.2-0.3,4.1-1,5.8c-0.7,1.6-1.6,3-2.8,4c-1.2,1-2.6,1.8-4.3,2.3c-1.7,0.5-3.5,0.8-5.6,0.8h-4.6V74H4.7V31.1H19.9z M17.2,50.5
					c1.7,0,3.1-0.5,4.2-1.6c1.1-1,1.6-2.7,1.6-4.9c0-2.2-0.5-3.8-1.4-4.9c-0.9-1.1-2.5-1.7-4.6-1.7h-3.6v13H17.2z"/>
				<path fill="#F2F2F2" d="M51.8,31.1c3.6,0,6.4,0.9,8.4,2.7c2,1.8,3,4.6,3,8.3c0,2.9-0.6,5.2-1.7,7c-1.2,1.8-3,3-5.4,3.5v0.1
					c2.2,0.3,3.7,1,4.7,2.1c1,1.1,1.6,2.8,1.9,5.2c0.1,0.8,0.1,1.7,0.2,2.6c0,0.9,0.1,2,0.1,3.2c0.1,2.3,0.2,4,0.4,5.2
					c0.2,1.2,0.8,2,1.6,2.5V74h-9.4c-0.4-0.6-0.7-1.3-0.8-2.1c-0.1-0.8-0.2-1.6-0.2-2.4l-0.2-8.2c-0.1-1.7-0.5-3-1.3-4
					s-2-1.4-3.8-1.4h-4.6V74h-8.6V31.1H51.8z M48.1,49.8c2.1,0,3.7-0.5,4.8-1.5c1.1-1,1.7-2.6,1.7-5c0-4-2-5.9-6-5.9h-4.1v12.4H48.1
					z"/>
				<path fill="#F2F2F2" d="M69.7,31.1h8.6V74h-8.6V31.1z"/>
				<path fill="#F2F2F2" d="M101.9,38.8c-0.7-1.4-2.1-2.1-4.1-2.1c-1.1,0-2,0.3-2.7,0.9c-0.7,0.6-1.2,1.5-1.6,2.8
					c-0.4,1.3-0.7,3-0.8,5.1c-0.2,2.1-0.2,4.7-0.2,7.7c0,3.2,0.1,5.9,0.3,7.9c0.2,2,0.6,3.5,1,4.7s1,1.8,1.7,2.2
					c0.7,0.4,1.5,0.6,2.4,0.6c0.8,0,1.5-0.1,2.1-0.4c0.7-0.3,1.2-0.8,1.7-1.6c0.5-0.8,0.9-1.9,1.1-3.3c0.3-1.4,0.4-3.3,0.4-5.6h8.6
					c0,2.3-0.2,4.5-0.5,6.6c-0.4,2.1-1,3.9-2,5.5c-1,1.6-2.4,2.8-4.1,3.7c-1.8,0.9-4.1,1.3-6.9,1.3c-3.2,0-5.8-0.5-7.7-1.6
					c-1.9-1-3.4-2.5-4.4-4.5c-1-2-1.7-4.3-2-7c-0.3-2.7-0.5-5.7-0.5-9c0-3.2,0.2-6.2,0.5-9c0.3-2.7,1-5.1,2-7.1c1-2,2.5-3.5,4.4-4.6
					c1.9-1.1,4.5-1.6,7.7-1.6c3.1,0,5.5,0.5,7.3,1.5c1.8,1,3.1,2.3,4,3.8c0.9,1.5,1.4,3.2,1.7,5c0.2,1.8,0.3,3.4,0.3,5H103
					C103,42.5,102.7,40.2,101.9,38.8z"/>
				<path fill="#F2F2F2" d="M117.4,31.1h8.6V74h-8.6V31.1z"/>
				<path fill="#F2F2F2" d="M152.8,60.5h0.1V31.1h7.9V74H151l-10.6-30h-0.1v30h-7.9V31.1h10L152.8,60.5z"/>
				<path fill="#F2F2F2" d="M185.6,41.4c-0.2-0.8-0.5-1.6-0.9-2.3c-0.4-0.7-0.9-1.3-1.5-1.7s-1.4-0.7-2.2-0.7
					c-2.1,0-3.6,1.2-4.5,3.5c-0.9,2.3-1.4,6.2-1.4,11.5c0,2.6,0.1,4.9,0.2,7c0.2,2.1,0.5,3.9,0.9,5.3c0.4,1.5,1,2.6,1.8,3.4
					c0.8,0.8,1.8,1.2,3,1.2c0.5,0,1.1-0.1,1.7-0.4c0.6-0.3,1.2-0.7,1.7-1.3c0.5-0.6,1-1.3,1.3-2.1c0.4-0.9,0.5-1.9,0.5-3v-4.4h-5.7
					v-6.4h14V74h-6.4v-4h-0.1c-1,1.7-2.3,2.9-3.8,3.6c-1.5,0.7-3.2,1-5.2,1c-2.6,0-4.8-0.5-6.5-1.4c-1.7-0.9-3-2.3-3.9-4.3
					c-0.9-1.9-1.6-4.3-1.9-7.1c-0.3-2.8-0.5-6.1-0.5-9.8c0-3.6,0.2-6.8,0.7-9.5c0.5-2.7,1.2-5,2.4-6.8c1.1-1.8,2.6-3.2,4.4-4.1
					c1.8-0.9,4.1-1.4,6.9-1.4c4.7,0,8.1,1.2,10.2,3.5s3.1,5.7,3.1,10h-8.3C185.9,43,185.8,42.2,185.6,41.4z"/>
			</g>
		</g>
		<g id="body">
		</g>
	</g>
	<g id="Layer_7">
	</g>
</g>
<g id="first_landing">
	<g id="Logo">
	</g>
</g>
<g id="Layer_18">
</g>
<g id="about">
	<g id="Nav">
	</g>
	<g id="Layer_15">
	</g>
	<g id="Layer_16">
	</g>
	<g id="Layer_17">
	</g>
</g>
<g id="Breakfast">
	<g id="Layer_20">
	</g>
	<g id="Layer_21">
	</g>
</g>
<g id="Layer_24">
</g>
<g id="Layer_22">
</g>
<g id="Layer_23">
</g>
<g id="Layer_2" display="none">
</g>
<g id="guides_landing" display="none">
</g>
</svg>
