<?xml version="1.0" encoding="utf-8"?>
<!-- Generator: Adobe Illustrator 19.2.1, SVG Export Plug-In . SVG Version: 6.00 Build 0)  -->
<svg version="1.1" xmlns="http://www.w3.org/2000/svg" xmlns:xlink="http://www.w3.org/1999/xlink" x="0px" y="0px"
	 viewBox="0 0 644.7 70.7" enable-background="new 0 0 644.7 70.7" xml:space="preserve">
<g id="Landing">
	<g id="Layer_8">
	</g>
	<g id="Main">
		<g id="navigation">
			<g id="logo">
			</g>
		</g>
		<g id="icons">
		</g>
		<g id="body">
		</g>
	</g>
	<g id="Layer_7">
	</g>
</g>
<g id="first_landing">
	<g id="Logo">
	</g>
</g>
<g id="Layer_18">
</g>
<g id="about">
	<g id="Nav">
	</g>
	<g id="Layer_15">
	</g>
	<g id="Layer_16">
		<g>
			<path fill="#FF7419" d="M10.7,2.8L14,19.4h0.1l3.4-16.6h7v23.6h-4.4V7.5h-0.1l-4.2,18.8h-3.7L8,7.5H8v18.8H3.6V2.8H10.7z"/>
			<path fill="#FF7419" d="M41.1,6.7h-8.4v5.5h7.9v3.9h-7.9v6.3h8.7v3.9H27.9V2.8h13.2V6.7z"/>
			<path fill="#FF7419" d="M54.3,2.8l6.2,23.6h-4.9l-1.1-5h-6.3l-1.1,5h-5l6.2-23.6H54.3z M53.6,17.5L51.4,6.9h-0.1L49,17.5H53.6z"
				/>
			<path fill="#FF7419" d="M62.2,2.8h4.8v19.7h8.4v3.9H62.2V2.8z"/>
			<path fill="#FF7419" d="M93.7,2.8c1.2,0,2.2,0.2,3.1,0.6s1.5,0.9,2,1.6c0.5,0.7,0.9,1.4,1.1,2.3c0.2,0.8,0.3,1.7,0.3,2.6
				c0,1.2-0.2,2.3-0.5,3.2c-0.4,0.9-0.9,1.6-1.5,2.2c-0.6,0.6-1.4,1-2.4,1.3s-1.9,0.4-3.1,0.4h-2.5v9.4h-4.8V2.8H93.7z M92.2,13.5
				c0.9,0,1.7-0.3,2.3-0.9s0.9-1.5,0.9-2.7c0-1.2-0.3-2.1-0.8-2.7s-1.4-0.9-2.5-0.9h-2v7.2H92.2z"/>
			<path fill="#FF7419" d="M111.3,2.8c2,0,3.5,0.5,4.6,1.5c1.1,1,1.7,2.5,1.7,4.6c0,1.6-0.3,2.9-1,3.9c-0.6,1-1.6,1.6-3,1.9v0.1
				c1.2,0.2,2.1,0.6,2.6,1.2c0.5,0.6,0.9,1.6,1,2.9c0,0.4,0.1,0.9,0.1,1.4c0,0.5,0,1.1,0.1,1.7c0,1.3,0.1,2.2,0.2,2.9
				c0.1,0.7,0.4,1.1,0.9,1.4v0.2h-5.1c-0.2-0.3-0.4-0.7-0.5-1.1c-0.1-0.4-0.1-0.9-0.1-1.3l-0.1-4.5c0-0.9-0.3-1.7-0.7-2.2
				c-0.4-0.5-1.1-0.8-2.1-0.8h-2.5v10h-4.8V2.8H111.3z M109.2,13.1c1.1,0,2-0.3,2.6-0.8c0.6-0.5,0.9-1.4,0.9-2.7
				c0-2.2-1.1-3.3-3.3-3.3h-2.2v6.8H109.2z"/>
			<path fill="#FF7419" d="M134,6.7h-8.4v5.5h7.9v3.9h-7.9v6.3h8.7v3.9h-13.5V2.8H134V6.7z"/>
			<path fill="#FF7419" d="M145,2.8c1.2,0,2.2,0.2,3.1,0.6s1.5,0.9,2,1.6c0.5,0.7,0.9,1.4,1.1,2.3c0.2,0.8,0.3,1.7,0.3,2.6
				c0,1.2-0.2,2.3-0.5,3.2c-0.4,0.9-0.9,1.6-1.5,2.2c-0.6,0.6-1.4,1-2.4,1.3s-1.9,0.4-3.1,0.4h-2.5v9.4h-4.8V2.8H145z M143.6,13.5
				c0.9,0,1.7-0.3,2.3-0.9s0.9-1.5,0.9-2.7c0-1.2-0.3-2.1-0.8-2.7s-1.4-0.9-2.5-0.9h-2v7.2H143.6z"/>
		</g>
		<g>
			<path fill="#1AB209" d="M28.3,41.4c-0.1-1.5-0.4-2.9-1-4c-0.6-1.1-1.4-2.1-2.4-2.8s-2.2-1.3-3.6-1.7c-1.4-0.4-2.9-0.6-4.5-0.6
				c-1,0-2.1,0.1-3.2,0.4c-1.2,0.2-2.2,0.6-3.2,1.2c-1,0.6-1.8,1.4-2.4,2.4c-0.6,1-1,2.2-1,3.7c0,1.4,0.3,2.6,1,3.5
				c0.7,0.9,1.6,1.6,2.8,2.2c1.1,0.5,2.4,1,3.9,1.3c1.5,0.3,2.9,0.6,4.4,1c1.5,0.3,3,0.7,4.5,1.1c1.5,0.4,2.8,1,3.9,1.7
				c1.2,0.7,2.1,1.7,2.8,2.8c0.7,1.2,1,2.6,1,4.3c0,1.9-0.4,3.4-1.2,4.7c-0.8,1.3-1.8,2.3-3,3.1c-1.2,0.8-2.6,1.4-4,1.7
				c-1.5,0.3-2.9,0.5-4.3,0.5c-2.1,0-4.1-0.2-5.9-0.7s-3.4-1.2-4.8-2.2c-1.4-1-2.4-2.3-3.2-3.9c-0.8-1.6-1.2-3.5-1.1-5.8H6
				c-0.1,2,0.2,3.6,0.8,5c0.7,1.4,1.6,2.5,2.8,3.3c1.2,0.9,2.6,1.5,4.2,1.9c1.6,0.4,3.3,0.6,5,0.6c1.1,0,2.2-0.1,3.4-0.4
				c1.2-0.3,2.3-0.7,3.4-1.3c1-0.6,1.9-1.5,2.5-2.5c0.7-1,1-2.3,1-3.9c0-1.5-0.3-2.7-1-3.7s-1.6-1.7-2.8-2.3c-1.2-0.6-2.5-1-3.9-1.4
				c-1.5-0.3-2.9-0.7-4.5-1c-1.5-0.3-3-0.7-4.5-1c-1.5-0.4-2.8-0.9-3.9-1.6c-1.1-0.7-2-1.6-2.8-2.7c-0.7-1.1-1-2.5-1-4.2
				s0.4-3.2,1.1-4.4c0.7-1.2,1.6-2.2,2.8-3c1.2-0.7,2.4-1.3,3.9-1.7c1.4-0.3,2.8-0.5,4.2-0.5c1.9,0,3.6,0.2,5.2,0.6s3,1.1,4.2,2
				c1.2,0.9,2.2,2,2.9,3.4c0.7,1.4,1.1,3.1,1.2,5H28.3z"/>
			<path fill="#1AB209" d="M31.6,33.1v-1.9h27.4v1.9H46.3v33.8h-2.2V33.1H31.6z"/>
			<path fill="#1AB209" d="M68.1,31.2h2.4l14.1,35.7h-2.3l-4.5-11.5H60.6l-4.5,11.5h-2.3L68.1,31.2z M77,53.5l-7.7-20.2h-0.1
				l-8,20.2H77z"/>
			<path fill="#1AB209" d="M87.1,31.2h2.8l22.5,32.8h0.1V31.2h2.2v35.7h-2.6l-22.7-33h-0.1v33h-2.2V31.2z"/>
			<path fill="#1AB209" d="M121,31.2h11.7c3.2,0,5.9,0.5,8,1.5c2.1,1,3.8,2.3,5.1,4c1.3,1.7,2.2,3.6,2.7,5.7
				c0.5,2.1,0.8,4.3,0.8,6.6c0,2.5-0.3,4.9-1,7.1c-0.7,2.2-1.7,4.1-3,5.7c-1.4,1.6-3.1,2.9-5.2,3.8c-2.1,0.9-4.6,1.4-7.4,1.4H121
				V31.2z M132.8,65c1.7,0,3.3-0.3,5-0.8c1.7-0.5,3.2-1.4,4.6-2.6c1.4-1.2,2.5-2.8,3.3-4.9s1.3-4.6,1.3-7.7c0-2.4-0.2-4.5-0.7-6.2
				c-0.5-1.7-1.1-3.2-1.9-4.4c-0.8-1.2-1.7-2.1-2.7-2.8c-1-0.7-2.1-1.2-3.2-1.6c-1.1-0.4-2.2-0.6-3.2-0.7c-1.1-0.1-2.1-0.2-2.9-0.2
				h-9.2V65H132.8z"/>
			<path fill="#1AB209" d="M163.8,31.2h2.4l14.1,35.7h-2.3l-4.5-11.5h-17.1l-4.5,11.5h-2.3L163.8,31.2z M172.7,53.5l-7.7-20.2H165
				l-8,20.2H172.7z"/>
			<path fill="#1AB209" d="M182.8,31.2h14.9c1.6,0,3,0.2,4.4,0.5c1.4,0.3,2.6,0.8,3.6,1.5s1.8,1.7,2.4,2.8s0.9,2.6,0.9,4.3
				c0,2.4-0.7,4.4-2,6.1c-1.4,1.6-3.2,2.7-5.6,3.1v0.1c1.6,0.2,2.9,0.6,3.9,1.3c1,0.7,1.7,1.5,2.1,2.5c0.5,1,0.8,2,0.9,3.2
				s0.2,2.3,0.2,3.5c0,0.7,0,1.4,0,2c0,0.7,0,1.3,0.1,1.9c0.1,0.6,0.2,1.1,0.3,1.6c0.2,0.5,0.4,0.9,0.6,1.2h-2.4
				c-0.5-0.8-0.7-1.8-0.8-2.9c0-1.1-0.1-2.3-0.1-3.5c0-1.2,0-2.4-0.1-3.6c-0.1-1.2-0.4-2.2-1-3.2c-0.5-0.9-1.4-1.7-2.5-2.2
				c-1.1-0.6-2.8-0.8-4.9-0.8H185v16.3h-2.2V31.2z M197.7,48.7c1.3,0,2.5-0.2,3.6-0.5c1.1-0.3,2.1-0.8,2.9-1.5s1.4-1.5,1.9-2.6
				c0.5-1,0.7-2.3,0.7-3.7c0-1.3-0.2-2.5-0.8-3.4c-0.5-0.9-1.2-1.7-2-2.3c-0.8-0.6-1.8-1-2.9-1.3c-1.1-0.3-2.2-0.4-3.5-0.4H185v15.6
				H197.7z"/>
			<path fill="#1AB209" d="M214.3,31.2H226c3.2,0,5.9,0.5,8,1.5c2.1,1,3.8,2.3,5.1,4c1.3,1.7,2.2,3.6,2.7,5.7
				c0.5,2.1,0.8,4.3,0.8,6.6c0,2.5-0.3,4.9-1,7.1c-0.7,2.2-1.7,4.1-3,5.7c-1.4,1.6-3.1,2.9-5.2,3.8c-2.1,0.9-4.6,1.4-7.4,1.4h-11.6
				V31.2z M226.1,65c1.7,0,3.3-0.3,5-0.8c1.7-0.5,3.2-1.4,4.6-2.6c1.4-1.2,2.5-2.8,3.3-4.9s1.3-4.6,1.3-7.7c0-2.4-0.2-4.5-0.7-6.2
				c-0.5-1.7-1.1-3.2-1.9-4.4c-0.8-1.2-1.7-2.1-2.7-2.8c-1-0.7-2.1-1.2-3.2-1.6c-1.1-0.4-2.2-0.6-3.2-0.7c-1.1-0.1-2.1-0.2-2.9-0.2
				h-9.2V65H226.1z"/>
			<path fill="#1AB209" d="M261.6,31.2h3.1l14,33.2h0.1l13.8-33.2h3.1v35.7h-2.2v-33h-0.1l-13.6,33h-2.2l-13.8-33h-0.1v33h-2.2V31.2
				z"/>
			<path fill="#1AB209" d="M302,31.2h24v1.9h-21.8v14.3h20.5v1.9h-20.5V65h22.1v1.9H302V31.2z"/>
			<path fill="#1AB209" d="M340.6,31.2h2.4l14.1,35.7h-2.3l-4.5-11.5h-17.1l-4.5,11.5h-2.3L340.6,31.2z M349.6,53.5l-7.7-20.2h-0.1
				l-8,20.2H349.6z"/>
			<path fill="#1AB209" d="M359.7,31.2h2.2V65h20.2v1.9h-22.4V31.2z"/>
			<path fill="#1AB209" d="M397.6,58.4c0-1.5,0.3-2.8,0.9-3.8c0.6-1.1,1.3-2.1,2.2-3c0.9-0.9,1.9-1.7,3-2.4c1.1-0.7,2.2-1.4,3.2-2
				c-0.6-0.7-1.1-1.4-1.7-2.1c-0.6-0.7-1.1-1.4-1.5-2.1c-0.5-0.8-0.9-1.5-1.2-2.4c-0.3-0.8-0.5-1.7-0.5-2.7c0-0.9,0.2-1.8,0.7-2.5
				c0.4-0.8,1-1.4,1.7-1.9c0.7-0.5,1.5-0.9,2.4-1.2c0.9-0.3,1.8-0.4,2.8-0.4c1,0,1.9,0.1,2.8,0.4c0.9,0.3,1.7,0.7,2.4,1.2
				c0.7,0.5,1.3,1.2,1.7,1.9s0.6,1.6,0.6,2.6c0,1.3-0.2,2.4-0.7,3.3c-0.5,0.9-1,1.8-1.7,2.5s-1.5,1.4-2.4,2
				c-0.9,0.6-1.8,1.2-2.6,1.9l8.5,10.5c0.4-0.9,0.7-1.9,0.9-2.9c0.2-1,0.3-2,0.3-3h1.9c-0.1,1.3-0.3,2.6-0.6,3.9
				c-0.3,1.3-0.7,2.5-1.2,3.7l5.8,7.2h-2.5l-4.3-5.3c-1.1,1.8-2.5,3.3-4.2,4.3c-1.7,1-3.7,1.6-5.9,1.6c-1.5,0-2.9-0.2-4.2-0.6
				c-1.3-0.4-2.4-1-3.4-1.7c-0.9-0.8-1.7-1.7-2.2-2.9C397.8,61.2,397.6,59.9,397.6,58.4z M399.5,58.4c0,1.2,0.2,2.2,0.8,3.2
				s1.2,1.7,2,2.3c0.8,0.6,1.7,1.1,2.8,1.5s2.1,0.5,3.2,0.5c1.5,0,2.8-0.3,3.9-0.9c1.1-0.6,2-1.2,2.8-1.9c0.7-0.7,1.3-1.4,1.6-2
				c0.4-0.6,0.6-1,0.6-1l-9.2-11.5c-0.9,0.6-1.9,1.2-2.9,1.8c-1,0.6-1.9,1.3-2.7,2.1c-0.8,0.8-1.5,1.6-2,2.6S399.5,57.1,399.5,58.4z
				 M408.5,46.3c0.7-0.5,1.5-1,2.2-1.5s1.5-1.2,2.1-1.8c0.7-0.7,1.2-1.4,1.6-2.2c0.4-0.8,0.6-1.8,0.6-2.8c0-0.7-0.2-1.3-0.5-1.8
				c-0.3-0.5-0.8-1-1.3-1.4c-0.5-0.4-1.1-0.7-1.8-0.9c-0.7-0.2-1.4-0.3-2.1-0.3c-0.7,0-1.4,0.1-2,0.3s-1.3,0.5-1.8,0.9
				c-0.5,0.4-0.9,0.9-1.3,1.4c-0.3,0.6-0.5,1.2-0.5,1.8c0,0.9,0.2,1.7,0.5,2.4c0.3,0.8,0.7,1.5,1.2,2.2c0.5,0.7,1,1.3,1.5,2
				C407.6,45,408.1,45.7,408.5,46.3z"/>
			<path fill="#1AB209" d="M474.5,49c0,2.6-0.4,5-1.2,7.3c-0.8,2.3-1.9,4.3-3.3,6c-1.5,1.7-3.2,3-5.3,4c-2.1,1-4.5,1.4-7.2,1.4
				s-5.1-0.5-7.2-1.4c-2.1-1-3.9-2.3-5.3-4c-1.5-1.7-2.6-3.7-3.3-6c-0.8-2.3-1.2-4.7-1.2-7.3c0-2.6,0.4-5,1.2-7.3
				c0.8-2.3,1.9-4.3,3.3-6c1.4-1.7,3.2-3,5.3-4c2.1-1,4.5-1.5,7.2-1.5s5,0.5,7.2,1.5c2.1,1,3.9,2.3,5.3,4c1.4,1.7,2.6,3.7,3.3,6
				S474.5,46.4,474.5,49z M442.7,49c0,2.3,0.3,4.5,1,6.5c0.7,2,1.6,3.8,2.9,5.3c1.3,1.5,2.8,2.7,4.6,3.6c1.8,0.9,3.9,1.4,6.2,1.4
				s4.4-0.5,6.2-1.4c1.8-0.9,3.4-2.1,4.6-3.6c1.3-1.5,2.2-3.3,2.9-5.3s1-4.2,1-6.5c0-2.3-0.3-4.5-1-6.5s-1.6-3.8-2.9-5.3
				c-1.3-1.5-2.8-2.7-4.6-3.6c-1.8-0.9-3.9-1.4-6.2-1.4s-4.4,0.5-6.2,1.4c-1.8,0.9-3.4,2.1-4.6,3.6c-1.3,1.5-2.2,3.3-2.9,5.3
				C443,44.5,442.7,46.7,442.7,49z"/>
			<path fill="#1AB209" d="M479.2,31.2h15.2c1,0,2.1,0.1,3.3,0.4s2.4,0.7,3.4,1.4s1.9,1.7,2.6,3c0.7,1.3,1,3,1,5.2
				c0,3.1-1,5.5-2.9,7.2s-4.7,2.5-8.3,2.5h-12.2v15.9h-2.2V31.2z M481.4,49.1h12.6c1.6,0,3-0.2,4.1-0.7c1.1-0.5,2-1.1,2.7-1.9
				c0.7-0.8,1.1-1.6,1.4-2.5c0.3-0.9,0.5-1.9,0.5-2.8c0-0.7-0.1-1.5-0.3-2.4c-0.2-0.9-0.6-1.8-1.2-2.7c-0.6-0.8-1.4-1.6-2.5-2.1
				c-1.1-0.6-2.5-0.9-4.3-0.9h-12.9V49.1z"/>
			<path fill="#1AB209" d="M504.9,33.1v-1.9h27.4v1.9h-12.6v33.8h-2.2V33.1H504.9z"/>
			<path fill="#1AB209" d="M534.7,31.2h2.2v35.7h-2.2V31.2z"/>
			<path fill="#1AB209" d="M575.5,49c0,2.6-0.4,5-1.2,7.3c-0.8,2.3-1.9,4.3-3.3,6c-1.5,1.7-3.2,3-5.3,4c-2.1,1-4.5,1.4-7.2,1.4
				s-5.1-0.5-7.2-1.4c-2.1-1-3.9-2.3-5.3-4c-1.5-1.7-2.6-3.7-3.3-6c-0.8-2.3-1.2-4.7-1.2-7.3c0-2.6,0.4-5,1.2-7.3
				c0.8-2.3,1.9-4.3,3.3-6c1.4-1.7,3.2-3,5.3-4c2.1-1,4.5-1.5,7.2-1.5s5,0.5,7.2,1.5c2.1,1,3.9,2.3,5.3,4c1.4,1.7,2.6,3.7,3.3,6
				S575.5,46.4,575.5,49z M543.8,49c0,2.3,0.3,4.5,1,6.5c0.7,2,1.6,3.8,2.9,5.3c1.3,1.5,2.8,2.7,4.6,3.6c1.8,0.9,3.9,1.4,6.2,1.4
				s4.4-0.5,6.2-1.4c1.8-0.9,3.4-2.1,4.6-3.6c1.3-1.5,2.2-3.3,2.9-5.3s1-4.2,1-6.5c0-2.3-0.3-4.5-1-6.5s-1.6-3.8-2.9-5.3
				c-1.3-1.5-2.8-2.7-4.6-3.6c-1.8-0.9-3.9-1.4-6.2-1.4s-4.4,0.5-6.2,1.4c-1.8,0.9-3.4,2.1-4.6,3.6c-1.3,1.5-2.2,3.3-2.9,5.3
				C544.1,44.5,543.8,46.7,543.8,49z"/>
			<path fill="#1AB209" d="M580.2,31.2h2.8l22.5,32.8h0.1V31.2h2.2v35.7h-2.6l-22.7-33h-0.1v33h-2.2V31.2z"/>
			<path fill="#1AB209" d="M637.4,41.4c-0.1-1.5-0.4-2.9-1-4c-0.6-1.1-1.4-2.1-2.4-2.8s-2.2-1.3-3.6-1.7c-1.4-0.4-2.9-0.6-4.5-0.6
				c-1,0-2.1,0.1-3.2,0.4c-1.2,0.2-2.2,0.6-3.2,1.2c-1,0.6-1.8,1.4-2.4,2.4c-0.6,1-1,2.2-1,3.7c0,1.4,0.3,2.6,1,3.5
				c0.7,0.9,1.6,1.6,2.8,2.2c1.1,0.5,2.4,1,3.9,1.3c1.5,0.3,2.9,0.6,4.4,1c1.5,0.3,3,0.7,4.5,1.1c1.5,0.4,2.8,1,3.9,1.7
				c1.2,0.7,2.1,1.7,2.8,2.8c0.7,1.2,1,2.6,1,4.3c0,1.9-0.4,3.4-1.2,4.7c-0.8,1.3-1.8,2.3-3,3.1c-1.2,0.8-2.6,1.4-4,1.7
				c-1.5,0.3-2.9,0.5-4.3,0.5c-2.1,0-4.1-0.2-5.9-0.7s-3.4-1.2-4.8-2.2c-1.4-1-2.4-2.3-3.2-3.9c-0.8-1.6-1.2-3.5-1.1-5.8h2.2
				c-0.1,2,0.2,3.6,0.8,5c0.7,1.4,1.6,2.5,2.8,3.3c1.2,0.9,2.6,1.5,4.2,1.9c1.6,0.4,3.3,0.6,5,0.6c1.1,0,2.2-0.1,3.4-0.4
				c1.2-0.3,2.3-0.7,3.4-1.3c1-0.6,1.9-1.5,2.5-2.5c0.7-1,1-2.3,1-3.9c0-1.5-0.3-2.7-1-3.7s-1.6-1.7-2.8-2.3c-1.2-0.6-2.5-1-3.9-1.4
				c-1.5-0.3-2.9-0.7-4.5-1c-1.5-0.3-3-0.7-4.5-1c-1.5-0.4-2.8-0.9-3.9-1.6c-1.1-0.7-2-1.6-2.8-2.7c-0.7-1.1-1-2.5-1-4.2
				s0.4-3.2,1.1-4.4c0.7-1.2,1.6-2.2,2.8-3c1.2-0.7,2.4-1.3,3.9-1.7c1.4-0.3,2.8-0.5,4.2-0.5c1.9,0,3.6,0.2,5.2,0.6s3,1.1,4.2,2
				c1.2,0.9,2.2,2,2.9,3.4c0.7,1.4,1.1,3.1,1.2,5H637.4z"/>
		</g>
	</g>
	<g id="Layer_17">
	</g>
</g>
<g id="Breakfast">
	<g id="Layer_20">
	</g>
	<g id="Layer_21">
	</g>
</g>
<g id="Layer_24">
</g>
<g id="Layer_22">
</g>
<g id="Layer_23">
</g>
<g id="Layer_2" display="none">
</g>
<g id="guides_landing" display="none">
</g>
</svg>
